<?xml version="1.0" encoding="UTF-8" standalone="no"?><svg xmlns="http://www.w3.org/2000/svg" xmlns:xlink="http://www.w3.org/1999/xlink" contentScriptType="application/ecmascript" contentStyleType="text/css" height="929px" preserveAspectRatio="none" style="width:816px;height:929px;" version="1.1" viewBox="0 0 816 929" width="816px" zoomAndPan="magnify"><defs><filter height="300%" id="f82gttthoxxvg" width="300%" x="-1" y="-1"><feGaussianBlur result="blurOut" stdDeviation="2.0"/><feColorMatrix in="blurOut" result="blurOut2" type="matrix" values="0 0 0 0 0 0 0 0 0 0 0 0 0 0 0 0 0 0 .4 0"/><feOffset dx="4.0" dy="4.0" in="blurOut2" result="blurOut3"/><feBlend in="SourceGraphic" in2="blurOut3" mode="normal"/></filter></defs><g><!--MD5=[5a92d5876f94b4ff76f86f9a4aa743aa]
class AntennaHardwareHealthEvaluator--><rect fill="#FEFECE" filter="url(#f82gttthoxxvg)" height="60.8047" id="AntennaHardwareHealthEvaluator" style="stroke: #A80036; stroke-width: 1.5;" width="245" x="6" y="602"/><ellipse cx="21" cy="618" fill="#ADD1B2" rx="11" ry="11" style="stroke: #A80036; stroke-width: 1.0;"/><path d="M23.9688,623.6406 Q23.3906,623.9375 22.75,624.0781 Q22.1094,624.2344 21.4063,624.2344 Q18.9063,624.2344 17.5781,622.5938 Q16.2656,620.9375 16.2656,617.8125 Q16.2656,614.6875 17.5781,613.0313 Q18.9063,611.375 21.4063,611.375 Q22.1094,611.375 22.75,611.5313 Q23.4063,611.6875 23.9688,611.9844 L23.9688,614.7031 Q23.3438,614.125 22.75,613.8594 Q22.1563,613.5781 21.5313,613.5781 Q20.1875,613.5781 19.5,614.6563 Q18.8125,615.7188 18.8125,617.8125 Q18.8125,619.9063 19.5,620.9844 Q20.1875,622.0469 21.5313,622.0469 Q22.1563,622.0469 22.75,621.7813 Q23.3438,621.5 23.9688,620.9219 L23.9688,623.6406 Z "/><text fill="#000000" font-family="sans-serif" font-size="12" lengthAdjust="spacingAndGlyphs" textLength="213" x="35" y="622.1543">AntennaHardwareHealthEvaluator</text><line style="stroke: #A80036; stroke-width: 1.5;" x1="7" x2="250" y1="634" y2="634"/><line style="stroke: #A80036; stroke-width: 1.5;" x1="7" x2="250" y1="642" y2="642"/><ellipse cx="17" cy="653" fill="#84BE84" rx="3" ry="3" style="stroke: #038048; stroke-width: 1.0;"/><text fill="#000000" font-family="sans-serif" font-size="11" lengthAdjust="spacingAndGlyphs" textLength="97" x="26" y="656.2104">evaluate_health()</text><!--MD5=[ab5bc5139f139bb2c935159ded8126dc]
class AntennaApiuProxy--><rect fill="#FEFECE" filter="url(#f82gttthoxxvg)" height="278.4844" id="AntennaApiuProxy" style="stroke: #A80036; stroke-width: 1.5;" width="159" x="260" y="8"/><ellipse cx="281.3" cy="24" fill="#ADD1B2" rx="11" ry="11" style="stroke: #A80036; stroke-width: 1.0;"/><path d="M284.2688,29.6406 Q283.6906,29.9375 283.05,30.0781 Q282.4094,30.2344 281.7063,30.2344 Q279.2063,30.2344 277.8781,28.5938 Q276.5656,26.9375 276.5656,23.8125 Q276.5656,20.6875 277.8781,19.0313 Q279.2063,17.375 281.7063,17.375 Q282.4094,17.375 283.05,17.5313 Q283.7063,17.6875 284.2688,17.9844 L284.2688,20.7031 Q283.6438,20.125 283.05,19.8594 Q282.4563,19.5781 281.8313,19.5781 Q280.4875,19.5781 279.8,20.6563 Q279.1125,21.7188 279.1125,23.8125 Q279.1125,25.9063 279.8,26.9844 Q280.4875,28.0469 281.8313,28.0469 Q282.4563,28.0469 283.05,27.7813 Q283.6438,27.5 284.2688,26.9219 L284.2688,29.6406 Z "/><text fill="#000000" font-family="sans-serif" font-size="12" lengthAdjust="spacingAndGlyphs" textLength="113" x="296.7" y="28.1543">AntennaApiuProxy</text><line style="stroke: #A80036; stroke-width: 1.5;" x1="261" x2="418" y1="40" y2="40"/><rect fill="none" height="6" style="stroke: #C82930; stroke-width: 1.0;" width="6" x="268" y="48"/><text fill="#000000" font-family="sans-serif" font-size="11" lengthAdjust="spacingAndGlyphs" textLength="31" x="280" y="54.2104">_fqdn</text><rect fill="none" height="6" style="stroke: #C82930; stroke-width: 1.0;" width="6" x="268" y="60.8047"/><text fill="#000000" font-family="sans-serif" font-size="11" lengthAdjust="spacingAndGlyphs" textLength="30" x="280" y="67.0151">_apiu</text><rect fill="none" height="6" style="stroke: #C82930; stroke-width: 1.0;" width="6" x="268" y="73.6094"/><text fill="#000000" font-family="sans-serif" font-size="11" lengthAdjust="spacingAndGlyphs" textLength="110" x="280" y="79.8198">_logical_antenna_id</text><rect fill="none" height="6" style="stroke: #C82930; stroke-width: 1.0;" width="6" x="268" y="86.4141"/><text fill="#000000" font-family="sans-serif" font-size="11" lengthAdjust="spacingAndGlyphs" textLength="42" x="280" y="92.6245">_logger</text><rect fill="none" height="6" style="stroke: #C82930; stroke-width: 1.0;" width="6" x="268" y="99.2188"/><text fill="#000000" font-family="sans-serif" font-size="11" lengthAdjust="spacingAndGlyphs" textLength="79" x="280" y="105.4292">_power_mode</text><rect fill="none" height="6" style="stroke: #C82930; stroke-width: 1.0;" width="6" x="268" y="112.0234"/><text fill="#000000" font-family="sans-serif" font-size="11" lengthAdjust="spacingAndGlyphs" textLength="92" x="280" y="118.2339">_power_callback</text><rect fill="none" height="6" style="stroke: #C82930; stroke-width: 1.0;" width="6" x="268" y="124.8281"/><text fill="#000000" font-family="sans-serif" font-size="11" lengthAdjust="spacingAndGlyphs" textLength="116" x="280" y="131.0386">_apiu_event_handler</text><line style="stroke: #A80036; stroke-width: 1.5;" x1="261" x2="418" y1="137.6328" y2="137.6328"/><ellipse cx="271" cy="148.6328" fill="#84BE84" rx="3" ry="3" style="stroke: #038048; stroke-width: 1.0;"/><text fill="#000000" font-family="sans-serif" font-size="11" lengthAdjust="spacingAndGlyphs" textLength="49" x="280" y="151.8433">__init__()</text><ellipse cx="271" cy="161.4375" fill="#84BE84" rx="3" ry="3" style="stroke: #038048; stroke-width: 1.0;"/><text fill="#000000" font-family="sans-serif" font-size="11" lengthAdjust="spacingAndGlyphs" textLength="52" x="280" y="164.6479">connect()</text><ellipse cx="271" cy="174.2422" fill="#84BE84" rx="3" ry="3" style="stroke: #038048; stroke-width: 1.0;"/><text fill="#000000" font-family="sans-serif" font-size="11" lengthAdjust="spacingAndGlyphs" textLength="22" x="280" y="177.4526">on()</text><ellipse cx="271" cy="187.0469" fill="#84BE84" rx="3" ry="3" style="stroke: #038048; stroke-width: 1.0;"/><text fill="#000000" font-family="sans-serif" font-size="11" lengthAdjust="spacingAndGlyphs" textLength="23" x="280" y="190.2573">off()</text><ellipse cx="271" cy="199.8516" fill="#84BE84" rx="3" ry="3" style="stroke: #038048; stroke-width: 1.0;"/><text fill="#000000" font-family="sans-serif" font-size="11" lengthAdjust="spacingAndGlyphs" textLength="81" x="280" y="203.062">power_mode()</text><ellipse cx="271" cy="212.6563" fill="#84BE84" rx="3" ry="3" style="stroke: #038048; stroke-width: 1.0;"/><text fill="#000000" font-family="sans-serif" font-size="11" lengthAdjust="spacingAndGlyphs" textLength="49" x="280" y="215.8667">current()</text><ellipse cx="271" cy="225.4609" fill="#84BE84" rx="3" ry="3" style="stroke: #038048; stroke-width: 1.0;"/><text fill="#000000" font-family="sans-serif" font-size="11" lengthAdjust="spacingAndGlyphs" textLength="49" x="280" y="228.6714">voltage()</text><ellipse cx="271" cy="238.2656" fill="#84BE84" rx="3" ry="3" style="stroke: #038048; stroke-width: 1.0;"/><text fill="#000000" font-family="sans-serif" font-size="11" lengthAdjust="spacingAndGlyphs" textLength="79" x="280" y="241.4761">temperature()</text><rect fill="#F24D5C" height="6" style="stroke: #C82930; stroke-width: 1.0;" width="6" x="268" y="248.0703"/><text fill="#000000" font-family="sans-serif" font-size="11" lengthAdjust="spacingAndGlyphs" textLength="133" x="280" y="254.2808">_apiu_power_changed()</text><rect fill="#F24D5C" height="6" style="stroke: #C82930; stroke-width: 1.0;" width="6" x="268" y="260.875"/><text fill="#000000" font-family="sans-serif" font-size="11" lengthAdjust="spacingAndGlyphs" textLength="119" x="280" y="267.0854">_read_power_mode()</text><rect fill="#F24D5C" height="6" style="stroke: #C82930; stroke-width: 1.0;" width="6" x="268" y="273.6797"/><text fill="#000000" font-family="sans-serif" font-size="11" lengthAdjust="spacingAndGlyphs" textLength="132" x="280" y="279.8901">_update_power_mode()</text><!--MD5=[83c0a1be8bb9da4f25e6156e2411f893]
class AntennaTileProxy--><rect fill="#FEFECE" filter="url(#f82gttthoxxvg)" height="124.8281" id="AntennaTileProxy" style="stroke: #A80036; stroke-width: 1.5;" width="139" x="454" y="84.5"/><ellipse cx="469" cy="100.5" fill="#ADD1B2" rx="11" ry="11" style="stroke: #A80036; stroke-width: 1.0;"/><path d="M471.9688,106.1406 Q471.3906,106.4375 470.75,106.5781 Q470.1094,106.7344 469.4063,106.7344 Q466.9063,106.7344 465.5781,105.0938 Q464.2656,103.4375 464.2656,100.3125 Q464.2656,97.1875 465.5781,95.5313 Q466.9063,93.875 469.4063,93.875 Q470.1094,93.875 470.75,94.0313 Q471.4063,94.1875 471.9688,94.4844 L471.9688,97.2031 Q471.3438,96.625 470.75,96.3594 Q470.1563,96.0781 469.5313,96.0781 Q468.1875,96.0781 467.5,97.1563 Q466.8125,98.2188 466.8125,100.3125 Q466.8125,102.4063 467.5,103.4844 Q468.1875,104.5469 469.5313,104.5469 Q470.1563,104.5469 470.75,104.2813 Q471.3438,104 471.9688,103.4219 L471.9688,106.1406 Z "/><text fill="#000000" font-family="sans-serif" font-size="12" lengthAdjust="spacingAndGlyphs" textLength="107" x="483" y="104.6543">AntennaTileProxy</text><line style="stroke: #A80036; stroke-width: 1.5;" x1="455" x2="592" y1="116.5" y2="116.5"/><rect fill="none" height="6" style="stroke: #C82930; stroke-width: 1.0;" width="6" x="462" y="124.5"/><text fill="#000000" font-family="sans-serif" font-size="11" lengthAdjust="spacingAndGlyphs" textLength="31" x="474" y="130.7104">_fqdn</text><rect fill="none" height="6" style="stroke: #C82930; stroke-width: 1.0;" width="6" x="462" y="137.3047"/><text fill="#000000" font-family="sans-serif" font-size="11" lengthAdjust="spacingAndGlyphs" textLength="23" x="474" y="143.5151">_tile</text><rect fill="none" height="6" style="stroke: #C82930; stroke-width: 1.0;" width="6" x="462" y="150.1094"/><text fill="#000000" font-family="sans-serif" font-size="11" lengthAdjust="spacingAndGlyphs" textLength="110" x="474" y="156.3198">_logical_antenna_id</text><rect fill="none" height="6" style="stroke: #C82930; stroke-width: 1.0;" width="6" x="462" y="162.9141"/><text fill="#000000" font-family="sans-serif" font-size="11" lengthAdjust="spacingAndGlyphs" textLength="42" x="474" y="169.1245">_logger</text><line style="stroke: #A80036; stroke-width: 1.5;" x1="455" x2="592" y1="175.7188" y2="175.7188"/><ellipse cx="465" cy="186.7188" fill="#84BE84" rx="3" ry="3" style="stroke: #038048; stroke-width: 1.0;"/><text fill="#000000" font-family="sans-serif" font-size="11" lengthAdjust="spacingAndGlyphs" textLength="49" x="474" y="189.9292">__init__()</text><ellipse cx="465" cy="199.5234" fill="#84BE84" rx="3" ry="3" style="stroke: #038048; stroke-width: 1.0;"/><text fill="#000000" font-family="sans-serif" font-size="11" lengthAdjust="spacingAndGlyphs" textLength="52" x="474" y="202.7339">connect()</text><!--MD5=[c97962b8fdcf4979d80d7bf584119773]
class MccsAntenna--><rect fill="#FEFECE" filter="url(#f82gttthoxxvg)" height="572.9922" id="MccsAntenna" style="stroke: #A80036; stroke-width: 1.5;" width="228" x="577.5" y="346"/><ellipse cx="645.25" cy="362" fill="#ADD1B2" rx="11" ry="11" style="stroke: #A80036; stroke-width: 1.0;"/><path d="M648.2188,367.6406 Q647.6406,367.9375 647,368.0781 Q646.3594,368.2344 645.6563,368.2344 Q643.1563,368.2344 641.8281,366.5938 Q640.5156,364.9375 640.5156,361.8125 Q640.5156,358.6875 641.8281,357.0313 Q643.1563,355.375 645.6563,355.375 Q646.3594,355.375 647,355.5313 Q647.6563,355.6875 648.2188,355.9844 L648.2188,358.7031 Q647.5938,358.125 647,357.8594 Q646.4063,357.5781 645.7813,357.5781 Q644.4375,357.5781 643.75,358.6563 Q643.0625,359.7188 643.0625,361.8125 Q643.0625,363.9063 643.75,364.9844 Q644.4375,366.0469 645.7813,366.0469 Q646.4063,366.0469 647,365.7813 Q647.5938,365.5 648.2188,364.9219 L648.2188,367.6406 Z "/><text fill="#000000" font-family="sans-serif" font-size="12" lengthAdjust="spacingAndGlyphs" textLength="84" x="665.75" y="366.1543">MccsAntenna</text><line style="stroke: #A80036; stroke-width: 1.5;" x1="578.5" x2="804.5" y1="378" y2="378"/><rect fill="none" height="6" style="stroke: #C82930; stroke-width: 1.0;" width="6" x="585.5" y="386"/><text fill="#000000" font-family="sans-serif" font-size="11" lengthAdjust="spacingAndGlyphs" textLength="43" x="597.5" y="392.2104">_thread</text><rect fill="none" height="6" style="stroke: #C82930; stroke-width: 1.0;" width="6" x="585.5" y="398.8047"/><text fill="#000000" font-family="sans-serif" font-size="11" lengthAdjust="spacingAndGlyphs" textLength="28" x="597.5" y="405.0151">_lock</text><rect fill="none" height="6" style="stroke: #C82930; stroke-width: 1.0;" width="6" x="585.5" y="411.6094"/><text fill="#000000" font-family="sans-serif" font-size="11" lengthAdjust="spacingAndGlyphs" textLength="55" x="597.5" y="417.8198">_interrupt</text><rect fill="none" height="6" style="stroke: #C82930; stroke-width: 1.0;" width="6" x="585.5" y="424.4141"/><text fill="#000000" font-family="sans-serif" font-size="11" lengthAdjust="spacingAndGlyphs" textLength="76" x="597.5" y="430.6245">_health_state</text><line style="stroke: #A80036; stroke-width: 1.5;" x1="578.5" x2="804.5" y1="437.2188" y2="437.2188"/><ellipse cx="588.5" cy="448.2188" fill="#84BE84" rx="3" ry="3" style="stroke: #038048; stroke-width: 1.0;"/><text fill="#000000" font-family="sans-serif" font-size="11" lengthAdjust="spacingAndGlyphs" textLength="134" x="597.5" y="451.4292">init_command_objects()</text><ellipse cx="588.5" cy="461.0234" fill="#84BE84" rx="3" ry="3" style="stroke: #038048; stroke-width: 1.0;"/><text fill="#000000" font-family="sans-serif" font-size="11" lengthAdjust="spacingAndGlyphs" textLength="49" x="597.5" y="464.2339">__init__()</text><ellipse cx="588.5" cy="473.8281" fill="#84BE84" rx="3" ry="3" style="stroke: #038048; stroke-width: 1.0;"/><text fill="#000000" font-family="sans-serif" font-size="11" lengthAdjust="spacingAndGlyphs" textLength="22" x="597.5" y="477.0386">do()</text><rect fill="#F24D5C" height="6" style="stroke: #C82930; stroke-width: 1.0;" width="6" x="585.5" y="483.6328"/><text fill="#000000" font-family="sans-serif" font-size="11" lengthAdjust="spacingAndGlyphs" textLength="135" x="597.5" y="489.8433">_initialise_connections()</text><rect fill="#F24D5C" height="6" style="stroke: #C82930; stroke-width: 1.0;" width="6" x="585.5" y="496.4375"/><text fill="#000000" font-family="sans-serif" font-size="11" lengthAdjust="spacingAndGlyphs" textLength="202" x="597.5" y="502.6479">_initialise_hardware_management()</text><rect fill="#F24D5C" height="6" style="stroke: #C82930; stroke-width: 1.0;" width="6" x="585.5" y="509.2422"/><text fill="#000000" font-family="sans-serif" font-size="11" lengthAdjust="spacingAndGlyphs" textLength="169" x="597.5" y="515.4526">_initialise_health_monitoring()</text><ellipse cx="588.5" cy="525.0469" fill="#84BE84" rx="3" ry="3" style="stroke: #038048; stroke-width: 1.0;"/><text fill="#000000" font-family="sans-serif" font-size="11" lengthAdjust="spacingAndGlyphs" textLength="57" x="597.5" y="528.2573">interrupt()</text><ellipse cx="588.5" cy="537.8516" fill="#84BE84" rx="3" ry="3" style="stroke: #038048; stroke-width: 1.0;"/><text fill="#000000" font-family="sans-serif" font-size="11" lengthAdjust="spacingAndGlyphs" textLength="69" x="597.5" y="541.062">succeeded()</text><ellipse cx="588.5" cy="550.6563" fill="#84BE84" rx="3" ry="3" style="stroke: #038048; stroke-width: 1.0;"/><text fill="#000000" font-family="sans-serif" font-size="11" lengthAdjust="spacingAndGlyphs" textLength="85" x="597.5" y="553.8667">delete_device()</text><ellipse cx="588.5" cy="563.4609" fill="#84BE84" rx="3" ry="3" style="stroke: #038048; stroke-width: 1.0;"/><text fill="#000000" font-family="sans-serif" font-size="11" lengthAdjust="spacingAndGlyphs" textLength="97" x="597.5" y="566.6714">health_changed()</text><ellipse cx="588.5" cy="576.2656" fill="#84BE84" rx="3" ry="3" style="stroke: #038048; stroke-width: 1.0;"/><text fill="#000000" font-family="sans-serif" font-size="11" lengthAdjust="spacingAndGlyphs" textLength="97" x="597.5" y="579.4761">power_changed()</text><ellipse cx="588.5" cy="589.0703" fill="#84BE84" rx="3" ry="3" style="stroke: #038048; stroke-width: 1.0;"/><text fill="#000000" font-family="sans-serif" font-size="11" lengthAdjust="spacingAndGlyphs" textLength="97" x="597.5" y="592.2808">simulationMode()</text><ellipse cx="588.5" cy="601.875" fill="#84BE84" rx="3" ry="3" style="stroke: #038048; stroke-width: 1.0;"/><text fill="#000000" font-family="sans-serif" font-size="11" lengthAdjust="spacingAndGlyphs" textLength="64" x="597.5" y="605.0854">antennaId()</text><ellipse cx="588.5" cy="614.6797" fill="#84BE84" rx="3" ry="3" style="stroke: #038048; stroke-width: 1.0;"/><text fill="#000000" font-family="sans-serif" font-size="11" lengthAdjust="spacingAndGlyphs" textLength="32" x="597.5" y="617.8901">gain()</text><ellipse cx="588.5" cy="627.4844" fill="#84BE84" rx="3" ry="3" style="stroke: #038048; stroke-width: 1.0;"/><text fill="#000000" font-family="sans-serif" font-size="11" lengthAdjust="spacingAndGlyphs" textLength="31" x="597.5" y="630.6948">rms()</text><ellipse cx="588.5" cy="640.2891" fill="#84BE84" rx="3" ry="3" style="stroke: #038048; stroke-width: 1.0;"/><text fill="#000000" font-family="sans-serif" font-size="11" lengthAdjust="spacingAndGlyphs" textLength="49" x="597.5" y="643.4995">voltage()</text><ellipse cx="588.5" cy="653.0938" fill="#84BE84" rx="3" ry="3" style="stroke: #038048; stroke-width: 1.0;"/><text fill="#000000" font-family="sans-serif" font-size="11" lengthAdjust="spacingAndGlyphs" textLength="49" x="597.5" y="656.3042">current()</text><ellipse cx="588.5" cy="665.8984" fill="#84BE84" rx="3" ry="3" style="stroke: #038048; stroke-width: 1.0;"/><text fill="#000000" font-family="sans-serif" font-size="11" lengthAdjust="spacingAndGlyphs" textLength="79" x="597.5" y="669.1089">temperature()</text><ellipse cx="588.5" cy="678.7031" fill="#84BE84" rx="3" ry="3" style="stroke: #038048; stroke-width: 1.0;"/><text fill="#000000" font-family="sans-serif" font-size="11" lengthAdjust="spacingAndGlyphs" textLength="114" x="597.5" y="681.9136">xPolarisationFaulty()</text><ellipse cx="588.5" cy="691.5078" fill="#84BE84" rx="3" ry="3" style="stroke: #038048; stroke-width: 1.0;"/><text fill="#000000" font-family="sans-serif" font-size="11" lengthAdjust="spacingAndGlyphs" textLength="114" x="597.5" y="694.7183">yPolarisationFaulty()</text><ellipse cx="588.5" cy="704.3125" fill="#84BE84" rx="3" ry="3" style="stroke: #038048; stroke-width: 1.0;"/><text fill="#000000" font-family="sans-serif" font-size="11" lengthAdjust="spacingAndGlyphs" textLength="116" x="597.5" y="707.5229">fieldNodeLongitude()</text><ellipse cx="588.5" cy="717.1172" fill="#84BE84" rx="3" ry="3" style="stroke: #038048; stroke-width: 1.0;"/><text fill="#000000" font-family="sans-serif" font-size="11" lengthAdjust="spacingAndGlyphs" textLength="106" x="597.5" y="720.3276">fieldNodeLatitude()</text><ellipse cx="588.5" cy="729.9219" fill="#84BE84" rx="3" ry="3" style="stroke: #038048; stroke-width: 1.0;"/><text fill="#000000" font-family="sans-serif" font-size="11" lengthAdjust="spacingAndGlyphs" textLength="50" x="597.5" y="733.1323">altitude()</text><ellipse cx="588.5" cy="742.7266" fill="#84BE84" rx="3" ry="3" style="stroke: #038048; stroke-width: 1.0;"/><text fill="#000000" font-family="sans-serif" font-size="11" lengthAdjust="spacingAndGlyphs" textLength="91" x="597.5" y="745.937">xDisplacement()</text><ellipse cx="588.5" cy="755.5313" fill="#84BE84" rx="3" ry="3" style="stroke: #038048; stroke-width: 1.0;"/><text fill="#000000" font-family="sans-serif" font-size="11" lengthAdjust="spacingAndGlyphs" textLength="91" x="597.5" y="758.7417">yDisplacement()</text><ellipse cx="588.5" cy="768.3359" fill="#84BE84" rx="3" ry="3" style="stroke: #038048; stroke-width: 1.0;"/><text fill="#000000" font-family="sans-serif" font-size="11" lengthAdjust="spacingAndGlyphs" textLength="161" x="597.5" y="771.5464">timestampOfLastSpectrum()</text><ellipse cx="588.5" cy="781.1406" fill="#84BE84" rx="3" ry="3" style="stroke: #038048; stroke-width: 1.0;"/><text fill="#000000" font-family="sans-serif" font-size="11" lengthAdjust="spacingAndGlyphs" textLength="100" x="597.5" y="784.3511">logicalAntennaId()</text><ellipse cx="588.5" cy="793.9453" fill="#84BE84" rx="3" ry="3" style="stroke: #038048; stroke-width: 1.0;"/><text fill="#000000" font-family="sans-serif" font-size="11" lengthAdjust="spacingAndGlyphs" textLength="157" x="597.5" y="797.1558">xPolarisationScalingFactor()</text><ellipse cx="588.5" cy="806.75" fill="#84BE84" rx="3" ry="3" style="stroke: #038048; stroke-width: 1.0;"/><text fill="#000000" font-family="sans-serif" font-size="11" lengthAdjust="spacingAndGlyphs" textLength="157" x="597.5" y="809.9604">yPolarisationScalingFactor()</text><ellipse cx="588.5" cy="819.5547" fill="#84BE84" rx="3" ry="3" style="stroke: #038048; stroke-width: 1.0;"/><text fill="#000000" font-family="sans-serif" font-size="11" lengthAdjust="spacingAndGlyphs" textLength="127" x="597.5" y="822.7651">calibrationCoefficient()</text><ellipse cx="588.5" cy="832.3594" fill="#84BE84" rx="3" ry="3" style="stroke: #038048; stroke-width: 1.0;"/><text fill="#000000" font-family="sans-serif" font-size="11" lengthAdjust="spacingAndGlyphs" textLength="113" x="597.5" y="835.5698">pointingCoefficient()</text><ellipse cx="588.5" cy="845.1641" fill="#84BE84" rx="3" ry="3" style="stroke: #038048; stroke-width: 1.0;"/><text fill="#000000" font-family="sans-serif" font-size="11" lengthAdjust="spacingAndGlyphs" textLength="69" x="597.5" y="848.3745">spectrumX()</text><ellipse cx="588.5" cy="857.9688" fill="#84BE84" rx="3" ry="3" style="stroke: #038048; stroke-width: 1.0;"/><text fill="#000000" font-family="sans-serif" font-size="11" lengthAdjust="spacingAndGlyphs" textLength="69" x="597.5" y="861.1792">spectrumY()</text><ellipse cx="588.5" cy="870.7734" fill="#84BE84" rx="3" ry="3" style="stroke: #038048; stroke-width: 1.0;"/><text fill="#000000" font-family="sans-serif" font-size="11" lengthAdjust="spacingAndGlyphs" textLength="53" x="597.5" y="873.9839">position()</text><ellipse cx="588.5" cy="883.5781" fill="#84BE84" rx="3" ry="3" style="stroke: #038048; stroke-width: 1.0;"/><text fill="#000000" font-family="sans-serif" font-size="11" lengthAdjust="spacingAndGlyphs" textLength="45" x="597.5" y="886.7886">delays()</text><ellipse cx="588.5" cy="896.3828" fill="#84BE84" rx="3" ry="3" style="stroke: #038048; stroke-width: 1.0;"/><text fill="#000000" font-family="sans-serif" font-size="11" lengthAdjust="spacingAndGlyphs" textLength="70" x="597.5" y="899.5933">delayRates()</text><ellipse cx="588.5" cy="909.1875" fill="#84BE84" rx="3" ry="3" style="stroke: #038048; stroke-width: 1.0;"/><text fill="#000000" font-family="sans-serif" font-size="11" lengthAdjust="spacingAndGlyphs" textLength="124" x="597.5" y="912.3979">bandpassCoefficient()</text><!--MD5=[38ec8ebb384a5163003b04e2a5da297f]
class HardwareHealthEvaluator--><rect fill="#FEFECE" filter="url(#f82gttthoxxvg)" height="48" id="HardwareHealthEvaluator" style="stroke: #A80036; stroke-width: 1.5;" width="192" x="32.5" y="123"/><ellipse cx="47.5" cy="139" fill="#ADD1B2" rx="11" ry="11" style="stroke: #A80036; stroke-width: 1.0;"/><path d="M50.4688,144.6406 Q49.8906,144.9375 49.25,145.0781 Q48.6094,145.2344 47.9063,145.2344 Q45.4063,145.2344 44.0781,143.5938 Q42.7656,141.9375 42.7656,138.8125 Q42.7656,135.6875 44.0781,134.0313 Q45.4063,132.375 47.9063,132.375 Q48.6094,132.375 49.25,132.5313 Q49.9063,132.6875 50.4688,132.9844 L50.4688,135.7031 Q49.8438,135.125 49.25,134.8594 Q48.6563,134.5781 48.0313,134.5781 Q46.6875,134.5781 46,135.6563 Q45.3125,136.7188 45.3125,138.8125 Q45.3125,140.9063 46,141.9844 Q46.6875,143.0469 48.0313,143.0469 Q48.6563,143.0469 49.25,142.7813 Q49.8438,142.5 50.4688,141.9219 L50.4688,144.6406 Z "/><text fill="#000000" font-family="sans-serif" font-size="12" lengthAdjust="spacingAndGlyphs" textLength="160" x="61.5" y="143.1543">HardwareHealthEvaluator</text><line style="stroke: #A80036; stroke-width: 1.5;" x1="33.5" x2="223.5" y1="155" y2="155"/><line style="stroke: #A80036; stroke-width: 1.5;" x1="33.5" x2="223.5" y1="163" y2="163"/><!--MD5=[4b247cd441d6776975beb1666a0cb733]
class SKABaseDevice--><rect fill="#FEFECE" filter="url(#f82gttthoxxvg)" height="48" id="SKABaseDevice" style="stroke: #A80036; stroke-width: 1.5;" width="127" x="628" y="123"/><ellipse cx="643" cy="139" fill="#ADD1B2" rx="11" ry="11" style="stroke: #A80036; stroke-width: 1.0;"/><path d="M645.9688,144.6406 Q645.3906,144.9375 644.75,145.0781 Q644.1094,145.2344 643.4063,145.2344 Q640.9063,145.2344 639.5781,143.5938 Q638.2656,141.9375 638.2656,138.8125 Q638.2656,135.6875 639.5781,134.0313 Q640.9063,132.375 643.4063,132.375 Q644.1094,132.375 644.75,132.5313 Q645.4063,132.6875 645.9688,132.9844 L645.9688,135.7031 Q645.3438,135.125 644.75,134.8594 Q644.1563,134.5781 643.5313,134.5781 Q642.1875,134.5781 641.5,135.6563 Q640.8125,136.7188 640.8125,138.8125 Q640.8125,140.9063 641.5,141.9844 Q642.1875,143.0469 643.5313,143.0469 Q644.1563,143.0469 644.75,142.7813 Q645.3438,142.5 645.9688,141.9219 L645.9688,144.6406 Z "/><text fill="#000000" font-family="sans-serif" font-size="12" lengthAdjust="spacingAndGlyphs" textLength="95" x="657" y="143.1543">SKABaseDevice</text><line style="stroke: #A80036; stroke-width: 1.5;" x1="629" x2="754" y1="155" y2="155"/><line style="stroke: #A80036; stroke-width: 1.5;" x1="629" x2="754" y1="163" y2="163"/><!--MD5=[d89768a1e0389d1bccd46001fb4b1342]
reverse link HardwareHealthEvaluator to AntennaHardwareHealthEvaluator--><path d="M128.5,191.2468 C128.5,288.4933 128.5,518.7812 128.5,601.9063 " fill="none" id="HardwareHealthEvaluator&lt;-AntennaHardwareHealthEvaluator" style="stroke: #A80036; stroke-width: 1.0;"/><polygon fill="none" points="121.5001,191.0761,128.5,171.076,135.5001,191.076,121.5001,191.0761" style="stroke: #A80036; stroke-width: 1.0;"/><!--MD5=[b52016b5360822c325a979c5c1e56d37]
reverse link SKABaseDevice to MccsAntenna--><path d="M691.5,191.11 C691.5,228.3585 691.5,285.1956 691.5,345.8141 " fill="none" id="SKABaseDevice&lt;-MccsAntenna" style="stroke: #A80036; stroke-width: 1.0;"/><polygon fill="none" points="684.5001,191.0761,691.5,171.076,698.5001,191.076,684.5001,191.0761" style="stroke: #A80036; stroke-width: 1.0;"/><!--MD5=[86f7fccc8107cb15f3d2c582da4ca9ad]
@startuml
class AntennaHardwareHealthEvaluator
AntennaHardwareHealthEvaluator : +evaluate_health()
class AntennaApiuProxy
AntennaApiuProxy : +__init__()
AntennaApiuProxy : +connect()
AntennaApiuProxy : +on()
AntennaApiuProxy : +off()
AntennaApiuProxy : +power_mode()
AntennaApiuProxy : +current()
AntennaApiuProxy : +voltage()
AntennaApiuProxy : +temperature()
AntennaApiuProxy : -_apiu_power_changed()
AntennaApiuProxy : -_read_power_mode()
AntennaApiuProxy : -_update_power_mode()
class AntennaTileProxy
AntennaTileProxy : +__init__()
AntennaTileProxy : +connect()
class MccsAntenna
MccsAntenna : +init_command_objects()
MccsAntenna : +__init__()
MccsAntenna : +do()
MccsAntenna : -_initialise_connections()
MccsAntenna : -_initialise_hardware_management()
MccsAntenna : -_initialise_health_monitoring()
MccsAntenna : +interrupt()
MccsAntenna : +succeeded()
MccsAntenna : +delete_device()
MccsAntenna : +health_changed()
MccsAntenna : +power_changed()
MccsAntenna : +simulationMode()
MccsAntenna : +antennaId()
MccsAntenna : +gain()
MccsAntenna : +rms()
MccsAntenna : +voltage()
MccsAntenna : +current()
MccsAntenna : +temperature()
MccsAntenna : +xPolarisationFaulty()
MccsAntenna : +yPolarisationFaulty()
MccsAntenna : +fieldNodeLongitude()
MccsAntenna : +fieldNodeLatitude()
MccsAntenna : +altitude()
MccsAntenna : +xDisplacement()
MccsAntenna : +yDisplacement()
MccsAntenna : +timestampOfLastSpectrum()
MccsAntenna : +logicalAntennaId()
MccsAntenna : +xPolarisationScalingFactor()
MccsAntenna : +yPolarisationScalingFactor()
MccsAntenna : +calibrationCoefficient()
MccsAntenna : +pointingCoefficient()
MccsAntenna : +spectrumX()
MccsAntenna : +spectrumY()
MccsAntenna : +position()
MccsAntenna : +delays()
MccsAntenna : +delayRates()
MccsAntenna : +bandpassCoefficient()
AntennaApiuProxy : -_fqdn
AntennaApiuProxy : -_apiu
AntennaApiuProxy : -_logical_antenna_id
AntennaApiuProxy : -_logger
AntennaApiuProxy : -_power_mode
AntennaApiuProxy : -_power_callback
AntennaApiuProxy : -_apiu_event_handler
AntennaTileProxy : -_fqdn
AntennaTileProxy : -_tile
AntennaTileProxy : -_logical_antenna_id
AntennaTileProxy : -_logger
MccsAntenna : -_thread
MccsAntenna : -_lock
MccsAntenna : -_interrupt
MccsAntenna : -_health_state

HardwareHealthEvaluator <|- - AntennaHardwareHealthEvaluator
SKABaseDevice <|- - MccsAntenna
@enduml

PlantUML version 1.2020.06(Sun Apr 05 12:38:32 GMT 2020)
(GPL source distribution)
Java Runtime: OpenJDK Runtime Environment
JVM: OpenJDK 64-Bit Server VM
Java Version: 14-ea+33
Operating System: Linux
Default Encoding: UTF-8
Language: en
Country: US
--></g></svg>