<?xml version="1.0" encoding="UTF-8" standalone="no"?><svg xmlns="http://www.w3.org/2000/svg" xmlns:xlink="http://www.w3.org/1999/xlink" contentScriptType="application/ecmascript" contentStyleType="text/css" height="770px" preserveAspectRatio="none" style="width:735px;height:770px;" version="1.1" viewBox="0 0 735 770" width="735px" zoomAndPan="magnify"><defs><filter height="300%" id="f1595c54jmsebs" width="300%" x="-1" y="-1"><feGaussianBlur result="blurOut" stdDeviation="2.0"/><feColorMatrix in="blurOut" result="blurOut2" type="matrix" values="0 0 0 0 0 0 0 0 0 0 0 0 0 0 0 0 0 0 .4 0"/><feOffset dx="4.0" dy="4.0" in="blurOut2" result="blurOut3"/><feBlend in="SourceGraphic" in2="blurOut3" mode="normal"/></filter></defs><g><!--MD5=[8400e2100584e5427fe94676cd5e1cd0]
class APIUHardwareHealthEvaluator--><rect fill="#FEFECE" filter="url(#f1595c54jmsebs)" height="48" id="APIUHardwareHealthEvaluator" style="stroke: #A80036; stroke-width: 1.5;" width="220" x="132" y="711"/><ellipse cx="147" cy="727" fill="#ADD1B2" rx="11" ry="11" style="stroke: #A80036; stroke-width: 1.0;"/><path d="M149.9688,732.6406 Q149.3906,732.9375 148.75,733.0781 Q148.1094,733.2344 147.4063,733.2344 Q144.9063,733.2344 143.5781,731.5938 Q142.2656,729.9375 142.2656,726.8125 Q142.2656,723.6875 143.5781,722.0313 Q144.9063,720.375 147.4063,720.375 Q148.1094,720.375 148.75,720.5313 Q149.4063,720.6875 149.9688,720.9844 L149.9688,723.7031 Q149.3438,723.125 148.75,722.8594 Q148.1563,722.5781 147.5313,722.5781 Q146.1875,722.5781 145.5,723.6563 Q144.8125,724.7188 144.8125,726.8125 Q144.8125,728.9063 145.5,729.9844 Q146.1875,731.0469 147.5313,731.0469 Q148.1563,731.0469 148.75,730.7813 Q149.3438,730.5 149.9688,729.9219 L149.9688,732.6406 Z "/><text fill="#000000" font-family="sans-serif" font-size="12" lengthAdjust="spacingAndGlyphs" textLength="188" x="161" y="731.1543">APIUHardwareHealthEvaluator</text><line style="stroke: #A80036; stroke-width: 1.5;" x1="133" x2="351" y1="743" y2="743"/><line style="stroke: #A80036; stroke-width: 1.5;" x1="133" x2="351" y1="751" y2="751"/><!--MD5=[7d182369dd5b27486e0146cdc1f90aad]
class APIUHardwareFactory--><rect fill="#FEFECE" filter="url(#f1595c54jmsebs)" height="329.7031" id="APIUHardwareFactory" style="stroke: #A80036; stroke-width: 1.5;" width="228" x="6" y="218.5"/><ellipse cx="48.9" cy="234.5" fill="#ADD1B2" rx="11" ry="11" style="stroke: #A80036; stroke-width: 1.0;"/><path d="M51.8688,240.1406 Q51.2906,240.4375 50.65,240.5781 Q50.0094,240.7344 49.3063,240.7344 Q46.8063,240.7344 45.4781,239.0938 Q44.1656,237.4375 44.1656,234.3125 Q44.1656,231.1875 45.4781,229.5313 Q46.8063,227.875 49.3063,227.875 Q50.0094,227.875 50.65,228.0313 Q51.3063,228.1875 51.8688,228.4844 L51.8688,231.2031 Q51.2438,230.625 50.65,230.3594 Q50.0563,230.0781 49.4313,230.0781 Q48.0875,230.0781 47.4,231.1563 Q46.7125,232.2188 46.7125,234.3125 Q46.7125,236.4063 47.4,237.4844 Q48.0875,238.5469 49.4313,238.5469 Q50.0563,238.5469 50.65,238.2813 Q51.2438,238 51.8688,237.4219 L51.8688,240.1406 Z "/><text fill="#000000" font-family="sans-serif" font-size="12" lengthAdjust="spacingAndGlyphs" textLength="134" x="69.1" y="238.6543">APIUHardwareFactory</text><line style="stroke: #A80036; stroke-width: 1.5;" x1="7" x2="233" y1="250.5" y2="250.5"/><rect fill="none" height="6" style="stroke: #C82930; stroke-width: 1.0;" width="6" x="14" y="258.5"/><text fill="#000000" font-family="sans-serif" font-size="11" lengthAdjust="spacingAndGlyphs" textLength="89" x="26" y="264.7104">_antenna_count</text><rect fill="none" height="6" style="stroke: #C82930; stroke-width: 1.0;" width="6" x="14" y="271.3047"/><text fill="#000000" font-family="sans-serif" font-size="11" lengthAdjust="spacingAndGlyphs" textLength="104" x="26" y="277.5151">_are_antennas_on</text><rect fill="none" height="6" style="stroke: #C82930; stroke-width: 1.0;" width="6" x="14" y="284.1094"/><text fill="#000000" font-family="sans-serif" font-size="11" lengthAdjust="spacingAndGlyphs" textLength="202" x="26" y="290.3198">_are_antennas_on_change_callback</text><line style="stroke: #A80036; stroke-width: 1.5;" x1="7" x2="233" y1="296.9141" y2="296.9141"/><ellipse cx="17" cy="307.9141" fill="#84BE84" rx="3" ry="3" style="stroke: #038048; stroke-width: 1.0;"/><text fill="#000000" font-family="sans-serif" font-size="11" lengthAdjust="spacingAndGlyphs" textLength="49" x="26" y="311.1245">__init__()</text><rect fill="#F24D5C" height="6" style="stroke: #C82930; stroke-width: 1.0;" width="6" x="14" y="317.7188"/><text fill="#000000" font-family="sans-serif" font-size="11" lengthAdjust="spacingAndGlyphs" textLength="147" x="26" y="323.9292">_create_static_simulator()</text><ellipse cx="17" cy="333.5234" fill="#84BE84" rx="3" ry="3" style="stroke: #038048; stroke-width: 1.0;"/><text fill="#000000" font-family="sans-serif" font-size="11" lengthAdjust="spacingAndGlyphs" textLength="52" x="26" y="336.7339">connect()</text><ellipse cx="17" cy="346.3281" fill="#84BE84" rx="3" ry="3" style="stroke: #038048; stroke-width: 1.0;"/><text fill="#000000" font-family="sans-serif" font-size="11" lengthAdjust="spacingAndGlyphs" textLength="49" x="26" y="349.5386">voltage()</text><ellipse cx="17" cy="359.1328" fill="#84BE84" rx="3" ry="3" style="stroke: #038048; stroke-width: 1.0;"/><text fill="#000000" font-family="sans-serif" font-size="11" lengthAdjust="spacingAndGlyphs" textLength="49" x="26" y="362.3433">current()</text><ellipse cx="17" cy="371.9375" fill="#84BE84" rx="3" ry="3" style="stroke: #038048; stroke-width: 1.0;"/><text fill="#000000" font-family="sans-serif" font-size="11" lengthAdjust="spacingAndGlyphs" textLength="79" x="26" y="375.1479">temperature()</text><ellipse cx="17" cy="384.7422" fill="#84BE84" rx="3" ry="3" style="stroke: #038048; stroke-width: 1.0;"/><text fill="#000000" font-family="sans-serif" font-size="11" lengthAdjust="spacingAndGlyphs" textLength="56" x="26" y="387.9526">humidity()</text><ellipse cx="17" cy="397.5469" fill="#84BE84" rx="3" ry="3" style="stroke: #038048; stroke-width: 1.0;"/><text fill="#000000" font-family="sans-serif" font-size="11" lengthAdjust="spacingAndGlyphs" textLength="91" x="26" y="400.7573">antenna_count()</text><ellipse cx="17" cy="410.3516" fill="#84BE84" rx="3" ry="3" style="stroke: #038048; stroke-width: 1.0;"/><text fill="#000000" font-family="sans-serif" font-size="11" lengthAdjust="spacingAndGlyphs" textLength="104" x="26" y="413.562">turn_off_antenna()</text><ellipse cx="17" cy="423.1563" fill="#84BE84" rx="3" ry="3" style="stroke: #038048; stroke-width: 1.0;"/><text fill="#000000" font-family="sans-serif" font-size="11" lengthAdjust="spacingAndGlyphs" textLength="103" x="26" y="426.3667">turn_on_antenna()</text><ellipse cx="17" cy="435.9609" fill="#84BE84" rx="3" ry="3" style="stroke: #038048; stroke-width: 1.0;"/><text fill="#000000" font-family="sans-serif" font-size="11" lengthAdjust="spacingAndGlyphs" textLength="111" x="26" y="439.1714">turn_off_antennas()</text><ellipse cx="17" cy="448.7656" fill="#84BE84" rx="3" ry="3" style="stroke: #038048; stroke-width: 1.0;"/><text fill="#000000" font-family="sans-serif" font-size="11" lengthAdjust="spacingAndGlyphs" textLength="110" x="26" y="451.9761">turn_on_antennas()</text><ellipse cx="17" cy="461.5703" fill="#84BE84" rx="3" ry="3" style="stroke: #038048; stroke-width: 1.0;"/><text fill="#000000" font-family="sans-serif" font-size="11" lengthAdjust="spacingAndGlyphs" textLength="106" x="26" y="464.7808">are_antennas_on()</text><ellipse cx="17" cy="474.375" fill="#84BE84" rx="3" ry="3" style="stroke: #038048; stroke-width: 1.0;"/><text fill="#000000" font-family="sans-serif" font-size="11" lengthAdjust="spacingAndGlyphs" textLength="90" x="26" y="477.5854">is_antenna_on()</text><rect fill="#F24D5C" height="6" style="stroke: #C82930; stroke-width: 1.0;" width="6" x="14" y="484.1797"/><text fill="#000000" font-family="sans-serif" font-size="11" lengthAdjust="spacingAndGlyphs" textLength="157" x="26" y="490.3901">_update_are_antennas_on()</text><ellipse cx="17" cy="499.9844" fill="#84BE84" rx="3" ry="3" style="stroke: #038048; stroke-width: 1.0;"/><text fill="#000000" font-family="sans-serif" font-size="11" lengthAdjust="spacingAndGlyphs" textLength="28" x="26" y="503.1948">poll()</text><ellipse cx="17" cy="512.7891" fill="#84BE84" rx="3" ry="3" style="stroke: #038048; stroke-width: 1.0;"/><text fill="#000000" font-family="sans-serif" font-size="11" lengthAdjust="spacingAndGlyphs" textLength="125" x="26" y="515.9995">get_antenna_current()</text><ellipse cx="17" cy="525.5938" fill="#84BE84" rx="3" ry="3" style="stroke: #038048; stroke-width: 1.0;"/><text fill="#000000" font-family="sans-serif" font-size="11" lengthAdjust="spacingAndGlyphs" textLength="125" x="26" y="528.8042">get_antenna_voltage()</text><ellipse cx="17" cy="538.3984" fill="#84BE84" rx="3" ry="3" style="stroke: #038048; stroke-width: 1.0;"/><text fill="#000000" font-family="sans-serif" font-size="11" lengthAdjust="spacingAndGlyphs" textLength="155" x="26" y="541.6089">get_antenna_temperature()</text><!--MD5=[e686278ecd3df99c4df1d7d701e1aba9]
class MccsAPIU--><rect fill="#FEFECE" filter="url(#f1595c54jmsebs)" height="534.5781" id="MccsAPIU" style="stroke: #A80036; stroke-width: 1.5;" width="228" x="496" y="116"/><ellipse cx="576.25" cy="132" fill="#ADD1B2" rx="11" ry="11" style="stroke: #A80036; stroke-width: 1.0;"/><path d="M579.2188,137.6406 Q578.6406,137.9375 578,138.0781 Q577.3594,138.2344 576.6563,138.2344 Q574.1563,138.2344 572.8281,136.5938 Q571.5156,134.9375 571.5156,131.8125 Q571.5156,128.6875 572.8281,127.0313 Q574.1563,125.375 576.6563,125.375 Q577.3594,125.375 578,125.5313 Q578.6563,125.6875 579.2188,125.9844 L579.2188,128.7031 Q578.5938,128.125 578,127.8594 Q577.4063,127.5781 576.7813,127.5781 Q575.4375,127.5781 574.75,128.6563 Q574.0625,129.7188 574.0625,131.8125 Q574.0625,133.9063 574.75,134.9844 Q575.4375,136.0469 576.7813,136.0469 Q577.4063,136.0469 578,135.7813 Q578.5938,135.5 579.2188,134.9219 L579.2188,137.6406 Z "/><text fill="#000000" font-family="sans-serif" font-size="12" lengthAdjust="spacingAndGlyphs" textLength="59" x="596.75" y="136.1543">MccsAPIU</text><line style="stroke: #A80036; stroke-width: 1.5;" x1="497" x2="723" y1="148" y2="148"/><rect fill="none" height="6" style="stroke: #C82930; stroke-width: 1.0;" width="6" x="504" y="156"/><text fill="#000000" font-family="sans-serif" font-size="11" lengthAdjust="spacingAndGlyphs" textLength="43" x="516" y="162.2104">_thread</text><rect fill="none" height="6" style="stroke: #C82930; stroke-width: 1.0;" width="6" x="504" y="168.8047"/><text fill="#000000" font-family="sans-serif" font-size="11" lengthAdjust="spacingAndGlyphs" textLength="28" x="516" y="175.0151">_lock</text><rect fill="none" height="6" style="stroke: #C82930; stroke-width: 1.0;" width="6" x="504" y="181.6094"/><text fill="#000000" font-family="sans-serif" font-size="11" lengthAdjust="spacingAndGlyphs" textLength="55" x="516" y="187.8198">_interrupt</text><rect fill="none" height="6" style="stroke: #C82930; stroke-width: 1.0;" width="6" x="504" y="194.4141"/><text fill="#000000" font-family="sans-serif" font-size="11" lengthAdjust="spacingAndGlyphs" textLength="104" x="516" y="200.6245">_are_antennas_on</text><rect fill="none" height="6" style="stroke: #C82930; stroke-width: 1.0;" width="6" x="504" y="207.2188"/><text fill="#000000" font-family="sans-serif" font-size="11" lengthAdjust="spacingAndGlyphs" textLength="76" x="516" y="213.4292">_health_state</text><rect fill="none" height="6" style="stroke: #C82930; stroke-width: 1.0;" width="6" x="504" y="220.0234"/><text fill="#000000" font-family="sans-serif" font-size="11" lengthAdjust="spacingAndGlyphs" textLength="131" x="516" y="226.2339">_overCurrentThreshold</text><rect fill="none" height="6" style="stroke: #C82930; stroke-width: 1.0;" width="6" x="504" y="232.8281"/><text fill="#000000" font-family="sans-serif" font-size="11" lengthAdjust="spacingAndGlyphs" textLength="130" x="516" y="239.0386">_overVoltageThreshold</text><rect fill="none" height="6" style="stroke: #C82930; stroke-width: 1.0;" width="6" x="504" y="245.6328"/><text fill="#000000" font-family="sans-serif" font-size="11" lengthAdjust="spacingAndGlyphs" textLength="111" x="516" y="251.8433">_humidityThreshold</text><line style="stroke: #A80036; stroke-width: 1.5;" x1="497" x2="723" y1="258.4375" y2="258.4375"/><ellipse cx="507" cy="269.4375" fill="#84BE84" rx="3" ry="3" style="stroke: #038048; stroke-width: 1.0;"/><text fill="#000000" font-family="sans-serif" font-size="11" lengthAdjust="spacingAndGlyphs" textLength="67" x="516" y="272.6479">init_device()</text><ellipse cx="507" cy="282.2422" fill="#84BE84" rx="3" ry="3" style="stroke: #038048; stroke-width: 1.0;"/><text fill="#000000" font-family="sans-serif" font-size="11" lengthAdjust="spacingAndGlyphs" textLength="134" x="516" y="285.4526">init_command_objects()</text><ellipse cx="507" cy="295.0469" fill="#84BE84" rx="3" ry="3" style="stroke: #038048; stroke-width: 1.0;"/><text fill="#000000" font-family="sans-serif" font-size="11" lengthAdjust="spacingAndGlyphs" textLength="49" x="516" y="298.2573">__init__()</text><ellipse cx="507" cy="307.8516" fill="#84BE84" rx="3" ry="3" style="stroke: #038048; stroke-width: 1.0;"/><text fill="#000000" font-family="sans-serif" font-size="11" lengthAdjust="spacingAndGlyphs" textLength="22" x="516" y="311.062">do()</text><rect fill="#F24D5C" height="6" style="stroke: #C82930; stroke-width: 1.0;" width="6" x="504" y="317.6563"/><text fill="#000000" font-family="sans-serif" font-size="11" lengthAdjust="spacingAndGlyphs" textLength="135" x="516" y="323.8667">_initialise_connections()</text><rect fill="#F24D5C" height="6" style="stroke: #C82930; stroke-width: 1.0;" width="6" x="504" y="330.4609"/><text fill="#000000" font-family="sans-serif" font-size="11" lengthAdjust="spacingAndGlyphs" textLength="202" x="516" y="336.6714">_initialise_hardware_management()</text><rect fill="#F24D5C" height="6" style="stroke: #C82930; stroke-width: 1.0;" width="6" x="504" y="343.2656"/><text fill="#000000" font-family="sans-serif" font-size="11" lengthAdjust="spacingAndGlyphs" textLength="169" x="516" y="349.4761">_initialise_health_monitoring()</text><ellipse cx="507" cy="359.0703" fill="#84BE84" rx="3" ry="3" style="stroke: #038048; stroke-width: 1.0;"/><text fill="#000000" font-family="sans-serif" font-size="11" lengthAdjust="spacingAndGlyphs" textLength="57" x="516" y="362.2808">interrupt()</text><ellipse cx="507" cy="371.875" fill="#84BE84" rx="3" ry="3" style="stroke: #038048; stroke-width: 1.0;"/><text fill="#000000" font-family="sans-serif" font-size="11" lengthAdjust="spacingAndGlyphs" textLength="69" x="516" y="375.0854">succeeded()</text><ellipse cx="507" cy="384.6797" fill="#84BE84" rx="3" ry="3" style="stroke: #038048; stroke-width: 1.0;"/><text fill="#000000" font-family="sans-serif" font-size="11" lengthAdjust="spacingAndGlyphs" textLength="137" x="516" y="387.8901">always_executed_hook()</text><ellipse cx="507" cy="397.4844" fill="#84BE84" rx="3" ry="3" style="stroke: #038048; stroke-width: 1.0;"/><text fill="#000000" font-family="sans-serif" font-size="11" lengthAdjust="spacingAndGlyphs" textLength="85" x="516" y="400.6948">delete_device()</text><ellipse cx="507" cy="410.2891" fill="#84BE84" rx="3" ry="3" style="stroke: #038048; stroke-width: 1.0;"/><text fill="#000000" font-family="sans-serif" font-size="11" lengthAdjust="spacingAndGlyphs" textLength="160" x="516" y="413.4995">are_antennas_on_changed()</text><ellipse cx="507" cy="423.0938" fill="#84BE84" rx="3" ry="3" style="stroke: #038048; stroke-width: 1.0;"/><text fill="#000000" font-family="sans-serif" font-size="11" lengthAdjust="spacingAndGlyphs" textLength="97" x="516" y="426.3042">health_changed()</text><ellipse cx="507" cy="435.8984" fill="#84BE84" rx="3" ry="3" style="stroke: #038048; stroke-width: 1.0;"/><text fill="#000000" font-family="sans-serif" font-size="11" lengthAdjust="spacingAndGlyphs" textLength="97" x="516" y="439.1089">simulationMode()</text><ellipse cx="507" cy="448.7031" fill="#84BE84" rx="3" ry="3" style="stroke: #038048; stroke-width: 1.0;"/><text fill="#000000" font-family="sans-serif" font-size="11" lengthAdjust="spacingAndGlyphs" textLength="87" x="516" y="451.9136">antennaCount()</text><ellipse cx="507" cy="461.5078" fill="#84BE84" rx="3" ry="3" style="stroke: #038048; stroke-width: 1.0;"/><text fill="#000000" font-family="sans-serif" font-size="11" lengthAdjust="spacingAndGlyphs" textLength="96" x="516" y="464.7183">areAntennasOn()</text><ellipse cx="507" cy="474.3125" fill="#84BE84" rx="3" ry="3" style="stroke: #038048; stroke-width: 1.0;"/><text fill="#000000" font-family="sans-serif" font-size="11" lengthAdjust="spacingAndGlyphs" textLength="49" x="516" y="477.5229">voltage()</text><ellipse cx="507" cy="487.1172" fill="#84BE84" rx="3" ry="3" style="stroke: #038048; stroke-width: 1.0;"/><text fill="#000000" font-family="sans-serif" font-size="11" lengthAdjust="spacingAndGlyphs" textLength="49" x="516" y="490.3276">current()</text><ellipse cx="507" cy="499.9219" fill="#84BE84" rx="3" ry="3" style="stroke: #038048; stroke-width: 1.0;"/><text fill="#000000" font-family="sans-serif" font-size="11" lengthAdjust="spacingAndGlyphs" textLength="79" x="516" y="503.1323">temperature()</text><ellipse cx="507" cy="512.7266" fill="#84BE84" rx="3" ry="3" style="stroke: #038048; stroke-width: 1.0;"/><text fill="#000000" font-family="sans-serif" font-size="11" lengthAdjust="spacingAndGlyphs" textLength="56" x="516" y="515.937">humidity()</text><ellipse cx="507" cy="525.5313" fill="#84BE84" rx="3" ry="3" style="stroke: #038048; stroke-width: 1.0;"/><text fill="#000000" font-family="sans-serif" font-size="11" lengthAdjust="spacingAndGlyphs" textLength="44" x="516" y="528.7417">isAlive()</text><ellipse cx="507" cy="538.3359" fill="#84BE84" rx="3" ry="3" style="stroke: #038048; stroke-width: 1.0;"/><text fill="#000000" font-family="sans-serif" font-size="11" lengthAdjust="spacingAndGlyphs" textLength="133" x="516" y="541.5464">overCurrentThreshold()</text><ellipse cx="507" cy="551.1406" fill="#84BE84" rx="3" ry="3" style="stroke: #038048; stroke-width: 1.0;"/><text fill="#000000" font-family="sans-serif" font-size="11" lengthAdjust="spacingAndGlyphs" textLength="132" x="516" y="554.3511">overVoltageThreshold()</text><ellipse cx="507" cy="563.9453" fill="#84BE84" rx="3" ry="3" style="stroke: #038048; stroke-width: 1.0;"/><text fill="#000000" font-family="sans-serif" font-size="11" lengthAdjust="spacingAndGlyphs" textLength="113" x="516" y="567.1558">humidityThreshold()</text><ellipse cx="507" cy="576.75" fill="#84BE84" rx="3" ry="3" style="stroke: #038048; stroke-width: 1.0;"/><text fill="#000000" font-family="sans-serif" font-size="11" lengthAdjust="spacingAndGlyphs" textLength="80" x="516" y="579.9604">IsAntennaOn()</text><ellipse cx="507" cy="589.5547" fill="#84BE84" rx="3" ry="3" style="stroke: #038048; stroke-width: 1.0;"/><text fill="#000000" font-family="sans-serif" font-size="11" lengthAdjust="spacingAndGlyphs" textLength="104" x="516" y="592.7651">PowerUpAntenna()</text><ellipse cx="507" cy="602.3594" fill="#84BE84" rx="3" ry="3" style="stroke: #038048; stroke-width: 1.0;"/><text fill="#000000" font-family="sans-serif" font-size="11" lengthAdjust="spacingAndGlyphs" textLength="120" x="516" y="605.5698">PowerDownAntenna()</text><ellipse cx="507" cy="615.1641" fill="#84BE84" rx="3" ry="3" style="stroke: #038048; stroke-width: 1.0;"/><text fill="#000000" font-family="sans-serif" font-size="11" lengthAdjust="spacingAndGlyphs" textLength="58" x="516" y="618.3745">PowerUp()</text><ellipse cx="507" cy="627.9688" fill="#84BE84" rx="3" ry="3" style="stroke: #038048; stroke-width: 1.0;"/><text fill="#000000" font-family="sans-serif" font-size="11" lengthAdjust="spacingAndGlyphs" textLength="74" x="516" y="631.1792">PowerDown()</text><rect fill="#F24D5C" height="6" style="stroke: #C82930; stroke-width: 1.0;" width="6" x="504" y="637.7734"/><text fill="#000000" font-family="sans-serif" font-size="11" lengthAdjust="spacingAndGlyphs" textLength="129" x="516" y="643.9839">_update_health_state()</text><!--MD5=[38ec8ebb384a5163003b04e2a5da297f]
class HardwareHealthEvaluator--><rect fill="#FEFECE" filter="url(#f1595c54jmsebs)" height="48" id="HardwareHealthEvaluator" style="stroke: #A80036; stroke-width: 1.5;" width="192" x="269" y="359.5"/><ellipse cx="284" cy="375.5" fill="#ADD1B2" rx="11" ry="11" style="stroke: #A80036; stroke-width: 1.0;"/><path d="M286.9688,381.1406 Q286.3906,381.4375 285.75,381.5781 Q285.1094,381.7344 284.4063,381.7344 Q281.9063,381.7344 280.5781,380.0938 Q279.2656,378.4375 279.2656,375.3125 Q279.2656,372.1875 280.5781,370.5313 Q281.9063,368.875 284.4063,368.875 Q285.1094,368.875 285.75,369.0313 Q286.4063,369.1875 286.9688,369.4844 L286.9688,372.2031 Q286.3438,371.625 285.75,371.3594 Q285.1563,371.0781 284.5313,371.0781 Q283.1875,371.0781 282.5,372.1563 Q281.8125,373.2188 281.8125,375.3125 Q281.8125,377.4063 282.5,378.4844 Q283.1875,379.5469 284.5313,379.5469 Q285.1563,379.5469 285.75,379.2813 Q286.3438,379 286.9688,378.4219 L286.9688,381.1406 Z "/><text fill="#000000" font-family="sans-serif" font-size="12" lengthAdjust="spacingAndGlyphs" textLength="160" x="298" y="379.6543">HardwareHealthEvaluator</text><line style="stroke: #A80036; stroke-width: 1.5;" x1="270" x2="460" y1="391.5" y2="391.5"/><line style="stroke: #A80036; stroke-width: 1.5;" x1="270" x2="460" y1="399.5" y2="399.5"/><!--MD5=[fb1ddb9ac14f63bdd608ba2c81065e04]
class SimulableHardwareFactory--><rect fill="#FEFECE" filter="url(#f1595c54jmsebs)" height="48" id="SimulableHardwareFactory" style="stroke: #A80036; stroke-width: 1.5;" width="198" x="21" y="8"/><ellipse cx="36" cy="24" fill="#ADD1B2" rx="11" ry="11" style="stroke: #A80036; stroke-width: 1.0;"/><path d="M38.9688,29.6406 Q38.3906,29.9375 37.75,30.0781 Q37.1094,30.2344 36.4063,30.2344 Q33.9063,30.2344 32.5781,28.5938 Q31.2656,26.9375 31.2656,23.8125 Q31.2656,20.6875 32.5781,19.0313 Q33.9063,17.375 36.4063,17.375 Q37.1094,17.375 37.75,17.5313 Q38.4063,17.6875 38.9688,17.9844 L38.9688,20.7031 Q38.3438,20.125 37.75,19.8594 Q37.1563,19.5781 36.5313,19.5781 Q35.1875,19.5781 34.5,20.6563 Q33.8125,21.7188 33.8125,23.8125 Q33.8125,25.9063 34.5,26.9844 Q35.1875,28.0469 36.5313,28.0469 Q37.1563,28.0469 37.75,27.7813 Q38.3438,27.5 38.9688,26.9219 L38.9688,29.6406 Z "/><text fill="#000000" font-family="sans-serif" font-size="12" lengthAdjust="spacingAndGlyphs" textLength="166" x="50" y="28.1543">SimulableHardwareFactory</text><line style="stroke: #A80036; stroke-width: 1.5;" x1="22" x2="218" y1="40" y2="40"/><line style="stroke: #A80036; stroke-width: 1.5;" x1="22" x2="218" y1="48" y2="48"/><!--MD5=[4b247cd441d6776975beb1666a0cb733]
class SKABaseDevice--><rect fill="#FEFECE" filter="url(#f1595c54jmsebs)" height="48" id="SKABaseDevice" style="stroke: #A80036; stroke-width: 1.5;" width="127" x="546.5" y="8"/><ellipse cx="561.5" cy="24" fill="#ADD1B2" rx="11" ry="11" style="stroke: #A80036; stroke-width: 1.0;"/><path d="M564.4688,29.6406 Q563.8906,29.9375 563.25,30.0781 Q562.6094,30.2344 561.9063,30.2344 Q559.4063,30.2344 558.0781,28.5938 Q556.7656,26.9375 556.7656,23.8125 Q556.7656,20.6875 558.0781,19.0313 Q559.4063,17.375 561.9063,17.375 Q562.6094,17.375 563.25,17.5313 Q563.9063,17.6875 564.4688,17.9844 L564.4688,20.7031 Q563.8438,20.125 563.25,19.8594 Q562.6563,19.5781 562.0313,19.5781 Q560.6875,19.5781 560,20.6563 Q559.3125,21.7188 559.3125,23.8125 Q559.3125,25.9063 560,26.9844 Q560.6875,28.0469 562.0313,28.0469 Q562.6563,28.0469 563.25,27.7813 Q563.8438,27.5 564.4688,26.9219 L564.4688,29.6406 Z "/><text fill="#000000" font-family="sans-serif" font-size="12" lengthAdjust="spacingAndGlyphs" textLength="95" x="575.5" y="28.1543">SKABaseDevice</text><line style="stroke: #A80036; stroke-width: 1.5;" x1="547.5" x2="672.5" y1="40" y2="40"/><line style="stroke: #A80036; stroke-width: 1.5;" x1="547.5" x2="672.5" y1="48" y2="48"/><!--MD5=[9d48b35644866247708301e1285d34f1]
reverse link HardwareHealthEvaluator to APIUHardwareHealthEvaluator--><path d="M349.7798,426.9951 C323.6459,501.6786 271.0703,651.9252 250.5134,710.6709 " fill="none" id="HardwareHealthEvaluator&lt;-APIUHardwareHealthEvaluator" style="stroke: #A80036; stroke-width: 1.0;"/><polygon fill="none" points="343.3327,424.2256,356.5457,407.66,356.547,428.8497,343.3327,424.2256" style="stroke: #A80036; stroke-width: 1.0;"/><!--MD5=[bba78b809bbdb59731f22453664176b8]
reverse link SimulableHardwareFactory to APIUHardwareFactory--><path d="M120,76.2929 C120,112.5008 120,166.0809 120,218.3981 " fill="none" id="SimulableHardwareFactory&lt;-APIUHardwareFactory" style="stroke: #A80036; stroke-width: 1.0;"/><polygon fill="none" points="113.0001,76.1601,120,56.16,127.0001,76.16,113.0001,76.1601" style="stroke: #A80036; stroke-width: 1.0;"/><!--MD5=[77e43109d3b1d9cafc657ba3d233dd4a]
reverse link SKABaseDevice to MccsAPIU--><path d="M610,76.6062 C610,88.1413 610,101.4244 610,115.858 " fill="none" id="SKABaseDevice&lt;-MccsAPIU" style="stroke: #A80036; stroke-width: 1.0;"/><polygon fill="none" points="603.0001,76.1601,610,56.16,617.0001,76.16,603.0001,76.1601" style="stroke: #A80036; stroke-width: 1.0;"/><!--MD5=[a750ac11147ebe44677fee377a8a51f7]
link APIUHardwareFactory to APIUHardwareHealthEvaluator--><path d="M177.3384,548.7003 C199.2355,611.789 221.764,676.6971 233.5831,710.7496 " fill="none" id="APIUHardwareFactory-APIUHardwareHealthEvaluator" style="stroke: #A80036; stroke-width: 1.0;"/><!--MD5=[c25f2a2aea2c6cf0988485b654f2064f]
@startuml
class APIUHardwareHealthEvaluator
class APIUHardwareFactory
APIUHardwareFactory : +__init__()
APIUHardwareFactory : -_create_static_simulator()
APIUHardwareFactory : +connect()
APIUHardwareFactory : +voltage()
APIUHardwareFactory : +current()
APIUHardwareFactory : +temperature()
APIUHardwareFactory : +humidity()
APIUHardwareFactory : +antenna_count()
APIUHardwareFactory : +turn_off_antenna()
APIUHardwareFactory : +turn_on_antenna()
APIUHardwareFactory : +turn_off_antennas()
APIUHardwareFactory : +turn_on_antennas()
APIUHardwareFactory : +are_antennas_on()
APIUHardwareFactory : +is_antenna_on()
APIUHardwareFactory : -_update_are_antennas_on()
APIUHardwareFactory : +poll()
APIUHardwareFactory : +get_antenna_current()
APIUHardwareFactory : +get_antenna_voltage()
APIUHardwareFactory : +get_antenna_temperature()
class MccsAPIU
MccsAPIU : +init_device()
MccsAPIU : +init_command_objects()
MccsAPIU : +__init__()
MccsAPIU : +do()
MccsAPIU : -_initialise_connections()
MccsAPIU : -_initialise_hardware_management()
MccsAPIU : -_initialise_health_monitoring()
MccsAPIU : +interrupt()
MccsAPIU : +succeeded()
MccsAPIU : +always_executed_hook()
MccsAPIU : +delete_device()
MccsAPIU : +are_antennas_on_changed()
MccsAPIU : +health_changed()
MccsAPIU : +simulationMode()
MccsAPIU : +antennaCount()
MccsAPIU : +areAntennasOn()
MccsAPIU : +voltage()
MccsAPIU : +current()
MccsAPIU : +temperature()
MccsAPIU : +humidity()
MccsAPIU : +isAlive()
MccsAPIU : +overCurrentThreshold()
MccsAPIU : +overVoltageThreshold()
MccsAPIU : +humidityThreshold()
MccsAPIU : +IsAntennaOn()
MccsAPIU : +PowerUpAntenna()
MccsAPIU : +PowerDownAntenna()
MccsAPIU : +PowerUp()
MccsAPIU : +PowerDown()
MccsAPIU : -_update_health_state()
APIUHardwareFactory : -_antenna_count
APIUHardwareFactory : -_are_antennas_on
APIUHardwareFactory : -_are_antennas_on_change_callback
MccsAPIU : -_thread
MccsAPIU : -_lock
MccsAPIU : -_interrupt
MccsAPIU : -_are_antennas_on
MccsAPIU : -_health_state
MccsAPIU : -_overCurrentThreshold
MccsAPIU : -_overVoltageThreshold
MccsAPIU : -_humidityThreshold

HardwareHealthEvaluator <|- - APIUHardwareHealthEvaluator
SimulableHardwareFactory <|- - APIUHardwareFactory
SKABaseDevice <|- - MccsAPIU
APIUHardwareFactory - - APIUHardwareHealthEvaluator
@enduml

PlantUML version 1.2020.06(Sun Apr 05 12:38:32 GMT 2020)
(GPL source distribution)
Java Runtime: OpenJDK Runtime Environment
JVM: OpenJDK 64-Bit Server VM
Java Version: 14-ea+33
Operating System: Linux
Default Encoding: UTF-8
Language: en
Country: US
--></g></svg>