<?xml version="1.0" encoding="UTF-8" standalone="no"?><svg xmlns="http://www.w3.org/2000/svg" xmlns:xlink="http://www.w3.org/1999/xlink" contentScriptType="application/ecmascript" contentStyleType="text/css" height="1491px" preserveAspectRatio="none" style="width:708px;height:1491px;" version="1.1" viewBox="0 0 708 1491" width="708px" zoomAndPan="magnify"><defs><filter height="300%" id="f16h3tfn44skbx" width="300%" x="-1" y="-1"><feGaussianBlur result="blurOut" stdDeviation="2.0"/><feColorMatrix in="blurOut" result="blurOut2" type="matrix" values="0 0 0 0 0 0 0 0 0 0 0 0 0 0 0 0 0 0 .4 0"/><feOffset dx="4.0" dy="4.0" in="blurOut2" result="blurOut3"/><feBlend in="SourceGraphic" in2="blurOut3" mode="normal"/></filter></defs><g><!--MD5=[7365167a5471297f8d53772247b1f38a]
class ClusterHealthEvaluator--><rect fill="#FEFECE" filter="url(#f16h3tfn44skbx)" height="60.8047" id="ClusterHealthEvaluator" style="stroke: #A80036; stroke-width: 1.5;" width="176" x="277" y="1420"/><ellipse cx="292" cy="1436" fill="#ADD1B2" rx="11" ry="11" style="stroke: #A80036; stroke-width: 1.0;"/><path d="M294.9688,1441.6406 Q294.3906,1441.9375 293.75,1442.0781 Q293.1094,1442.2344 292.4063,1442.2344 Q289.9063,1442.2344 288.5781,1440.5938 Q287.2656,1438.9375 287.2656,1435.8125 Q287.2656,1432.6875 288.5781,1431.0313 Q289.9063,1429.375 292.4063,1429.375 Q293.1094,1429.375 293.75,1429.5313 Q294.4063,1429.6875 294.9688,1429.9844 L294.9688,1432.7031 Q294.3438,1432.125 293.75,1431.8594 Q293.1563,1431.5781 292.5313,1431.5781 Q291.1875,1431.5781 290.5,1432.6563 Q289.8125,1433.7188 289.8125,1435.8125 Q289.8125,1437.9063 290.5,1438.9844 Q291.1875,1440.0469 292.5313,1440.0469 Q293.1563,1440.0469 293.75,1439.7813 Q294.3438,1439.5 294.9688,1438.9219 L294.9688,1441.6406 Z "/><text fill="#000000" font-family="sans-serif" font-size="12" lengthAdjust="spacingAndGlyphs" textLength="144" x="306" y="1440.1543">ClusterHealthEvaluator</text><line style="stroke: #A80036; stroke-width: 1.5;" x1="278" x2="452" y1="1452" y2="1452"/><line style="stroke: #A80036; stroke-width: 1.5;" x1="278" x2="452" y1="1460" y2="1460"/><ellipse cx="288" cy="1471" fill="#84BE84" rx="3" ry="3" style="stroke: #038048; stroke-width: 1.0;"/><text fill="#000000" font-family="sans-serif" font-size="11" lengthAdjust="spacingAndGlyphs" textLength="97" x="297" y="1474.2104">evaluate_health()</text><!--MD5=[8e1e3af8ea7cbee5e3f5ff9d21155269]
class ClusterFactory--><rect fill="#FEFECE" filter="url(#f16h3tfn44skbx)" height="73.6094" id="ClusterFactory" style="stroke: #A80036; stroke-width: 1.5;" width="173" x="511.5" y="423"/><ellipse cx="549.45" cy="439" fill="#ADD1B2" rx="11" ry="11" style="stroke: #A80036; stroke-width: 1.0;"/><path d="M552.4188,444.6406 Q551.8406,444.9375 551.2,445.0781 Q550.5594,445.2344 549.8563,445.2344 Q547.3563,445.2344 546.0281,443.5938 Q544.7156,441.9375 544.7156,438.8125 Q544.7156,435.6875 546.0281,434.0313 Q547.3563,432.375 549.8563,432.375 Q550.5594,432.375 551.2,432.5313 Q551.8563,432.6875 552.4188,432.9844 L552.4188,435.7031 Q551.7938,435.125 551.2,434.8594 Q550.6063,434.5781 549.9813,434.5781 Q548.6375,434.5781 547.95,435.6563 Q547.2625,436.7188 547.2625,438.8125 Q547.2625,440.9063 547.95,441.9844 Q548.6375,443.0469 549.9813,443.0469 Q550.6063,443.0469 551.2,442.7813 Q551.7938,442.5 552.4188,441.9219 L552.4188,444.6406 Z "/><text fill="#000000" font-family="sans-serif" font-size="12" lengthAdjust="spacingAndGlyphs" textLength="90" x="568.55" y="443.1543">ClusterFactory</text><line style="stroke: #A80036; stroke-width: 1.5;" x1="512.5" x2="683.5" y1="455" y2="455"/><line style="stroke: #A80036; stroke-width: 1.5;" x1="512.5" x2="683.5" y1="463" y2="463"/><ellipse cx="522.5" cy="474" fill="#84BE84" rx="3" ry="3" style="stroke: #038048; stroke-width: 1.0;"/><text fill="#000000" font-family="sans-serif" font-size="11" lengthAdjust="spacingAndGlyphs" textLength="49" x="531.5" y="477.2104">__init__()</text><rect fill="#F24D5C" height="6" style="stroke: #C82930; stroke-width: 1.0;" width="6" x="519.5" y="483.8047"/><text fill="#000000" font-family="sans-serif" font-size="11" lengthAdjust="spacingAndGlyphs" textLength="147" x="531.5" y="490.0151">_create_static_simulator()</text><!--MD5=[0ec2e5edc9fc2ac19120cb67a74239cd]
class ClusterManager--><rect fill="#FEFECE" filter="url(#f16h3tfn44skbx)" height="496.1641" id="ClusterManager" style="stroke: #A80036; stroke-width: 1.5;" width="214" x="139" y="864"/><ellipse cx="192.25" cy="880" fill="#ADD1B2" rx="11" ry="11" style="stroke: #A80036; stroke-width: 1.0;"/><path d="M195.2188,885.6406 Q194.6406,885.9375 194,886.0781 Q193.3594,886.2344 192.6563,886.2344 Q190.1563,886.2344 188.8281,884.5938 Q187.5156,882.9375 187.5156,879.8125 Q187.5156,876.6875 188.8281,875.0313 Q190.1563,873.375 192.6563,873.375 Q193.3594,873.375 194,873.5313 Q194.6563,873.6875 195.2188,873.9844 L195.2188,876.7031 Q194.5938,876.125 194,875.8594 Q193.4063,875.5781 192.7813,875.5781 Q191.4375,875.5781 190.75,876.6563 Q190.0625,877.7188 190.0625,879.8125 Q190.0625,881.9063 190.75,882.9844 Q191.4375,884.0469 192.7813,884.0469 Q193.4063,884.0469 194,883.7813 Q194.5938,883.5 195.2188,882.9219 L195.2188,885.6406 Z "/><text fill="#000000" font-family="sans-serif" font-size="12" lengthAdjust="spacingAndGlyphs" textLength="99" x="212.75" y="884.1543">ClusterManager</text><line style="stroke: #A80036; stroke-width: 1.5;" x1="140" x2="352" y1="896" y2="896"/><line style="stroke: #A80036; stroke-width: 1.5;" x1="140" x2="352" y1="904" y2="904"/><ellipse cx="150" cy="915" fill="#84BE84" rx="3" ry="3" style="stroke: #038048; stroke-width: 1.0;"/><text fill="#000000" font-family="sans-serif" font-size="11" lengthAdjust="spacingAndGlyphs" textLength="49" x="159" y="918.2104">__init__()</text><ellipse cx="150" cy="927.8047" fill="#84BE84" rx="3" ry="3" style="stroke: #038048; stroke-width: 1.0;"/><text fill="#000000" font-family="sans-serif" font-size="11" lengthAdjust="spacingAndGlyphs" textLength="81" x="159" y="931.0151">jobs_errored()</text><ellipse cx="150" cy="940.6094" fill="#84BE84" rx="3" ry="3" style="stroke: #038048; stroke-width: 1.0;"/><text fill="#000000" font-family="sans-serif" font-size="11" lengthAdjust="spacingAndGlyphs" textLength="69" x="159" y="943.8198">jobs_failed()</text><ellipse cx="150" cy="953.4141" fill="#84BE84" rx="3" ry="3" style="stroke: #038048; stroke-width: 1.0;"/><text fill="#000000" font-family="sans-serif" font-size="11" lengthAdjust="spacingAndGlyphs" textLength="83" x="159" y="956.6245">jobs_finished()</text><ellipse cx="150" cy="966.2188" fill="#84BE84" rx="3" ry="3" style="stroke: #038048; stroke-width: 1.0;"/><text fill="#000000" font-family="sans-serif" font-size="11" lengthAdjust="spacingAndGlyphs" textLength="67" x="159" y="969.4292">jobs_killed()</text><ellipse cx="150" cy="979.0234" fill="#84BE84" rx="3" ry="3" style="stroke: #038048; stroke-width: 1.0;"/><text fill="#000000" font-family="sans-serif" font-size="11" lengthAdjust="spacingAndGlyphs" textLength="59" x="159" y="982.2339">jobs_lost()</text><ellipse cx="150" cy="991.8281" fill="#84BE84" rx="3" ry="3" style="stroke: #038048; stroke-width: 1.0;"/><text fill="#000000" font-family="sans-serif" font-size="11" lengthAdjust="spacingAndGlyphs" textLength="80" x="159" y="995.0386">jobs_staging()</text><ellipse cx="150" cy="1004.6328" fill="#84BE84" rx="3" ry="3" style="stroke: #038048; stroke-width: 1.0;"/><text fill="#000000" font-family="sans-serif" font-size="11" lengthAdjust="spacingAndGlyphs" textLength="82" x="159" y="1007.8433">jobs_starting()</text><ellipse cx="150" cy="1017.4375" fill="#84BE84" rx="3" ry="3" style="stroke: #038048; stroke-width: 1.0;"/><text fill="#000000" font-family="sans-serif" font-size="11" lengthAdjust="spacingAndGlyphs" textLength="81" x="159" y="1020.6479">jobs_running()</text><ellipse cx="150" cy="1030.2422" fill="#84BE84" rx="3" ry="3" style="stroke: #038048; stroke-width: 1.0;"/><text fill="#000000" font-family="sans-serif" font-size="11" lengthAdjust="spacingAndGlyphs" textLength="70" x="159" y="1033.4526">jobs_killing()</text><ellipse cx="150" cy="1043.0469" fill="#84BE84" rx="3" ry="3" style="stroke: #038048; stroke-width: 1.0;"/><text fill="#000000" font-family="sans-serif" font-size="11" lengthAdjust="spacingAndGlyphs" textLength="108" x="159" y="1046.2573">jobs_unreachable()</text><ellipse cx="150" cy="1055.8516" fill="#84BE84" rx="3" ry="3" style="stroke: #038048; stroke-width: 1.0;"/><text fill="#000000" font-family="sans-serif" font-size="11" lengthAdjust="spacingAndGlyphs" textLength="86" x="159" y="1059.062">memory_total()</text><ellipse cx="150" cy="1068.6563" fill="#84BE84" rx="3" ry="3" style="stroke: #038048; stroke-width: 1.0;"/><text fill="#000000" font-family="sans-serif" font-size="11" lengthAdjust="spacingAndGlyphs" textLength="89" x="159" y="1071.8667">memory_used()</text><ellipse cx="150" cy="1081.4609" fill="#84BE84" rx="3" ry="3" style="stroke: #038048; stroke-width: 1.0;"/><text fill="#000000" font-family="sans-serif" font-size="11" lengthAdjust="spacingAndGlyphs" textLength="87" x="159" y="1084.6714">memory_avail()</text><ellipse cx="150" cy="1094.2656" fill="#84BE84" rx="3" ry="3" style="stroke: #038048; stroke-width: 1.0;"/><text fill="#000000" font-family="sans-serif" font-size="11" lengthAdjust="spacingAndGlyphs" textLength="74" x="159" y="1097.4761">nodes_total()</text><ellipse cx="150" cy="1107.0703" fill="#84BE84" rx="3" ry="3" style="stroke: #038048; stroke-width: 1.0;"/><text fill="#000000" font-family="sans-serif" font-size="11" lengthAdjust="spacingAndGlyphs" textLength="86" x="159" y="1110.2808">nodes_in_use()</text><ellipse cx="150" cy="1119.875" fill="#84BE84" rx="3" ry="3" style="stroke: #038048; stroke-width: 1.0;"/><text fill="#000000" font-family="sans-serif" font-size="11" lengthAdjust="spacingAndGlyphs" textLength="75" x="159" y="1123.0854">nodes_avail()</text><ellipse cx="150" cy="1132.6797" fill="#84BE84" rx="3" ry="3" style="stroke: #038048; stroke-width: 1.0;"/><text fill="#000000" font-family="sans-serif" font-size="11" lengthAdjust="spacingAndGlyphs" textLength="113" x="159" y="1135.8901">master_cpus_total()</text><ellipse cx="150" cy="1145.4844" fill="#84BE84" rx="3" ry="3" style="stroke: #038048; stroke-width: 1.0;"/><text fill="#000000" font-family="sans-serif" font-size="11" lengthAdjust="spacingAndGlyphs" textLength="116" x="159" y="1148.6948">master_cpus_used()</text><ellipse cx="150" cy="1158.2891" fill="#84BE84" rx="3" ry="3" style="stroke: #038048; stroke-width: 1.0;"/><text fill="#000000" font-family="sans-serif" font-size="11" lengthAdjust="spacingAndGlyphs" textLength="188" x="159" y="1161.4995">master_cpus_allocated_percent()</text><ellipse cx="150" cy="1171.0938" fill="#84BE84" rx="3" ry="3" style="stroke: #038048; stroke-width: 1.0;"/><text fill="#000000" font-family="sans-serif" font-size="11" lengthAdjust="spacingAndGlyphs" textLength="109" x="159" y="1174.3042">master_disk_total()</text><ellipse cx="150" cy="1183.8984" fill="#84BE84" rx="3" ry="3" style="stroke: #038048; stroke-width: 1.0;"/><text fill="#000000" font-family="sans-serif" font-size="11" lengthAdjust="spacingAndGlyphs" textLength="112" x="159" y="1187.1089">master_disk_used()</text><ellipse cx="150" cy="1196.7031" fill="#84BE84" rx="3" ry="3" style="stroke: #038048; stroke-width: 1.0;"/><text fill="#000000" font-family="sans-serif" font-size="11" lengthAdjust="spacingAndGlyphs" textLength="127" x="159" y="1199.9136">master_disk_percent()</text><ellipse cx="150" cy="1209.5078" fill="#84BE84" rx="3" ry="3" style="stroke: #038048; stroke-width: 1.0;"/><text fill="#000000" font-family="sans-serif" font-size="11" lengthAdjust="spacingAndGlyphs" textLength="115" x="159" y="1212.7183">master_mem_total()</text><ellipse cx="150" cy="1222.3125" fill="#84BE84" rx="3" ry="3" style="stroke: #038048; stroke-width: 1.0;"/><text fill="#000000" font-family="sans-serif" font-size="11" lengthAdjust="spacingAndGlyphs" textLength="118" x="159" y="1225.5229">master_mem_used()</text><ellipse cx="150" cy="1235.1172" fill="#84BE84" rx="3" ry="3" style="stroke: #038048; stroke-width: 1.0;"/><text fill="#000000" font-family="sans-serif" font-size="11" lengthAdjust="spacingAndGlyphs" textLength="133" x="159" y="1238.3276">master_mem_percent()</text><ellipse cx="150" cy="1247.9219" fill="#84BE84" rx="3" ry="3" style="stroke: #038048; stroke-width: 1.0;"/><text fill="#000000" font-family="sans-serif" font-size="11" lengthAdjust="spacingAndGlyphs" textLength="99" x="159" y="1251.1323">master_node_id()</text><ellipse cx="150" cy="1260.7266" fill="#84BE84" rx="3" ry="3" style="stroke: #038048; stroke-width: 1.0;"/><text fill="#000000" font-family="sans-serif" font-size="11" lengthAdjust="spacingAndGlyphs" textLength="186" x="159" y="1263.937">shadow_master_pool_node_ids()</text><ellipse cx="150" cy="1273.5313" fill="#84BE84" rx="3" ry="3" style="stroke: #038048; stroke-width: 1.0;"/><text fill="#000000" font-family="sans-serif" font-size="11" lengthAdjust="spacingAndGlyphs" textLength="171" x="159" y="1276.7417">shadow_master_pool_status()</text><ellipse cx="150" cy="1286.3359" fill="#84BE84" rx="3" ry="3" style="stroke: #038048; stroke-width: 1.0;"/><text fill="#000000" font-family="sans-serif" font-size="11" lengthAdjust="spacingAndGlyphs" textLength="109" x="159" y="1289.5464">ping_master_pool()</text><ellipse cx="150" cy="1299.1406" fill="#84BE84" rx="3" ry="3" style="stroke: #038048; stroke-width: 1.0;"/><text fill="#000000" font-family="sans-serif" font-size="11" lengthAdjust="spacingAndGlyphs" textLength="94" x="159" y="1302.3511">clear_job_stats()</text><ellipse cx="150" cy="1311.9453" fill="#84BE84" rx="3" ry="3" style="stroke: #038048; stroke-width: 1.0;"/><text fill="#000000" font-family="sans-serif" font-size="11" lengthAdjust="spacingAndGlyphs" textLength="91" x="159" y="1315.1558">get_job_status()</text><ellipse cx="150" cy="1324.75" fill="#84BE84" rx="3" ry="3" style="stroke: #038048; stroke-width: 1.0;"/><text fill="#000000" font-family="sans-serif" font-size="11" lengthAdjust="spacingAndGlyphs" textLength="70" x="159" y="1327.9604">submit_job()</text><ellipse cx="150" cy="1337.5547" fill="#84BE84" rx="3" ry="3" style="stroke: #038048; stroke-width: 1.0;"/><text fill="#000000" font-family="sans-serif" font-size="11" lengthAdjust="spacingAndGlyphs" textLength="58" x="159" y="1340.7651">start_job()</text><ellipse cx="150" cy="1350.3594" fill="#84BE84" rx="3" ry="3" style="stroke: #038048; stroke-width: 1.0;"/><text fill="#000000" font-family="sans-serif" font-size="11" lengthAdjust="spacingAndGlyphs" textLength="56" x="159" y="1353.5698">stop_job()</text><!--MD5=[185dbe7467ede7b22061d98200fe3f5c]
class MccsClusterManagerDevice--><rect fill="#FEFECE" filter="url(#f16h3tfn44skbx)" height="688.2344" id="MccsClusterManagerDevice" style="stroke: #A80036; stroke-width: 1.5;" width="228" x="6" y="116"/><ellipse cx="32.25" cy="132" fill="#ADD1B2" rx="11" ry="11" style="stroke: #A80036; stroke-width: 1.0;"/><path d="M35.2188,137.6406 Q34.6406,137.9375 34,138.0781 Q33.3594,138.2344 32.6563,138.2344 Q30.1563,138.2344 28.8281,136.5938 Q27.5156,134.9375 27.5156,131.8125 Q27.5156,128.6875 28.8281,127.0313 Q30.1563,125.375 32.6563,125.375 Q33.3594,125.375 34,125.5313 Q34.6563,125.6875 35.2188,125.9844 L35.2188,128.7031 Q34.5938,128.125 34,127.8594 Q33.4063,127.5781 32.7813,127.5781 Q31.4375,127.5781 30.75,128.6563 Q30.0625,129.7188 30.0625,131.8125 Q30.0625,133.9063 30.75,134.9844 Q31.4375,136.0469 32.7813,136.0469 Q33.4063,136.0469 34,135.7813 Q34.5938,135.5 35.2188,134.9219 L35.2188,137.6406 Z "/><text fill="#000000" font-family="sans-serif" font-size="12" lengthAdjust="spacingAndGlyphs" textLength="171" x="48.75" y="136.1543">MccsClusterManagerDevice</text><line style="stroke: #A80036; stroke-width: 1.5;" x1="7" x2="233" y1="148" y2="148"/><rect fill="none" height="6" style="stroke: #C82930; stroke-width: 1.0;" width="6" x="14" y="156"/><text fill="#000000" font-family="sans-serif" font-size="11" lengthAdjust="spacingAndGlyphs" textLength="66" x="26" y="162.2104">_init_thread</text><rect fill="none" height="6" style="stroke: #C82930; stroke-width: 1.0;" width="6" x="14" y="168.8047"/><text fill="#000000" font-family="sans-serif" font-size="11" lengthAdjust="spacingAndGlyphs" textLength="51" x="26" y="175.0151">_init_lock</text><rect fill="none" height="6" style="stroke: #C82930; stroke-width: 1.0;" width="6" x="14" y="181.6094"/><text fill="#000000" font-family="sans-serif" font-size="11" lengthAdjust="spacingAndGlyphs" textLength="78" x="26" y="187.8198">_init_interrupt</text><rect fill="none" height="6" style="stroke: #C82930; stroke-width: 1.0;" width="6" x="14" y="194.4141"/><text fill="#000000" font-family="sans-serif" font-size="11" lengthAdjust="spacingAndGlyphs" textLength="55" x="26" y="200.6245">_interrupt</text><rect fill="none" height="6" style="stroke: #C82930; stroke-width: 1.0;" width="6" x="14" y="207.2188"/><text fill="#000000" font-family="sans-serif" font-size="11" lengthAdjust="spacingAndGlyphs" textLength="76" x="26" y="213.4292">_health_state</text><line style="stroke: #A80036; stroke-width: 1.5;" x1="7" x2="233" y1="220.0234" y2="220.0234"/><ellipse cx="17" cy="231.0234" fill="#84BE84" rx="3" ry="3" style="stroke: #038048; stroke-width: 1.0;"/><text fill="#000000" font-family="sans-serif" font-size="11" lengthAdjust="spacingAndGlyphs" textLength="49" x="26" y="234.2339">__init__()</text><ellipse cx="17" cy="243.8281" fill="#84BE84" rx="3" ry="3" style="stroke: #038048; stroke-width: 1.0;"/><text fill="#000000" font-family="sans-serif" font-size="11" lengthAdjust="spacingAndGlyphs" textLength="22" x="26" y="247.0386">do()</text><rect fill="#F24D5C" height="6" style="stroke: #C82930; stroke-width: 1.0;" width="6" x="14" y="253.6328"/><text fill="#000000" font-family="sans-serif" font-size="11" lengthAdjust="spacingAndGlyphs" textLength="135" x="26" y="259.8433">_initialise_connections()</text><rect fill="#F24D5C" height="6" style="stroke: #C82930; stroke-width: 1.0;" width="6" x="14" y="266.4375"/><text fill="#000000" font-family="sans-serif" font-size="11" lengthAdjust="spacingAndGlyphs" textLength="202" x="26" y="272.6479">_initialise_hardware_management()</text><rect fill="#F24D5C" height="6" style="stroke: #C82930; stroke-width: 1.0;" width="6" x="14" y="279.2422"/><text fill="#000000" font-family="sans-serif" font-size="11" lengthAdjust="spacingAndGlyphs" textLength="169" x="26" y="285.4526">_initialise_health_monitoring()</text><ellipse cx="17" cy="295.0469" fill="#84BE84" rx="3" ry="3" style="stroke: #038048; stroke-width: 1.0;"/><text fill="#000000" font-family="sans-serif" font-size="11" lengthAdjust="spacingAndGlyphs" textLength="57" x="26" y="298.2573">interrupt()</text><ellipse cx="17" cy="307.8516" fill="#84BE84" rx="3" ry="3" style="stroke: #038048; stroke-width: 1.0;"/><text fill="#000000" font-family="sans-serif" font-size="11" lengthAdjust="spacingAndGlyphs" textLength="137" x="26" y="311.062">always_executed_hook()</text><ellipse cx="17" cy="320.6563" fill="#84BE84" rx="3" ry="3" style="stroke: #038048; stroke-width: 1.0;"/><text fill="#000000" font-family="sans-serif" font-size="11" lengthAdjust="spacingAndGlyphs" textLength="85" x="26" y="323.8667">delete_device()</text><ellipse cx="17" cy="333.4609" fill="#84BE84" rx="3" ry="3" style="stroke: #038048; stroke-width: 1.0;"/><text fill="#000000" font-family="sans-serif" font-size="11" lengthAdjust="spacingAndGlyphs" textLength="97" x="26" y="336.6714">simulationMode()</text><ellipse cx="17" cy="346.2656" fill="#84BE84" rx="3" ry="3" style="stroke: #038048; stroke-width: 1.0;"/><text fill="#000000" font-family="sans-serif" font-size="11" lengthAdjust="spacingAndGlyphs" textLength="97" x="26" y="349.4761">health_changed()</text><ellipse cx="17" cy="359.0703" fill="#84BE84" rx="3" ry="3" style="stroke: #038048; stroke-width: 1.0;"/><text fill="#000000" font-family="sans-serif" font-size="11" lengthAdjust="spacingAndGlyphs" textLength="75" x="26" y="362.2808">jobsErrored()</text><ellipse cx="17" cy="371.875" fill="#84BE84" rx="3" ry="3" style="stroke: #038048; stroke-width: 1.0;"/><text fill="#000000" font-family="sans-serif" font-size="11" lengthAdjust="spacingAndGlyphs" textLength="65" x="26" y="375.0854">jobsFailed()</text><ellipse cx="17" cy="384.6797" fill="#84BE84" rx="3" ry="3" style="stroke: #038048; stroke-width: 1.0;"/><text fill="#000000" font-family="sans-serif" font-size="11" lengthAdjust="spacingAndGlyphs" textLength="79" x="26" y="387.8901">jobsFinished()</text><ellipse cx="17" cy="397.4844" fill="#84BE84" rx="3" ry="3" style="stroke: #038048; stroke-width: 1.0;"/><text fill="#000000" font-family="sans-serif" font-size="11" lengthAdjust="spacingAndGlyphs" textLength="62" x="26" y="400.6948">jobsKilled()</text><ellipse cx="17" cy="410.2891" fill="#84BE84" rx="3" ry="3" style="stroke: #038048; stroke-width: 1.0;"/><text fill="#000000" font-family="sans-serif" font-size="11" lengthAdjust="spacingAndGlyphs" textLength="65" x="26" y="413.4995">jobsKilling()</text><ellipse cx="17" cy="423.0938" fill="#84BE84" rx="3" ry="3" style="stroke: #038048; stroke-width: 1.0;"/><text fill="#000000" font-family="sans-serif" font-size="11" lengthAdjust="spacingAndGlyphs" textLength="56" x="26" y="426.3042">jobsLost()</text><ellipse cx="17" cy="435.8984" fill="#84BE84" rx="3" ry="3" style="stroke: #038048; stroke-width: 1.0;"/><text fill="#000000" font-family="sans-serif" font-size="11" lengthAdjust="spacingAndGlyphs" textLength="77" x="26" y="439.1089">jobsRunning()</text><ellipse cx="17" cy="448.7031" fill="#84BE84" rx="3" ry="3" style="stroke: #038048; stroke-width: 1.0;"/><text fill="#000000" font-family="sans-serif" font-size="11" lengthAdjust="spacingAndGlyphs" textLength="75" x="26" y="451.9136">jobsStaging()</text><ellipse cx="17" cy="461.5078" fill="#84BE84" rx="3" ry="3" style="stroke: #038048; stroke-width: 1.0;"/><text fill="#000000" font-family="sans-serif" font-size="11" lengthAdjust="spacingAndGlyphs" textLength="77" x="26" y="464.7183">jobsStarting()</text><ellipse cx="17" cy="474.3125" fill="#84BE84" rx="3" ry="3" style="stroke: #038048; stroke-width: 1.0;"/><text fill="#000000" font-family="sans-serif" font-size="11" lengthAdjust="spacingAndGlyphs" textLength="103" x="26" y="477.5229">jobsUnreachable()</text><ellipse cx="17" cy="487.1172" fill="#84BE84" rx="3" ry="3" style="stroke: #038048; stroke-width: 1.0;"/><text fill="#000000" font-family="sans-serif" font-size="11" lengthAdjust="spacingAndGlyphs" textLength="83" x="26" y="490.3276">memoryTotal()</text><ellipse cx="17" cy="499.9219" fill="#84BE84" rx="3" ry="3" style="stroke: #038048; stroke-width: 1.0;"/><text fill="#000000" font-family="sans-serif" font-size="11" lengthAdjust="spacingAndGlyphs" textLength="81" x="26" y="503.1323">memoryAvail()</text><ellipse cx="17" cy="512.7266" fill="#84BE84" rx="3" ry="3" style="stroke: #038048; stroke-width: 1.0;"/><text fill="#000000" font-family="sans-serif" font-size="11" lengthAdjust="spacingAndGlyphs" textLength="84" x="26" y="515.937">memoryUsed()</text><ellipse cx="17" cy="525.5313" fill="#84BE84" rx="3" ry="3" style="stroke: #038048; stroke-width: 1.0;"/><text fill="#000000" font-family="sans-serif" font-size="11" lengthAdjust="spacingAndGlyphs" textLength="75" x="26" y="528.7417">nodesInUse()</text><ellipse cx="17" cy="538.3359" fill="#84BE84" rx="3" ry="3" style="stroke: #038048; stroke-width: 1.0;"/><text fill="#000000" font-family="sans-serif" font-size="11" lengthAdjust="spacingAndGlyphs" textLength="69" x="26" y="541.5464">nodesAvail()</text><ellipse cx="17" cy="551.1406" fill="#84BE84" rx="3" ry="3" style="stroke: #038048; stroke-width: 1.0;"/><text fill="#000000" font-family="sans-serif" font-size="11" lengthAdjust="spacingAndGlyphs" textLength="71" x="26" y="554.3511">nodesTotal()</text><ellipse cx="17" cy="563.9453" fill="#84BE84" rx="3" ry="3" style="stroke: #038048; stroke-width: 1.0;"/><text fill="#000000" font-family="sans-serif" font-size="11" lengthAdjust="spacingAndGlyphs" textLength="88" x="26" y="567.1558">masterNodeId()</text><ellipse cx="17" cy="576.75" fill="#84BE84" rx="3" ry="3" style="stroke: #038048; stroke-width: 1.0;"/><text fill="#000000" font-family="sans-serif" font-size="11" lengthAdjust="spacingAndGlyphs" textLength="172" x="26" y="579.9604">masterCpusAllocatedPercent()</text><ellipse cx="17" cy="589.5547" fill="#84BE84" rx="3" ry="3" style="stroke: #038048; stroke-width: 1.0;"/><text fill="#000000" font-family="sans-serif" font-size="11" lengthAdjust="spacingAndGlyphs" textLength="107" x="26" y="592.7651">masterCpusUsed()</text><ellipse cx="17" cy="602.3594" fill="#84BE84" rx="3" ry="3" style="stroke: #038048; stroke-width: 1.0;"/><text fill="#000000" font-family="sans-serif" font-size="11" lengthAdjust="spacingAndGlyphs" textLength="106" x="26" y="605.5698">masterCpusTotal()</text><ellipse cx="17" cy="615.1641" fill="#84BE84" rx="3" ry="3" style="stroke: #038048; stroke-width: 1.0;"/><text fill="#000000" font-family="sans-serif" font-size="11" lengthAdjust="spacingAndGlyphs" textLength="116" x="26" y="618.3745">masterDiskPercent()</text><ellipse cx="17" cy="627.9688" fill="#84BE84" rx="3" ry="3" style="stroke: #038048; stroke-width: 1.0;"/><text fill="#000000" font-family="sans-serif" font-size="11" lengthAdjust="spacingAndGlyphs" textLength="102" x="26" y="631.1792">masterDiskUsed()</text><ellipse cx="17" cy="640.7734" fill="#84BE84" rx="3" ry="3" style="stroke: #038048; stroke-width: 1.0;"/><text fill="#000000" font-family="sans-serif" font-size="11" lengthAdjust="spacingAndGlyphs" textLength="101" x="26" y="643.9839">masterDiskTotal()</text><ellipse cx="17" cy="653.5781" fill="#84BE84" rx="3" ry="3" style="stroke: #038048; stroke-width: 1.0;"/><text fill="#000000" font-family="sans-serif" font-size="11" lengthAdjust="spacingAndGlyphs" textLength="119" x="26" y="656.7886">masterMemPercent()</text><ellipse cx="17" cy="666.3828" fill="#84BE84" rx="3" ry="3" style="stroke: #038048; stroke-width: 1.0;"/><text fill="#000000" font-family="sans-serif" font-size="11" lengthAdjust="spacingAndGlyphs" textLength="105" x="26" y="669.5933">masterMemUsed()</text><ellipse cx="17" cy="679.1875" fill="#84BE84" rx="3" ry="3" style="stroke: #038048; stroke-width: 1.0;"/><text fill="#000000" font-family="sans-serif" font-size="11" lengthAdjust="spacingAndGlyphs" textLength="104" x="26" y="682.3979">masterMemTotal()</text><ellipse cx="17" cy="691.9922" fill="#84BE84" rx="3" ry="3" style="stroke: #038048; stroke-width: 1.0;"/><text fill="#000000" font-family="sans-serif" font-size="11" lengthAdjust="spacingAndGlyphs" textLength="161" x="26" y="695.2026">shadowMasterPoolNodeIds()</text><ellipse cx="17" cy="704.7969" fill="#84BE84" rx="3" ry="3" style="stroke: #038048; stroke-width: 1.0;"/><text fill="#000000" font-family="sans-serif" font-size="11" lengthAdjust="spacingAndGlyphs" textLength="152" x="26" y="708.0073">shadowMasterPoolStatus()</text><ellipse cx="17" cy="717.6016" fill="#84BE84" rx="3" ry="3" style="stroke: #038048; stroke-width: 1.0;"/><text fill="#000000" font-family="sans-serif" font-size="11" lengthAdjust="spacingAndGlyphs" textLength="53" x="26" y="720.812">StartJob()</text><ellipse cx="17" cy="730.4063" fill="#84BE84" rx="3" ry="3" style="stroke: #038048; stroke-width: 1.0;"/><text fill="#000000" font-family="sans-serif" font-size="11" lengthAdjust="spacingAndGlyphs" textLength="51" x="26" y="733.6167">StopJob()</text><ellipse cx="17" cy="743.2109" fill="#84BE84" rx="3" ry="3" style="stroke: #038048; stroke-width: 1.0;"/><text fill="#000000" font-family="sans-serif" font-size="11" lengthAdjust="spacingAndGlyphs" textLength="65" x="26" y="746.4214">SubmitJob()</text><ellipse cx="17" cy="756.0156" fill="#84BE84" rx="3" ry="3" style="stroke: #038048; stroke-width: 1.0;"/><text fill="#000000" font-family="sans-serif" font-size="11" lengthAdjust="spacingAndGlyphs" textLength="82" x="26" y="759.2261">GetJobStatus()</text><ellipse cx="17" cy="768.8203" fill="#84BE84" rx="3" ry="3" style="stroke: #038048; stroke-width: 1.0;"/><text fill="#000000" font-family="sans-serif" font-size="11" lengthAdjust="spacingAndGlyphs" textLength="85" x="26" y="772.0308">ClearJobStats()</text><ellipse cx="17" cy="781.625" fill="#84BE84" rx="3" ry="3" style="stroke: #038048; stroke-width: 1.0;"/><text fill="#000000" font-family="sans-serif" font-size="11" lengthAdjust="spacingAndGlyphs" textLength="95" x="26" y="784.8354">PingMasterPool()</text><rect fill="#F24D5C" height="6" style="stroke: #C82930; stroke-width: 1.0;" width="6" x="14" y="791.4297"/><text fill="#000000" font-family="sans-serif" font-size="11" lengthAdjust="spacingAndGlyphs" textLength="129" x="26" y="797.6401">_update_health_state()</text><!--MD5=[38ec8ebb384a5163003b04e2a5da297f]
class HardwareHealthEvaluator--><rect fill="#FEFECE" filter="url(#f16h3tfn44skbx)" height="48" id="HardwareHealthEvaluator" style="stroke: #A80036; stroke-width: 1.5;" width="192" x="388" y="1088"/><ellipse cx="403" cy="1104" fill="#ADD1B2" rx="11" ry="11" style="stroke: #A80036; stroke-width: 1.0;"/><path d="M405.9688,1109.6406 Q405.3906,1109.9375 404.75,1110.0781 Q404.1094,1110.2344 403.4063,1110.2344 Q400.9063,1110.2344 399.5781,1108.5938 Q398.2656,1106.9375 398.2656,1103.8125 Q398.2656,1100.6875 399.5781,1099.0313 Q400.9063,1097.375 403.4063,1097.375 Q404.1094,1097.375 404.75,1097.5313 Q405.4063,1097.6875 405.9688,1097.9844 L405.9688,1100.7031 Q405.3438,1100.125 404.75,1099.8594 Q404.1563,1099.5781 403.5313,1099.5781 Q402.1875,1099.5781 401.5,1100.6563 Q400.8125,1101.7188 400.8125,1103.8125 Q400.8125,1105.9063 401.5,1106.9844 Q402.1875,1108.0469 403.5313,1108.0469 Q404.1563,1108.0469 404.75,1107.7813 Q405.3438,1107.5 405.9688,1106.9219 L405.9688,1109.6406 Z "/><text fill="#000000" font-family="sans-serif" font-size="12" lengthAdjust="spacingAndGlyphs" textLength="160" x="417" y="1108.1543">HardwareHealthEvaluator</text><line style="stroke: #A80036; stroke-width: 1.5;" x1="389" x2="579" y1="1120" y2="1120"/><line style="stroke: #A80036; stroke-width: 1.5;" x1="389" x2="579" y1="1128" y2="1128"/><!--MD5=[fb1ddb9ac14f63bdd608ba2c81065e04]
class SimulableHardwareFactory--><rect fill="#FEFECE" filter="url(#f16h3tfn44skbx)" height="48" id="SimulableHardwareFactory" style="stroke: #A80036; stroke-width: 1.5;" width="198" x="499" y="8"/><ellipse cx="514" cy="24" fill="#ADD1B2" rx="11" ry="11" style="stroke: #A80036; stroke-width: 1.0;"/><path d="M516.9688,29.6406 Q516.3906,29.9375 515.75,30.0781 Q515.1094,30.2344 514.4063,30.2344 Q511.9063,30.2344 510.5781,28.5938 Q509.2656,26.9375 509.2656,23.8125 Q509.2656,20.6875 510.5781,19.0313 Q511.9063,17.375 514.4063,17.375 Q515.1094,17.375 515.75,17.5313 Q516.4063,17.6875 516.9688,17.9844 L516.9688,20.7031 Q516.3438,20.125 515.75,19.8594 Q515.1563,19.5781 514.5313,19.5781 Q513.1875,19.5781 512.5,20.6563 Q511.8125,21.7188 511.8125,23.8125 Q511.8125,25.9063 512.5,26.9844 Q513.1875,28.0469 514.5313,28.0469 Q515.1563,28.0469 515.75,27.7813 Q516.3438,27.5 516.9688,26.9219 L516.9688,29.6406 Z "/><text fill="#000000" font-family="sans-serif" font-size="12" lengthAdjust="spacingAndGlyphs" textLength="166" x="528" y="28.1543">SimulableHardwareFactory</text><line style="stroke: #A80036; stroke-width: 1.5;" x1="500" x2="696" y1="40" y2="40"/><line style="stroke: #A80036; stroke-width: 1.5;" x1="500" x2="696" y1="48" y2="48"/><!--MD5=[0cfd3852ac0d36509766ae81f39b0b30]
class SimulableHardwareManager--><rect fill="#FEFECE" filter="url(#f16h3tfn44skbx)" height="48" id="SimulableHardwareManager" style="stroke: #A80036; stroke-width: 1.5;" width="207" x="269.5" y="436"/><ellipse cx="284.5" cy="452" fill="#ADD1B2" rx="11" ry="11" style="stroke: #A80036; stroke-width: 1.0;"/><path d="M287.4688,457.6406 Q286.8906,457.9375 286.25,458.0781 Q285.6094,458.2344 284.9063,458.2344 Q282.4063,458.2344 281.0781,456.5938 Q279.7656,454.9375 279.7656,451.8125 Q279.7656,448.6875 281.0781,447.0313 Q282.4063,445.375 284.9063,445.375 Q285.6094,445.375 286.25,445.5313 Q286.9063,445.6875 287.4688,445.9844 L287.4688,448.7031 Q286.8438,448.125 286.25,447.8594 Q285.6563,447.5781 285.0313,447.5781 Q283.6875,447.5781 283,448.6563 Q282.3125,449.7188 282.3125,451.8125 Q282.3125,453.9063 283,454.9844 Q283.6875,456.0469 285.0313,456.0469 Q285.6563,456.0469 286.25,455.7813 Q286.8438,455.5 287.4688,454.9219 L287.4688,457.6406 Z "/><text fill="#000000" font-family="sans-serif" font-size="12" lengthAdjust="spacingAndGlyphs" textLength="175" x="298.5" y="456.1543">SimulableHardwareManager</text><line style="stroke: #A80036; stroke-width: 1.5;" x1="270.5" x2="475.5" y1="468" y2="468"/><line style="stroke: #A80036; stroke-width: 1.5;" x1="270.5" x2="475.5" y1="476" y2="476"/><!--MD5=[902c2af1b0aa2af390c68adf3fc1d99d]
class MccsGroupDevice--><rect fill="#FEFECE" filter="url(#f16h3tfn44skbx)" height="48" id="MccsGroupDevice" style="stroke: #A80036; stroke-width: 1.5;" width="142" x="49" y="8"/><ellipse cx="64" cy="24" fill="#ADD1B2" rx="11" ry="11" style="stroke: #A80036; stroke-width: 1.0;"/><path d="M66.9688,29.6406 Q66.3906,29.9375 65.75,30.0781 Q65.1094,30.2344 64.4063,30.2344 Q61.9063,30.2344 60.5781,28.5938 Q59.2656,26.9375 59.2656,23.8125 Q59.2656,20.6875 60.5781,19.0313 Q61.9063,17.375 64.4063,17.375 Q65.1094,17.375 65.75,17.5313 Q66.4063,17.6875 66.9688,17.9844 L66.9688,20.7031 Q66.3438,20.125 65.75,19.8594 Q65.1563,19.5781 64.5313,19.5781 Q63.1875,19.5781 62.5,20.6563 Q61.8125,21.7188 61.8125,23.8125 Q61.8125,25.9063 62.5,26.9844 Q63.1875,28.0469 64.5313,28.0469 Q65.1563,28.0469 65.75,27.7813 Q66.3438,27.5 66.9688,26.9219 L66.9688,29.6406 Z "/><text fill="#000000" font-family="sans-serif" font-size="12" lengthAdjust="spacingAndGlyphs" textLength="110" x="78" y="28.1543">MccsGroupDevice</text><line style="stroke: #A80036; stroke-width: 1.5;" x1="50" x2="190" y1="40" y2="40"/><line style="stroke: #A80036; stroke-width: 1.5;" x1="50" x2="190" y1="48" y2="48"/><!--MD5=[5a8585a0ea440c863a87a2d097c48b31]
reverse link HardwareHealthEvaluator to ClusterHealthEvaluator--><path d="M468.9008,1154.9504 C444.5137,1224.3204 397.0438,1359.3501 375.7682,1419.8695 " fill="none" id="HardwareHealthEvaluator&lt;-ClusterHealthEvaluator" style="stroke: #A80036; stroke-width: 1.0;"/><polygon fill="none" points="462.3003,1152.6192,475.5372,1136.0727,475.5079,1157.2624,462.3003,1152.6192" style="stroke: #A80036; stroke-width: 1.0;"/><!--MD5=[cd7446d7f9fc54ffaca65306bfb8908f]
reverse link SimulableHardwareFactory to ClusterFactory--><path d="M598,76.4444 C598,161.1536 598,344.2741 598,422.9018 " fill="none" id="SimulableHardwareFactory&lt;-ClusterFactory" style="stroke: #A80036; stroke-width: 1.0;"/><polygon fill="none" points="591.0001,76.2375,598,56.2374,605.0001,76.2374,591.0001,76.2375" style="stroke: #A80036; stroke-width: 1.0;"/><!--MD5=[58516aff2127960535e47066aad8c570]
reverse link SimulableHardwareManager to ClusterManager--><path d="M364.4097,504.1012 C350.1147,577.4897 320.4358,729.8573 294.3689,863.6809 " fill="none" id="SimulableHardwareManager&lt;-ClusterManager" style="stroke: #A80036; stroke-width: 1.0;"/><polygon fill="none" points="357.5584,502.6619,368.2532,484.3692,371.3002,505.3386,357.5584,502.6619" style="stroke: #A80036; stroke-width: 1.0;"/><!--MD5=[621c0976ed658810592d46b7421b9c61]
reverse link MccsGroupDevice to MccsClusterManagerDevice--><path d="M120,76.561 C120,88.0608 120,101.3687 120,115.9786 " fill="none" id="MccsGroupDevice&lt;-MccsClusterManagerDevice" style="stroke: #A80036; stroke-width: 1.0;"/><polygon fill="none" points="113.0001,76.2375,120,56.2374,127.0001,76.2374,113.0001,76.2375" style="stroke: #A80036; stroke-width: 1.0;"/><!--MD5=[fb89403e066bb982758dd10c65af5da1]
link ClusterManager to ClusterHealthEvaluator--><path d="M333.2665,1360.2329 C341.4538,1383.5221 348.737,1404.2393 354.2543,1419.9336 " fill="none" id="ClusterManager-ClusterHealthEvaluator" style="stroke: #A80036; stroke-width: 1.0;"/><!--MD5=[c44c7f87f3df543871d3a228b962e91f]
link MccsClusterManagerDevice to ClusterManager--><path d="M186.5052,804.1382 C190.3801,824.1892 194.2373,844.1485 198.0178,863.7113 " fill="none" id="MccsClusterManagerDevice-ClusterManager" style="stroke: #A80036; stroke-width: 1.0;"/><!--MD5=[dc1af0af892d225c7d34d4fefea2177c]
@startuml
class ClusterHealthEvaluator
ClusterHealthEvaluator : +evaluate_health()
class ClusterFactory
ClusterFactory : +__init__()
ClusterFactory : -_create_static_simulator()
class ClusterManager
ClusterManager : +__init__()
ClusterManager : +jobs_errored()
ClusterManager : +jobs_failed()
ClusterManager : +jobs_finished()
ClusterManager : +jobs_killed()
ClusterManager : +jobs_lost()
ClusterManager : +jobs_staging()
ClusterManager : +jobs_starting()
ClusterManager : +jobs_running()
ClusterManager : +jobs_killing()
ClusterManager : +jobs_unreachable()
ClusterManager : +memory_total()
ClusterManager : +memory_used()
ClusterManager : +memory_avail()
ClusterManager : +nodes_total()
ClusterManager : +nodes_in_use()
ClusterManager : +nodes_avail()
ClusterManager : +master_cpus_total()
ClusterManager : +master_cpus_used()
ClusterManager : +master_cpus_allocated_percent()
ClusterManager : +master_disk_total()
ClusterManager : +master_disk_used()
ClusterManager : +master_disk_percent()
ClusterManager : +master_mem_total()
ClusterManager : +master_mem_used()
ClusterManager : +master_mem_percent()
ClusterManager : +master_node_id()
ClusterManager : +shadow_master_pool_node_ids()
ClusterManager : +shadow_master_pool_status()
ClusterManager : +ping_master_pool()
ClusterManager : +clear_job_stats()
ClusterManager : +get_job_status()
ClusterManager : +submit_job()
ClusterManager : +start_job()
ClusterManager : +stop_job()
class MccsClusterManagerDevice
MccsClusterManagerDevice : +__init__()
MccsClusterManagerDevice : +do()
MccsClusterManagerDevice : -_initialise_connections()
MccsClusterManagerDevice : -_initialise_hardware_management()
MccsClusterManagerDevice : -_initialise_health_monitoring()
MccsClusterManagerDevice : +interrupt()
MccsClusterManagerDevice : +always_executed_hook()
MccsClusterManagerDevice : +delete_device()
MccsClusterManagerDevice : +simulationMode()
MccsClusterManagerDevice : +health_changed()
MccsClusterManagerDevice : +jobsErrored()
MccsClusterManagerDevice : +jobsFailed()
MccsClusterManagerDevice : +jobsFinished()
MccsClusterManagerDevice : +jobsKilled()
MccsClusterManagerDevice : +jobsKilling()
MccsClusterManagerDevice : +jobsLost()
MccsClusterManagerDevice : +jobsRunning()
MccsClusterManagerDevice : +jobsStaging()
MccsClusterManagerDevice : +jobsStarting()
MccsClusterManagerDevice : +jobsUnreachable()
MccsClusterManagerDevice : +memoryTotal()
MccsClusterManagerDevice : +memoryAvail()
MccsClusterManagerDevice : +memoryUsed()
MccsClusterManagerDevice : +nodesInUse()
MccsClusterManagerDevice : +nodesAvail()
MccsClusterManagerDevice : +nodesTotal()
MccsClusterManagerDevice : +masterNodeId()
MccsClusterManagerDevice : +masterCpusAllocatedPercent()
MccsClusterManagerDevice : +masterCpusUsed()
MccsClusterManagerDevice : +masterCpusTotal()
MccsClusterManagerDevice : +masterDiskPercent()
MccsClusterManagerDevice : +masterDiskUsed()
MccsClusterManagerDevice : +masterDiskTotal()
MccsClusterManagerDevice : +masterMemPercent()
MccsClusterManagerDevice : +masterMemUsed()
MccsClusterManagerDevice : +masterMemTotal()
MccsClusterManagerDevice : +shadowMasterPoolNodeIds()
MccsClusterManagerDevice : +shadowMasterPoolStatus()
MccsClusterManagerDevice : +StartJob()
MccsClusterManagerDevice : +StopJob()
MccsClusterManagerDevice : +SubmitJob()
MccsClusterManagerDevice : +GetJobStatus()
MccsClusterManagerDevice : +ClearJobStats()
MccsClusterManagerDevice : +PingMasterPool()
MccsClusterManagerDevice : -_update_health_state()
MccsClusterManagerDevice : -_init_thread
MccsClusterManagerDevice : -_init_lock
MccsClusterManagerDevice : -_init_interrupt
MccsClusterManagerDevice : -_interrupt
MccsClusterManagerDevice : -_health_state

HardwareHealthEvaluator <|- - ClusterHealthEvaluator
SimulableHardwareFactory <|- - ClusterFactory
SimulableHardwareManager <|- - ClusterManager
MccsGroupDevice <|- - MccsClusterManagerDevice
ClusterManager - - ClusterHealthEvaluator
MccsClusterManagerDevice - - ClusterManager
@enduml

PlantUML version 1.2020.06(Sun Apr 05 12:38:32 GMT 2020)
(GPL source distribution)
Java Runtime: OpenJDK Runtime Environment
JVM: OpenJDK 64-Bit Server VM
Java Version: 14-ea+33
Operating System: Linux
Default Encoding: UTF-8
Language: en
Country: US
--></g></svg>