<?xml version="1.0" encoding="UTF-8" standalone="no"?><svg xmlns="http://www.w3.org/2000/svg" xmlns:xlink="http://www.w3.org/1999/xlink" contentScriptType="application/ecmascript" contentStyleType="text/css" height="328px" preserveAspectRatio="none" style="width:422px;height:328px;" version="1.1" viewBox="0 0 422 328" width="422px" zoomAndPan="magnify"><defs><filter height="300%" id="f1clji0po9eu5f" width="300%" x="-1" y="-1"><feGaussianBlur result="blurOut" stdDeviation="2.0"/><feColorMatrix in="blurOut" result="blurOut2" type="matrix" values="0 0 0 0 0 0 0 0 0 0 0 0 0 0 0 0 0 0 .4 0"/><feOffset dx="4.0" dy="4.0" in="blurOut2" result="blurOut3"/><feBlend in="SourceGraphic" in2="blurOut3" mode="normal"/></filter></defs><g><!--MD5=[e5dcd6c5c052bf566a69c1f1574e83b9]
class ControllerResourceManager--><rect fill="#FEFECE" filter="url(#f1clji0po9eu5f)" height="60.8047" id="ControllerResourceManager" style="stroke: #A80036; stroke-width: 1.5;" width="207" x="6" y="186.5"/><ellipse cx="21" cy="202.5" fill="#ADD1B2" rx="11" ry="11" style="stroke: #A80036; stroke-width: 1.0;"/><path d="M23.9688,208.1406 Q23.3906,208.4375 22.75,208.5781 Q22.1094,208.7344 21.4063,208.7344 Q18.9063,208.7344 17.5781,207.0938 Q16.2656,205.4375 16.2656,202.3125 Q16.2656,199.1875 17.5781,197.5313 Q18.9063,195.875 21.4063,195.875 Q22.1094,195.875 22.75,196.0313 Q23.4063,196.1875 23.9688,196.4844 L23.9688,199.2031 Q23.3438,198.625 22.75,198.3594 Q22.1563,198.0781 21.5313,198.0781 Q20.1875,198.0781 19.5,199.1563 Q18.8125,200.2188 18.8125,202.3125 Q18.8125,204.4063 19.5,205.4844 Q20.1875,206.5469 21.5313,206.5469 Q22.1563,206.5469 22.75,206.2813 Q23.3438,206 23.9688,205.4219 L23.9688,208.1406 Z "/><text fill="#000000" font-family="sans-serif" font-size="12" lengthAdjust="spacingAndGlyphs" textLength="175" x="35" y="206.6543">ControllerResourceManager</text><line style="stroke: #A80036; stroke-width: 1.5;" x1="7" x2="212" y1="218.5" y2="218.5"/><line style="stroke: #A80036; stroke-width: 1.5;" x1="7" x2="212" y1="226.5" y2="226.5"/><ellipse cx="17" cy="237.5" fill="#84BE84" rx="3" ry="3" style="stroke: #038048; stroke-width: 1.0;"/><text fill="#000000" font-family="sans-serif" font-size="11" lengthAdjust="spacingAndGlyphs" textLength="46" x="26" y="240.7104">assign()</text><!--MD5=[128e7a92f7c6fb107445f3e33eb020a8]
class MccsController--><rect fill="#FEFECE" filter="url(#f1clji0po9eu5f)" height="201.6563" id="MccsController" style="stroke: #A80036; stroke-width: 1.5;" width="163" x="248" y="116"/><ellipse cx="280.55" cy="132" fill="#ADD1B2" rx="11" ry="11" style="stroke: #A80036; stroke-width: 1.0;"/><path d="M283.5188,137.6406 Q282.9406,137.9375 282.3,138.0781 Q281.6594,138.2344 280.9563,138.2344 Q278.4563,138.2344 277.1281,136.5938 Q275.8156,134.9375 275.8156,131.8125 Q275.8156,128.6875 277.1281,127.0313 Q278.4563,125.375 280.9563,125.375 Q281.6594,125.375 282.3,125.5313 Q282.9563,125.6875 283.5188,125.9844 L283.5188,128.7031 Q282.8938,128.125 282.3,127.8594 Q281.7063,127.5781 281.0813,127.5781 Q279.7375,127.5781 279.05,128.6563 Q278.3625,129.7188 278.3625,131.8125 Q278.3625,133.9063 279.05,134.9844 Q279.7375,136.0469 281.0813,136.0469 Q281.7063,136.0469 282.3,135.7813 Q282.8938,135.5 283.5188,134.9219 L283.5188,137.6406 Z "/><text fill="#000000" font-family="sans-serif" font-size="12" lengthAdjust="spacingAndGlyphs" textLength="92" x="298.45" y="136.1543">MccsController</text><line style="stroke: #A80036; stroke-width: 1.5;" x1="249" x2="410" y1="148" y2="148"/><rect fill="none" height="6" style="stroke: #C82930; stroke-width: 1.0;" width="6" x="256" y="156"/><text fill="#000000" font-family="sans-serif" font-size="11" lengthAdjust="spacingAndGlyphs" textLength="43" x="268" y="162.2104">_thread</text><rect fill="none" height="6" style="stroke: #C82930; stroke-width: 1.0;" width="6" x="256" y="168.8047"/><text fill="#000000" font-family="sans-serif" font-size="11" lengthAdjust="spacingAndGlyphs" textLength="28" x="268" y="175.0151">_lock</text><rect fill="none" height="6" style="stroke: #C82930; stroke-width: 1.0;" width="6" x="256" y="181.6094"/><text fill="#000000" font-family="sans-serif" font-size="11" lengthAdjust="spacingAndGlyphs" textLength="55" x="268" y="187.8198">_interrupt</text><rect fill="none" height="6" style="stroke: #C82930; stroke-width: 1.0;" width="6" x="256" y="194.4141"/><text fill="#000000" font-family="sans-serif" font-size="11" lengthAdjust="spacingAndGlyphs" textLength="76" x="268" y="200.6245">_health_state</text><rect fill="none" height="6" style="stroke: #C82930; stroke-width: 1.0;" width="6" x="256" y="207.2188"/><text fill="#000000" font-family="sans-serif" font-size="11" lengthAdjust="spacingAndGlyphs" textLength="101" x="268" y="213.4292">_command_result</text><line style="stroke: #A80036; stroke-width: 1.5;" x1="249" x2="410" y1="220.0234" y2="220.0234"/><ellipse cx="259" cy="231.0234" fill="#84BE84" rx="3" ry="3" style="stroke: #038048; stroke-width: 1.0;"/><text fill="#000000" font-family="sans-serif" font-size="11" lengthAdjust="spacingAndGlyphs" textLength="134" x="268" y="234.2339">init_command_objects()</text><rect fill="#F24D5C" height="6" style="stroke: #C82930; stroke-width: 1.0;" width="6" x="256" y="240.8281"/><text fill="#000000" font-family="sans-serif" font-size="11" lengthAdjust="spacingAndGlyphs" textLength="135" x="268" y="247.0386">_initialise_connections()</text><rect fill="#F24D5C" height="6" style="stroke: #C82930; stroke-width: 1.0;" width="6" x="256" y="253.6328"/><text fill="#000000" font-family="sans-serif" font-size="11" lengthAdjust="spacingAndGlyphs" textLength="133" x="268" y="259.8433">_initialise_device_pool()</text><ellipse cx="259" cy="269.4375" fill="#84BE84" rx="3" ry="3" style="stroke: #038048; stroke-width: 1.0;"/><text fill="#000000" font-family="sans-serif" font-size="11" lengthAdjust="spacingAndGlyphs" textLength="69" x="268" y="272.6479">succeeded()</text><ellipse cx="259" cy="282.2422" fill="#84BE84" rx="3" ry="3" style="stroke: #038048; stroke-width: 1.0;"/><text fill="#000000" font-family="sans-serif" font-size="11" lengthAdjust="spacingAndGlyphs" textLength="137" x="268" y="285.4526">always_executed_hook()</text><ellipse cx="259" cy="295.0469" fill="#84BE84" rx="3" ry="3" style="stroke: #038048; stroke-width: 1.0;"/><text fill="#000000" font-family="sans-serif" font-size="11" lengthAdjust="spacingAndGlyphs" textLength="85" x="268" y="298.2573">delete_device()</text><ellipse cx="259" cy="307.8516" fill="#84BE84" rx="3" ry="3" style="stroke: #038048; stroke-width: 1.0;"/><text fill="#000000" font-family="sans-serif" font-size="11" lengthAdjust="spacingAndGlyphs" textLength="97" x="268" y="311.062">health_changed()</text><!--MD5=[41e8030464447de9caaa30e39cb8dfb0]
class ResourceManager--><rect fill="#FEFECE" filter="url(#f1clji0po9eu5f)" height="48" id="ResourceManager" style="stroke: #A80036; stroke-width: 1.5;" width="146" x="36.5" y="8"/><ellipse cx="51.5" cy="24" fill="#ADD1B2" rx="11" ry="11" style="stroke: #A80036; stroke-width: 1.0;"/><path d="M54.4688,29.6406 Q53.8906,29.9375 53.25,30.0781 Q52.6094,30.2344 51.9063,30.2344 Q49.4063,30.2344 48.0781,28.5938 Q46.7656,26.9375 46.7656,23.8125 Q46.7656,20.6875 48.0781,19.0313 Q49.4063,17.375 51.9063,17.375 Q52.6094,17.375 53.25,17.5313 Q53.9063,17.6875 54.4688,17.9844 L54.4688,20.7031 Q53.8438,20.125 53.25,19.8594 Q52.6563,19.5781 52.0313,19.5781 Q50.6875,19.5781 50,20.6563 Q49.3125,21.7188 49.3125,23.8125 Q49.3125,25.9063 50,26.9844 Q50.6875,28.0469 52.0313,28.0469 Q52.6563,28.0469 53.25,27.7813 Q53.8438,27.5 54.4688,26.9219 L54.4688,29.6406 Z "/><text fill="#000000" font-family="sans-serif" font-size="12" lengthAdjust="spacingAndGlyphs" textLength="114" x="65.5" y="28.1543">ResourceManager</text><line style="stroke: #A80036; stroke-width: 1.5;" x1="37.5" x2="181.5" y1="40" y2="40"/><line style="stroke: #A80036; stroke-width: 1.5;" x1="37.5" x2="181.5" y1="48" y2="48"/><!--MD5=[6e053d35f2b21b53f637fe25c3bc577e]
class SKAMaster--><rect fill="#FEFECE" filter="url(#f1clji0po9eu5f)" height="48" id="SKAMaster" style="stroke: #A80036; stroke-width: 1.5;" width="98" x="280.5" y="8"/><ellipse cx="295.5" cy="24" fill="#ADD1B2" rx="11" ry="11" style="stroke: #A80036; stroke-width: 1.0;"/><path d="M298.4688,29.6406 Q297.8906,29.9375 297.25,30.0781 Q296.6094,30.2344 295.9063,30.2344 Q293.4063,30.2344 292.0781,28.5938 Q290.7656,26.9375 290.7656,23.8125 Q290.7656,20.6875 292.0781,19.0313 Q293.4063,17.375 295.9063,17.375 Q296.6094,17.375 297.25,17.5313 Q297.9063,17.6875 298.4688,17.9844 L298.4688,20.7031 Q297.8438,20.125 297.25,19.8594 Q296.6563,19.5781 296.0313,19.5781 Q294.6875,19.5781 294,20.6563 Q293.3125,21.7188 293.3125,23.8125 Q293.3125,25.9063 294,26.9844 Q294.6875,28.0469 296.0313,28.0469 Q296.6563,28.0469 297.25,27.7813 Q297.8438,27.5 298.4688,26.9219 L298.4688,29.6406 Z "/><text fill="#000000" font-family="sans-serif" font-size="12" lengthAdjust="spacingAndGlyphs" textLength="66" x="309.5" y="28.1543">SKAMaster</text><line style="stroke: #A80036; stroke-width: 1.5;" x1="281.5" x2="377.5" y1="40" y2="40"/><line style="stroke: #A80036; stroke-width: 1.5;" x1="281.5" x2="377.5" y1="48" y2="48"/><!--MD5=[9f6d2055d199b7b0bde1d7db0f410f62]
reverse link ResourceManager to ControllerResourceManager--><path d="M109.5,76.4963 C109.5,110.468 109.5,156.3896 109.5,186.344 " fill="none" id="ResourceManager&lt;-ControllerResourceManager" style="stroke: #A80036; stroke-width: 1.0;"/><polygon fill="none" points="102.5001,76.1856,109.5,56.1855,116.5001,76.1855,102.5001,76.1856" style="stroke: #A80036; stroke-width: 1.0;"/><!--MD5=[5a66784b5d135790ded74b0685080d5c]
reverse link SKAMaster to MccsController--><path d="M329.5,76.4877 C329.5,88.4798 329.5,101.9615 329.5,115.7045 " fill="none" id="SKAMaster&lt;-MccsController" style="stroke: #A80036; stroke-width: 1.0;"/><polygon fill="none" points="322.5001,76.1856,329.5,56.1855,336.5001,76.1855,322.5001,76.1856" style="stroke: #A80036; stroke-width: 1.0;"/><!--MD5=[8339fc3eb5110bf060bdecbd3aeeb85b]
@startuml
class ControllerResourceManager
ControllerResourceManager : +assign()
class MccsController
MccsController : +init_command_objects()
MccsController : -_initialise_connections()
MccsController : -_initialise_device_pool()
MccsController : +succeeded()
MccsController : +always_executed_hook()
MccsController : +delete_device()
MccsController : +health_changed()
MccsController : -_thread
MccsController : -_lock
MccsController : -_interrupt
MccsController : -_health_state
MccsController : -_command_result

ResourceManager <|- - ControllerResourceManager
SKAMaster <|- - MccsController
@enduml

PlantUML version 1.2020.06(Sun Apr 05 12:38:32 GMT 2020)
(GPL source distribution)
Java Runtime: OpenJDK Runtime Environment
JVM: OpenJDK 64-Bit Server VM
Java Version: 14-ea+33
Operating System: Linux
Default Encoding: UTF-8
Language: en
Country: US
--></g></svg>