<?xml version="1.0" encoding="UTF-8" standalone="no"?><svg xmlns="http://www.w3.org/2000/svg" xmlns:xlink="http://www.w3.org/1999/xlink" contentScriptType="application/ecmascript" contentStyleType="text/css" height="1011px" preserveAspectRatio="none" style="width:794px;height:1011px;" version="1.1" viewBox="0 0 794 1011" width="794px" zoomAndPan="magnify"><defs><filter height="300%" id="fwmwt7uoi3ps3" width="300%" x="-1" y="-1"><feGaussianBlur result="blurOut" stdDeviation="2.0"/><feColorMatrix in="blurOut" result="blurOut2" type="matrix" values="0 0 0 0 0 0 0 0 0 0 0 0 0 0 0 0 0 0 .4 0"/><feOffset dx="4.0" dy="4.0" in="blurOut2" result="blurOut3"/><feBlend in="SourceGraphic" in2="blurOut3" mode="normal"/></filter></defs><g><!--MD5=[8c884b4295300a4fa913b2bd801be84f]
class StationBeamHealthEvaluator--><rect fill="#FEFECE" filter="url(#fwmwt7uoi3ps3)" height="60.8047" id="StationBeamHealthEvaluator" style="stroke: #A80036; stroke-width: 1.5;" width="212" x="528" y="767.5"/><ellipse cx="543" cy="783.5" fill="#ADD1B2" rx="11" ry="11" style="stroke: #A80036; stroke-width: 1.0;"/><path d="M545.9688,789.1406 Q545.3906,789.4375 544.75,789.5781 Q544.1094,789.7344 543.4063,789.7344 Q540.9063,789.7344 539.5781,788.0938 Q538.2656,786.4375 538.2656,783.3125 Q538.2656,780.1875 539.5781,778.5313 Q540.9063,776.875 543.4063,776.875 Q544.1094,776.875 544.75,777.0313 Q545.4063,777.1875 545.9688,777.4844 L545.9688,780.2031 Q545.3438,779.625 544.75,779.3594 Q544.1563,779.0781 543.5313,779.0781 Q542.1875,779.0781 541.5,780.1563 Q540.8125,781.2188 540.8125,783.3125 Q540.8125,785.4063 541.5,786.4844 Q542.1875,787.5469 543.5313,787.5469 Q544.1563,787.5469 544.75,787.2813 Q545.3438,787 545.9688,786.4219 L545.9688,789.1406 Z "/><text fill="#000000" font-family="sans-serif" font-size="12" lengthAdjust="spacingAndGlyphs" textLength="180" x="557" y="787.6543">StationBeamHealthEvaluator</text><line style="stroke: #A80036; stroke-width: 1.5;" x1="529" x2="739" y1="799.5" y2="799.5"/><line style="stroke: #A80036; stroke-width: 1.5;" x1="529" x2="739" y1="807.5" y2="807.5"/><ellipse cx="539" cy="818.5" fill="#84BE84" rx="3" ry="3" style="stroke: #038048; stroke-width: 1.0;"/><text fill="#000000" font-family="sans-serif" font-size="11" lengthAdjust="spacingAndGlyphs" textLength="97" x="548" y="821.7104">evaluate_health()</text><!--MD5=[c08f34b642f815e0d138301fe87739d1]
class StationBeamDriver--><rect fill="#FEFECE" filter="url(#fwmwt7uoi3ps3)" height="99.2188" id="StationBeamDriver" style="stroke: #A80036; stroke-width: 1.5;" width="148" x="100" y="901"/><ellipse cx="115" cy="917" fill="#ADD1B2" rx="11" ry="11" style="stroke: #A80036; stroke-width: 1.0;"/><path d="M117.9688,922.6406 Q117.3906,922.9375 116.75,923.0781 Q116.1094,923.2344 115.4063,923.2344 Q112.9063,923.2344 111.5781,921.5938 Q110.2656,919.9375 110.2656,916.8125 Q110.2656,913.6875 111.5781,912.0313 Q112.9063,910.375 115.4063,910.375 Q116.1094,910.375 116.75,910.5313 Q117.4063,910.6875 117.9688,910.9844 L117.9688,913.7031 Q117.3438,913.125 116.75,912.8594 Q116.1563,912.5781 115.5313,912.5781 Q114.1875,912.5781 113.5,913.6563 Q112.8125,914.7188 112.8125,916.8125 Q112.8125,918.9063 113.5,919.9844 Q114.1875,921.0469 115.5313,921.0469 Q116.1563,921.0469 116.75,920.7813 Q117.3438,920.5 117.9688,919.9219 L117.9688,922.6406 Z "/><text fill="#000000" font-family="sans-serif" font-size="12" lengthAdjust="spacingAndGlyphs" textLength="116" x="129" y="921.1543">StationBeamDriver</text><line style="stroke: #A80036; stroke-width: 1.5;" x1="101" x2="247" y1="933" y2="933"/><rect fill="none" height="6" style="stroke: #C82930; stroke-width: 1.0;" width="6" x="108" y="941"/><text fill="#000000" font-family="sans-serif" font-size="11" lengthAdjust="spacingAndGlyphs" textLength="58" x="120" y="947.2104">_is_locked</text><line style="stroke: #A80036; stroke-width: 1.5;" x1="101" x2="247" y1="953.8047" y2="953.8047"/><ellipse cx="111" cy="964.8047" fill="#84BE84" rx="3" ry="3" style="stroke: #038048; stroke-width: 1.0;"/><text fill="#000000" font-family="sans-serif" font-size="11" lengthAdjust="spacingAndGlyphs" textLength="49" x="120" y="968.0151">__init__()</text><ellipse cx="111" cy="977.6094" fill="#84BE84" rx="3" ry="3" style="stroke: #038048; stroke-width: 1.0;"/><text fill="#000000" font-family="sans-serif" font-size="11" lengthAdjust="spacingAndGlyphs" textLength="111" x="120" y="980.8198">connection_status()</text><ellipse cx="111" cy="990.4141" fill="#84BE84" rx="3" ry="3" style="stroke: #038048; stroke-width: 1.0;"/><text fill="#000000" font-family="sans-serif" font-size="11" lengthAdjust="spacingAndGlyphs" textLength="60" x="120" y="993.6245">is_locked()</text><!--MD5=[fc89c20725a3bfda7588bf42c5054f47]
class StationBeamHardwareFactory--><rect fill="#FEFECE" filter="url(#fwmwt7uoi3ps3)" height="86.4141" id="StationBeamHardwareFactory" style="stroke: #A80036; stroke-width: 1.5;" width="218" x="169" y="755"/><ellipse cx="184" cy="771" fill="#ADD1B2" rx="11" ry="11" style="stroke: #A80036; stroke-width: 1.0;"/><path d="M186.9688,776.6406 Q186.3906,776.9375 185.75,777.0781 Q185.1094,777.2344 184.4063,777.2344 Q181.9063,777.2344 180.5781,775.5938 Q179.2656,773.9375 179.2656,770.8125 Q179.2656,767.6875 180.5781,766.0313 Q181.9063,764.375 184.4063,764.375 Q185.1094,764.375 185.75,764.5313 Q186.4063,764.6875 186.9688,764.9844 L186.9688,767.7031 Q186.3438,767.125 185.75,766.8594 Q185.1563,766.5781 184.5313,766.5781 Q183.1875,766.5781 182.5,767.6563 Q181.8125,768.7188 181.8125,770.8125 Q181.8125,772.9063 182.5,773.9844 Q183.1875,775.0469 184.5313,775.0469 Q185.1563,775.0469 185.75,774.7813 Q186.3438,774.5 186.9688,773.9219 L186.9688,776.6406 Z "/><text fill="#000000" font-family="sans-serif" font-size="12" lengthAdjust="spacingAndGlyphs" textLength="186" x="198" y="775.1543">StationBeamHardwareFactory</text><line style="stroke: #A80036; stroke-width: 1.5;" x1="170" x2="386" y1="787" y2="787"/><rect fill="none" height="6" style="stroke: #C82930; stroke-width: 1.0;" width="6" x="177" y="795"/><text fill="#000000" font-family="sans-serif" font-size="11" lengthAdjust="spacingAndGlyphs" textLength="60" x="189" y="801.2104">_hardware</text><line style="stroke: #A80036; stroke-width: 1.5;" x1="170" x2="386" y1="807.8047" y2="807.8047"/><ellipse cx="180" cy="818.8047" fill="#84BE84" rx="3" ry="3" style="stroke: #038048; stroke-width: 1.0;"/><text fill="#000000" font-family="sans-serif" font-size="11" lengthAdjust="spacingAndGlyphs" textLength="49" x="189" y="822.0151">__init__()</text><ellipse cx="180" cy="831.6094" fill="#84BE84" rx="3" ry="3" style="stroke: #038048; stroke-width: 1.0;"/><text fill="#000000" font-family="sans-serif" font-size="11" lengthAdjust="spacingAndGlyphs" textLength="62" x="189" y="834.8198">hardware()</text><!--MD5=[41ae8ef94e644769398bd7b86bdf5b34]
class StationBeamHardwareManager--><rect fill="#FEFECE" filter="url(#fwmwt7uoi3ps3)" height="73.6094" id="StationBeamHardwareManager" style="stroke: #A80036; stroke-width: 1.5;" width="227" x="328.5" y="621"/><ellipse cx="343.5" cy="637" fill="#ADD1B2" rx="11" ry="11" style="stroke: #A80036; stroke-width: 1.0;"/><path d="M346.4688,642.6406 Q345.8906,642.9375 345.25,643.0781 Q344.6094,643.2344 343.9063,643.2344 Q341.4063,643.2344 340.0781,641.5938 Q338.7656,639.9375 338.7656,636.8125 Q338.7656,633.6875 340.0781,632.0313 Q341.4063,630.375 343.9063,630.375 Q344.6094,630.375 345.25,630.5313 Q345.9063,630.6875 346.4688,630.9844 L346.4688,633.7031 Q345.8438,633.125 345.25,632.8594 Q344.6563,632.5781 344.0313,632.5781 Q342.6875,632.5781 342,633.6563 Q341.3125,634.7188 341.3125,636.8125 Q341.3125,638.9063 342,639.9844 Q342.6875,641.0469 344.0313,641.0469 Q344.6563,641.0469 345.25,640.7813 Q345.8438,640.5 346.4688,639.9219 L346.4688,642.6406 Z "/><text fill="#000000" font-family="sans-serif" font-size="12" lengthAdjust="spacingAndGlyphs" textLength="195" x="357.5" y="641.1543">StationBeamHardwareManager</text><line style="stroke: #A80036; stroke-width: 1.5;" x1="329.5" x2="554.5" y1="653" y2="653"/><line style="stroke: #A80036; stroke-width: 1.5;" x1="329.5" x2="554.5" y1="661" y2="661"/><ellipse cx="339.5" cy="672" fill="#84BE84" rx="3" ry="3" style="stroke: #038048; stroke-width: 1.0;"/><text fill="#000000" font-family="sans-serif" font-size="11" lengthAdjust="spacingAndGlyphs" textLength="49" x="348.5" y="675.2104">__init__()</text><ellipse cx="339.5" cy="684.8047" fill="#84BE84" rx="3" ry="3" style="stroke: #038048; stroke-width: 1.0;"/><text fill="#000000" font-family="sans-serif" font-size="11" lengthAdjust="spacingAndGlyphs" textLength="60" x="348.5" y="688.0151">is_locked()</text><!--MD5=[2bb5dbfa5c2372f7849a9cf15df22065]
class MccsStationBeam--><rect fill="#FEFECE" filter="url(#fwmwt7uoi3ps3)" height="444.9453" id="MccsStationBeam" style="stroke: #A80036; stroke-width: 1.5;" width="228" x="217" y="116"/><ellipse cx="271.25" cy="132" fill="#ADD1B2" rx="11" ry="11" style="stroke: #A80036; stroke-width: 1.0;"/><path d="M274.2188,137.6406 Q273.6406,137.9375 273,138.0781 Q272.3594,138.2344 271.6563,138.2344 Q269.1563,138.2344 267.8281,136.5938 Q266.5156,134.9375 266.5156,131.8125 Q266.5156,128.6875 267.8281,127.0313 Q269.1563,125.375 271.6563,125.375 Q272.3594,125.375 273,125.5313 Q273.6563,125.6875 274.2188,125.9844 L274.2188,128.7031 Q273.5938,128.125 273,127.8594 Q272.4063,127.5781 271.7813,127.5781 Q270.4375,127.5781 269.75,128.6563 Q269.0625,129.7188 269.0625,131.8125 Q269.0625,133.9063 269.75,134.9844 Q270.4375,136.0469 271.7813,136.0469 Q272.4063,136.0469 273,135.7813 Q273.5938,135.5 274.2188,134.9219 L274.2188,137.6406 Z "/><text fill="#000000" font-family="sans-serif" font-size="12" lengthAdjust="spacingAndGlyphs" textLength="111" x="291.75" y="136.1543">MccsStationBeam</text><line style="stroke: #A80036; stroke-width: 1.5;" x1="218" x2="444" y1="148" y2="148"/><rect fill="none" height="6" style="stroke: #C82930; stroke-width: 1.0;" width="6" x="225" y="156"/><text fill="#000000" font-family="sans-serif" font-size="11" lengthAdjust="spacingAndGlyphs" textLength="43" x="237" y="162.2104">_thread</text><rect fill="none" height="6" style="stroke: #C82930; stroke-width: 1.0;" width="6" x="225" y="168.8047"/><text fill="#000000" font-family="sans-serif" font-size="11" lengthAdjust="spacingAndGlyphs" textLength="28" x="237" y="175.0151">_lock</text><rect fill="none" height="6" style="stroke: #C82930; stroke-width: 1.0;" width="6" x="225" y="181.6094"/><text fill="#000000" font-family="sans-serif" font-size="11" lengthAdjust="spacingAndGlyphs" textLength="55" x="237" y="187.8198">_interrupt</text><rect fill="none" height="6" style="stroke: #C82930; stroke-width: 1.0;" width="6" x="225" y="194.4141"/><text fill="#000000" font-family="sans-serif" font-size="11" lengthAdjust="spacingAndGlyphs" textLength="76" x="237" y="200.6245">_health_state</text><rect fill="none" height="6" style="stroke: #C82930; stroke-width: 1.0;" width="6" x="225" y="207.2188"/><text fill="#000000" font-family="sans-serif" font-size="11" lengthAdjust="spacingAndGlyphs" textLength="68" x="237" y="213.4292">_station_ids</text><rect fill="none" height="6" style="stroke: #C82930; stroke-width: 1.0;" width="6" x="225" y="220.0234"/><text fill="#000000" font-family="sans-serif" font-size="11" lengthAdjust="spacingAndGlyphs" textLength="76" x="237" y="226.2339">_station_fqdn</text><rect fill="none" height="6" style="stroke: #C82930; stroke-width: 1.0;" width="6" x="225" y="232.8281"/><text fill="#000000" font-family="sans-serif" font-size="11" lengthAdjust="spacingAndGlyphs" textLength="96" x="237" y="239.0386">_logical_beam_id</text><rect fill="none" height="6" style="stroke: #C82930; stroke-width: 1.0;" width="6" x="225" y="245.6328"/><text fill="#000000" font-family="sans-serif" font-size="11" lengthAdjust="spacingAndGlyphs" textLength="100" x="237" y="251.8433">_desired_pointing</text><rect fill="none" height="6" style="stroke: #C82930; stroke-width: 1.0;" width="6" x="225" y="258.4375"/><text fill="#000000" font-family="sans-serif" font-size="11" lengthAdjust="spacingAndGlyphs" textLength="102" x="237" y="264.6479">_antenna_weights</text><line style="stroke: #A80036; stroke-width: 1.5;" x1="218" x2="444" y1="271.2422" y2="271.2422"/><ellipse cx="228" cy="282.2422" fill="#84BE84" rx="3" ry="3" style="stroke: #038048; stroke-width: 1.0;"/><text fill="#000000" font-family="sans-serif" font-size="11" lengthAdjust="spacingAndGlyphs" textLength="49" x="237" y="285.4526">__init__()</text><ellipse cx="228" cy="295.0469" fill="#84BE84" rx="3" ry="3" style="stroke: #038048; stroke-width: 1.0;"/><text fill="#000000" font-family="sans-serif" font-size="11" lengthAdjust="spacingAndGlyphs" textLength="22" x="237" y="298.2573">do()</text><rect fill="#F24D5C" height="6" style="stroke: #C82930; stroke-width: 1.0;" width="6" x="225" y="304.8516"/><text fill="#000000" font-family="sans-serif" font-size="11" lengthAdjust="spacingAndGlyphs" textLength="135" x="237" y="311.062">_initialise_connections()</text><rect fill="#F24D5C" height="6" style="stroke: #C82930; stroke-width: 1.0;" width="6" x="225" y="317.6563"/><text fill="#000000" font-family="sans-serif" font-size="11" lengthAdjust="spacingAndGlyphs" textLength="202" x="237" y="323.8667">_initialise_hardware_management()</text><rect fill="#F24D5C" height="6" style="stroke: #C82930; stroke-width: 1.0;" width="6" x="225" y="330.4609"/><text fill="#000000" font-family="sans-serif" font-size="11" lengthAdjust="spacingAndGlyphs" textLength="169" x="237" y="336.6714">_initialise_health_monitoring()</text><ellipse cx="228" cy="346.2656" fill="#84BE84" rx="3" ry="3" style="stroke: #038048; stroke-width: 1.0;"/><text fill="#000000" font-family="sans-serif" font-size="11" lengthAdjust="spacingAndGlyphs" textLength="57" x="237" y="349.4761">interrupt()</text><ellipse cx="228" cy="359.0703" fill="#84BE84" rx="3" ry="3" style="stroke: #038048; stroke-width: 1.0;"/><text fill="#000000" font-family="sans-serif" font-size="11" lengthAdjust="spacingAndGlyphs" textLength="134" x="237" y="362.2808">init_command_objects()</text><ellipse cx="228" cy="371.875" fill="#84BE84" rx="3" ry="3" style="stroke: #038048; stroke-width: 1.0;"/><text fill="#000000" font-family="sans-serif" font-size="11" lengthAdjust="spacingAndGlyphs" textLength="137" x="237" y="375.0854">always_executed_hook()</text><ellipse cx="228" cy="384.6797" fill="#84BE84" rx="3" ry="3" style="stroke: #038048; stroke-width: 1.0;"/><text fill="#000000" font-family="sans-serif" font-size="11" lengthAdjust="spacingAndGlyphs" textLength="85" x="237" y="387.8901">delete_device()</text><ellipse cx="228" cy="397.4844" fill="#84BE84" rx="3" ry="3" style="stroke: #038048; stroke-width: 1.0;"/><text fill="#000000" font-family="sans-serif" font-size="11" lengthAdjust="spacingAndGlyphs" textLength="97" x="237" y="400.6948">health_changed()</text><ellipse cx="228" cy="410.2891" fill="#84BE84" rx="3" ry="3" style="stroke: #038048; stroke-width: 1.0;"/><text fill="#000000" font-family="sans-serif" font-size="11" lengthAdjust="spacingAndGlyphs" textLength="50" x="237" y="413.4995">beamId()</text><ellipse cx="228" cy="423.0938" fill="#84BE84" rx="3" ry="3" style="stroke: #038048; stroke-width: 1.0;"/><text fill="#000000" font-family="sans-serif" font-size="11" lengthAdjust="spacingAndGlyphs" textLength="64" x="237" y="426.3042">stationIds()</text><ellipse cx="228" cy="435.8984" fill="#84BE84" rx="3" ry="3" style="stroke: #038048; stroke-width: 1.0;"/><text fill="#000000" font-family="sans-serif" font-size="11" lengthAdjust="spacingAndGlyphs" textLength="74" x="237" y="439.1089">stationFqdn()</text><ellipse cx="228" cy="448.7031" fill="#84BE84" rx="3" ry="3" style="stroke: #038048; stroke-width: 1.0;"/><text fill="#000000" font-family="sans-serif" font-size="11" lengthAdjust="spacingAndGlyphs" textLength="87" x="237" y="451.9136">logicalBeamId()</text><ellipse cx="228" cy="461.5078" fill="#84BE84" rx="3" ry="3" style="stroke: #038048; stroke-width: 1.0;"/><text fill="#000000" font-family="sans-serif" font-size="11" lengthAdjust="spacingAndGlyphs" textLength="72" x="237" y="464.7183">updateRate()</text><ellipse cx="228" cy="474.3125" fill="#84BE84" rx="3" ry="3" style="stroke: #038048; stroke-width: 1.0;"/><text fill="#000000" font-family="sans-serif" font-size="11" lengthAdjust="spacingAndGlyphs" textLength="90" x="237" y="477.5229">isBeamLocked()</text><ellipse cx="228" cy="487.1172" fill="#84BE84" rx="3" ry="3" style="stroke: #038048; stroke-width: 1.0;"/><text fill="#000000" font-family="sans-serif" font-size="11" lengthAdjust="spacingAndGlyphs" textLength="59" x="237" y="490.3276">channels()</text><ellipse cx="228" cy="499.9219" fill="#84BE84" rx="3" ry="3" style="stroke: #038048; stroke-width: 1.0;"/><text fill="#000000" font-family="sans-serif" font-size="11" lengthAdjust="spacingAndGlyphs" textLength="96" x="237" y="503.1323">desiredPointing()</text><ellipse cx="228" cy="512.7266" fill="#84BE84" rx="3" ry="3" style="stroke: #038048; stroke-width: 1.0;"/><text fill="#000000" font-family="sans-serif" font-size="11" lengthAdjust="spacingAndGlyphs" textLength="84" x="237" y="515.937">pointingDelay()</text><ellipse cx="228" cy="525.5313" fill="#84BE84" rx="3" ry="3" style="stroke: #038048; stroke-width: 1.0;"/><text fill="#000000" font-family="sans-serif" font-size="11" lengthAdjust="spacingAndGlyphs" textLength="109" x="237" y="528.7417">pointingDelayRate()</text><ellipse cx="228" cy="538.3359" fill="#84BE84" rx="3" ry="3" style="stroke: #038048; stroke-width: 1.0;"/><text fill="#000000" font-family="sans-serif" font-size="11" lengthAdjust="spacingAndGlyphs" textLength="98" x="237" y="541.5464">antennaWeights()</text><ellipse cx="228" cy="551.1406" fill="#84BE84" rx="3" ry="3" style="stroke: #038048; stroke-width: 1.0;"/><text fill="#000000" font-family="sans-serif" font-size="11" lengthAdjust="spacingAndGlyphs" textLength="63" x="237" y="554.3511">Configure()</text><!--MD5=[38ec8ebb384a5163003b04e2a5da297f]
class HardwareHealthEvaluator--><rect fill="#FEFECE" filter="url(#fwmwt7uoi3ps3)" height="48" id="HardwareHealthEvaluator" style="stroke: #A80036; stroke-width: 1.5;" width="192" x="591" y="634"/><ellipse cx="606" cy="650" fill="#ADD1B2" rx="11" ry="11" style="stroke: #A80036; stroke-width: 1.0;"/><path d="M608.9688,655.6406 Q608.3906,655.9375 607.75,656.0781 Q607.1094,656.2344 606.4063,656.2344 Q603.9063,656.2344 602.5781,654.5938 Q601.2656,652.9375 601.2656,649.8125 Q601.2656,646.6875 602.5781,645.0313 Q603.9063,643.375 606.4063,643.375 Q607.1094,643.375 607.75,643.5313 Q608.4063,643.6875 608.9688,643.9844 L608.9688,646.7031 Q608.3438,646.125 607.75,645.8594 Q607.1563,645.5781 606.5313,645.5781 Q605.1875,645.5781 604.5,646.6563 Q603.8125,647.7188 603.8125,649.8125 Q603.8125,651.9063 604.5,652.9844 Q605.1875,654.0469 606.5313,654.0469 Q607.1563,654.0469 607.75,653.7813 Q608.3438,653.5 608.9688,652.9219 L608.9688,655.6406 Z "/><text fill="#000000" font-family="sans-serif" font-size="12" lengthAdjust="spacingAndGlyphs" textLength="160" x="620" y="654.1543">HardwareHealthEvaluator</text><line style="stroke: #A80036; stroke-width: 1.5;" x1="592" x2="782" y1="666" y2="666"/><line style="stroke: #A80036; stroke-width: 1.5;" x1="592" x2="782" y1="674" y2="674"/><!--MD5=[c45e4265f2c253e24bf0954159b0db27]
class HardwareDriver--><rect fill="#FEFECE" filter="url(#fwmwt7uoi3ps3)" height="48" id="HardwareDriver" style="stroke: #A80036; stroke-width: 1.5;" width="128" x="6" y="774"/><ellipse cx="21" cy="790" fill="#ADD1B2" rx="11" ry="11" style="stroke: #A80036; stroke-width: 1.0;"/><path d="M23.9688,795.6406 Q23.3906,795.9375 22.75,796.0781 Q22.1094,796.2344 21.4063,796.2344 Q18.9063,796.2344 17.5781,794.5938 Q16.2656,792.9375 16.2656,789.8125 Q16.2656,786.6875 17.5781,785.0313 Q18.9063,783.375 21.4063,783.375 Q22.1094,783.375 22.75,783.5313 Q23.4063,783.6875 23.9688,783.9844 L23.9688,786.7031 Q23.3438,786.125 22.75,785.8594 Q22.1563,785.5781 21.5313,785.5781 Q20.1875,785.5781 19.5,786.6563 Q18.8125,787.7188 18.8125,789.8125 Q18.8125,791.9063 19.5,792.9844 Q20.1875,794.0469 21.5313,794.0469 Q22.1563,794.0469 22.75,793.7813 Q23.3438,793.5 23.9688,792.9219 L23.9688,795.6406 Z "/><text fill="#000000" font-family="sans-serif" font-size="12" lengthAdjust="spacingAndGlyphs" textLength="96" x="35" y="794.1543">HardwareDriver</text><line style="stroke: #A80036; stroke-width: 1.5;" x1="7" x2="133" y1="806" y2="806"/><line style="stroke: #A80036; stroke-width: 1.5;" x1="7" x2="133" y1="814" y2="814"/><!--MD5=[855514d6f112e71f0cab279b6db4f45e]
class HardwareFactory--><rect fill="#FEFECE" filter="url(#fwmwt7uoi3ps3)" height="48" id="HardwareFactory" style="stroke: #A80036; stroke-width: 1.5;" width="138" x="155" y="634"/><ellipse cx="170" cy="650" fill="#ADD1B2" rx="11" ry="11" style="stroke: #A80036; stroke-width: 1.0;"/><path d="M172.9688,655.6406 Q172.3906,655.9375 171.75,656.0781 Q171.1094,656.2344 170.4063,656.2344 Q167.9063,656.2344 166.5781,654.5938 Q165.2656,652.9375 165.2656,649.8125 Q165.2656,646.6875 166.5781,645.0313 Q167.9063,643.375 170.4063,643.375 Q171.1094,643.375 171.75,643.5313 Q172.4063,643.6875 172.9688,643.9844 L172.9688,646.7031 Q172.3438,646.125 171.75,645.8594 Q171.1563,645.5781 170.5313,645.5781 Q169.1875,645.5781 168.5,646.6563 Q167.8125,647.7188 167.8125,649.8125 Q167.8125,651.9063 168.5,652.9844 Q169.1875,654.0469 170.5313,654.0469 Q171.1563,654.0469 171.75,653.7813 Q172.3438,653.5 172.9688,652.9219 L172.9688,655.6406 Z "/><text fill="#000000" font-family="sans-serif" font-size="12" lengthAdjust="spacingAndGlyphs" textLength="106" x="184" y="654.1543">HardwareFactory</text><line style="stroke: #A80036; stroke-width: 1.5;" x1="156" x2="292" y1="666" y2="666"/><line style="stroke: #A80036; stroke-width: 1.5;" x1="156" x2="292" y1="674" y2="674"/><!--MD5=[5129867f0b0b1039a8d0c9ca5fae1cf1]
class HardwareManager--><rect fill="#FEFECE" filter="url(#fwmwt7uoi3ps3)" height="48" id="HardwareManager" style="stroke: #A80036; stroke-width: 1.5;" width="147" x="480.5" y="314.5"/><ellipse cx="495.5" cy="330.5" fill="#ADD1B2" rx="11" ry="11" style="stroke: #A80036; stroke-width: 1.0;"/><path d="M498.4688,336.1406 Q497.8906,336.4375 497.25,336.5781 Q496.6094,336.7344 495.9063,336.7344 Q493.4063,336.7344 492.0781,335.0938 Q490.7656,333.4375 490.7656,330.3125 Q490.7656,327.1875 492.0781,325.5313 Q493.4063,323.875 495.9063,323.875 Q496.6094,323.875 497.25,324.0313 Q497.9063,324.1875 498.4688,324.4844 L498.4688,327.2031 Q497.8438,326.625 497.25,326.3594 Q496.6563,326.0781 496.0313,326.0781 Q494.6875,326.0781 494,327.1563 Q493.3125,328.2188 493.3125,330.3125 Q493.3125,332.4063 494,333.4844 Q494.6875,334.5469 496.0313,334.5469 Q496.6563,334.5469 497.25,334.2813 Q497.8438,334 498.4688,333.4219 L498.4688,336.1406 Z "/><text fill="#000000" font-family="sans-serif" font-size="12" lengthAdjust="spacingAndGlyphs" textLength="115" x="509.5" y="334.6543">HardwareManager</text><line style="stroke: #A80036; stroke-width: 1.5;" x1="481.5" x2="626.5" y1="346.5" y2="346.5"/><line style="stroke: #A80036; stroke-width: 1.5;" x1="481.5" x2="626.5" y1="354.5" y2="354.5"/><!--MD5=[2e002e45cb8553ad68bda684b0076a38]
class SKAObsDevice--><rect fill="#FEFECE" filter="url(#fwmwt7uoi3ps3)" height="48" id="SKAObsDevice" style="stroke: #A80036; stroke-width: 1.5;" width="120" x="271" y="8"/><ellipse cx="286" cy="24" fill="#ADD1B2" rx="11" ry="11" style="stroke: #A80036; stroke-width: 1.0;"/><path d="M288.9688,29.6406 Q288.3906,29.9375 287.75,30.0781 Q287.1094,30.2344 286.4063,30.2344 Q283.9063,30.2344 282.5781,28.5938 Q281.2656,26.9375 281.2656,23.8125 Q281.2656,20.6875 282.5781,19.0313 Q283.9063,17.375 286.4063,17.375 Q287.1094,17.375 287.75,17.5313 Q288.4063,17.6875 288.9688,17.9844 L288.9688,20.7031 Q288.3438,20.125 287.75,19.8594 Q287.1563,19.5781 286.5313,19.5781 Q285.1875,19.5781 284.5,20.6563 Q283.8125,21.7188 283.8125,23.8125 Q283.8125,25.9063 284.5,26.9844 Q285.1875,28.0469 286.5313,28.0469 Q287.1563,28.0469 287.75,27.7813 Q288.3438,27.5 288.9688,26.9219 L288.9688,29.6406 Z "/><text fill="#000000" font-family="sans-serif" font-size="12" lengthAdjust="spacingAndGlyphs" textLength="88" x="300" y="28.1543">SKAObsDevice</text><line style="stroke: #A80036; stroke-width: 1.5;" x1="272" x2="390" y1="40" y2="40"/><line style="stroke: #A80036; stroke-width: 1.5;" x1="272" x2="390" y1="48" y2="48"/><!--MD5=[d362b50e597ec8428e9d2def44793410]
reverse link HardwareHealthEvaluator to StationBeamHealthEvaluator--><path d="M670.6867,701.0918 C662.5647,722.5461 652.9368,747.9782 645.5825,767.4048 " fill="none" id="HardwareHealthEvaluator&lt;-StationBeamHealthEvaluator" style="stroke: #A80036; stroke-width: 1.0;"/><polygon fill="none" points="664.2613,698.293,677.889,682.0669,677.3545,703.2498,664.2613,698.293" style="stroke: #A80036; stroke-width: 1.0;"/><!--MD5=[9dfae91f4debe4b1c6c0ef6ca21b3d62]
reverse link HardwareDriver to StationBeamDriver--><path d="M97.7989,838.7628 C110.8246,857.863 126.4579,880.7868 140.1651,900.8864 " fill="none" id="HardwareDriver&lt;-StationBeamDriver" style="stroke: #A80036; stroke-width: 1.0;"/><polygon fill="none" points="91.9644,842.6315,86.4791,822.1641,103.5308,834.7435,91.9644,842.6315" style="stroke: #A80036; stroke-width: 1.0;"/><!--MD5=[70185d175c8366a4cdda1faf2f311fa5]
reverse link HardwareFactory to StationBeamHardwareFactory--><path d="M240.5749,700.9721 C247.1616,718.0485 254.7261,737.6602 261.3228,754.7627 " fill="none" id="HardwareFactory&lt;-StationBeamHardwareFactory" style="stroke: #A80036; stroke-width: 1.0;"/><polygon fill="none" points="233.9494,703.246,233.2829,682.0669,247.0114,698.2078,233.9494,703.246" style="stroke: #A80036; stroke-width: 1.0;"/><!--MD5=[e16b7ca813ca38a6521284960cac3685]
reverse link HardwareManager to StationBeamHardwareManager--><path d="M538.8398,381.7473 C516.6807,444.9599 475.823,561.514 454.9748,620.9871 " fill="none" id="HardwareManager&lt;-StationBeamHardwareManager" style="stroke: #A80036; stroke-width: 1.0;"/><polygon fill="none" points="532.3596,379.0727,545.5818,362.5144,545.5714,383.7041,532.3596,379.0727" style="stroke: #A80036; stroke-width: 1.0;"/><!--MD5=[924efa75897e3fc76215deb8c8480dc0]
reverse link SKAObsDevice to MccsStationBeam--><path d="M331,76.2086 C331,87.9172 331,101.3876 331,115.9108 " fill="none" id="SKAObsDevice&lt;-MccsStationBeam" style="stroke: #A80036; stroke-width: 1.0;"/><polygon fill="none" points="324.0001,76.0506,331,56.0505,338.0001,76.0505,324.0001,76.0506" style="stroke: #A80036; stroke-width: 1.0;"/><!--MD5=[83ce1471af3b2e86b9c11d4e3e305a9b]
link StationBeamHardwareFactory to StationBeamDriver--><path d="M248.476,841.2925 C235.8049,859.8727 220.9289,881.6859 207.8175,900.9119 " fill="none" id="StationBeamHardwareFactory-StationBeamDriver" style="stroke: #A80036; stroke-width: 1.0;"/><!--MD5=[2cc37dd027833f0c99970a2174542d2f]
link StationBeamHardwareManager to StationBeamHardwareFactory--><path d="M398.4816,695.1499 C376.9406,713.5385 350.8176,735.8386 328.4099,754.9672 " fill="none" id="StationBeamHardwareManager-StationBeamHardwareFactory" style="stroke: #A80036; stroke-width: 1.0;"/><!--MD5=[b46acdc0f8ee8a42200c7074a7d35ead]
link StationBeamHardwareManager to StationBeamHealthEvaluator--><path d="M492.9484,695.1499 C523.833,717.6699 562.763,746.0563 591.8963,767.2994 " fill="none" id="StationBeamHardwareManager-StationBeamHealthEvaluator" style="stroke: #A80036; stroke-width: 1.0;"/><!--MD5=[9b6ea70a9815882e8b7ce5940fa95dfc]
link MccsStationBeam to StationBeamHardwareManager--><path d="M408.3951,561.2724 C416.2521,583.8877 423.4118,604.4961 429.0845,620.8244 " fill="none" id="MccsStationBeam-StationBeamHardwareManager" style="stroke: #A80036; stroke-width: 1.0;"/><!--MD5=[89826cd30d0d37b41c027ddad747cbd4]
@startuml
class StationBeamHealthEvaluator
StationBeamHealthEvaluator : +evaluate_health()
class StationBeamDriver
StationBeamDriver : +__init__()
StationBeamDriver : +connection_status()
StationBeamDriver : +is_locked()
class StationBeamHardwareFactory
StationBeamHardwareFactory : +__init__()
StationBeamHardwareFactory : +hardware()
class StationBeamHardwareManager
StationBeamHardwareManager : +__init__()
StationBeamHardwareManager : +is_locked()
class MccsStationBeam
MccsStationBeam : +__init__()
MccsStationBeam : +do()
MccsStationBeam : -_initialise_connections()
MccsStationBeam : -_initialise_hardware_management()
MccsStationBeam : -_initialise_health_monitoring()
MccsStationBeam : +interrupt()
MccsStationBeam : +init_command_objects()
MccsStationBeam : +always_executed_hook()
MccsStationBeam : +delete_device()
MccsStationBeam : +health_changed()
MccsStationBeam : +beamId()
MccsStationBeam : +stationIds()
MccsStationBeam : +stationFqdn()
MccsStationBeam : +logicalBeamId()
MccsStationBeam : +updateRate()
MccsStationBeam : +isBeamLocked()
MccsStationBeam : +channels()
MccsStationBeam : +desiredPointing()
MccsStationBeam : +pointingDelay()
MccsStationBeam : +pointingDelayRate()
MccsStationBeam : +antennaWeights()
MccsStationBeam : +Configure()
StationBeamDriver : -_is_locked
StationBeamHardwareFactory : -_hardware
MccsStationBeam : -_thread
MccsStationBeam : -_lock
MccsStationBeam : -_interrupt
MccsStationBeam : -_health_state
MccsStationBeam : -_station_ids
MccsStationBeam : -_station_fqdn
MccsStationBeam : -_logical_beam_id
MccsStationBeam : -_desired_pointing
MccsStationBeam : -_antenna_weights

HardwareHealthEvaluator <|- - StationBeamHealthEvaluator
HardwareDriver <|- - StationBeamDriver
HardwareFactory <|- - StationBeamHardwareFactory
HardwareManager <|- - StationBeamHardwareManager
SKAObsDevice <|- - MccsStationBeam
StationBeamHardwareFactory - - StationBeamDriver
StationBeamHardwareManager - - StationBeamHardwareFactory
StationBeamHardwareManager - - StationBeamHealthEvaluator
MccsStationBeam - - StationBeamHardwareManager
@enduml

PlantUML version 1.2020.06(Sun Apr 05 12:38:32 GMT 2020)
(GPL source distribution)
Java Runtime: OpenJDK Runtime Environment
JVM: OpenJDK 64-Bit Server VM
Java Version: 14-ea+33
Operating System: Linux
Default Encoding: UTF-8
Language: en
Country: US
--></g></svg>