<?xml version="1.0" encoding="UTF-8" standalone="no"?><svg xmlns="http://www.w3.org/2000/svg" xmlns:xlink="http://www.w3.org/1999/xlink" contentScriptType="application/ecmascript" contentStyleType="text/css" height="533px" preserveAspectRatio="none" style="width:212px;height:533px;" version="1.1" viewBox="0 0 212 533" width="212px" zoomAndPan="magnify"><defs><filter height="300%" id="fibg9x0llgq9s" width="300%" x="-1" y="-1"><feGaussianBlur result="blurOut" stdDeviation="2.0"/><feColorMatrix in="blurOut" result="blurOut2" type="matrix" values="0 0 0 0 0 0 0 0 0 0 0 0 0 0 0 0 0 0 .4 0"/><feOffset dx="4.0" dy="4.0" in="blurOut2" result="blurOut3"/><feBlend in="SourceGraphic" in2="blurOut3" mode="normal"/></filter></defs><g><!--MD5=[82fea849804dae3e0143a69968b46872]
class MccsStation--><rect fill="#FEFECE" filter="url(#fibg9x0llgq9s)" height="406.5313" id="MccsStation" style="stroke: #A80036; stroke-width: 1.5;" width="195" x="6" y="116"/><ellipse cx="61.25" cy="132" fill="#ADD1B2" rx="11" ry="11" style="stroke: #A80036; stroke-width: 1.0;"/><path d="M64.2188,137.6406 Q63.6406,137.9375 63,138.0781 Q62.3594,138.2344 61.6563,138.2344 Q59.1563,138.2344 57.8281,136.5938 Q56.5156,134.9375 56.5156,131.8125 Q56.5156,128.6875 57.8281,127.0313 Q59.1563,125.375 61.6563,125.375 Q62.3594,125.375 63,125.5313 Q63.6563,125.6875 64.2188,125.9844 L64.2188,128.7031 Q63.5938,128.125 63,127.8594 Q62.4063,127.5781 61.7813,127.5781 Q60.4375,127.5781 59.75,128.6563 Q59.0625,129.7188 59.0625,131.8125 Q59.0625,133.9063 59.75,134.9844 Q60.4375,136.0469 61.7813,136.0469 Q62.4063,136.0469 63,135.7813 Q63.5938,135.5 64.2188,134.9219 L64.2188,137.6406 Z "/><text fill="#000000" font-family="sans-serif" font-size="12" lengthAdjust="spacingAndGlyphs" textLength="76" x="81.75" y="136.1543">MccsStation</text><line style="stroke: #A80036; stroke-width: 1.5;" x1="7" x2="200" y1="148" y2="148"/><rect fill="none" height="6" style="stroke: #C82930; stroke-width: 1.0;" width="6" x="14" y="156"/><text fill="#000000" font-family="sans-serif" font-size="11" lengthAdjust="spacingAndGlyphs" textLength="43" x="26" y="162.2104">_thread</text><rect fill="none" height="6" style="stroke: #C82930; stroke-width: 1.0;" width="6" x="14" y="168.8047"/><text fill="#000000" font-family="sans-serif" font-size="11" lengthAdjust="spacingAndGlyphs" textLength="28" x="26" y="175.0151">_lock</text><rect fill="none" height="6" style="stroke: #C82930; stroke-width: 1.0;" width="6" x="14" y="181.6094"/><text fill="#000000" font-family="sans-serif" font-size="11" lengthAdjust="spacingAndGlyphs" textLength="55" x="26" y="187.8198">_interrupt</text><rect fill="none" height="6" style="stroke: #C82930; stroke-width: 1.0;" width="6" x="14" y="194.4141"/><text fill="#000000" font-family="sans-serif" font-size="11" lengthAdjust="spacingAndGlyphs" textLength="76" x="26" y="200.6245">_health_state</text><rect fill="none" height="6" style="stroke: #C82930; stroke-width: 1.0;" width="6" x="14" y="207.2188"/><text fill="#000000" font-family="sans-serif" font-size="11" lengthAdjust="spacingAndGlyphs" textLength="73" x="26" y="213.4292">_subarray_id</text><rect fill="none" height="6" style="stroke: #C82930; stroke-width: 1.0;" width="6" x="14" y="220.0234"/><text fill="#000000" font-family="sans-serif" font-size="11" lengthAdjust="spacingAndGlyphs" textLength="78" x="26" y="226.2339">_delay_centre</text><line style="stroke: #A80036; stroke-width: 1.5;" x1="7" x2="200" y1="232.8281" y2="232.8281"/><ellipse cx="17" cy="243.8281" fill="#84BE84" rx="3" ry="3" style="stroke: #038048; stroke-width: 1.0;"/><text fill="#000000" font-family="sans-serif" font-size="11" lengthAdjust="spacingAndGlyphs" textLength="49" x="26" y="247.0386">__init__()</text><ellipse cx="17" cy="256.6328" fill="#84BE84" rx="3" ry="3" style="stroke: #038048; stroke-width: 1.0;"/><text fill="#000000" font-family="sans-serif" font-size="11" lengthAdjust="spacingAndGlyphs" textLength="22" x="26" y="259.8433">do()</text><rect fill="#F24D5C" height="6" style="stroke: #C82930; stroke-width: 1.0;" width="6" x="14" y="266.4375"/><text fill="#000000" font-family="sans-serif" font-size="11" lengthAdjust="spacingAndGlyphs" textLength="135" x="26" y="272.6479">_initialise_connections()</text><rect fill="#F24D5C" height="6" style="stroke: #C82930; stroke-width: 1.0;" width="6" x="14" y="279.2422"/><text fill="#000000" font-family="sans-serif" font-size="11" lengthAdjust="spacingAndGlyphs" textLength="133" x="26" y="285.4526">_initialise_device_pool()</text><rect fill="#F24D5C" height="6" style="stroke: #C82930; stroke-width: 1.0;" width="6" x="14" y="292.0469"/><text fill="#000000" font-family="sans-serif" font-size="11" lengthAdjust="spacingAndGlyphs" textLength="169" x="26" y="298.2573">_initialise_health_monitoring()</text><ellipse cx="17" cy="307.8516" fill="#84BE84" rx="3" ry="3" style="stroke: #038048; stroke-width: 1.0;"/><text fill="#000000" font-family="sans-serif" font-size="11" lengthAdjust="spacingAndGlyphs" textLength="57" x="26" y="311.062">interrupt()</text><ellipse cx="17" cy="320.6563" fill="#84BE84" rx="3" ry="3" style="stroke: #038048; stroke-width: 1.0;"/><text fill="#000000" font-family="sans-serif" font-size="11" lengthAdjust="spacingAndGlyphs" textLength="137" x="26" y="323.8667">always_executed_hook()</text><ellipse cx="17" cy="333.4609" fill="#84BE84" rx="3" ry="3" style="stroke: #038048; stroke-width: 1.0;"/><text fill="#000000" font-family="sans-serif" font-size="11" lengthAdjust="spacingAndGlyphs" textLength="85" x="26" y="336.6714">delete_device()</text><ellipse cx="17" cy="346.2656" fill="#84BE84" rx="3" ry="3" style="stroke: #038048; stroke-width: 1.0;"/><text fill="#000000" font-family="sans-serif" font-size="11" lengthAdjust="spacingAndGlyphs" textLength="97" x="26" y="349.4761">health_changed()</text><ellipse cx="17" cy="359.0703" fill="#84BE84" rx="3" ry="3" style="stroke: #038048; stroke-width: 1.0;"/><text fill="#000000" font-family="sans-serif" font-size="11" lengthAdjust="spacingAndGlyphs" textLength="69" x="26" y="362.2808">subarrayId()</text><ellipse cx="17" cy="371.875" fill="#84BE84" rx="3" ry="3" style="stroke: #038048; stroke-width: 1.0;"/><text fill="#000000" font-family="sans-serif" font-size="11" lengthAdjust="spacingAndGlyphs" textLength="125" x="26" y="375.0854">transientBufferFQDN()</text><ellipse cx="17" cy="384.6797" fill="#84BE84" rx="3" ry="3" style="stroke: #038048; stroke-width: 1.0;"/><text fill="#000000" font-family="sans-serif" font-size="11" lengthAdjust="spacingAndGlyphs" textLength="76" x="26" y="387.8901">isCalibrated()</text><ellipse cx="17" cy="397.4844" fill="#84BE84" rx="3" ry="3" style="stroke: #038048; stroke-width: 1.0;"/><text fill="#000000" font-family="sans-serif" font-size="11" lengthAdjust="spacingAndGlyphs" textLength="80" x="26" y="400.6948">isConfigured()</text><ellipse cx="17" cy="410.2891" fill="#84BE84" rx="3" ry="3" style="stroke: #038048; stroke-width: 1.0;"/><text fill="#000000" font-family="sans-serif" font-size="11" lengthAdjust="spacingAndGlyphs" textLength="94" x="26" y="413.4995">calibrationJobId()</text><ellipse cx="17" cy="423.0938" fill="#84BE84" rx="3" ry="3" style="stroke: #038048; stroke-width: 1.0;"/><text fill="#000000" font-family="sans-serif" font-size="11" lengthAdjust="spacingAndGlyphs" textLength="56" x="26" y="426.3042">daqJobId()</text><ellipse cx="17" cy="435.8984" fill="#84BE84" rx="3" ry="3" style="stroke: #038048; stroke-width: 1.0;"/><text fill="#000000" font-family="sans-serif" font-size="11" lengthAdjust="spacingAndGlyphs" textLength="84" x="26" y="439.1089">dataDirectory()</text><ellipse cx="17" cy="448.7031" fill="#84BE84" rx="3" ry="3" style="stroke: #038048; stroke-width: 1.0;"/><text fill="#000000" font-family="sans-serif" font-size="11" lengthAdjust="spacingAndGlyphs" textLength="78" x="26" y="451.9136">beamFQDNs()</text><ellipse cx="17" cy="461.5078" fill="#84BE84" rx="3" ry="3" style="stroke: #038048; stroke-width: 1.0;"/><text fill="#000000" font-family="sans-serif" font-size="11" lengthAdjust="spacingAndGlyphs" textLength="76" x="26" y="464.7183">delayCentre()</text><ellipse cx="17" cy="474.3125" fill="#84BE84" rx="3" ry="3" style="stroke: #038048; stroke-width: 1.0;"/><text fill="#000000" font-family="sans-serif" font-size="11" lengthAdjust="spacingAndGlyphs" textLength="134" x="26" y="477.5229">calibrationCoefficients()</text><ellipse cx="17" cy="487.1172" fill="#84BE84" rx="3" ry="3" style="stroke: #038048; stroke-width: 1.0;"/><text fill="#000000" font-family="sans-serif" font-size="11" lengthAdjust="spacingAndGlyphs" textLength="134" x="26" y="490.3276">init_command_objects()</text><ellipse cx="17" cy="499.9219" fill="#84BE84" rx="3" ry="3" style="stroke: #038048; stroke-width: 1.0;"/><text fill="#000000" font-family="sans-serif" font-size="11" lengthAdjust="spacingAndGlyphs" textLength="63" x="26" y="503.1323">Configure()</text><ellipse cx="17" cy="512.7266" fill="#84BE84" rx="3" ry="3" style="stroke: #038048; stroke-width: 1.0;"/><text fill="#000000" font-family="sans-serif" font-size="11" lengthAdjust="spacingAndGlyphs" textLength="71" x="26" y="515.937">InitialSetup()</text><!--MD5=[2e002e45cb8553ad68bda684b0076a38]
class SKAObsDevice--><rect fill="#FEFECE" filter="url(#fibg9x0llgq9s)" height="48" id="SKAObsDevice" style="stroke: #A80036; stroke-width: 1.5;" width="120" x="43.5" y="8"/><ellipse cx="58.5" cy="24" fill="#ADD1B2" rx="11" ry="11" style="stroke: #A80036; stroke-width: 1.0;"/><path d="M61.4688,29.6406 Q60.8906,29.9375 60.25,30.0781 Q59.6094,30.2344 58.9063,30.2344 Q56.4063,30.2344 55.0781,28.5938 Q53.7656,26.9375 53.7656,23.8125 Q53.7656,20.6875 55.0781,19.0313 Q56.4063,17.375 58.9063,17.375 Q59.6094,17.375 60.25,17.5313 Q60.9063,17.6875 61.4688,17.9844 L61.4688,20.7031 Q60.8438,20.125 60.25,19.8594 Q59.6563,19.5781 59.0313,19.5781 Q57.6875,19.5781 57,20.6563 Q56.3125,21.7188 56.3125,23.8125 Q56.3125,25.9063 57,26.9844 Q57.6875,28.0469 59.0313,28.0469 Q59.6563,28.0469 60.25,27.7813 Q60.8438,27.5 61.4688,26.9219 L61.4688,29.6406 Z "/><text fill="#000000" font-family="sans-serif" font-size="12" lengthAdjust="spacingAndGlyphs" textLength="88" x="72.5" y="28.1543">SKAObsDevice</text><line style="stroke: #A80036; stroke-width: 1.5;" x1="44.5" x2="162.5" y1="40" y2="40"/><line style="stroke: #A80036; stroke-width: 1.5;" x1="44.5" x2="162.5" y1="48" y2="48"/><!--MD5=[520c88a86213ee2f2788b5c880414e1d]
reverse link SKAObsDevice to MccsStation--><path d="M103.5,76.1747 C103.5,87.8661 103.5,101.285 103.5,115.6843 " fill="none" id="SKAObsDevice&lt;-MccsStation" style="stroke: #A80036; stroke-width: 1.0;"/><polygon fill="none" points="96.5001,76.0176,103.5,56.0176,110.5001,76.0176,96.5001,76.0176" style="stroke: #A80036; stroke-width: 1.0;"/><!--MD5=[f31e6daabc0ff5ed2d9f7a7a24cec2af]
@startuml
class MccsStation
MccsStation : +__init__()
MccsStation : +do()
MccsStation : -_initialise_connections()
MccsStation : -_initialise_device_pool()
MccsStation : -_initialise_health_monitoring()
MccsStation : +interrupt()
MccsStation : +always_executed_hook()
MccsStation : +delete_device()
MccsStation : +health_changed()
MccsStation : +subarrayId()
MccsStation : +transientBufferFQDN()
MccsStation : +isCalibrated()
MccsStation : +isConfigured()
MccsStation : +calibrationJobId()
MccsStation : +daqJobId()
MccsStation : +dataDirectory()
MccsStation : +beamFQDNs()
MccsStation : +delayCentre()
MccsStation : +calibrationCoefficients()
MccsStation : +init_command_objects()
MccsStation : +Configure()
MccsStation : +InitialSetup()
MccsStation : -_thread
MccsStation : -_lock
MccsStation : -_interrupt
MccsStation : -_health_state
MccsStation : -_subarray_id
MccsStation : -_delay_centre

SKAObsDevice <|- - MccsStation
@enduml

PlantUML version 1.2020.06(Sun Apr 05 12:38:32 GMT 2020)
(GPL source distribution)
Java Runtime: OpenJDK Runtime Environment
JVM: OpenJDK 64-Bit Server VM
Java Version: 14-ea+33
Operating System: Linux
Default Encoding: UTF-8
Language: en
Country: US
--></g></svg>