<?xml version="1.0" encoding="UTF-8" standalone="no"?><svg xmlns="http://www.w3.org/2000/svg" xmlns:xlink="http://www.w3.org/1999/xlink" contentScriptType="application/ecmascript" contentStyleType="text/css" height="960px" preserveAspectRatio="none" style="width:811px;height:960px;" version="1.1" viewBox="0 0 811 960" width="811px" zoomAndPan="magnify"><defs><filter height="300%" id="f5l00ssfqxobq" width="300%" x="-1" y="-1"><feGaussianBlur result="blurOut" stdDeviation="2.0"/><feColorMatrix in="blurOut" result="blurOut2" type="matrix" values="0 0 0 0 0 0 0 0 0 0 0 0 0 0 0 0 0 0 .4 0"/><feOffset dx="4.0" dy="4.0" in="blurOut2" result="blurOut3"/><feBlend in="SourceGraphic" in2="blurOut3" mode="normal"/></filter></defs><g><!--MD5=[824f00bc1539bd1d63a16ede8fa0575f]
class SubarrayBeamHealthEvaluator--><rect fill="#FEFECE" filter="url(#f5l00ssfqxobq)" height="60.8047" id="SubarrayBeamHealthEvaluator" style="stroke: #A80036; stroke-width: 1.5;" width="223" x="539.5" y="716.5"/><ellipse cx="554.5" cy="732.5" fill="#ADD1B2" rx="11" ry="11" style="stroke: #A80036; stroke-width: 1.0;"/><path d="M557.4688,738.1406 Q556.8906,738.4375 556.25,738.5781 Q555.6094,738.7344 554.9063,738.7344 Q552.4063,738.7344 551.0781,737.0938 Q549.7656,735.4375 549.7656,732.3125 Q549.7656,729.1875 551.0781,727.5313 Q552.4063,725.875 554.9063,725.875 Q555.6094,725.875 556.25,726.0313 Q556.9063,726.1875 557.4688,726.4844 L557.4688,729.2031 Q556.8438,728.625 556.25,728.3594 Q555.6563,728.0781 555.0313,728.0781 Q553.6875,728.0781 553,729.1563 Q552.3125,730.2188 552.3125,732.3125 Q552.3125,734.4063 553,735.4844 Q553.6875,736.5469 555.0313,736.5469 Q555.6563,736.5469 556.25,736.2813 Q556.8438,736 557.4688,735.4219 L557.4688,738.1406 Z "/><text fill="#000000" font-family="sans-serif" font-size="12" lengthAdjust="spacingAndGlyphs" textLength="191" x="568.5" y="736.6543">SubarrayBeamHealthEvaluator</text><line style="stroke: #A80036; stroke-width: 1.5;" x1="540.5" x2="761.5" y1="748.5" y2="748.5"/><line style="stroke: #A80036; stroke-width: 1.5;" x1="540.5" x2="761.5" y1="756.5" y2="756.5"/><ellipse cx="550.5" cy="767.5" fill="#84BE84" rx="3" ry="3" style="stroke: #038048; stroke-width: 1.0;"/><text fill="#000000" font-family="sans-serif" font-size="11" lengthAdjust="spacingAndGlyphs" textLength="97" x="559.5" y="770.7104">evaluate_health()</text><!--MD5=[0fb16b11e4667266c6c06174a8c2728e]
class SubarrayBeamDriver--><rect fill="#FEFECE" filter="url(#f5l00ssfqxobq)" height="99.2188" id="SubarrayBeamDriver" style="stroke: #A80036; stroke-width: 1.5;" width="159" x="97.5" y="850"/><ellipse cx="112.5" cy="866" fill="#ADD1B2" rx="11" ry="11" style="stroke: #A80036; stroke-width: 1.0;"/><path d="M115.4688,871.6406 Q114.8906,871.9375 114.25,872.0781 Q113.6094,872.2344 112.9063,872.2344 Q110.4063,872.2344 109.0781,870.5938 Q107.7656,868.9375 107.7656,865.8125 Q107.7656,862.6875 109.0781,861.0313 Q110.4063,859.375 112.9063,859.375 Q113.6094,859.375 114.25,859.5313 Q114.9063,859.6875 115.4688,859.9844 L115.4688,862.7031 Q114.8438,862.125 114.25,861.8594 Q113.6563,861.5781 113.0313,861.5781 Q111.6875,861.5781 111,862.6563 Q110.3125,863.7188 110.3125,865.8125 Q110.3125,867.9063 111,868.9844 Q111.6875,870.0469 113.0313,870.0469 Q113.6563,870.0469 114.25,869.7813 Q114.8438,869.5 115.4688,868.9219 L115.4688,871.6406 Z "/><text fill="#000000" font-family="sans-serif" font-size="12" lengthAdjust="spacingAndGlyphs" textLength="127" x="126.5" y="870.1543">SubarrayBeamDriver</text><line style="stroke: #A80036; stroke-width: 1.5;" x1="98.5" x2="255.5" y1="882" y2="882"/><rect fill="none" height="6" style="stroke: #C82930; stroke-width: 1.0;" width="6" x="105.5" y="890"/><text fill="#000000" font-family="sans-serif" font-size="11" lengthAdjust="spacingAndGlyphs" textLength="58" x="117.5" y="896.2104">_is_locked</text><line style="stroke: #A80036; stroke-width: 1.5;" x1="98.5" x2="255.5" y1="902.8047" y2="902.8047"/><ellipse cx="108.5" cy="913.8047" fill="#84BE84" rx="3" ry="3" style="stroke: #038048; stroke-width: 1.0;"/><text fill="#000000" font-family="sans-serif" font-size="11" lengthAdjust="spacingAndGlyphs" textLength="49" x="117.5" y="917.0151">__init__()</text><ellipse cx="108.5" cy="926.6094" fill="#84BE84" rx="3" ry="3" style="stroke: #038048; stroke-width: 1.0;"/><text fill="#000000" font-family="sans-serif" font-size="11" lengthAdjust="spacingAndGlyphs" textLength="111" x="117.5" y="929.8198">connection_status()</text><ellipse cx="108.5" cy="939.4141" fill="#84BE84" rx="3" ry="3" style="stroke: #038048; stroke-width: 1.0;"/><text fill="#000000" font-family="sans-serif" font-size="11" lengthAdjust="spacingAndGlyphs" textLength="60" x="117.5" y="942.6245">is_locked()</text><!--MD5=[e61c691c7d27e2b8cfb46e2fa0363932]
class SubarrayBeamHardwareFactory--><rect fill="#FEFECE" filter="url(#f5l00ssfqxobq)" height="86.4141" id="SubarrayBeamHardwareFactory" style="stroke: #A80036; stroke-width: 1.5;" width="229" x="169.5" y="704"/><ellipse cx="184.5" cy="720" fill="#ADD1B2" rx="11" ry="11" style="stroke: #A80036; stroke-width: 1.0;"/><path d="M187.4688,725.6406 Q186.8906,725.9375 186.25,726.0781 Q185.6094,726.2344 184.9063,726.2344 Q182.4063,726.2344 181.0781,724.5938 Q179.7656,722.9375 179.7656,719.8125 Q179.7656,716.6875 181.0781,715.0313 Q182.4063,713.375 184.9063,713.375 Q185.6094,713.375 186.25,713.5313 Q186.9063,713.6875 187.4688,713.9844 L187.4688,716.7031 Q186.8438,716.125 186.25,715.8594 Q185.6563,715.5781 185.0313,715.5781 Q183.6875,715.5781 183,716.6563 Q182.3125,717.7188 182.3125,719.8125 Q182.3125,721.9063 183,722.9844 Q183.6875,724.0469 185.0313,724.0469 Q185.6563,724.0469 186.25,723.7813 Q186.8438,723.5 187.4688,722.9219 L187.4688,725.6406 Z "/><text fill="#000000" font-family="sans-serif" font-size="12" lengthAdjust="spacingAndGlyphs" textLength="197" x="198.5" y="724.1543">SubarrayBeamHardwareFactory</text><line style="stroke: #A80036; stroke-width: 1.5;" x1="170.5" x2="397.5" y1="736" y2="736"/><rect fill="none" height="6" style="stroke: #C82930; stroke-width: 1.0;" width="6" x="177.5" y="744"/><text fill="#000000" font-family="sans-serif" font-size="11" lengthAdjust="spacingAndGlyphs" textLength="60" x="189.5" y="750.2104">_hardware</text><line style="stroke: #A80036; stroke-width: 1.5;" x1="170.5" x2="397.5" y1="756.8047" y2="756.8047"/><ellipse cx="180.5" cy="767.8047" fill="#84BE84" rx="3" ry="3" style="stroke: #038048; stroke-width: 1.0;"/><text fill="#000000" font-family="sans-serif" font-size="11" lengthAdjust="spacingAndGlyphs" textLength="49" x="189.5" y="771.0151">__init__()</text><ellipse cx="180.5" cy="780.6094" fill="#84BE84" rx="3" ry="3" style="stroke: #038048; stroke-width: 1.0;"/><text fill="#000000" font-family="sans-serif" font-size="11" lengthAdjust="spacingAndGlyphs" textLength="62" x="189.5" y="783.8198">hardware()</text><!--MD5=[271384c72f7276ff51938f0fcffef9da]
class SubarrayBeamHardwareManager--><rect fill="#FEFECE" filter="url(#f5l00ssfqxobq)" height="73.6094" id="SubarrayBeamHardwareManager" style="stroke: #A80036; stroke-width: 1.5;" width="238" x="335" y="570"/><ellipse cx="350" cy="586" fill="#ADD1B2" rx="11" ry="11" style="stroke: #A80036; stroke-width: 1.0;"/><path d="M352.9688,591.6406 Q352.3906,591.9375 351.75,592.0781 Q351.1094,592.2344 350.4063,592.2344 Q347.9063,592.2344 346.5781,590.5938 Q345.2656,588.9375 345.2656,585.8125 Q345.2656,582.6875 346.5781,581.0313 Q347.9063,579.375 350.4063,579.375 Q351.1094,579.375 351.75,579.5313 Q352.4063,579.6875 352.9688,579.9844 L352.9688,582.7031 Q352.3438,582.125 351.75,581.8594 Q351.1563,581.5781 350.5313,581.5781 Q349.1875,581.5781 348.5,582.6563 Q347.8125,583.7188 347.8125,585.8125 Q347.8125,587.9063 348.5,588.9844 Q349.1875,590.0469 350.5313,590.0469 Q351.1563,590.0469 351.75,589.7813 Q352.3438,589.5 352.9688,588.9219 L352.9688,591.6406 Z "/><text fill="#000000" font-family="sans-serif" font-size="12" lengthAdjust="spacingAndGlyphs" textLength="206" x="364" y="590.1543">SubarrayBeamHardwareManager</text><line style="stroke: #A80036; stroke-width: 1.5;" x1="336" x2="572" y1="602" y2="602"/><line style="stroke: #A80036; stroke-width: 1.5;" x1="336" x2="572" y1="610" y2="610"/><ellipse cx="346" cy="621" fill="#84BE84" rx="3" ry="3" style="stroke: #038048; stroke-width: 1.0;"/><text fill="#000000" font-family="sans-serif" font-size="11" lengthAdjust="spacingAndGlyphs" textLength="49" x="355" y="624.2104">__init__()</text><ellipse cx="346" cy="633.8047" fill="#84BE84" rx="3" ry="3" style="stroke: #038048; stroke-width: 1.0;"/><text fill="#000000" font-family="sans-serif" font-size="11" lengthAdjust="spacingAndGlyphs" textLength="60" x="355" y="637.0151">is_locked()</text><!--MD5=[ed3c825fe6c274ffbe8b62e9a0a77e25]
class MccsSubarrayBeam--><rect fill="#FEFECE" filter="url(#f5l00ssfqxobq)" height="393.7266" id="MccsSubarrayBeam" style="stroke: #A80036; stroke-width: 1.5;" width="228" x="229" y="116"/><ellipse cx="277.75" cy="132" fill="#ADD1B2" rx="11" ry="11" style="stroke: #A80036; stroke-width: 1.0;"/><path d="M280.7188,137.6406 Q280.1406,137.9375 279.5,138.0781 Q278.8594,138.2344 278.1563,138.2344 Q275.6563,138.2344 274.3281,136.5938 Q273.0156,134.9375 273.0156,131.8125 Q273.0156,128.6875 274.3281,127.0313 Q275.6563,125.375 278.1563,125.375 Q278.8594,125.375 279.5,125.5313 Q280.1563,125.6875 280.7188,125.9844 L280.7188,128.7031 Q280.0938,128.125 279.5,127.8594 Q278.9063,127.5781 278.2813,127.5781 Q276.9375,127.5781 276.25,128.6563 Q275.5625,129.7188 275.5625,131.8125 Q275.5625,133.9063 276.25,134.9844 Q276.9375,136.0469 278.2813,136.0469 Q278.9063,136.0469 279.5,135.7813 Q280.0938,135.5 280.7188,134.9219 L280.7188,137.6406 Z "/><text fill="#000000" font-family="sans-serif" font-size="12" lengthAdjust="spacingAndGlyphs" textLength="122" x="298.25" y="136.1543">MccsSubarrayBeam</text><line style="stroke: #A80036; stroke-width: 1.5;" x1="230" x2="456" y1="148" y2="148"/><rect fill="none" height="6" style="stroke: #C82930; stroke-width: 1.0;" width="6" x="237" y="156"/><text fill="#000000" font-family="sans-serif" font-size="11" lengthAdjust="spacingAndGlyphs" textLength="43" x="249" y="162.2104">_thread</text><rect fill="none" height="6" style="stroke: #C82930; stroke-width: 1.0;" width="6" x="237" y="168.8047"/><text fill="#000000" font-family="sans-serif" font-size="11" lengthAdjust="spacingAndGlyphs" textLength="28" x="249" y="175.0151">_lock</text><rect fill="none" height="6" style="stroke: #C82930; stroke-width: 1.0;" width="6" x="237" y="181.6094"/><text fill="#000000" font-family="sans-serif" font-size="11" lengthAdjust="spacingAndGlyphs" textLength="55" x="249" y="187.8198">_interrupt</text><rect fill="none" height="6" style="stroke: #C82930; stroke-width: 1.0;" width="6" x="237" y="194.4141"/><text fill="#000000" font-family="sans-serif" font-size="11" lengthAdjust="spacingAndGlyphs" textLength="76" x="249" y="200.6245">_health_state</text><rect fill="none" height="6" style="stroke: #C82930; stroke-width: 1.0;" width="6" x="237" y="207.2188"/><text fill="#000000" font-family="sans-serif" font-size="11" lengthAdjust="spacingAndGlyphs" textLength="68" x="249" y="213.4292">_station_ids</text><rect fill="none" height="6" style="stroke: #C82930; stroke-width: 1.0;" width="6" x="237" y="220.0234"/><text fill="#000000" font-family="sans-serif" font-size="11" lengthAdjust="spacingAndGlyphs" textLength="96" x="249" y="226.2339">_logical_beam_id</text><rect fill="none" height="6" style="stroke: #C82930; stroke-width: 1.0;" width="6" x="237" y="232.8281"/><text fill="#000000" font-family="sans-serif" font-size="11" lengthAdjust="spacingAndGlyphs" textLength="100" x="249" y="239.0386">_desired_pointing</text><line style="stroke: #A80036; stroke-width: 1.5;" x1="230" x2="456" y1="245.6328" y2="245.6328"/><ellipse cx="240" cy="256.6328" fill="#84BE84" rx="3" ry="3" style="stroke: #038048; stroke-width: 1.0;"/><text fill="#000000" font-family="sans-serif" font-size="11" lengthAdjust="spacingAndGlyphs" textLength="49" x="249" y="259.8433">__init__()</text><ellipse cx="240" cy="269.4375" fill="#84BE84" rx="3" ry="3" style="stroke: #038048; stroke-width: 1.0;"/><text fill="#000000" font-family="sans-serif" font-size="11" lengthAdjust="spacingAndGlyphs" textLength="22" x="249" y="272.6479">do()</text><rect fill="#F24D5C" height="6" style="stroke: #C82930; stroke-width: 1.0;" width="6" x="237" y="279.2422"/><text fill="#000000" font-family="sans-serif" font-size="11" lengthAdjust="spacingAndGlyphs" textLength="135" x="249" y="285.4526">_initialise_connections()</text><rect fill="#F24D5C" height="6" style="stroke: #C82930; stroke-width: 1.0;" width="6" x="237" y="292.0469"/><text fill="#000000" font-family="sans-serif" font-size="11" lengthAdjust="spacingAndGlyphs" textLength="202" x="249" y="298.2573">_initialise_hardware_management()</text><rect fill="#F24D5C" height="6" style="stroke: #C82930; stroke-width: 1.0;" width="6" x="237" y="304.8516"/><text fill="#000000" font-family="sans-serif" font-size="11" lengthAdjust="spacingAndGlyphs" textLength="169" x="249" y="311.062">_initialise_health_monitoring()</text><ellipse cx="240" cy="320.6563" fill="#84BE84" rx="3" ry="3" style="stroke: #038048; stroke-width: 1.0;"/><text fill="#000000" font-family="sans-serif" font-size="11" lengthAdjust="spacingAndGlyphs" textLength="57" x="249" y="323.8667">interrupt()</text><ellipse cx="240" cy="333.4609" fill="#84BE84" rx="3" ry="3" style="stroke: #038048; stroke-width: 1.0;"/><text fill="#000000" font-family="sans-serif" font-size="11" lengthAdjust="spacingAndGlyphs" textLength="134" x="249" y="336.6714">init_command_objects()</text><ellipse cx="240" cy="346.2656" fill="#84BE84" rx="3" ry="3" style="stroke: #038048; stroke-width: 1.0;"/><text fill="#000000" font-family="sans-serif" font-size="11" lengthAdjust="spacingAndGlyphs" textLength="137" x="249" y="349.4761">always_executed_hook()</text><ellipse cx="240" cy="359.0703" fill="#84BE84" rx="3" ry="3" style="stroke: #038048; stroke-width: 1.0;"/><text fill="#000000" font-family="sans-serif" font-size="11" lengthAdjust="spacingAndGlyphs" textLength="85" x="249" y="362.2808">delete_device()</text><ellipse cx="240" cy="371.875" fill="#84BE84" rx="3" ry="3" style="stroke: #038048; stroke-width: 1.0;"/><text fill="#000000" font-family="sans-serif" font-size="11" lengthAdjust="spacingAndGlyphs" textLength="97" x="249" y="375.0854">health_changed()</text><ellipse cx="240" cy="384.6797" fill="#84BE84" rx="3" ry="3" style="stroke: #038048; stroke-width: 1.0;"/><text fill="#000000" font-family="sans-serif" font-size="11" lengthAdjust="spacingAndGlyphs" textLength="69" x="249" y="387.8901">subarrayId()</text><ellipse cx="240" cy="397.4844" fill="#84BE84" rx="3" ry="3" style="stroke: #038048; stroke-width: 1.0;"/><text fill="#000000" font-family="sans-serif" font-size="11" lengthAdjust="spacingAndGlyphs" textLength="102" x="249" y="400.6948">subarrayBeamId()</text><ellipse cx="240" cy="410.2891" fill="#84BE84" rx="3" ry="3" style="stroke: #038048; stroke-width: 1.0;"/><text fill="#000000" font-family="sans-serif" font-size="11" lengthAdjust="spacingAndGlyphs" textLength="64" x="249" y="413.4995">stationIds()</text><ellipse cx="240" cy="423.0938" fill="#84BE84" rx="3" ry="3" style="stroke: #038048; stroke-width: 1.0;"/><text fill="#000000" font-family="sans-serif" font-size="11" lengthAdjust="spacingAndGlyphs" textLength="87" x="249" y="426.3042">logicalBeamId()</text><ellipse cx="240" cy="435.8984" fill="#84BE84" rx="3" ry="3" style="stroke: #038048; stroke-width: 1.0;"/><text fill="#000000" font-family="sans-serif" font-size="11" lengthAdjust="spacingAndGlyphs" textLength="72" x="249" y="439.1089">updateRate()</text><ellipse cx="240" cy="448.7031" fill="#84BE84" rx="3" ry="3" style="stroke: #038048; stroke-width: 1.0;"/><text fill="#000000" font-family="sans-serif" font-size="11" lengthAdjust="spacingAndGlyphs" textLength="90" x="249" y="451.9136">isBeamLocked()</text><ellipse cx="240" cy="461.5078" fill="#84BE84" rx="3" ry="3" style="stroke: #038048; stroke-width: 1.0;"/><text fill="#000000" font-family="sans-serif" font-size="11" lengthAdjust="spacingAndGlyphs" textLength="59" x="249" y="464.7183">channels()</text><ellipse cx="240" cy="474.3125" fill="#84BE84" rx="3" ry="3" style="stroke: #038048; stroke-width: 1.0;"/><text fill="#000000" font-family="sans-serif" font-size="11" lengthAdjust="spacingAndGlyphs" textLength="96" x="249" y="477.5229">desiredPointing()</text><ellipse cx="240" cy="487.1172" fill="#84BE84" rx="3" ry="3" style="stroke: #038048; stroke-width: 1.0;"/><text fill="#000000" font-family="sans-serif" font-size="11" lengthAdjust="spacingAndGlyphs" textLength="63" x="249" y="490.3276">Configure()</text><ellipse cx="240" cy="499.9219" fill="#84BE84" rx="3" ry="3" style="stroke: #038048; stroke-width: 1.0;"/><text fill="#000000" font-family="sans-serif" font-size="11" lengthAdjust="spacingAndGlyphs" textLength="36" x="249" y="503.1323">Scan()</text><!--MD5=[38ec8ebb384a5163003b04e2a5da297f]
class HardwareHealthEvaluator--><rect fill="#FEFECE" filter="url(#f5l00ssfqxobq)" height="48" id="HardwareHealthEvaluator" style="stroke: #A80036; stroke-width: 1.5;" width="192" x="608" y="583"/><ellipse cx="623" cy="599" fill="#ADD1B2" rx="11" ry="11" style="stroke: #A80036; stroke-width: 1.0;"/><path d="M625.9688,604.6406 Q625.3906,604.9375 624.75,605.0781 Q624.1094,605.2344 623.4063,605.2344 Q620.9063,605.2344 619.5781,603.5938 Q618.2656,601.9375 618.2656,598.8125 Q618.2656,595.6875 619.5781,594.0313 Q620.9063,592.375 623.4063,592.375 Q624.1094,592.375 624.75,592.5313 Q625.4063,592.6875 625.9688,592.9844 L625.9688,595.7031 Q625.3438,595.125 624.75,594.8594 Q624.1563,594.5781 623.5313,594.5781 Q622.1875,594.5781 621.5,595.6563 Q620.8125,596.7188 620.8125,598.8125 Q620.8125,600.9063 621.5,601.9844 Q622.1875,603.0469 623.5313,603.0469 Q624.1563,603.0469 624.75,602.7813 Q625.3438,602.5 625.9688,601.9219 L625.9688,604.6406 Z "/><text fill="#000000" font-family="sans-serif" font-size="12" lengthAdjust="spacingAndGlyphs" textLength="160" x="637" y="603.1543">HardwareHealthEvaluator</text><line style="stroke: #A80036; stroke-width: 1.5;" x1="609" x2="799" y1="615" y2="615"/><line style="stroke: #A80036; stroke-width: 1.5;" x1="609" x2="799" y1="623" y2="623"/><!--MD5=[c45e4265f2c253e24bf0954159b0db27]
class HardwareDriver--><rect fill="#FEFECE" filter="url(#f5l00ssfqxobq)" height="48" id="HardwareDriver" style="stroke: #A80036; stroke-width: 1.5;" width="128" x="6" y="723"/><ellipse cx="21" cy="739" fill="#ADD1B2" rx="11" ry="11" style="stroke: #A80036; stroke-width: 1.0;"/><path d="M23.9688,744.6406 Q23.3906,744.9375 22.75,745.0781 Q22.1094,745.2344 21.4063,745.2344 Q18.9063,745.2344 17.5781,743.5938 Q16.2656,741.9375 16.2656,738.8125 Q16.2656,735.6875 17.5781,734.0313 Q18.9063,732.375 21.4063,732.375 Q22.1094,732.375 22.75,732.5313 Q23.4063,732.6875 23.9688,732.9844 L23.9688,735.7031 Q23.3438,735.125 22.75,734.8594 Q22.1563,734.5781 21.5313,734.5781 Q20.1875,734.5781 19.5,735.6563 Q18.8125,736.7188 18.8125,738.8125 Q18.8125,740.9063 19.5,741.9844 Q20.1875,743.0469 21.5313,743.0469 Q22.1563,743.0469 22.75,742.7813 Q23.3438,742.5 23.9688,741.9219 L23.9688,744.6406 Z "/><text fill="#000000" font-family="sans-serif" font-size="12" lengthAdjust="spacingAndGlyphs" textLength="96" x="35" y="743.1543">HardwareDriver</text><line style="stroke: #A80036; stroke-width: 1.5;" x1="7" x2="133" y1="755" y2="755"/><line style="stroke: #A80036; stroke-width: 1.5;" x1="7" x2="133" y1="763" y2="763"/><!--MD5=[855514d6f112e71f0cab279b6db4f45e]
class HardwareFactory--><rect fill="#FEFECE" filter="url(#f5l00ssfqxobq)" height="48" id="HardwareFactory" style="stroke: #A80036; stroke-width: 1.5;" width="138" x="162" y="583"/><ellipse cx="177" cy="599" fill="#ADD1B2" rx="11" ry="11" style="stroke: #A80036; stroke-width: 1.0;"/><path d="M179.9688,604.6406 Q179.3906,604.9375 178.75,605.0781 Q178.1094,605.2344 177.4063,605.2344 Q174.9063,605.2344 173.5781,603.5938 Q172.2656,601.9375 172.2656,598.8125 Q172.2656,595.6875 173.5781,594.0313 Q174.9063,592.375 177.4063,592.375 Q178.1094,592.375 178.75,592.5313 Q179.4063,592.6875 179.9688,592.9844 L179.9688,595.7031 Q179.3438,595.125 178.75,594.8594 Q178.1563,594.5781 177.5313,594.5781 Q176.1875,594.5781 175.5,595.6563 Q174.8125,596.7188 174.8125,598.8125 Q174.8125,600.9063 175.5,601.9844 Q176.1875,603.0469 177.5313,603.0469 Q178.1563,603.0469 178.75,602.7813 Q179.3438,602.5 179.9688,601.9219 L179.9688,604.6406 Z "/><text fill="#000000" font-family="sans-serif" font-size="12" lengthAdjust="spacingAndGlyphs" textLength="106" x="191" y="603.1543">HardwareFactory</text><line style="stroke: #A80036; stroke-width: 1.5;" x1="163" x2="299" y1="615" y2="615"/><line style="stroke: #A80036; stroke-width: 1.5;" x1="163" x2="299" y1="623" y2="623"/><!--MD5=[5129867f0b0b1039a8d0c9ca5fae1cf1]
class HardwareManager--><rect fill="#FEFECE" filter="url(#f5l00ssfqxobq)" height="48" id="HardwareManager" style="stroke: #A80036; stroke-width: 1.5;" width="147" x="492.5" y="289"/><ellipse cx="507.5" cy="305" fill="#ADD1B2" rx="11" ry="11" style="stroke: #A80036; stroke-width: 1.0;"/><path d="M510.4688,310.6406 Q509.8906,310.9375 509.25,311.0781 Q508.6094,311.2344 507.9063,311.2344 Q505.4063,311.2344 504.0781,309.5938 Q502.7656,307.9375 502.7656,304.8125 Q502.7656,301.6875 504.0781,300.0313 Q505.4063,298.375 507.9063,298.375 Q508.6094,298.375 509.25,298.5313 Q509.9063,298.6875 510.4688,298.9844 L510.4688,301.7031 Q509.8438,301.125 509.25,300.8594 Q508.6563,300.5781 508.0313,300.5781 Q506.6875,300.5781 506,301.6563 Q505.3125,302.7188 505.3125,304.8125 Q505.3125,306.9063 506,307.9844 Q506.6875,309.0469 508.0313,309.0469 Q508.6563,309.0469 509.25,308.7813 Q509.8438,308.5 510.4688,307.9219 L510.4688,310.6406 Z "/><text fill="#000000" font-family="sans-serif" font-size="12" lengthAdjust="spacingAndGlyphs" textLength="115" x="521.5" y="309.1543">HardwareManager</text><line style="stroke: #A80036; stroke-width: 1.5;" x1="493.5" x2="638.5" y1="321" y2="321"/><line style="stroke: #A80036; stroke-width: 1.5;" x1="493.5" x2="638.5" y1="329" y2="329"/><!--MD5=[2e002e45cb8553ad68bda684b0076a38]
class SKAObsDevice--><rect fill="#FEFECE" filter="url(#f5l00ssfqxobq)" height="48" id="SKAObsDevice" style="stroke: #A80036; stroke-width: 1.5;" width="120" x="283" y="8"/><ellipse cx="298" cy="24" fill="#ADD1B2" rx="11" ry="11" style="stroke: #A80036; stroke-width: 1.0;"/><path d="M300.9688,29.6406 Q300.3906,29.9375 299.75,30.0781 Q299.1094,30.2344 298.4063,30.2344 Q295.9063,30.2344 294.5781,28.5938 Q293.2656,26.9375 293.2656,23.8125 Q293.2656,20.6875 294.5781,19.0313 Q295.9063,17.375 298.4063,17.375 Q299.1094,17.375 299.75,17.5313 Q300.4063,17.6875 300.9688,17.9844 L300.9688,20.7031 Q300.3438,20.125 299.75,19.8594 Q299.1563,19.5781 298.5313,19.5781 Q297.1875,19.5781 296.5,20.6563 Q295.8125,21.7188 295.8125,23.8125 Q295.8125,25.9063 296.5,26.9844 Q297.1875,28.0469 298.5313,28.0469 Q299.1563,28.0469 299.75,27.7813 Q300.3438,27.5 300.9688,26.9219 L300.9688,29.6406 Z "/><text fill="#000000" font-family="sans-serif" font-size="12" lengthAdjust="spacingAndGlyphs" textLength="88" x="312" y="28.1543">SKAObsDevice</text><line style="stroke: #A80036; stroke-width: 1.5;" x1="284" x2="402" y1="40" y2="40"/><line style="stroke: #A80036; stroke-width: 1.5;" x1="284" x2="402" y1="48" y2="48"/><!--MD5=[7579be5fdef3785b779453df6bb9e600]
reverse link HardwareHealthEvaluator to SubarrayBeamHealthEvaluator--><path d="M687.6867,650.0918 C679.5647,671.5461 669.9368,696.9782 662.5825,716.4048 " fill="none" id="HardwareHealthEvaluator&lt;-SubarrayBeamHealthEvaluator" style="stroke: #A80036; stroke-width: 1.0;"/><polygon fill="none" points="681.2613,647.293,694.889,631.0669,694.3545,652.2498,681.2613,647.293" style="stroke: #A80036; stroke-width: 1.0;"/><!--MD5=[8a743324287f386bef944f7aa1963a33]
reverse link HardwareDriver to SubarrayBeamDriver--><path d="M98.6008,787.7628 C112.0022,806.863 128.0865,829.7868 142.1891,849.8864 " fill="none" id="HardwareDriver&lt;-SubarrayBeamDriver" style="stroke: #A80036; stroke-width: 1.0;"/><polygon fill="none" points="92.7115,791.5567,86.9545,771.1641,104.172,783.5156,92.7115,791.5567" style="stroke: #A80036; stroke-width: 1.0;"/><!--MD5=[5d286fea2752ca57b66a80d0704f8666]
reverse link HardwareFactory to SubarrayBeamHardwareFactory--><path d="M247.268,649.9721 C253.7326,667.0485 261.1571,686.6602 267.6316,703.7627 " fill="none" id="HardwareFactory&lt;-SubarrayBeamHardwareFactory" style="stroke: #A80036; stroke-width: 1.0;"/><polygon fill="none" points="240.6455,652.2498,240.111,631.0669,253.7387,647.293,240.6455,652.2498" style="stroke: #A80036; stroke-width: 1.0;"/><!--MD5=[069789e4a1fa36b7cc6c89209b6c6353]
reverse link HardwareManager to SubarrayBeamHardwareManager--><path d="M549.687,355.8216 C527.702,413.5323 488.9274,515.3157 468.1264,569.9183 " fill="none" id="HardwareManager&lt;-SubarrayBeamHardwareManager" style="stroke: #A80036; stroke-width: 1.0;"/><polygon fill="none" points="543.1732,353.257,556.8346,337.0593,556.256,358.241,543.1732,353.257" style="stroke: #A80036; stroke-width: 1.0;"/><!--MD5=[fa5ab6cf674723c6a8f495237e07ed67]
reverse link SKAObsDevice to MccsSubarrayBeam--><path d="M343,76.6016 C343,88.2669 343,101.6192 343,115.9093 " fill="none" id="SKAObsDevice&lt;-MccsSubarrayBeam" style="stroke: #A80036; stroke-width: 1.0;"/><polygon fill="none" points="336.0001,76.4454,343,56.4453,350.0001,76.4453,336.0001,76.4454" style="stroke: #A80036; stroke-width: 1.0;"/><!--MD5=[29c555ac8c89f56b5431d5527ba4e2ab]
link SubarrayBeamHardwareFactory to SubarrayBeamDriver--><path d="M253.6243,790.2925 C240.5877,808.8727 225.2827,830.6859 211.793,849.9119 " fill="none" id="SubarrayBeamHardwareFactory-SubarrayBeamDriver" style="stroke: #A80036; stroke-width: 1.0;"/><!--MD5=[478a7dc4f03f4dbede03fd8cd079b324]
link SubarrayBeamHardwareManager to SubarrayBeamHardwareFactory--><path d="M408.8894,644.1499 C386.5604,662.5385 359.4817,684.8386 336.2542,703.9672 " fill="none" id="SubarrayBeamHardwareManager-SubarrayBeamHardwareFactory" style="stroke: #A80036; stroke-width: 1.0;"/><!--MD5=[a54eb506371339591e9f4b9ac4cb86cc]
link SubarrayBeamHardwareManager to SubarrayBeamHealthEvaluator--><path d="M506.2752,644.1499 C537.964,666.6699 577.9078,695.0563 607.7999,716.2994 " fill="none" id="SubarrayBeamHardwareManager-SubarrayBeamHealthEvaluator" style="stroke: #A80036; stroke-width: 1.0;"/><!--MD5=[e2400bac67e4c4626221d50cbeff8843]
link MccsSubarrayBeam to SubarrayBeamHardwareManager--><path d="M417.5007,510.3262 C425.9226,532.6329 433.6807,553.1813 439.8586,569.5443 " fill="none" id="MccsSubarrayBeam-SubarrayBeamHardwareManager" style="stroke: #A80036; stroke-width: 1.0;"/><!--MD5=[4c2b81b73692f6be5f74a4ab885d18e6]
@startuml
class SubarrayBeamHealthEvaluator
SubarrayBeamHealthEvaluator : +evaluate_health()
class SubarrayBeamDriver
SubarrayBeamDriver : +__init__()
SubarrayBeamDriver : +connection_status()
SubarrayBeamDriver : +is_locked()
class SubarrayBeamHardwareFactory
SubarrayBeamHardwareFactory : +__init__()
SubarrayBeamHardwareFactory : +hardware()
class SubarrayBeamHardwareManager
SubarrayBeamHardwareManager : +__init__()
SubarrayBeamHardwareManager : +is_locked()
class MccsSubarrayBeam
MccsSubarrayBeam : +__init__()
MccsSubarrayBeam : +do()
MccsSubarrayBeam : -_initialise_connections()
MccsSubarrayBeam : -_initialise_hardware_management()
MccsSubarrayBeam : -_initialise_health_monitoring()
MccsSubarrayBeam : +interrupt()
MccsSubarrayBeam : +init_command_objects()
MccsSubarrayBeam : +always_executed_hook()
MccsSubarrayBeam : +delete_device()
MccsSubarrayBeam : +health_changed()
MccsSubarrayBeam : +subarrayId()
MccsSubarrayBeam : +subarrayBeamId()
MccsSubarrayBeam : +stationIds()
MccsSubarrayBeam : +logicalBeamId()
MccsSubarrayBeam : +updateRate()
MccsSubarrayBeam : +isBeamLocked()
MccsSubarrayBeam : +channels()
MccsSubarrayBeam : +desiredPointing()
MccsSubarrayBeam : +Configure()
MccsSubarrayBeam : +Scan()
SubarrayBeamDriver : -_is_locked
SubarrayBeamHardwareFactory : -_hardware
MccsSubarrayBeam : -_thread
MccsSubarrayBeam : -_lock
MccsSubarrayBeam : -_interrupt
MccsSubarrayBeam : -_health_state
MccsSubarrayBeam : -_station_ids
MccsSubarrayBeam : -_logical_beam_id
MccsSubarrayBeam : -_desired_pointing

HardwareHealthEvaluator <|- - SubarrayBeamHealthEvaluator
HardwareDriver <|- - SubarrayBeamDriver
HardwareFactory <|- - SubarrayBeamHardwareFactory
HardwareManager <|- - SubarrayBeamHardwareManager
SKAObsDevice <|- - MccsSubarrayBeam
SubarrayBeamHardwareFactory - - SubarrayBeamDriver
SubarrayBeamHardwareManager - - SubarrayBeamHardwareFactory
SubarrayBeamHardwareManager - - SubarrayBeamHealthEvaluator
MccsSubarrayBeam - - SubarrayBeamHardwareManager
@enduml

PlantUML version 1.2020.06(Sun Apr 05 12:38:32 GMT 2020)
(GPL source distribution)
Java Runtime: OpenJDK Runtime Environment
JVM: OpenJDK 64-Bit Server VM
Java Version: 14-ea+33
Operating System: Linux
Default Encoding: UTF-8
Language: en
Country: US
--></g></svg>