<?xml version="1.0" encoding="UTF-8" standalone="no"?><svg xmlns="http://www.w3.org/2000/svg" xmlns:xlink="http://www.w3.org/1999/xlink" contentScriptType="application/ecmascript" contentStyleType="text/css" height="603px" preserveAspectRatio="none" style="width:743px;height:603px;" version="1.1" viewBox="0 0 743 603" width="743px" zoomAndPan="magnify"><defs><filter height="300%" id="fnxz4k4uva6r8" width="300%" x="-1" y="-1"><feGaussianBlur result="blurOut" stdDeviation="2.0"/><feColorMatrix in="blurOut" result="blurOut2" type="matrix" values="0 0 0 0 0 0 0 0 0 0 0 0 0 0 0 0 0 0 .4 0"/><feOffset dx="4.0" dy="4.0" in="blurOut2" result="blurOut3"/><feBlend in="SourceGraphic" in2="blurOut3" mode="normal"/></filter></defs><g><!--MD5=[c95285b1109df4b87b13186e2a2412c6]
class StationsResourceManager--><rect fill="#FEFECE" filter="url(#fnxz4k4uva6r8)" height="137.6328" id="StationsResourceManager" style="stroke: #A80036; stroke-width: 1.5;" width="198" x="6" y="218.5"/><ellipse cx="21" cy="234.5" fill="#ADD1B2" rx="11" ry="11" style="stroke: #A80036; stroke-width: 1.0;"/><path d="M23.9688,240.1406 Q23.3906,240.4375 22.75,240.5781 Q22.1094,240.7344 21.4063,240.7344 Q18.9063,240.7344 17.5781,239.0938 Q16.2656,237.4375 16.2656,234.3125 Q16.2656,231.1875 17.5781,229.5313 Q18.9063,227.875 21.4063,227.875 Q22.1094,227.875 22.75,228.0313 Q23.4063,228.1875 23.9688,228.4844 L23.9688,231.2031 Q23.3438,230.625 22.75,230.3594 Q22.1563,230.0781 21.5313,230.0781 Q20.1875,230.0781 19.5,231.1563 Q18.8125,232.2188 18.8125,234.3125 Q18.8125,236.4063 19.5,237.4844 Q20.1875,238.5469 21.5313,238.5469 Q22.1563,238.5469 22.75,238.2813 Q23.3438,238 23.9688,237.4219 L23.9688,240.1406 Z "/><text fill="#000000" font-family="sans-serif" font-size="12" lengthAdjust="spacingAndGlyphs" textLength="166" x="35" y="238.6543">StationsResourceManager</text><line style="stroke: #A80036; stroke-width: 1.5;" x1="7" x2="203" y1="250.5" y2="250.5"/><rect fill="none" height="6" style="stroke: #C82930; stroke-width: 1.0;" width="6" x="14" y="258.5"/><text fill="#000000" font-family="sans-serif" font-size="11" lengthAdjust="spacingAndGlyphs" textLength="49" x="26" y="264.7104">_devices</text><line style="stroke: #A80036; stroke-width: 1.5;" x1="7" x2="203" y1="271.3047" y2="271.3047"/><ellipse cx="17" cy="282.3047" fill="#84BE84" rx="3" ry="3" style="stroke: #038048; stroke-width: 1.0;"/><text fill="#000000" font-family="sans-serif" font-size="11" lengthAdjust="spacingAndGlyphs" textLength="49" x="26" y="285.5151">__init__()</text><ellipse cx="17" cy="295.1094" fill="#84BE84" rx="3" ry="3" style="stroke: #038048; stroke-width: 1.0;"/><text fill="#000000" font-family="sans-serif" font-size="11" lengthAdjust="spacingAndGlyphs" textLength="40" x="26" y="298.3198">items()</text><ellipse cx="17" cy="307.9141" fill="#84BE84" rx="3" ry="3" style="stroke: #038048; stroke-width: 1.0;"/><text fill="#000000" font-family="sans-serif" font-size="11" lengthAdjust="spacingAndGlyphs" textLength="105" x="26" y="311.1245">add_to_managed()</text><ellipse cx="17" cy="320.7188" fill="#84BE84" rx="3" ry="3" style="stroke: #038048; stroke-width: 1.0;"/><text fill="#000000" font-family="sans-serif" font-size="11" lengthAdjust="spacingAndGlyphs" textLength="70" x="26" y="323.9292">release_all()</text><ellipse cx="17" cy="333.5234" fill="#84BE84" rx="3" ry="3" style="stroke: #038048; stroke-width: 1.0;"/><text fill="#000000" font-family="sans-serif" font-size="11" lengthAdjust="spacingAndGlyphs" textLength="85" x="26" y="336.7339">station_fqdns()</text><ellipse cx="17" cy="346.3281" fill="#84BE84" rx="3" ry="3" style="stroke: #038048; stroke-width: 1.0;"/><text fill="#000000" font-family="sans-serif" font-size="11" lengthAdjust="spacingAndGlyphs" textLength="70" x="26" y="349.5386">station_ids()</text><!--MD5=[b877cf2d41de8c6b30f411503bcc2246]
class StationBeamsResourceManager--><rect fill="#FEFECE" filter="url(#fnxz4k4uva6r8)" height="176.0469" id="StationBeamsResourceManager" style="stroke: #A80036; stroke-width: 1.5;" width="233" x="239.5" y="199.5"/><ellipse cx="254.5" cy="215.5" fill="#ADD1B2" rx="11" ry="11" style="stroke: #A80036; stroke-width: 1.0;"/><path d="M257.4688,221.1406 Q256.8906,221.4375 256.25,221.5781 Q255.6094,221.7344 254.9063,221.7344 Q252.4063,221.7344 251.0781,220.0938 Q249.7656,218.4375 249.7656,215.3125 Q249.7656,212.1875 251.0781,210.5313 Q252.4063,208.875 254.9063,208.875 Q255.6094,208.875 256.25,209.0313 Q256.9063,209.1875 257.4688,209.4844 L257.4688,212.2031 Q256.8438,211.625 256.25,211.3594 Q255.6563,211.0781 255.0313,211.0781 Q253.6875,211.0781 253,212.1563 Q252.3125,213.2188 252.3125,215.3125 Q252.3125,217.4063 253,218.4844 Q253.6875,219.5469 255.0313,219.5469 Q255.6563,219.5469 256.25,219.2813 Q256.8438,219 257.4688,218.4219 L257.4688,221.1406 Z "/><text fill="#000000" font-family="sans-serif" font-size="12" lengthAdjust="spacingAndGlyphs" textLength="201" x="268.5" y="219.6543">StationBeamsResourceManager</text><line style="stroke: #A80036; stroke-width: 1.5;" x1="240.5" x2="471.5" y1="231.5" y2="231.5"/><rect fill="none" height="6" style="stroke: #C82930; stroke-width: 1.0;" width="6" x="247.5" y="239.5"/><text fill="#000000" font-family="sans-serif" font-size="11" lengthAdjust="spacingAndGlyphs" textLength="52" x="259.5" y="245.7104">_stations</text><line style="stroke: #A80036; stroke-width: 1.5;" x1="240.5" x2="471.5" y1="252.3047" y2="252.3047"/><ellipse cx="250.5" cy="263.3047" fill="#84BE84" rx="3" ry="3" style="stroke: #038048; stroke-width: 1.0;"/><text fill="#000000" font-family="sans-serif" font-size="11" lengthAdjust="spacingAndGlyphs" textLength="49" x="259.5" y="266.5151">__init__()</text><ellipse cx="250.5" cy="276.1094" fill="#84BE84" rx="3" ry="3" style="stroke: #038048; stroke-width: 1.0;"/><text fill="#000000" font-family="sans-serif" font-size="11" lengthAdjust="spacingAndGlyphs" textLength="49" x="259.5" y="279.3198">__len__()</text><ellipse cx="250.5" cy="288.9141" fill="#84BE84" rx="3" ry="3" style="stroke: #038048; stroke-width: 1.0;"/><text fill="#000000" font-family="sans-serif" font-size="11" lengthAdjust="spacingAndGlyphs" textLength="46" x="259.5" y="292.1245">assign()</text><ellipse cx="250.5" cy="301.7188" fill="#84BE84" rx="3" ry="3" style="stroke: #038048; stroke-width: 1.0;"/><text fill="#000000" font-family="sans-serif" font-size="11" lengthAdjust="spacingAndGlyphs" textLength="61" x="259.5" y="304.9292">configure()</text><ellipse cx="250.5" cy="314.5234" fill="#84BE84" rx="3" ry="3" style="stroke: #038048; stroke-width: 1.0;"/><text fill="#000000" font-family="sans-serif" font-size="11" lengthAdjust="spacingAndGlyphs" textLength="35" x="259.5" y="317.7339">scan()</text><ellipse cx="250.5" cy="327.3281" fill="#84BE84" rx="3" ry="3" style="stroke: #038048; stroke-width: 1.0;"/><text fill="#000000" font-family="sans-serif" font-size="11" lengthAdjust="spacingAndGlyphs" textLength="51" x="259.5" y="330.5386">release()</text><ellipse cx="250.5" cy="340.1328" fill="#84BE84" rx="3" ry="3" style="stroke: #038048; stroke-width: 1.0;"/><text fill="#000000" font-family="sans-serif" font-size="11" lengthAdjust="spacingAndGlyphs" textLength="70" x="259.5" y="343.3433">release_all()</text><ellipse cx="250.5" cy="352.9375" fill="#84BE84" rx="3" ry="3" style="stroke: #038048; stroke-width: 1.0;"/><text fill="#000000" font-family="sans-serif" font-size="11" lengthAdjust="spacingAndGlyphs" textLength="123" x="259.5" y="356.1479">station_beam_fqdns()</text><ellipse cx="250.5" cy="365.7422" fill="#84BE84" rx="3" ry="3" style="stroke: #038048; stroke-width: 1.0;"/><text fill="#000000" font-family="sans-serif" font-size="11" lengthAdjust="spacingAndGlyphs" textLength="85" x="259.5" y="368.9526">station_fqdns()</text><!--MD5=[7ce17f68e3015a4c2e192d5710e7b1d3]
class TransientBufferManager--><rect fill="#FEFECE" filter="url(#fnxz4k4uva6r8)" height="73.6094" id="TransientBufferManager" style="stroke: #A80036; stroke-width: 1.5;" width="183" x="528.5" y="519"/><ellipse cx="543.5" cy="535" fill="#ADD1B2" rx="11" ry="11" style="stroke: #A80036; stroke-width: 1.0;"/><path d="M546.4688,540.6406 Q545.8906,540.9375 545.25,541.0781 Q544.6094,541.2344 543.9063,541.2344 Q541.4063,541.2344 540.0781,539.5938 Q538.7656,537.9375 538.7656,534.8125 Q538.7656,531.6875 540.0781,530.0313 Q541.4063,528.375 543.9063,528.375 Q544.6094,528.375 545.25,528.5313 Q545.9063,528.6875 546.4688,528.9844 L546.4688,531.7031 Q545.8438,531.125 545.25,530.8594 Q544.6563,530.5781 544.0313,530.5781 Q542.6875,530.5781 542,531.6563 Q541.3125,532.7188 541.3125,534.8125 Q541.3125,536.9063 542,537.9844 Q542.6875,539.0469 544.0313,539.0469 Q544.6563,539.0469 545.25,538.7813 Q545.8438,538.5 546.4688,537.9219 L546.4688,540.6406 Z "/><text fill="#000000" font-family="sans-serif" font-size="12" lengthAdjust="spacingAndGlyphs" textLength="151" x="557.5" y="539.1543">TransientBufferManager</text><line style="stroke: #A80036; stroke-width: 1.5;" x1="529.5" x2="710.5" y1="551" y2="551"/><line style="stroke: #A80036; stroke-width: 1.5;" x1="529.5" x2="710.5" y1="559" y2="559"/><ellipse cx="539.5" cy="570" fill="#84BE84" rx="3" ry="3" style="stroke: #038048; stroke-width: 1.0;"/><text fill="#000000" font-family="sans-serif" font-size="11" lengthAdjust="spacingAndGlyphs" textLength="49" x="548.5" y="573.2104">__init__()</text><ellipse cx="539.5" cy="582.8047" fill="#84BE84" rx="3" ry="3" style="stroke: #038048; stroke-width: 1.0;"/><text fill="#000000" font-family="sans-serif" font-size="11" lengthAdjust="spacingAndGlyphs" textLength="36" x="548.5" y="586.0151">send()</text><!--MD5=[baa5a5cb146901450ae8158c634e71e3]
class MccsSubarray--><rect fill="#FEFECE" filter="url(#fnxz4k4uva6r8)" height="342.5078" id="MccsSubarray" style="stroke: #A80036; stroke-width: 1.5;" width="225" x="507.5" y="116"/><ellipse cx="572.25" cy="132" fill="#ADD1B2" rx="11" ry="11" style="stroke: #A80036; stroke-width: 1.0;"/><path d="M575.2188,137.6406 Q574.6406,137.9375 574,138.0781 Q573.3594,138.2344 572.6563,138.2344 Q570.1563,138.2344 568.8281,136.5938 Q567.5156,134.9375 567.5156,131.8125 Q567.5156,128.6875 568.8281,127.0313 Q570.1563,125.375 572.6563,125.375 Q573.3594,125.375 574,125.5313 Q574.6563,125.6875 575.2188,125.9844 L575.2188,128.7031 Q574.5938,128.125 574,127.8594 Q573.4063,127.5781 572.7813,127.5781 Q571.4375,127.5781 570.75,128.6563 Q570.0625,129.7188 570.0625,131.8125 Q570.0625,133.9063 570.75,134.9844 Q571.4375,136.0469 572.7813,136.0469 Q573.4063,136.0469 574,135.7813 Q574.5938,135.5 575.2188,134.9219 L575.2188,137.6406 Z "/><text fill="#000000" font-family="sans-serif" font-size="12" lengthAdjust="spacingAndGlyphs" textLength="87" x="592.75" y="136.1543">MccsSubarray</text><line style="stroke: #A80036; stroke-width: 1.5;" x1="508.5" x2="731.5" y1="148" y2="148"/><rect fill="none" height="6" style="stroke: #C82930; stroke-width: 1.0;" width="6" x="515.5" y="156"/><text fill="#000000" font-family="sans-serif" font-size="11" lengthAdjust="spacingAndGlyphs" textLength="43" x="527.5" y="162.2104">_thread</text><rect fill="none" height="6" style="stroke: #C82930; stroke-width: 1.0;" width="6" x="515.5" y="168.8047"/><text fill="#000000" font-family="sans-serif" font-size="11" lengthAdjust="spacingAndGlyphs" textLength="28" x="527.5" y="175.0151">_lock</text><rect fill="none" height="6" style="stroke: #C82930; stroke-width: 1.0;" width="6" x="515.5" y="181.6094"/><text fill="#000000" font-family="sans-serif" font-size="11" lengthAdjust="spacingAndGlyphs" textLength="55" x="527.5" y="187.8198">_interrupt</text><rect fill="none" height="6" style="stroke: #C82930; stroke-width: 1.0;" width="6" x="515.5" y="194.4141"/><text fill="#000000" font-family="sans-serif" font-size="11" lengthAdjust="spacingAndGlyphs" textLength="76" x="527.5" y="200.6245">_health_state</text><rect fill="none" height="6" style="stroke: #C82930; stroke-width: 1.0;" width="6" x="515.5" y="207.2188"/><text fill="#000000" font-family="sans-serif" font-size="11" lengthAdjust="spacingAndGlyphs" textLength="49" x="527.5" y="213.4292">_scan_id</text><rect fill="none" height="6" style="stroke: #C82930; stroke-width: 1.0;" width="6" x="515.5" y="220.0234"/><text fill="#000000" font-family="sans-serif" font-size="11" lengthAdjust="spacingAndGlyphs" textLength="101" x="527.5" y="226.2339">_command_result</text><line style="stroke: #A80036; stroke-width: 1.5;" x1="508.5" x2="731.5" y1="232.8281" y2="232.8281"/><ellipse cx="518.5" cy="243.8281" fill="#84BE84" rx="3" ry="3" style="stroke: #038048; stroke-width: 1.0;"/><text fill="#000000" font-family="sans-serif" font-size="11" lengthAdjust="spacingAndGlyphs" textLength="49" x="527.5" y="247.0386">__init__()</text><ellipse cx="518.5" cy="256.6328" fill="#84BE84" rx="3" ry="3" style="stroke: #038048; stroke-width: 1.0;"/><text fill="#000000" font-family="sans-serif" font-size="11" lengthAdjust="spacingAndGlyphs" textLength="22" x="527.5" y="259.8433">do()</text><rect fill="#F24D5C" height="6" style="stroke: #C82930; stroke-width: 1.0;" width="6" x="515.5" y="266.4375"/><text fill="#000000" font-family="sans-serif" font-size="11" lengthAdjust="spacingAndGlyphs" textLength="135" x="527.5" y="272.6479">_initialise_connections()</text><rect fill="#F24D5C" height="6" style="stroke: #C82930; stroke-width: 1.0;" width="6" x="515.5" y="279.2422"/><text fill="#000000" font-family="sans-serif" font-size="11" lengthAdjust="spacingAndGlyphs" textLength="169" x="527.5" y="285.4526">_initialise_health_monitoring()</text><rect fill="#F24D5C" height="6" style="stroke: #C82930; stroke-width: 1.0;" width="6" x="515.5" y="292.0469"/><text fill="#000000" font-family="sans-serif" font-size="11" lengthAdjust="spacingAndGlyphs" textLength="199" x="527.5" y="298.2573">_initialise_resource_management()</text><ellipse cx="518.5" cy="307.8516" fill="#84BE84" rx="3" ry="3" style="stroke: #038048; stroke-width: 1.0;"/><text fill="#000000" font-family="sans-serif" font-size="11" lengthAdjust="spacingAndGlyphs" textLength="134" x="527.5" y="311.062">init_command_objects()</text><ellipse cx="518.5" cy="320.6563" fill="#84BE84" rx="3" ry="3" style="stroke: #038048; stroke-width: 1.0;"/><text fill="#000000" font-family="sans-serif" font-size="11" lengthAdjust="spacingAndGlyphs" textLength="137" x="527.5" y="323.8667">always_executed_hook()</text><ellipse cx="518.5" cy="333.4609" fill="#84BE84" rx="3" ry="3" style="stroke: #038048; stroke-width: 1.0;"/><text fill="#000000" font-family="sans-serif" font-size="11" lengthAdjust="spacingAndGlyphs" textLength="85" x="527.5" y="336.6714">delete_device()</text><ellipse cx="518.5" cy="346.2656" fill="#84BE84" rx="3" ry="3" style="stroke: #038048; stroke-width: 1.0;"/><text fill="#000000" font-family="sans-serif" font-size="11" lengthAdjust="spacingAndGlyphs" textLength="97" x="527.5" y="349.4761">health_changed()</text><ellipse cx="518.5" cy="359.0703" fill="#84BE84" rx="3" ry="3" style="stroke: #038048; stroke-width: 1.0;"/><text fill="#000000" font-family="sans-serif" font-size="11" lengthAdjust="spacingAndGlyphs" textLength="99" x="527.5" y="362.2808">commandResult()</text><ellipse cx="518.5" cy="371.875" fill="#84BE84" rx="3" ry="3" style="stroke: #038048; stroke-width: 1.0;"/><text fill="#000000" font-family="sans-serif" font-size="11" lengthAdjust="spacingAndGlyphs" textLength="45" x="527.5" y="375.0854">scanId()</text><ellipse cx="518.5" cy="384.6797" fill="#84BE84" rx="3" ry="3" style="stroke: #038048; stroke-width: 1.0;"/><text fill="#000000" font-family="sans-serif" font-size="11" lengthAdjust="spacingAndGlyphs" textLength="85" x="527.5" y="387.8901">stationFQDNs()</text><ellipse cx="518.5" cy="397.4844" fill="#84BE84" rx="3" ry="3" style="stroke: #038048; stroke-width: 1.0;"/><text fill="#000000" font-family="sans-serif" font-size="11" lengthAdjust="spacingAndGlyphs" textLength="69" x="527.5" y="400.6948">succeeded()</text><ellipse cx="518.5" cy="410.2891" fill="#84BE84" rx="3" ry="3" style="stroke: #038048; stroke-width: 1.0;"/><text fill="#000000" font-family="sans-serif" font-size="11" lengthAdjust="spacingAndGlyphs" textLength="89" x="527.5" y="413.4995">check_allowed()</text><ellipse cx="518.5" cy="423.0938" fill="#84BE84" rx="3" ry="3" style="stroke: #038048; stroke-width: 1.0;"/><text fill="#000000" font-family="sans-serif" font-size="11" lengthAdjust="spacingAndGlyphs" textLength="38" x="527.5" y="426.3042">Abort()</text><ellipse cx="518.5" cy="435.8984" fill="#84BE84" rx="3" ry="3" style="stroke: #038048; stroke-width: 1.0;"/><text fill="#000000" font-family="sans-serif" font-size="11" lengthAdjust="spacingAndGlyphs" textLength="63" x="527.5" y="439.1089">ObsReset()</text><ellipse cx="518.5" cy="448.7031" fill="#84BE84" rx="3" ry="3" style="stroke: #038048; stroke-width: 1.0;"/><text fill="#000000" font-family="sans-serif" font-size="11" lengthAdjust="spacingAndGlyphs" textLength="126" x="527.5" y="451.9136">SendTransientBuffer()</text><!--MD5=[41e8030464447de9caaa30e39cb8dfb0]
class ResourceManager--><rect fill="#FEFECE" filter="url(#fnxz4k4uva6r8)" height="48" id="ResourceManager" style="stroke: #A80036; stroke-width: 1.5;" width="146" x="158" y="8"/><ellipse cx="173" cy="24" fill="#ADD1B2" rx="11" ry="11" style="stroke: #A80036; stroke-width: 1.0;"/><path d="M175.9688,29.6406 Q175.3906,29.9375 174.75,30.0781 Q174.1094,30.2344 173.4063,30.2344 Q170.9063,30.2344 169.5781,28.5938 Q168.2656,26.9375 168.2656,23.8125 Q168.2656,20.6875 169.5781,19.0313 Q170.9063,17.375 173.4063,17.375 Q174.1094,17.375 174.75,17.5313 Q175.4063,17.6875 175.9688,17.9844 L175.9688,20.7031 Q175.3438,20.125 174.75,19.8594 Q174.1563,19.5781 173.5313,19.5781 Q172.1875,19.5781 171.5,20.6563 Q170.8125,21.7188 170.8125,23.8125 Q170.8125,25.9063 171.5,26.9844 Q172.1875,28.0469 173.5313,28.0469 Q174.1563,28.0469 174.75,27.7813 Q175.3438,27.5 175.9688,26.9219 L175.9688,29.6406 Z "/><text fill="#000000" font-family="sans-serif" font-size="12" lengthAdjust="spacingAndGlyphs" textLength="114" x="187" y="28.1543">ResourceManager</text><line style="stroke: #A80036; stroke-width: 1.5;" x1="159" x2="303" y1="40" y2="40"/><line style="stroke: #A80036; stroke-width: 1.5;" x1="159" x2="303" y1="48" y2="48"/><!--MD5=[e93bb07b831a053ef7c2a31b04f0959f]
class SKASubarray--><rect fill="#FEFECE" filter="url(#fnxz4k4uva6r8)" height="48" id="SKASubarray" style="stroke: #A80036; stroke-width: 1.5;" width="111" x="564.5" y="8"/><ellipse cx="579.5" cy="24" fill="#ADD1B2" rx="11" ry="11" style="stroke: #A80036; stroke-width: 1.0;"/><path d="M582.4688,29.6406 Q581.8906,29.9375 581.25,30.0781 Q580.6094,30.2344 579.9063,30.2344 Q577.4063,30.2344 576.0781,28.5938 Q574.7656,26.9375 574.7656,23.8125 Q574.7656,20.6875 576.0781,19.0313 Q577.4063,17.375 579.9063,17.375 Q580.6094,17.375 581.25,17.5313 Q581.9063,17.6875 582.4688,17.9844 L582.4688,20.7031 Q581.8438,20.125 581.25,19.8594 Q580.6563,19.5781 580.0313,19.5781 Q578.6875,19.5781 578,20.6563 Q577.3125,21.7188 577.3125,23.8125 Q577.3125,25.9063 578,26.9844 Q578.6875,28.0469 580.0313,28.0469 Q580.6563,28.0469 581.25,27.7813 Q581.8438,27.5 582.4688,26.9219 L582.4688,29.6406 Z "/><text fill="#000000" font-family="sans-serif" font-size="12" lengthAdjust="spacingAndGlyphs" textLength="79" x="593.5" y="28.1543">SKASubarray</text><line style="stroke: #A80036; stroke-width: 1.5;" x1="565.5" x2="674.5" y1="40" y2="40"/><line style="stroke: #A80036; stroke-width: 1.5;" x1="565.5" x2="674.5" y1="48" y2="48"/><!--MD5=[ff1dabd53b13f8d2a517785857037566]
reverse link ResourceManager to StationsResourceManager--><path d="M210.2851,74.0053 C190.9865,113.1385 161.8547,172.2112 139.1234,218.3054 " fill="none" id="ResourceManager&lt;-StationsResourceManager" style="stroke: #A80036; stroke-width: 1.0;"/><polygon fill="none" points="204.0222,70.8782,219.1462,56.0368,216.5784,77.0703,204.0222,70.8782" style="stroke: #A80036; stroke-width: 1.0;"/><!--MD5=[b739cff5760e541d4120e7d25eebe6e1]
reverse link ResourceManager to StationBeamsResourceManager--><path d="M251.6152,74.1376 C268.2252,108.0884 292.1473,156.9851 312.9011,199.4058 " fill="none" id="ResourceManager&lt;-StationBeamsResourceManager" style="stroke: #A80036; stroke-width: 1.0;"/><polygon fill="none" points="245.2612,77.0783,242.7597,56.0368,257.8368,70.9258,245.2612,77.0783" style="stroke: #A80036; stroke-width: 1.0;"/><!--MD5=[0cb5301da5e641a6b9d1df1f7bbc86be]
reverse link SKASubarray to MccsSubarray--><path d="M620,76.3797 C620,88.1477 620,101.5912 620,115.8669 " fill="none" id="SKASubarray&lt;-MccsSubarray" style="stroke: #A80036; stroke-width: 1.0;"/><polygon fill="none" points="613.0001,76.0369,620,56.0368,627.0001,76.0368,613.0001,76.0369" style="stroke: #A80036; stroke-width: 1.0;"/><!--MD5=[da5e295c0f7555b62012ab2b8b354dfd]
link MccsSubarray to TransientBufferManager--><path d="M620,459.0653 C620,481.4707 620,502.3697 620,518.9833 " fill="none" id="MccsSubarray-TransientBufferManager" style="stroke: #A80036; stroke-width: 1.0;"/><!--MD5=[72ef1815f5739aa9cad8aa402f0a3d33]
@startuml
class StationsResourceManager
StationsResourceManager : +__init__()
StationsResourceManager : +items()
StationsResourceManager : +add_to_managed()
StationsResourceManager : +release_all()
StationsResourceManager : +station_fqdns()
StationsResourceManager : +station_ids()
class StationBeamsResourceManager
StationBeamsResourceManager : +__init__()
StationBeamsResourceManager : +__len__()
StationBeamsResourceManager : +assign()
StationBeamsResourceManager : +configure()
StationBeamsResourceManager : +scan()
StationBeamsResourceManager : +release()
StationBeamsResourceManager : +release_all()
StationBeamsResourceManager : +station_beam_fqdns()
StationBeamsResourceManager : +station_fqdns()
class TransientBufferManager
TransientBufferManager : +__init__()
TransientBufferManager : +send()
class MccsSubarray
MccsSubarray : +__init__()
MccsSubarray : +do()
MccsSubarray : -_initialise_connections()
MccsSubarray : -_initialise_health_monitoring()
MccsSubarray : -_initialise_resource_management()
MccsSubarray : +init_command_objects()
MccsSubarray : +always_executed_hook()
MccsSubarray : +delete_device()
MccsSubarray : +health_changed()
MccsSubarray : +commandResult()
MccsSubarray : +scanId()
MccsSubarray : +stationFQDNs()
MccsSubarray : +succeeded()
MccsSubarray : +check_allowed()
MccsSubarray : +Abort()
MccsSubarray : +ObsReset()
MccsSubarray : +SendTransientBuffer()
StationsResourceManager : -_devices
StationBeamsResourceManager : -_stations
MccsSubarray : -_thread
MccsSubarray : -_lock
MccsSubarray : -_interrupt
MccsSubarray : -_health_state
MccsSubarray : -_scan_id
MccsSubarray : -_command_result

ResourceManager <|- - StationsResourceManager
ResourceManager <|- - StationBeamsResourceManager
SKASubarray <|- - MccsSubarray
MccsSubarray - - TransientBufferManager
@enduml

PlantUML version 1.2020.06(Sun Apr 05 12:38:32 GMT 2020)
(GPL source distribution)
Java Runtime: OpenJDK Runtime Environment
JVM: OpenJDK 64-Bit Server VM
Java Version: 14-ea+33
Operating System: Linux
Default Encoding: UTF-8
Language: en
Country: US
--></g></svg>