<?xml version="1.0" encoding="UTF-8" standalone="no"?><svg xmlns="http://www.w3.org/2000/svg" xmlns:xlink="http://www.w3.org/1999/xlink" contentScriptType="application/ecmascript" contentStyleType="text/css" height="910px" preserveAspectRatio="none" style="width:711px;height:910px;" version="1.1" viewBox="0 0 711 910" width="711px" zoomAndPan="magnify"><defs><filter height="300%" id="ffp803s8owtrr" width="300%" x="-1" y="-1"><feGaussianBlur result="blurOut" stdDeviation="2.0"/><feColorMatrix in="blurOut" result="blurOut2" type="matrix" values="0 0 0 0 0 0 0 0 0 0 0 0 0 0 0 0 0 0 .4 0"/><feOffset dx="4.0" dy="4.0" in="blurOut2" result="blurOut3"/><feBlend in="SourceGraphic" in2="blurOut3" mode="normal"/></filter></defs><g><!--MD5=[6d93e39c817e4ab489538c5a53516cc0]
class SubrackHardwareHealthEvaluator--><rect fill="#FEFECE" filter="url(#ffp803s8owtrr)" height="48" id="SubrackHardwareHealthEvaluator" style="stroke: #A80036; stroke-width: 1.5;" width="243" x="102.5" y="851"/><ellipse cx="117.5" cy="867" fill="#ADD1B2" rx="11" ry="11" style="stroke: #A80036; stroke-width: 1.0;"/><path d="M120.4688,872.6406 Q119.8906,872.9375 119.25,873.0781 Q118.6094,873.2344 117.9063,873.2344 Q115.4063,873.2344 114.0781,871.5938 Q112.7656,869.9375 112.7656,866.8125 Q112.7656,863.6875 114.0781,862.0313 Q115.4063,860.375 117.9063,860.375 Q118.6094,860.375 119.25,860.5313 Q119.9063,860.6875 120.4688,860.9844 L120.4688,863.7031 Q119.8438,863.125 119.25,862.8594 Q118.6563,862.5781 118.0313,862.5781 Q116.6875,862.5781 116,863.6563 Q115.3125,864.7188 115.3125,866.8125 Q115.3125,868.9063 116,869.9844 Q116.6875,871.0469 118.0313,871.0469 Q118.6563,871.0469 119.25,870.7813 Q119.8438,870.5 120.4688,869.9219 L120.4688,872.6406 Z "/><text fill="#000000" font-family="sans-serif" font-size="12" lengthAdjust="spacingAndGlyphs" textLength="211" x="131.5" y="871.1543">SubrackHardwareHealthEvaluator</text><line style="stroke: #A80036; stroke-width: 1.5;" x1="103.5" x2="344.5" y1="883" y2="883"/><line style="stroke: #A80036; stroke-width: 1.5;" x1="103.5" x2="344.5" y1="891" y2="891"/><!--MD5=[33134516b2c5f0430d1c0cb51ed7a85b]
class SubrackHardwareFactory--><rect fill="#FEFECE" filter="url(#ffp803s8owtrr)" height="483.3594" id="SubrackHardwareFactory" style="stroke: #A80036; stroke-width: 1.5;" width="204" x="6" y="212"/><ellipse cx="27.75" cy="228" fill="#ADD1B2" rx="11" ry="11" style="stroke: #A80036; stroke-width: 1.0;"/><path d="M30.7188,233.6406 Q30.1406,233.9375 29.5,234.0781 Q28.8594,234.2344 28.1563,234.2344 Q25.6563,234.2344 24.3281,232.5938 Q23.0156,230.9375 23.0156,227.8125 Q23.0156,224.6875 24.3281,223.0313 Q25.6563,221.375 28.1563,221.375 Q28.8594,221.375 29.5,221.5313 Q30.1563,221.6875 30.7188,221.9844 L30.7188,224.7031 Q30.0938,224.125 29.5,223.8594 Q28.9063,223.5781 28.2813,223.5781 Q26.9375,223.5781 26.25,224.6563 Q25.5625,225.7188 25.5625,227.8125 Q25.5625,229.9063 26.25,230.9844 Q26.9375,232.0469 28.2813,232.0469 Q28.9063,232.0469 29.5,231.7813 Q30.0938,231.5 30.7188,230.9219 L30.7188,233.6406 Z "/><text fill="#000000" font-family="sans-serif" font-size="12" lengthAdjust="spacingAndGlyphs" textLength="157" x="43.25" y="232.1543">SubrackHardwareFactory</text><line style="stroke: #A80036; stroke-width: 1.5;" x1="7" x2="209" y1="244" y2="244"/><rect fill="none" height="6" style="stroke: #C82930; stroke-width: 1.0;" width="6" x="14" y="252"/><text fill="#000000" font-family="sans-serif" font-size="11" lengthAdjust="spacingAndGlyphs" textLength="65" x="26" y="258.2104">_tpm_count</text><rect fill="none" height="6" style="stroke: #C82930; stroke-width: 1.0;" width="6" x="14" y="264.8047"/><text fill="#000000" font-family="sans-serif" font-size="11" lengthAdjust="spacingAndGlyphs" textLength="80" x="26" y="271.0151">_are_tpms_on</text><rect fill="none" height="6" style="stroke: #C82930; stroke-width: 1.0;" width="6" x="14" y="277.6094"/><text fill="#000000" font-family="sans-serif" font-size="11" lengthAdjust="spacingAndGlyphs" textLength="178" x="26" y="283.8198">_are_tpms_on_change_callback</text><line style="stroke: #A80036; stroke-width: 1.5;" x1="7" x2="209" y1="290.4141" y2="290.4141"/><ellipse cx="17" cy="301.4141" fill="#84BE84" rx="3" ry="3" style="stroke: #038048; stroke-width: 1.0;"/><text fill="#000000" font-family="sans-serif" font-size="11" lengthAdjust="spacingAndGlyphs" textLength="49" x="26" y="304.6245">__init__()</text><rect fill="#F24D5C" height="6" style="stroke: #C82930; stroke-width: 1.0;" width="6" x="14" y="311.2188"/><text fill="#000000" font-family="sans-serif" font-size="11" lengthAdjust="spacingAndGlyphs" textLength="147" x="26" y="317.4292">_create_static_simulator()</text><ellipse cx="17" cy="327.0234" fill="#84BE84" rx="3" ry="3" style="stroke: #038048; stroke-width: 1.0;"/><text fill="#000000" font-family="sans-serif" font-size="11" lengthAdjust="spacingAndGlyphs" textLength="52" x="26" y="330.2339">connect()</text><ellipse cx="17" cy="339.8281" fill="#84BE84" rx="3" ry="3" style="stroke: #038048; stroke-width: 1.0;"/><text fill="#000000" font-family="sans-serif" font-size="11" lengthAdjust="spacingAndGlyphs" textLength="149" x="26" y="343.0386">backplane_temperatures()</text><ellipse cx="17" cy="352.6328" fill="#84BE84" rx="3" ry="3" style="stroke: #038048; stroke-width: 1.0;"/><text fill="#000000" font-family="sans-serif" font-size="11" lengthAdjust="spacingAndGlyphs" textLength="125" x="26" y="355.8433">board_temperatures()</text><ellipse cx="17" cy="365.4375" fill="#84BE84" rx="3" ry="3" style="stroke: #038048; stroke-width: 1.0;"/><text fill="#000000" font-family="sans-serif" font-size="11" lengthAdjust="spacingAndGlyphs" textLength="88" x="26" y="368.6479">board_current()</text><ellipse cx="17" cy="378.2422" fill="#84BE84" rx="3" ry="3" style="stroke: #038048; stroke-width: 1.0;"/><text fill="#000000" font-family="sans-serif" font-size="11" lengthAdjust="spacingAndGlyphs" textLength="125" x="26" y="381.4526">subrack_fan_speeds()</text><ellipse cx="17" cy="391.0469" fill="#84BE84" rx="3" ry="3" style="stroke: #038048; stroke-width: 1.0;"/><text fill="#000000" font-family="sans-serif" font-size="11" lengthAdjust="spacingAndGlyphs" textLength="174" x="26" y="394.2573">subrack_fan_speeds_percent()</text><ellipse cx="17" cy="403.8516" fill="#84BE84" rx="3" ry="3" style="stroke: #038048; stroke-width: 1.0;"/><text fill="#000000" font-family="sans-serif" font-size="11" lengthAdjust="spacingAndGlyphs" textLength="115" x="26" y="407.062">subrack_fan_mode()</text><ellipse cx="17" cy="416.6563" fill="#84BE84" rx="3" ry="3" style="stroke: #038048; stroke-width: 1.0;"/><text fill="#000000" font-family="sans-serif" font-size="11" lengthAdjust="spacingAndGlyphs" textLength="67" x="26" y="419.8667">tpm_count()</text><ellipse cx="17" cy="429.4609" fill="#84BE84" rx="3" ry="3" style="stroke: #038048; stroke-width: 1.0;"/><text fill="#000000" font-family="sans-serif" font-size="11" lengthAdjust="spacingAndGlyphs" textLength="114" x="26" y="432.6714">tpm_temperatures()</text><ellipse cx="17" cy="442.2656" fill="#84BE84" rx="3" ry="3" style="stroke: #038048; stroke-width: 1.0;"/><text fill="#000000" font-family="sans-serif" font-size="11" lengthAdjust="spacingAndGlyphs" textLength="78" x="26" y="445.4761">tpm_powers()</text><ellipse cx="17" cy="455.0703" fill="#84BE84" rx="3" ry="3" style="stroke: #038048; stroke-width: 1.0;"/><text fill="#000000" font-family="sans-serif" font-size="11" lengthAdjust="spacingAndGlyphs" textLength="84" x="26" y="458.2808">tpm_voltages()</text><ellipse cx="17" cy="467.875" fill="#84BE84" rx="3" ry="3" style="stroke: #038048; stroke-width: 1.0;"/><text fill="#000000" font-family="sans-serif" font-size="11" lengthAdjust="spacingAndGlyphs" textLength="158" x="26" y="471.0854">power_supply_fan_speeds()</text><ellipse cx="17" cy="480.6797" fill="#84BE84" rx="3" ry="3" style="stroke: #038048; stroke-width: 1.0;"/><text fill="#000000" font-family="sans-serif" font-size="11" lengthAdjust="spacingAndGlyphs" textLength="140" x="26" y="483.8901">power_supply_currents()</text><ellipse cx="17" cy="493.4844" fill="#84BE84" rx="3" ry="3" style="stroke: #038048; stroke-width: 1.0;"/><text fill="#000000" font-family="sans-serif" font-size="11" lengthAdjust="spacingAndGlyphs" textLength="134" x="26" y="496.6948">power_supply_powers()</text><ellipse cx="17" cy="506.2891" fill="#84BE84" rx="3" ry="3" style="stroke: #038048; stroke-width: 1.0;"/><text fill="#000000" font-family="sans-serif" font-size="11" lengthAdjust="spacingAndGlyphs" textLength="140" x="26" y="509.4995">power_supply_voltages()</text><ellipse cx="17" cy="519.0938" fill="#84BE84" rx="3" ry="3" style="stroke: #038048; stroke-width: 1.0;"/><text fill="#000000" font-family="sans-serif" font-size="11" lengthAdjust="spacingAndGlyphs" textLength="80" x="26" y="522.3042">tpm_present()</text><ellipse cx="17" cy="531.8984" fill="#84BE84" rx="3" ry="3" style="stroke: #038048; stroke-width: 1.0;"/><text fill="#000000" font-family="sans-serif" font-size="11" lengthAdjust="spacingAndGlyphs" textLength="104" x="26" y="535.1089">tpm_supply_fault()</text><ellipse cx="17" cy="544.7031" fill="#84BE84" rx="3" ry="3" style="stroke: #038048; stroke-width: 1.0;"/><text fill="#000000" font-family="sans-serif" font-size="11" lengthAdjust="spacingAndGlyphs" textLength="84" x="26" y="547.9136">tpm_currents()</text><ellipse cx="17" cy="557.5078" fill="#84BE84" rx="3" ry="3" style="stroke: #038048; stroke-width: 1.0;"/><text fill="#000000" font-family="sans-serif" font-size="11" lengthAdjust="spacingAndGlyphs" textLength="66" x="26" y="560.7183">is_tpm_on()</text><ellipse cx="17" cy="570.3125" fill="#84BE84" rx="3" ry="3" style="stroke: #038048; stroke-width: 1.0;"/><text fill="#000000" font-family="sans-serif" font-size="11" lengthAdjust="spacingAndGlyphs" textLength="82" x="26" y="573.5229">are_tpms_on()</text><ellipse cx="17" cy="583.1172" fill="#84BE84" rx="3" ry="3" style="stroke: #038048; stroke-width: 1.0;"/><text fill="#000000" font-family="sans-serif" font-size="11" lengthAdjust="spacingAndGlyphs" textLength="79" x="26" y="586.3276">turn_on_tpm()</text><ellipse cx="17" cy="595.9219" fill="#84BE84" rx="3" ry="3" style="stroke: #038048; stroke-width: 1.0;"/><text fill="#000000" font-family="sans-serif" font-size="11" lengthAdjust="spacingAndGlyphs" textLength="80" x="26" y="599.1323">turn_off_tpm()</text><ellipse cx="17" cy="608.7266" fill="#84BE84" rx="3" ry="3" style="stroke: #038048; stroke-width: 1.0;"/><text fill="#000000" font-family="sans-serif" font-size="11" lengthAdjust="spacingAndGlyphs" textLength="86" x="26" y="611.937">turn_on_tpms()</text><ellipse cx="17" cy="621.5313" fill="#84BE84" rx="3" ry="3" style="stroke: #038048; stroke-width: 1.0;"/><text fill="#000000" font-family="sans-serif" font-size="11" lengthAdjust="spacingAndGlyphs" textLength="87" x="26" y="624.7417">turn_off_tpms()</text><rect fill="#F24D5C" height="6" style="stroke: #C82930; stroke-width: 1.0;" width="6" x="14" y="631.3359"/><text fill="#000000" font-family="sans-serif" font-size="11" lengthAdjust="spacingAndGlyphs" textLength="133" x="26" y="637.5464">_update_are_tpms_on()</text><ellipse cx="17" cy="647.1406" fill="#84BE84" rx="3" ry="3" style="stroke: #038048; stroke-width: 1.0;"/><text fill="#000000" font-family="sans-serif" font-size="11" lengthAdjust="spacingAndGlyphs" textLength="28" x="26" y="650.3511">poll()</text><ellipse cx="17" cy="659.9453" fill="#84BE84" rx="3" ry="3" style="stroke: #038048; stroke-width: 1.0;"/><text fill="#000000" font-family="sans-serif" font-size="11" lengthAdjust="spacingAndGlyphs" textLength="142" x="26" y="663.1558">set_subrack_fan_speed()</text><ellipse cx="17" cy="672.75" fill="#84BE84" rx="3" ry="3" style="stroke: #038048; stroke-width: 1.0;"/><text fill="#000000" font-family="sans-serif" font-size="11" lengthAdjust="spacingAndGlyphs" textLength="139" x="26" y="675.9604">set_subrack_fan_mode()</text><ellipse cx="17" cy="685.5547" fill="#84BE84" rx="3" ry="3" style="stroke: #038048; stroke-width: 1.0;"/><text fill="#000000" font-family="sans-serif" font-size="11" lengthAdjust="spacingAndGlyphs" textLength="175" x="26" y="688.7651">set_power_supply_fan_speed()</text><!--MD5=[9d7c36a622e6eaee4a5ad01a70ab88fb]
class MccsSubrack--><rect fill="#FEFECE" filter="url(#ffp803s8owtrr)" height="675.4297" id="MccsSubrack" style="stroke: #A80036; stroke-width: 1.5;" width="228" x="472" y="116"/><ellipse cx="540.75" cy="132" fill="#ADD1B2" rx="11" ry="11" style="stroke: #A80036; stroke-width: 1.0;"/><path d="M543.7188,137.6406 Q543.1406,137.9375 542.5,138.0781 Q541.8594,138.2344 541.1563,138.2344 Q538.6563,138.2344 537.3281,136.5938 Q536.0156,134.9375 536.0156,131.8125 Q536.0156,128.6875 537.3281,127.0313 Q538.6563,125.375 541.1563,125.375 Q541.8594,125.375 542.5,125.5313 Q543.1563,125.6875 543.7188,125.9844 L543.7188,128.7031 Q543.0938,128.125 542.5,127.8594 Q541.9063,127.5781 541.2813,127.5781 Q539.9375,127.5781 539.25,128.6563 Q538.5625,129.7188 538.5625,131.8125 Q538.5625,133.9063 539.25,134.9844 Q539.9375,136.0469 541.2813,136.0469 Q541.9063,136.0469 542.5,135.7813 Q543.0938,135.5 543.7188,134.9219 L543.7188,137.6406 Z "/><text fill="#000000" font-family="sans-serif" font-size="12" lengthAdjust="spacingAndGlyphs" textLength="82" x="561.25" y="136.1543">MccsSubrack</text><line style="stroke: #A80036; stroke-width: 1.5;" x1="473" x2="699" y1="148" y2="148"/><rect fill="none" height="6" style="stroke: #C82930; stroke-width: 1.0;" width="6" x="480" y="156"/><text fill="#000000" font-family="sans-serif" font-size="11" lengthAdjust="spacingAndGlyphs" textLength="43" x="492" y="162.2104">_thread</text><rect fill="none" height="6" style="stroke: #C82930; stroke-width: 1.0;" width="6" x="480" y="168.8047"/><text fill="#000000" font-family="sans-serif" font-size="11" lengthAdjust="spacingAndGlyphs" textLength="28" x="492" y="175.0151">_lock</text><rect fill="none" height="6" style="stroke: #C82930; stroke-width: 1.0;" width="6" x="480" y="181.6094"/><text fill="#000000" font-family="sans-serif" font-size="11" lengthAdjust="spacingAndGlyphs" textLength="55" x="492" y="187.8198">_interrupt</text><rect fill="none" height="6" style="stroke: #C82930; stroke-width: 1.0;" width="6" x="480" y="194.4141"/><text fill="#000000" font-family="sans-serif" font-size="11" lengthAdjust="spacingAndGlyphs" textLength="80" x="492" y="200.6245">_are_tpms_on</text><rect fill="none" height="6" style="stroke: #C82930; stroke-width: 1.0;" width="6" x="480" y="207.2188"/><text fill="#000000" font-family="sans-serif" font-size="11" lengthAdjust="spacingAndGlyphs" textLength="76" x="492" y="213.4292">_health_state</text><line style="stroke: #A80036; stroke-width: 1.5;" x1="473" x2="699" y1="220.0234" y2="220.0234"/><ellipse cx="483" cy="231.0234" fill="#84BE84" rx="3" ry="3" style="stroke: #038048; stroke-width: 1.0;"/><text fill="#000000" font-family="sans-serif" font-size="11" lengthAdjust="spacingAndGlyphs" textLength="67" x="492" y="234.2339">init_device()</text><ellipse cx="483" cy="243.8281" fill="#84BE84" rx="3" ry="3" style="stroke: #038048; stroke-width: 1.0;"/><text fill="#000000" font-family="sans-serif" font-size="11" lengthAdjust="spacingAndGlyphs" textLength="134" x="492" y="247.0386">init_command_objects()</text><ellipse cx="483" cy="256.6328" fill="#84BE84" rx="3" ry="3" style="stroke: #038048; stroke-width: 1.0;"/><text fill="#000000" font-family="sans-serif" font-size="11" lengthAdjust="spacingAndGlyphs" textLength="49" x="492" y="259.8433">__init__()</text><ellipse cx="483" cy="269.4375" fill="#84BE84" rx="3" ry="3" style="stroke: #038048; stroke-width: 1.0;"/><text fill="#000000" font-family="sans-serif" font-size="11" lengthAdjust="spacingAndGlyphs" textLength="22" x="492" y="272.6479">do()</text><rect fill="#F24D5C" height="6" style="stroke: #C82930; stroke-width: 1.0;" width="6" x="480" y="279.2422"/><text fill="#000000" font-family="sans-serif" font-size="11" lengthAdjust="spacingAndGlyphs" textLength="135" x="492" y="285.4526">_initialise_connections()</text><rect fill="#F24D5C" height="6" style="stroke: #C82930; stroke-width: 1.0;" width="6" x="480" y="292.0469"/><text fill="#000000" font-family="sans-serif" font-size="11" lengthAdjust="spacingAndGlyphs" textLength="202" x="492" y="298.2573">_initialise_hardware_management()</text><rect fill="#F24D5C" height="6" style="stroke: #C82930; stroke-width: 1.0;" width="6" x="480" y="304.8516"/><text fill="#000000" font-family="sans-serif" font-size="11" lengthAdjust="spacingAndGlyphs" textLength="169" x="492" y="311.062">_initialise_health_monitoring()</text><ellipse cx="483" cy="320.6563" fill="#84BE84" rx="3" ry="3" style="stroke: #038048; stroke-width: 1.0;"/><text fill="#000000" font-family="sans-serif" font-size="11" lengthAdjust="spacingAndGlyphs" textLength="57" x="492" y="323.8667">interrupt()</text><ellipse cx="483" cy="333.4609" fill="#84BE84" rx="3" ry="3" style="stroke: #038048; stroke-width: 1.0;"/><text fill="#000000" font-family="sans-serif" font-size="11" lengthAdjust="spacingAndGlyphs" textLength="69" x="492" y="336.6714">succeeded()</text><ellipse cx="483" cy="346.2656" fill="#84BE84" rx="3" ry="3" style="stroke: #038048; stroke-width: 1.0;"/><text fill="#000000" font-family="sans-serif" font-size="11" lengthAdjust="spacingAndGlyphs" textLength="137" x="492" y="349.4761">always_executed_hook()</text><ellipse cx="483" cy="359.0703" fill="#84BE84" rx="3" ry="3" style="stroke: #038048; stroke-width: 1.0;"/><text fill="#000000" font-family="sans-serif" font-size="11" lengthAdjust="spacingAndGlyphs" textLength="85" x="492" y="362.2808">delete_device()</text><ellipse cx="483" cy="371.875" fill="#84BE84" rx="3" ry="3" style="stroke: #038048; stroke-width: 1.0;"/><text fill="#000000" font-family="sans-serif" font-size="11" lengthAdjust="spacingAndGlyphs" textLength="136" x="492" y="375.0854">are_tpms_on_changed()</text><ellipse cx="483" cy="384.6797" fill="#84BE84" rx="3" ry="3" style="stroke: #038048; stroke-width: 1.0;"/><text fill="#000000" font-family="sans-serif" font-size="11" lengthAdjust="spacingAndGlyphs" textLength="97" x="492" y="387.8901">health_changed()</text><ellipse cx="483" cy="397.4844" fill="#84BE84" rx="3" ry="3" style="stroke: #038048; stroke-width: 1.0;"/><text fill="#000000" font-family="sans-serif" font-size="11" lengthAdjust="spacingAndGlyphs" textLength="97" x="492" y="400.6948">simulationMode()</text><ellipse cx="483" cy="410.2891" fill="#84BE84" rx="3" ry="3" style="stroke: #038048; stroke-width: 1.0;"/><text fill="#000000" font-family="sans-serif" font-size="11" lengthAdjust="spacingAndGlyphs" textLength="146" x="492" y="413.4995">backplaneTemperatures()</text><ellipse cx="483" cy="423.0938" fill="#84BE84" rx="3" ry="3" style="stroke: #038048; stroke-width: 1.0;"/><text fill="#000000" font-family="sans-serif" font-size="11" lengthAdjust="spacingAndGlyphs" textLength="122" x="492" y="426.3042">boardTemperatures()</text><ellipse cx="483" cy="435.8984" fill="#84BE84" rx="3" ry="3" style="stroke: #038048; stroke-width: 1.0;"/><text fill="#000000" font-family="sans-serif" font-size="11" lengthAdjust="spacingAndGlyphs" textLength="84" x="492" y="439.1089">boardCurrent()</text><ellipse cx="483" cy="448.7031" fill="#84BE84" rx="3" ry="3" style="stroke: #038048; stroke-width: 1.0;"/><text fill="#000000" font-family="sans-serif" font-size="11" lengthAdjust="spacingAndGlyphs" textLength="116" x="492" y="451.9136">subrackFanSpeeds()</text><ellipse cx="483" cy="461.5078" fill="#84BE84" rx="3" ry="3" style="stroke: #038048; stroke-width: 1.0;"/><text fill="#000000" font-family="sans-serif" font-size="11" lengthAdjust="spacingAndGlyphs" textLength="159" x="492" y="464.7183">subrackFanSpeedsPercent()</text><ellipse cx="483" cy="474.3125" fill="#84BE84" rx="3" ry="3" style="stroke: #038048; stroke-width: 1.0;"/><text fill="#000000" font-family="sans-serif" font-size="11" lengthAdjust="spacingAndGlyphs" textLength="103" x="492" y="477.5229">subrackFanMode()</text><ellipse cx="483" cy="487.1172" fill="#84BE84" rx="3" ry="3" style="stroke: #038048; stroke-width: 1.0;"/><text fill="#000000" font-family="sans-serif" font-size="11" lengthAdjust="spacingAndGlyphs" textLength="63" x="492" y="490.3276">tpmOnOff()</text><ellipse cx="483" cy="499.9219" fill="#84BE84" rx="3" ry="3" style="stroke: #038048; stroke-width: 1.0;"/><text fill="#000000" font-family="sans-serif" font-size="11" lengthAdjust="spacingAndGlyphs" textLength="74" x="492" y="503.1323">tpmPresent()</text><ellipse cx="483" cy="512.7266" fill="#84BE84" rx="3" ry="3" style="stroke: #038048; stroke-width: 1.0;"/><text fill="#000000" font-family="sans-serif" font-size="11" lengthAdjust="spacingAndGlyphs" textLength="95" x="492" y="515.937">tpmSupplyFault()</text><ellipse cx="483" cy="525.5313" fill="#84BE84" rx="3" ry="3" style="stroke: #038048; stroke-width: 1.0;"/><text fill="#000000" font-family="sans-serif" font-size="11" lengthAdjust="spacingAndGlyphs" textLength="111" x="492" y="528.7417">tpmTemperatures()</text><ellipse cx="483" cy="538.3359" fill="#84BE84" rx="3" ry="3" style="stroke: #038048; stroke-width: 1.0;"/><text fill="#000000" font-family="sans-serif" font-size="11" lengthAdjust="spacingAndGlyphs" textLength="72" x="492" y="541.5464">tpmPowers()</text><ellipse cx="483" cy="551.1406" fill="#84BE84" rx="3" ry="3" style="stroke: #038048; stroke-width: 1.0;"/><text fill="#000000" font-family="sans-serif" font-size="11" lengthAdjust="spacingAndGlyphs" textLength="79" x="492" y="554.3511">tpmVoltages()</text><ellipse cx="483" cy="563.9453" fill="#84BE84" rx="3" ry="3" style="stroke: #038048; stroke-width: 1.0;"/><text fill="#000000" font-family="sans-serif" font-size="11" lengthAdjust="spacingAndGlyphs" textLength="80" x="492" y="567.1558">tpmCurrents()</text><ellipse cx="483" cy="576.75" fill="#84BE84" rx="3" ry="3" style="stroke: #038048; stroke-width: 1.0;"/><text fill="#000000" font-family="sans-serif" font-size="11" lengthAdjust="spacingAndGlyphs" textLength="63" x="492" y="579.9604">tpmCount()</text><ellipse cx="483" cy="589.5547" fill="#84BE84" rx="3" ry="3" style="stroke: #038048; stroke-width: 1.0;"/><text fill="#000000" font-family="sans-serif" font-size="11" lengthAdjust="spacingAndGlyphs" textLength="75" x="492" y="592.7651">areTpmsOn()</text><ellipse cx="483" cy="602.3594" fill="#84BE84" rx="3" ry="3" style="stroke: #038048; stroke-width: 1.0;"/><text fill="#000000" font-family="sans-serif" font-size="11" lengthAdjust="spacingAndGlyphs" textLength="144" x="492" y="605.5698">powerSupplyFanSpeeds()</text><ellipse cx="483" cy="615.1641" fill="#84BE84" rx="3" ry="3" style="stroke: #038048; stroke-width: 1.0;"/><text fill="#000000" font-family="sans-serif" font-size="11" lengthAdjust="spacingAndGlyphs" textLength="131" x="492" y="618.3745">powerSupplyCurrents()</text><ellipse cx="483" cy="627.9688" fill="#84BE84" rx="3" ry="3" style="stroke: #038048; stroke-width: 1.0;"/><text fill="#000000" font-family="sans-serif" font-size="11" lengthAdjust="spacingAndGlyphs" textLength="123" x="492" y="631.1792">powerSupplyPowers()</text><ellipse cx="483" cy="640.7734" fill="#84BE84" rx="3" ry="3" style="stroke: #038048; stroke-width: 1.0;"/><text fill="#000000" font-family="sans-serif" font-size="11" lengthAdjust="spacingAndGlyphs" textLength="130" x="492" y="643.9839">powerSupplyVoltages()</text><ellipse cx="483" cy="653.5781" fill="#84BE84" rx="3" ry="3" style="stroke: #038048; stroke-width: 1.0;"/><text fill="#000000" font-family="sans-serif" font-size="11" lengthAdjust="spacingAndGlyphs" textLength="67" x="492" y="656.7886">is_allowed()</text><ellipse cx="483" cy="666.3828" fill="#84BE84" rx="3" ry="3" style="stroke: #038048; stroke-width: 1.0;"/><text fill="#000000" font-family="sans-serif" font-size="11" lengthAdjust="spacingAndGlyphs" textLength="124" x="492" y="669.5933">is_IsTpmOn_allowed()</text><ellipse cx="483" cy="679.1875" fill="#84BE84" rx="3" ry="3" style="stroke: #038048; stroke-width: 1.0;"/><text fill="#000000" font-family="sans-serif" font-size="11" lengthAdjust="spacingAndGlyphs" textLength="59" x="492" y="682.3979">IsTpmOn()</text><ellipse cx="483" cy="691.9922" fill="#84BE84" rx="3" ry="3" style="stroke: #038048; stroke-width: 1.0;"/><text fill="#000000" font-family="sans-serif" font-size="11" lengthAdjust="spacingAndGlyphs" textLength="149" x="492" y="695.2026">is_PowerOnTpm_allowed()</text><ellipse cx="483" cy="704.7969" fill="#84BE84" rx="3" ry="3" style="stroke: #038048; stroke-width: 1.0;"/><text fill="#000000" font-family="sans-serif" font-size="11" lengthAdjust="spacingAndGlyphs" textLength="84" x="492" y="708.0073">PowerOnTpm()</text><ellipse cx="483" cy="717.6016" fill="#84BE84" rx="3" ry="3" style="stroke: #038048; stroke-width: 1.0;"/><text fill="#000000" font-family="sans-serif" font-size="11" lengthAdjust="spacingAndGlyphs" textLength="150" x="492" y="720.812">is_PowerOffTpm_allowed()</text><ellipse cx="483" cy="730.4063" fill="#84BE84" rx="3" ry="3" style="stroke: #038048; stroke-width: 1.0;"/><text fill="#000000" font-family="sans-serif" font-size="11" lengthAdjust="spacingAndGlyphs" textLength="85" x="492" y="733.6167">PowerOffTpm()</text><ellipse cx="483" cy="743.2109" fill="#84BE84" rx="3" ry="3" style="stroke: #038048; stroke-width: 1.0;"/><text fill="#000000" font-family="sans-serif" font-size="11" lengthAdjust="spacingAndGlyphs" textLength="129" x="492" y="746.4214">SetSubrackFanSpeed()</text><ellipse cx="483" cy="756.0156" fill="#84BE84" rx="3" ry="3" style="stroke: #038048; stroke-width: 1.0;"/><text fill="#000000" font-family="sans-serif" font-size="11" lengthAdjust="spacingAndGlyphs" textLength="123" x="492" y="759.2261">SetSubrackFanMode()</text><ellipse cx="483" cy="768.8203" fill="#84BE84" rx="3" ry="3" style="stroke: #038048; stroke-width: 1.0;"/><text fill="#000000" font-family="sans-serif" font-size="11" lengthAdjust="spacingAndGlyphs" textLength="156" x="492" y="772.0308">SetPowerSupplyFanSpeed()</text><rect fill="#F24D5C" height="6" style="stroke: #C82930; stroke-width: 1.0;" width="6" x="480" y="778.625"/><text fill="#000000" font-family="sans-serif" font-size="11" lengthAdjust="spacingAndGlyphs" textLength="129" x="492" y="784.8354">_update_health_state()</text><!--MD5=[38ec8ebb384a5163003b04e2a5da297f]
class HardwareHealthEvaluator--><rect fill="#FEFECE" filter="url(#ffp803s8owtrr)" height="48" id="HardwareHealthEvaluator" style="stroke: #A80036; stroke-width: 1.5;" width="192" x="245" y="429.5"/><ellipse cx="260" cy="445.5" fill="#ADD1B2" rx="11" ry="11" style="stroke: #A80036; stroke-width: 1.0;"/><path d="M262.9688,451.1406 Q262.3906,451.4375 261.75,451.5781 Q261.1094,451.7344 260.4063,451.7344 Q257.9063,451.7344 256.5781,450.0938 Q255.2656,448.4375 255.2656,445.3125 Q255.2656,442.1875 256.5781,440.5313 Q257.9063,438.875 260.4063,438.875 Q261.1094,438.875 261.75,439.0313 Q262.4063,439.1875 262.9688,439.4844 L262.9688,442.2031 Q262.3438,441.625 261.75,441.3594 Q261.1563,441.0781 260.5313,441.0781 Q259.1875,441.0781 258.5,442.1563 Q257.8125,443.2188 257.8125,445.3125 Q257.8125,447.4063 258.5,448.4844 Q259.1875,449.5469 260.5313,449.5469 Q261.1563,449.5469 261.75,449.2813 Q262.3438,449 262.9688,448.4219 L262.9688,451.1406 Z "/><text fill="#000000" font-family="sans-serif" font-size="12" lengthAdjust="spacingAndGlyphs" textLength="160" x="274" y="449.6543">HardwareHealthEvaluator</text><line style="stroke: #A80036; stroke-width: 1.5;" x1="246" x2="436" y1="461.5" y2="461.5"/><line style="stroke: #A80036; stroke-width: 1.5;" x1="246" x2="436" y1="469.5" y2="469.5"/><!--MD5=[fb1ddb9ac14f63bdd608ba2c81065e04]
class SimulableHardwareFactory--><rect fill="#FEFECE" filter="url(#ffp803s8owtrr)" height="48" id="SimulableHardwareFactory" style="stroke: #A80036; stroke-width: 1.5;" width="198" x="9" y="8"/><ellipse cx="24" cy="24" fill="#ADD1B2" rx="11" ry="11" style="stroke: #A80036; stroke-width: 1.0;"/><path d="M26.9688,29.6406 Q26.3906,29.9375 25.75,30.0781 Q25.1094,30.2344 24.4063,30.2344 Q21.9063,30.2344 20.5781,28.5938 Q19.2656,26.9375 19.2656,23.8125 Q19.2656,20.6875 20.5781,19.0313 Q21.9063,17.375 24.4063,17.375 Q25.1094,17.375 25.75,17.5313 Q26.4063,17.6875 26.9688,17.9844 L26.9688,20.7031 Q26.3438,20.125 25.75,19.8594 Q25.1563,19.5781 24.5313,19.5781 Q23.1875,19.5781 22.5,20.6563 Q21.8125,21.7188 21.8125,23.8125 Q21.8125,25.9063 22.5,26.9844 Q23.1875,28.0469 24.5313,28.0469 Q25.1563,28.0469 25.75,27.7813 Q26.3438,27.5 26.9688,26.9219 L26.9688,29.6406 Z "/><text fill="#000000" font-family="sans-serif" font-size="12" lengthAdjust="spacingAndGlyphs" textLength="166" x="38" y="28.1543">SimulableHardwareFactory</text><line style="stroke: #A80036; stroke-width: 1.5;" x1="10" x2="206" y1="40" y2="40"/><line style="stroke: #A80036; stroke-width: 1.5;" x1="10" x2="206" y1="48" y2="48"/><!--MD5=[4b247cd441d6776975beb1666a0cb733]
class SKABaseDevice--><rect fill="#FEFECE" filter="url(#ffp803s8owtrr)" height="48" id="SKABaseDevice" style="stroke: #A80036; stroke-width: 1.5;" width="127" x="522.5" y="8"/><ellipse cx="537.5" cy="24" fill="#ADD1B2" rx="11" ry="11" style="stroke: #A80036; stroke-width: 1.0;"/><path d="M540.4688,29.6406 Q539.8906,29.9375 539.25,30.0781 Q538.6094,30.2344 537.9063,30.2344 Q535.4063,30.2344 534.0781,28.5938 Q532.7656,26.9375 532.7656,23.8125 Q532.7656,20.6875 534.0781,19.0313 Q535.4063,17.375 537.9063,17.375 Q538.6094,17.375 539.25,17.5313 Q539.9063,17.6875 540.4688,17.9844 L540.4688,20.7031 Q539.8438,20.125 539.25,19.8594 Q538.6563,19.5781 538.0313,19.5781 Q536.6875,19.5781 536,20.6563 Q535.3125,21.7188 535.3125,23.8125 Q535.3125,25.9063 536,26.9844 Q536.6875,28.0469 538.0313,28.0469 Q538.6563,28.0469 539.25,27.7813 Q539.8438,27.5 540.4688,26.9219 L540.4688,29.6406 Z "/><text fill="#000000" font-family="sans-serif" font-size="12" lengthAdjust="spacingAndGlyphs" textLength="95" x="551.5" y="28.1543">SKABaseDevice</text><line style="stroke: #A80036; stroke-width: 1.5;" x1="523.5" x2="648.5" y1="40" y2="40"/><line style="stroke: #A80036; stroke-width: 1.5;" x1="523.5" x2="648.5" y1="48" y2="48"/><!--MD5=[7a667c18e7df9f8900858428dc6849f0]
reverse link HardwareHealthEvaluator to SubrackHardwareHealthEvaluator--><path d="M328.8841,497.1485 C304.3936,585.377 249.7144,782.3623 230.6835,850.9221 " fill="none" id="HardwareHealthEvaluator&lt;-SubrackHardwareHealthEvaluator" style="stroke: #A80036; stroke-width: 1.0;"/><polygon fill="none" points="322.195,495.0746,334.2893,477.6756,335.6849,498.8192,322.195,495.0746" style="stroke: #A80036; stroke-width: 1.0;"/><!--MD5=[14c5562a756b834f767634ca1007416b]
reverse link SimulableHardwareFactory to SubrackHardwareFactory--><path d="M108,76.4772 C108,110.3072 108,159.7775 108,211.8201 " fill="none" id="SimulableHardwareFactory&lt;-SubrackHardwareFactory" style="stroke: #A80036; stroke-width: 1.0;"/><polygon fill="none" points="101.0001,76.1756,108,56.1756,115.0001,76.1755,101.0001,76.1756" style="stroke: #A80036; stroke-width: 1.0;"/><!--MD5=[c080ce62928502829201d523e4a16d14]
reverse link SKABaseDevice to MccsSubrack--><path d="M586,76.525 C586,88.0402 586,101.3652 586,115.9853 " fill="none" id="SKABaseDevice&lt;-MccsSubrack" style="stroke: #A80036; stroke-width: 1.0;"/><polygon fill="none" points="579.0001,76.1756,586,56.1756,593.0001,76.1755,579.0001,76.1756" style="stroke: #A80036; stroke-width: 1.0;"/><!--MD5=[4bd77474473bfc08b344a546da6fa8ea]
link SubrackHardwareFactory to SubrackHardwareHealthEvaluator--><path d="M174.4691,695.0234 C192.0349,758.8509 208.5415,818.8298 217.3563,850.8592 " fill="none" id="SubrackHardwareFactory-SubrackHardwareHealthEvaluator" style="stroke: #A80036; stroke-width: 1.0;"/><!--MD5=[3878083f4c090e54be87a8867c6ab2f8]
@startuml
class SubrackHardwareHealthEvaluator
class SubrackHardwareFactory
SubrackHardwareFactory : +__init__()
SubrackHardwareFactory : -_create_static_simulator()
SubrackHardwareFactory : +connect()
SubrackHardwareFactory : +backplane_temperatures()
SubrackHardwareFactory : +board_temperatures()
SubrackHardwareFactory : +board_current()
SubrackHardwareFactory : +subrack_fan_speeds()
SubrackHardwareFactory : +subrack_fan_speeds_percent()
SubrackHardwareFactory : +subrack_fan_mode()
SubrackHardwareFactory : +tpm_count()
SubrackHardwareFactory : +tpm_temperatures()
SubrackHardwareFactory : +tpm_powers()
SubrackHardwareFactory : +tpm_voltages()
SubrackHardwareFactory : +power_supply_fan_speeds()
SubrackHardwareFactory : +power_supply_currents()
SubrackHardwareFactory : +power_supply_powers()
SubrackHardwareFactory : +power_supply_voltages()
SubrackHardwareFactory : +tpm_present()
SubrackHardwareFactory : +tpm_supply_fault()
SubrackHardwareFactory : +tpm_currents()
SubrackHardwareFactory : +is_tpm_on()
SubrackHardwareFactory : +are_tpms_on()
SubrackHardwareFactory : +turn_on_tpm()
SubrackHardwareFactory : +turn_off_tpm()
SubrackHardwareFactory : +turn_on_tpms()
SubrackHardwareFactory : +turn_off_tpms()
SubrackHardwareFactory : -_update_are_tpms_on()
SubrackHardwareFactory : +poll()
SubrackHardwareFactory : +set_subrack_fan_speed()
SubrackHardwareFactory : +set_subrack_fan_mode()
SubrackHardwareFactory : +set_power_supply_fan_speed()
class MccsSubrack
MccsSubrack : +init_device()
MccsSubrack : +init_command_objects()
MccsSubrack : +__init__()
MccsSubrack : +do()
MccsSubrack : -_initialise_connections()
MccsSubrack : -_initialise_hardware_management()
MccsSubrack : -_initialise_health_monitoring()
MccsSubrack : +interrupt()
MccsSubrack : +succeeded()
MccsSubrack : +always_executed_hook()
MccsSubrack : +delete_device()
MccsSubrack : +are_tpms_on_changed()
MccsSubrack : +health_changed()
MccsSubrack : +simulationMode()
MccsSubrack : +backplaneTemperatures()
MccsSubrack : +boardTemperatures()
MccsSubrack : +boardCurrent()
MccsSubrack : +subrackFanSpeeds()
MccsSubrack : +subrackFanSpeedsPercent()
MccsSubrack : +subrackFanMode()
MccsSubrack : +tpmOnOff()
MccsSubrack : +tpmPresent()
MccsSubrack : +tpmSupplyFault()
MccsSubrack : +tpmTemperatures()
MccsSubrack : +tpmPowers()
MccsSubrack : +tpmVoltages()
MccsSubrack : +tpmCurrents()
MccsSubrack : +tpmCount()
MccsSubrack : +areTpmsOn()
MccsSubrack : +powerSupplyFanSpeeds()
MccsSubrack : +powerSupplyCurrents()
MccsSubrack : +powerSupplyPowers()
MccsSubrack : +powerSupplyVoltages()
MccsSubrack : +is_allowed()
MccsSubrack : +is_IsTpmOn_allowed()
MccsSubrack : +IsTpmOn()
MccsSubrack : +is_PowerOnTpm_allowed()
MccsSubrack : +PowerOnTpm()
MccsSubrack : +is_PowerOffTpm_allowed()
MccsSubrack : +PowerOffTpm()
MccsSubrack : +SetSubrackFanSpeed()
MccsSubrack : +SetSubrackFanMode()
MccsSubrack : +SetPowerSupplyFanSpeed()
MccsSubrack : -_update_health_state()
SubrackHardwareFactory : -_tpm_count
SubrackHardwareFactory : -_are_tpms_on
SubrackHardwareFactory : -_are_tpms_on_change_callback
MccsSubrack : -_thread
MccsSubrack : -_lock
MccsSubrack : -_interrupt
MccsSubrack : -_are_tpms_on
MccsSubrack : -_health_state

HardwareHealthEvaluator <|- - SubrackHardwareHealthEvaluator
SimulableHardwareFactory <|- - SubrackHardwareFactory
SKABaseDevice <|- - MccsSubrack
SubrackHardwareFactory - - SubrackHardwareHealthEvaluator
@enduml

PlantUML version 1.2020.06(Sun Apr 05 12:38:32 GMT 2020)
(GPL source distribution)
Java Runtime: OpenJDK Runtime Environment
JVM: OpenJDK 64-Bit Server VM
Java Version: 14-ea+33
Operating System: Linux
Default Encoding: UTF-8
Language: en
Country: US
--></g></svg>