<?xml version="1.0" encoding="UTF-8" standalone="no"?><svg xmlns="http://www.w3.org/2000/svg" xmlns:xlink="http://www.w3.org/1999/xlink" contentScriptType="application/ecmascript" contentStyleType="text/css" height="753px" preserveAspectRatio="none" style="width:877px;height:753px;" version="1.1" viewBox="0 0 877 753" width="877px" zoomAndPan="magnify"><defs><filter height="300%" id="f1waaq004ax5le" width="300%" x="-1" y="-1"><feGaussianBlur result="blurOut" stdDeviation="2.0"/><feColorMatrix in="blurOut" result="blurOut2" type="matrix" values="0 0 0 0 0 0 0 0 0 0 0 0 0 0 0 0 0 0 .4 0"/><feOffset dx="4.0" dy="4.0" in="blurOut2" result="blurOut3"/><feBlend in="SourceGraphic" in2="blurOut3" mode="normal"/></filter></defs><g><!--MD5=[9d7c36a622e6eaee4a5ad01a70ab88fb]
class MccsSubrack--><rect codeLine="1" fill="#FEFECE" filter="url(#f1waaq004ax5le)" height="624.2109" id="MccsSubrack" style="stroke:#A80036;stroke-width:1.5;" width="197" x="7" y="115"/><ellipse cx="60.25" cy="131" fill="#ADD1B2" rx="11" ry="11" style="stroke:#A80036;stroke-width:1.0;"/><path d="M63.2188,136.6406 Q62.6406,136.9375 62,137.0781 Q61.3594,137.2344 60.6563,137.2344 Q58.1563,137.2344 56.8281,135.5938 Q55.5156,133.9375 55.5156,130.8125 Q55.5156,127.6875 56.8281,126.0313 Q58.1563,124.375 60.6563,124.375 Q61.3594,124.375 62,124.5313 Q62.6563,124.6875 63.2188,124.9844 L63.2188,127.7031 Q62.5938,127.125 62,126.8594 Q61.4063,126.5781 60.7813,126.5781 Q59.4375,126.5781 58.75,127.6563 Q58.0625,128.7188 58.0625,130.8125 Q58.0625,132.9063 58.75,133.9844 Q59.4375,135.0469 60.7813,135.0469 Q61.4063,135.0469 62,134.7813 Q62.5938,134.5 63.2188,133.9219 L63.2188,136.6406 Z " fill="#000000"/><text fill="#000000" font-family="sans-serif" font-size="12" lengthAdjust="spacingAndGlyphs" textLength="82" x="80.75" y="135.1543">MccsSubrack</text><line style="stroke:#A80036;stroke-width:1.5;" x1="8" x2="203" y1="147" y2="147"/><ellipse cx="18" cy="158" fill="none" rx="3" ry="3" style="stroke:#038048;stroke-width:1.0;"/><text fill="#000000" font-family="sans-serif" font-size="11" lengthAdjust="spacingAndGlyphs" textLength="56" x="27" y="161.2104">SubrackIp</text><ellipse cx="18" cy="170.8047" fill="none" rx="3" ry="3" style="stroke:#038048;stroke-width:1.0;"/><text fill="#000000" font-family="sans-serif" font-size="11" lengthAdjust="spacingAndGlyphs" textLength="69" x="27" y="174.0151">SubrackPort</text><ellipse cx="18" cy="183.6094" fill="none" rx="3" ry="3" style="stroke:#038048;stroke-width:1.0;"/><text fill="#000000" font-family="sans-serif" font-size="11" lengthAdjust="spacingAndGlyphs" textLength="58" x="27" y="186.8198">TileFQDNs</text><rect fill="none" height="6" style="stroke:#C82930;stroke-width:1.0;" width="6" x="15" y="193.4141"/><text fill="#000000" font-family="sans-serif" font-size="11" lengthAdjust="spacingAndGlyphs" textLength="80" x="27" y="199.6245">_are_tpms_on</text><rect fill="none" height="6" style="stroke:#C82930;stroke-width:1.0;" width="6" x="15" y="206.2188"/><text fill="#000000" font-family="sans-serif" font-size="11" lengthAdjust="spacingAndGlyphs" textLength="76" x="27" y="212.4292">_health_state</text><ellipse cx="18" cy="222.0234" fill="none" rx="3" ry="3" style="stroke:#038048;stroke-width:1.0;"/><text fill="#000000" font-family="sans-serif" font-size="11" lengthAdjust="spacingAndGlyphs" textLength="111" x="27" y="225.2339">hardware_manager</text><line style="stroke:#A80036;stroke-width:1.5;" x1="8" x2="203" y1="231.8281" y2="231.8281"/><ellipse cx="18" cy="242.8281" fill="#84BE84" rx="3" ry="3" style="stroke:#038048;stroke-width:1.0;"/><text fill="#000000" font-family="sans-serif" font-size="11" lengthAdjust="spacingAndGlyphs" textLength="59" x="27" y="246.0386">IsTpmOn()</text><ellipse cx="18" cy="255.6328" fill="#84BE84" rx="3" ry="3" style="stroke:#038048;stroke-width:1.0;"/><text fill="#000000" font-family="sans-serif" font-size="11" lengthAdjust="spacingAndGlyphs" textLength="106" x="27" y="258.8433">PowerDownTpms()</text><ellipse cx="18" cy="268.4375" fill="#84BE84" rx="3" ry="3" style="stroke:#038048;stroke-width:1.0;"/><text fill="#000000" font-family="sans-serif" font-size="11" lengthAdjust="spacingAndGlyphs" textLength="85" x="27" y="271.6479">PowerOffTpm()</text><ellipse cx="18" cy="281.2422" fill="#84BE84" rx="3" ry="3" style="stroke:#038048;stroke-width:1.0;"/><text fill="#000000" font-family="sans-serif" font-size="11" lengthAdjust="spacingAndGlyphs" textLength="84" x="27" y="284.4526">PowerOnTpm()</text><ellipse cx="18" cy="294.0469" fill="#84BE84" rx="3" ry="3" style="stroke:#038048;stroke-width:1.0;"/><text fill="#000000" font-family="sans-serif" font-size="11" lengthAdjust="spacingAndGlyphs" textLength="90" x="27" y="297.2573">PowerUpTpms()</text><ellipse cx="18" cy="306.8516" fill="#84BE84" rx="3" ry="3" style="stroke:#038048;stroke-width:1.0;"/><text fill="#000000" font-family="sans-serif" font-size="11" lengthAdjust="spacingAndGlyphs" textLength="156" x="27" y="310.062">SetPowerSupplyFanSpeed()</text><ellipse cx="18" cy="319.6563" fill="#84BE84" rx="3" ry="3" style="stroke:#038048;stroke-width:1.0;"/><text fill="#000000" font-family="sans-serif" font-size="11" lengthAdjust="spacingAndGlyphs" textLength="123" x="27" y="322.8667">SetSubrackFanMode()</text><ellipse cx="18" cy="332.4609" fill="#84BE84" rx="3" ry="3" style="stroke:#038048;stroke-width:1.0;"/><text fill="#000000" font-family="sans-serif" font-size="11" lengthAdjust="spacingAndGlyphs" textLength="129" x="27" y="335.6714">SetSubrackFanSpeed()</text><rect fill="#F24D5C" height="6" style="stroke:#C82930;stroke-width:1.0;" width="6" x="15" y="342.2656"/><text fill="#000000" font-family="sans-serif" font-size="11" lengthAdjust="spacingAndGlyphs" textLength="129" x="27" y="348.4761">_update_health_state()</text><ellipse cx="18" cy="358.0703" fill="#84BE84" rx="3" ry="3" style="stroke:#038048;stroke-width:1.0;"/><text fill="#000000" font-family="sans-serif" font-size="11" lengthAdjust="spacingAndGlyphs" textLength="137" x="27" y="361.2808">always_executed_hook()</text><ellipse cx="18" cy="370.875" fill="#84BE84" rx="3" ry="3" style="stroke:#038048;stroke-width:1.0;"/><text fill="#000000" font-family="sans-serif" font-size="11" lengthAdjust="spacingAndGlyphs" textLength="75" x="27" y="374.0854">areTpmsOn()</text><ellipse cx="18" cy="383.6797" fill="#84BE84" rx="3" ry="3" style="stroke:#038048;stroke-width:1.0;"/><text fill="#000000" font-family="sans-serif" font-size="11" lengthAdjust="spacingAndGlyphs" textLength="136" x="27" y="386.8901">are_tpms_on_changed()</text><ellipse cx="18" cy="396.4844" fill="#84BE84" rx="3" ry="3" style="stroke:#038048;stroke-width:1.0;"/><text fill="#000000" font-family="sans-serif" font-size="11" lengthAdjust="spacingAndGlyphs" textLength="146" x="27" y="399.6948">backplaneTemperatures()</text><ellipse cx="18" cy="409.2891" fill="#84BE84" rx="3" ry="3" style="stroke:#038048;stroke-width:1.0;"/><text fill="#000000" font-family="sans-serif" font-size="11" lengthAdjust="spacingAndGlyphs" textLength="84" x="27" y="412.4995">boardCurrent()</text><ellipse cx="18" cy="422.0938" fill="#84BE84" rx="3" ry="3" style="stroke:#038048;stroke-width:1.0;"/><text fill="#000000" font-family="sans-serif" font-size="11" lengthAdjust="spacingAndGlyphs" textLength="122" x="27" y="425.3042">boardTemperatures()</text><ellipse cx="18" cy="434.8984" fill="#84BE84" rx="3" ry="3" style="stroke:#038048;stroke-width:1.0;"/><text fill="#000000" font-family="sans-serif" font-size="11" lengthAdjust="spacingAndGlyphs" textLength="85" x="27" y="438.1089">delete_device()</text><ellipse cx="18" cy="447.7031" fill="#84BE84" rx="3" ry="3" style="stroke:#038048;stroke-width:1.0;"/><text fill="#000000" font-family="sans-serif" font-size="11" lengthAdjust="spacingAndGlyphs" textLength="97" x="27" y="450.9136">health_changed()</text><ellipse cx="18" cy="460.5078" fill="#84BE84" rx="3" ry="3" style="stroke:#038048;stroke-width:1.0;"/><text fill="#000000" font-family="sans-serif" font-size="11" lengthAdjust="spacingAndGlyphs" textLength="134" x="27" y="463.7183">init_command_objects()</text><ellipse cx="18" cy="473.3125" fill="#84BE84" rx="3" ry="3" style="stroke:#038048;stroke-width:1.0;"/><text fill="#000000" font-family="sans-serif" font-size="11" lengthAdjust="spacingAndGlyphs" textLength="67" x="27" y="476.5229">init_device()</text><ellipse cx="18" cy="486.1172" fill="#84BE84" rx="3" ry="3" style="stroke:#038048;stroke-width:1.0;"/><text fill="#000000" font-family="sans-serif" font-size="11" lengthAdjust="spacingAndGlyphs" textLength="124" x="27" y="489.3276">is_IsTpmOn_allowed()</text><ellipse cx="18" cy="498.9219" fill="#84BE84" rx="3" ry="3" style="stroke:#038048;stroke-width:1.0;"/><text fill="#000000" font-family="sans-serif" font-size="11" lengthAdjust="spacingAndGlyphs" textLength="171" x="27" y="502.1323">is_PowerDownTpms_allowed()</text><ellipse cx="18" cy="511.7266" fill="#84BE84" rx="3" ry="3" style="stroke:#038048;stroke-width:1.0;"/><text fill="#000000" font-family="sans-serif" font-size="11" lengthAdjust="spacingAndGlyphs" textLength="150" x="27" y="514.937">is_PowerOffTpm_allowed()</text><ellipse cx="18" cy="524.5313" fill="#84BE84" rx="3" ry="3" style="stroke:#038048;stroke-width:1.0;"/><text fill="#000000" font-family="sans-serif" font-size="11" lengthAdjust="spacingAndGlyphs" textLength="149" x="27" y="527.7417">is_PowerOnTpm_allowed()</text><ellipse cx="18" cy="537.3359" fill="#84BE84" rx="3" ry="3" style="stroke:#038048;stroke-width:1.0;"/><text fill="#000000" font-family="sans-serif" font-size="11" lengthAdjust="spacingAndGlyphs" textLength="155" x="27" y="540.5464">is_PowerUpTpms_allowed()</text><ellipse cx="18" cy="550.1406" fill="#84BE84" rx="3" ry="3" style="stroke:#038048;stroke-width:1.0;"/><text fill="#000000" font-family="sans-serif" font-size="11" lengthAdjust="spacingAndGlyphs" textLength="131" x="27" y="553.3511">powerSupplyCurrents()</text><ellipse cx="18" cy="562.9453" fill="#84BE84" rx="3" ry="3" style="stroke:#038048;stroke-width:1.0;"/><text fill="#000000" font-family="sans-serif" font-size="11" lengthAdjust="spacingAndGlyphs" textLength="144" x="27" y="566.1558">powerSupplyFanSpeeds()</text><ellipse cx="18" cy="575.75" fill="#84BE84" rx="3" ry="3" style="stroke:#038048;stroke-width:1.0;"/><text fill="#000000" font-family="sans-serif" font-size="11" lengthAdjust="spacingAndGlyphs" textLength="123" x="27" y="578.9604">powerSupplyPowers()</text><ellipse cx="18" cy="588.5547" fill="#84BE84" rx="3" ry="3" style="stroke:#038048;stroke-width:1.0;"/><text fill="#000000" font-family="sans-serif" font-size="11" lengthAdjust="spacingAndGlyphs" textLength="130" x="27" y="591.7651">powerSupplyVoltages()</text><ellipse cx="18" cy="601.3594" fill="#84BE84" rx="3" ry="3" style="stroke:#038048;stroke-width:1.0;"/><text fill="#000000" font-family="sans-serif" font-size="11" lengthAdjust="spacingAndGlyphs" textLength="97" x="27" y="604.5698">simulationMode()</text><ellipse cx="18" cy="614.1641" fill="#84BE84" rx="3" ry="3" style="stroke:#038048;stroke-width:1.0;"/><text fill="#000000" font-family="sans-serif" font-size="11" lengthAdjust="spacingAndGlyphs" textLength="103" x="27" y="617.3745">subrackFanMode()</text><ellipse cx="18" cy="626.9688" fill="#84BE84" rx="3" ry="3" style="stroke:#038048;stroke-width:1.0;"/><text fill="#000000" font-family="sans-serif" font-size="11" lengthAdjust="spacingAndGlyphs" textLength="116" x="27" y="630.1792">subrackFanSpeeds()</text><ellipse cx="18" cy="639.7734" fill="#84BE84" rx="3" ry="3" style="stroke:#038048;stroke-width:1.0;"/><text fill="#000000" font-family="sans-serif" font-size="11" lengthAdjust="spacingAndGlyphs" textLength="159" x="27" y="642.9839">subrackFanSpeedsPercent()</text><ellipse cx="18" cy="652.5781" fill="#84BE84" rx="3" ry="3" style="stroke:#038048;stroke-width:1.0;"/><text fill="#000000" font-family="sans-serif" font-size="11" lengthAdjust="spacingAndGlyphs" textLength="63" x="27" y="655.7886">tpmCount()</text><ellipse cx="18" cy="665.3828" fill="#84BE84" rx="3" ry="3" style="stroke:#038048;stroke-width:1.0;"/><text fill="#000000" font-family="sans-serif" font-size="11" lengthAdjust="spacingAndGlyphs" textLength="80" x="27" y="668.5933">tpmCurrents()</text><ellipse cx="18" cy="678.1875" fill="#84BE84" rx="3" ry="3" style="stroke:#038048;stroke-width:1.0;"/><text fill="#000000" font-family="sans-serif" font-size="11" lengthAdjust="spacingAndGlyphs" textLength="72" x="27" y="681.3979">tpmPowers()</text><ellipse cx="18" cy="690.9922" fill="#84BE84" rx="3" ry="3" style="stroke:#038048;stroke-width:1.0;"/><text fill="#000000" font-family="sans-serif" font-size="11" lengthAdjust="spacingAndGlyphs" textLength="74" x="27" y="694.2026">tpmPresent()</text><ellipse cx="18" cy="703.7969" fill="#84BE84" rx="3" ry="3" style="stroke:#038048;stroke-width:1.0;"/><text fill="#000000" font-family="sans-serif" font-size="11" lengthAdjust="spacingAndGlyphs" textLength="95" x="27" y="707.0073">tpmSupplyFault()</text><ellipse cx="18" cy="716.6016" fill="#84BE84" rx="3" ry="3" style="stroke:#038048;stroke-width:1.0;"/><text fill="#000000" font-family="sans-serif" font-size="11" lengthAdjust="spacingAndGlyphs" textLength="111" x="27" y="719.812">tpmTemperatures()</text><ellipse cx="18" cy="729.4063" fill="#84BE84" rx="3" ry="3" style="stroke:#038048;stroke-width:1.0;"/><text fill="#000000" font-family="sans-serif" font-size="11" lengthAdjust="spacingAndGlyphs" textLength="79" x="27" y="732.6167">tpmVoltages()</text><!--MD5=[4b247cd441d6776975beb1666a0cb733]
class SKABaseDevice--><rect codeLine="49" fill="#FEFECE" filter="url(#f1waaq004ax5le)" height="48" id="SKABaseDevice" style="stroke:#A80036;stroke-width:1.5;" width="127" x="42" y="7"/><ellipse cx="57" cy="23" fill="#ADD1B2" rx="11" ry="11" style="stroke:#A80036;stroke-width:1.0;"/><path d="M59.9688,28.6406 Q59.3906,28.9375 58.75,29.0781 Q58.1094,29.2344 57.4063,29.2344 Q54.9063,29.2344 53.5781,27.5938 Q52.2656,25.9375 52.2656,22.8125 Q52.2656,19.6875 53.5781,18.0313 Q54.9063,16.375 57.4063,16.375 Q58.1094,16.375 58.75,16.5313 Q59.4063,16.6875 59.9688,16.9844 L59.9688,19.7031 Q59.3438,19.125 58.75,18.8594 Q58.1563,18.5781 57.5313,18.5781 Q56.1875,18.5781 55.5,19.6563 Q54.8125,20.7188 54.8125,22.8125 Q54.8125,24.9063 55.5,25.9844 Q56.1875,27.0469 57.5313,27.0469 Q58.1563,27.0469 58.75,26.7813 Q59.3438,26.5 59.9688,25.9219 L59.9688,28.6406 Z " fill="#000000"/><text fill="#000000" font-family="sans-serif" font-size="12" lengthAdjust="spacingAndGlyphs" textLength="95" x="71" y="27.1543">SKABaseDevice</text><line style="stroke:#A80036;stroke-width:1.5;" x1="43" x2="168" y1="39" y2="39"/><line style="stroke:#A80036;stroke-width:1.5;" x1="43" x2="168" y1="47" y2="47"/><!--MD5=[607fd359959deb6332967017c877881b]
class SubrackHardwareManager--><rect codeLine="54" fill="#FEFECE" filter="url(#f1waaq004ax5le)" height="483.3594" id="SubrackHardwareManager" style="stroke:#A80036;stroke-width:1.5;" width="204" x="335.5" y="185.5"/><ellipse cx="353.2" cy="201.5" fill="#ADD1B2" rx="11" ry="11" style="stroke:#A80036;stroke-width:1.0;"/><path d="M356.1688,207.1406 Q355.5906,207.4375 354.95,207.5781 Q354.3094,207.7344 353.6063,207.7344 Q351.1063,207.7344 349.7781,206.0938 Q348.4656,204.4375 348.4656,201.3125 Q348.4656,198.1875 349.7781,196.5313 Q351.1063,194.875 353.6063,194.875 Q354.3094,194.875 354.95,195.0313 Q355.6063,195.1875 356.1688,195.4844 L356.1688,198.2031 Q355.5438,197.625 354.95,197.3594 Q354.3563,197.0781 353.7313,197.0781 Q352.3875,197.0781 351.7,198.1563 Q351.0125,199.2188 351.0125,201.3125 Q351.0125,203.4063 351.7,204.4844 Q352.3875,205.5469 353.7313,205.5469 Q354.3563,205.5469 354.95,205.2813 Q355.5438,205 356.1688,204.4219 L356.1688,207.1406 Z " fill="#000000"/><text fill="#000000" font-family="sans-serif" font-size="12" lengthAdjust="spacingAndGlyphs" textLength="166" x="367.8" y="205.6543">SubrackHardwareManager</text><line style="stroke:#A80036;stroke-width:1.5;" x1="336.5" x2="538.5" y1="217.5" y2="217.5"/><rect fill="none" height="6" style="stroke:#C82930;stroke-width:1.0;" width="6" x="343.5" y="225.5"/><text fill="#000000" font-family="sans-serif" font-size="11" lengthAdjust="spacingAndGlyphs" textLength="80" x="355.5" y="231.7104">_are_tpms_on</text><rect fill="none" height="6" style="stroke:#C82930;stroke-width:1.0;" width="6" x="343.5" y="238.3047"/><text fill="#000000" font-family="sans-serif" font-size="11" lengthAdjust="spacingAndGlyphs" textLength="178" x="355.5" y="244.5151">_are_tpms_on_change_callback</text><ellipse cx="346.5" cy="254.1094" fill="none" rx="3" ry="3" style="stroke:#038048;stroke-width:1.0;"/><text fill="#000000" font-family="sans-serif" font-size="11" lengthAdjust="spacingAndGlyphs" textLength="141" x="355.5" y="257.3198">backplane_temperatures</text><ellipse cx="346.5" cy="266.9141" fill="none" rx="3" ry="3" style="stroke:#038048;stroke-width:1.0;"/><text fill="#000000" font-family="sans-serif" font-size="11" lengthAdjust="spacingAndGlyphs" textLength="57" x="355.5" y="270.1245">bay_count</text><ellipse cx="346.5" cy="279.7188" fill="none" rx="3" ry="3" style="stroke:#038048;stroke-width:1.0;"/><text fill="#000000" font-family="sans-serif" font-size="11" lengthAdjust="spacingAndGlyphs" textLength="80" x="355.5" y="282.9292">board_current</text><ellipse cx="346.5" cy="292.5234" fill="none" rx="3" ry="3" style="stroke:#038048;stroke-width:1.0;"/><text fill="#000000" font-family="sans-serif" font-size="11" lengthAdjust="spacingAndGlyphs" textLength="117" x="355.5" y="295.7339">board_temperatures</text><ellipse cx="346.5" cy="305.3281" fill="none" rx="3" ry="3" style="stroke:#038048;stroke-width:1.0;"/><text fill="#000000" font-family="sans-serif" font-size="11" lengthAdjust="spacingAndGlyphs" textLength="132" x="355.5" y="308.5386">power_supply_currents</text><ellipse cx="346.5" cy="318.1328" fill="none" rx="3" ry="3" style="stroke:#038048;stroke-width:1.0;"/><text fill="#000000" font-family="sans-serif" font-size="11" lengthAdjust="spacingAndGlyphs" textLength="150" x="355.5" y="321.3433">power_supply_fan_speeds</text><ellipse cx="346.5" cy="330.9375" fill="none" rx="3" ry="3" style="stroke:#038048;stroke-width:1.0;"/><text fill="#000000" font-family="sans-serif" font-size="11" lengthAdjust="spacingAndGlyphs" textLength="126" x="355.5" y="334.1479">power_supply_powers</text><ellipse cx="346.5" cy="343.7422" fill="none" rx="3" ry="3" style="stroke:#038048;stroke-width:1.0;"/><text fill="#000000" font-family="sans-serif" font-size="11" lengthAdjust="spacingAndGlyphs" textLength="132" x="355.5" y="346.9526">power_supply_voltages</text><ellipse cx="346.5" cy="356.5469" fill="none" rx="3" ry="3" style="stroke:#038048;stroke-width:1.0;"/><text fill="#000000" font-family="sans-serif" font-size="11" lengthAdjust="spacingAndGlyphs" textLength="107" x="355.5" y="359.7573">subrack_fan_mode</text><ellipse cx="346.5" cy="369.3516" fill="none" rx="3" ry="3" style="stroke:#038048;stroke-width:1.0;"/><text fill="#000000" font-family="sans-serif" font-size="11" lengthAdjust="spacingAndGlyphs" textLength="117" x="355.5" y="372.562">subrack_fan_speeds</text><ellipse cx="346.5" cy="382.1563" fill="none" rx="3" ry="3" style="stroke:#038048;stroke-width:1.0;"/><text fill="#000000" font-family="sans-serif" font-size="11" lengthAdjust="spacingAndGlyphs" textLength="166" x="355.5" y="385.3667">subrack_fan_speeds_percent</text><ellipse cx="346.5" cy="394.9609" fill="none" rx="3" ry="3" style="stroke:#038048;stroke-width:1.0;"/><text fill="#000000" font-family="sans-serif" font-size="11" lengthAdjust="spacingAndGlyphs" textLength="59" x="355.5" y="398.1714">tpm_count</text><ellipse cx="346.5" cy="407.7656" fill="none" rx="3" ry="3" style="stroke:#038048;stroke-width:1.0;"/><text fill="#000000" font-family="sans-serif" font-size="11" lengthAdjust="spacingAndGlyphs" textLength="76" x="355.5" y="410.9761">tpm_currents</text><ellipse cx="346.5" cy="420.5703" fill="none" rx="3" ry="3" style="stroke:#038048;stroke-width:1.0;"/><text fill="#000000" font-family="sans-serif" font-size="11" lengthAdjust="spacingAndGlyphs" textLength="70" x="355.5" y="423.7808">tpm_powers</text><ellipse cx="346.5" cy="433.375" fill="none" rx="3" ry="3" style="stroke:#038048;stroke-width:1.0;"/><text fill="#000000" font-family="sans-serif" font-size="11" lengthAdjust="spacingAndGlyphs" textLength="72" x="355.5" y="436.5854">tpm_present</text><ellipse cx="346.5" cy="446.1797" fill="none" rx="3" ry="3" style="stroke:#038048;stroke-width:1.0;"/><text fill="#000000" font-family="sans-serif" font-size="11" lengthAdjust="spacingAndGlyphs" textLength="96" x="355.5" y="449.3901">tpm_supply_fault</text><ellipse cx="346.5" cy="458.9844" fill="none" rx="3" ry="3" style="stroke:#038048;stroke-width:1.0;"/><text fill="#000000" font-family="sans-serif" font-size="11" lengthAdjust="spacingAndGlyphs" textLength="106" x="355.5" y="462.1948">tpm_temperatures</text><ellipse cx="346.5" cy="471.7891" fill="none" rx="3" ry="3" style="stroke:#038048;stroke-width:1.0;"/><text fill="#000000" font-family="sans-serif" font-size="11" lengthAdjust="spacingAndGlyphs" textLength="76" x="355.5" y="474.9995">tpm_voltages</text><line style="stroke:#A80036;stroke-width:1.5;" x1="336.5" x2="538.5" y1="481.5938" y2="481.5938"/><ellipse cx="346.5" cy="492.5938" fill="#84BE84" rx="3" ry="3" style="stroke:#038048;stroke-width:1.0;"/><text fill="#000000" font-family="sans-serif" font-size="11" lengthAdjust="spacingAndGlyphs" textLength="49" x="355.5" y="495.8042">__init__()</text><rect fill="#F24D5C" height="6" style="stroke:#C82930;stroke-width:1.0;" width="6" x="343.5" y="502.3984"/><text fill="#000000" font-family="sans-serif" font-size="11" lengthAdjust="spacingAndGlyphs" textLength="58" x="355.5" y="508.6089">_connect()</text><rect fill="#F24D5C" height="6" style="stroke:#C82930;stroke-width:1.0;" width="6" x="343.5" y="515.2031"/><text fill="#000000" font-family="sans-serif" font-size="11" lengthAdjust="spacingAndGlyphs" textLength="133" x="355.5" y="521.4136">_update_are_tpms_on()</text><ellipse cx="346.5" cy="531.0078" fill="#84BE84" rx="3" ry="3" style="stroke:#038048;stroke-width:1.0;"/><text fill="#000000" font-family="sans-serif" font-size="11" lengthAdjust="spacingAndGlyphs" textLength="82" x="355.5" y="534.2183">are_tpms_on()</text><ellipse cx="346.5" cy="543.8125" fill="#84BE84" rx="3" ry="3" style="stroke:#038048;stroke-width:1.0;"/><text fill="#000000" font-family="sans-serif" font-size="11" lengthAdjust="spacingAndGlyphs" textLength="52" x="355.5" y="547.0229">connect()</text><ellipse cx="346.5" cy="556.6172" fill="#84BE84" rx="3" ry="3" style="stroke:#038048;stroke-width:1.0;"/><text fill="#000000" font-family="sans-serif" font-size="11" lengthAdjust="spacingAndGlyphs" textLength="66" x="355.5" y="559.8276">is_tpm_on()</text><ellipse cx="346.5" cy="569.4219" fill="#84BE84" rx="3" ry="3" style="stroke:#038048;stroke-width:1.0;"/><text fill="#000000" font-family="sans-serif" font-size="11" lengthAdjust="spacingAndGlyphs" textLength="28" x="355.5" y="572.6323">poll()</text><ellipse cx="346.5" cy="582.2266" fill="#84BE84" rx="3" ry="3" style="stroke:#038048;stroke-width:1.0;"/><text fill="#000000" font-family="sans-serif" font-size="11" lengthAdjust="spacingAndGlyphs" textLength="175" x="355.5" y="585.437">set_power_supply_fan_speed()</text><ellipse cx="346.5" cy="595.0313" fill="#84BE84" rx="3" ry="3" style="stroke:#038048;stroke-width:1.0;"/><text fill="#000000" font-family="sans-serif" font-size="11" lengthAdjust="spacingAndGlyphs" textLength="139" x="355.5" y="598.2417">set_subrack_fan_mode()</text><ellipse cx="346.5" cy="607.8359" fill="#84BE84" rx="3" ry="3" style="stroke:#038048;stroke-width:1.0;"/><text fill="#000000" font-family="sans-serif" font-size="11" lengthAdjust="spacingAndGlyphs" textLength="142" x="355.5" y="611.0464">set_subrack_fan_speed()</text><ellipse cx="346.5" cy="620.6406" fill="#84BE84" rx="3" ry="3" style="stroke:#038048;stroke-width:1.0;"/><text fill="#000000" font-family="sans-serif" font-size="11" lengthAdjust="spacingAndGlyphs" textLength="80" x="355.5" y="623.8511">turn_off_tpm()</text><ellipse cx="346.5" cy="633.4453" fill="#84BE84" rx="3" ry="3" style="stroke:#038048;stroke-width:1.0;"/><text fill="#000000" font-family="sans-serif" font-size="11" lengthAdjust="spacingAndGlyphs" textLength="87" x="355.5" y="636.6558">turn_off_tpms()</text><ellipse cx="346.5" cy="646.25" fill="#84BE84" rx="3" ry="3" style="stroke:#038048;stroke-width:1.0;"/><text fill="#000000" font-family="sans-serif" font-size="11" lengthAdjust="spacingAndGlyphs" textLength="79" x="355.5" y="649.4604">turn_on_tpm()</text><ellipse cx="346.5" cy="659.0547" fill="#84BE84" rx="3" ry="3" style="stroke:#038048;stroke-width:1.0;"/><text fill="#000000" font-family="sans-serif" font-size="11" lengthAdjust="spacingAndGlyphs" textLength="86" x="355.5" y="662.2651">turn_on_tpms()</text><!--MD5=[0cfd3852ac0d36509766ae81f39b0b30]
class SimulableHardwareManager--><rect codeLine="91" fill="#FEFECE" filter="url(#f1waaq004ax5le)" height="48" id="SimulableHardwareManager" style="stroke:#A80036;stroke-width:1.5;" width="207" x="204" y="7"/><ellipse cx="219" cy="23" fill="#ADD1B2" rx="11" ry="11" style="stroke:#A80036;stroke-width:1.0;"/><path d="M221.9688,28.6406 Q221.3906,28.9375 220.75,29.0781 Q220.1094,29.2344 219.4063,29.2344 Q216.9063,29.2344 215.5781,27.5938 Q214.2656,25.9375 214.2656,22.8125 Q214.2656,19.6875 215.5781,18.0313 Q216.9063,16.375 219.4063,16.375 Q220.1094,16.375 220.75,16.5313 Q221.4063,16.6875 221.9688,16.9844 L221.9688,19.7031 Q221.3438,19.125 220.75,18.8594 Q220.1563,18.5781 219.5313,18.5781 Q218.1875,18.5781 217.5,19.6563 Q216.8125,20.7188 216.8125,22.8125 Q216.8125,24.9063 217.5,25.9844 Q218.1875,27.0469 219.5313,27.0469 Q220.1563,27.0469 220.75,26.7813 Q221.3438,26.5 221.9688,25.9219 L221.9688,28.6406 Z " fill="#000000"/><text fill="#000000" font-family="sans-serif" font-size="12" lengthAdjust="spacingAndGlyphs" textLength="175" x="233" y="27.1543">SimulableHardwareManager</text><line style="stroke:#A80036;stroke-width:1.5;" x1="205" x2="410" y1="39" y2="39"/><line style="stroke:#A80036;stroke-width:1.5;" x1="205" x2="410" y1="47" y2="47"/><!--MD5=[41cf7041a9e4b369c5216df5d6cdec8a]
class OnOffHardwareManager--><rect codeLine="96" fill="#FEFECE" filter="url(#f1waaq004ax5le)" height="48" id="OnOffHardwareManager" style="stroke:#A80036;stroke-width:1.5;" width="181" x="446" y="7"/><ellipse cx="461" cy="23" fill="#ADD1B2" rx="11" ry="11" style="stroke:#A80036;stroke-width:1.0;"/><path d="M463.9688,28.6406 Q463.3906,28.9375 462.75,29.0781 Q462.1094,29.2344 461.4063,29.2344 Q458.9063,29.2344 457.5781,27.5938 Q456.2656,25.9375 456.2656,22.8125 Q456.2656,19.6875 457.5781,18.0313 Q458.9063,16.375 461.4063,16.375 Q462.1094,16.375 462.75,16.5313 Q463.4063,16.6875 463.9688,16.9844 L463.9688,19.7031 Q463.3438,19.125 462.75,18.8594 Q462.1563,18.5781 461.5313,18.5781 Q460.1875,18.5781 459.5,19.6563 Q458.8125,20.7188 458.8125,22.8125 Q458.8125,24.9063 459.5,25.9844 Q460.1875,27.0469 461.5313,27.0469 Q462.1563,27.0469 462.75,26.7813 Q463.3438,26.5 463.9688,25.9219 L463.9688,28.6406 Z " fill="#000000"/><text fill="#000000" font-family="sans-serif" font-size="12" lengthAdjust="spacingAndGlyphs" textLength="149" x="475" y="27.1543">OnOffHardwareManager</text><line style="stroke:#A80036;stroke-width:1.5;" x1="447" x2="626" y1="39" y2="39"/><line style="stroke:#A80036;stroke-width:1.5;" x1="447" x2="626" y1="47" y2="47"/><!--MD5=[33134516b2c5f0430d1c0cb51ed7a85b]
class SubrackHardwareFactory--><rect codeLine="101" fill="#FEFECE" filter="url(#f1waaq004ax5le)" height="137.6328" id="SubrackHardwareFactory" style="stroke:#A80036;stroke-width:1.5;" width="189" x="670" y="358"/><ellipse cx="685" cy="374" fill="#ADD1B2" rx="11" ry="11" style="stroke:#A80036;stroke-width:1.0;"/><path d="M687.9688,379.6406 Q687.3906,379.9375 686.75,380.0781 Q686.1094,380.2344 685.4063,380.2344 Q682.9063,380.2344 681.5781,378.5938 Q680.2656,376.9375 680.2656,373.8125 Q680.2656,370.6875 681.5781,369.0313 Q682.9063,367.375 685.4063,367.375 Q686.1094,367.375 686.75,367.5313 Q687.4063,367.6875 687.9688,367.9844 L687.9688,370.7031 Q687.3438,370.125 686.75,369.8594 Q686.1563,369.5781 685.5313,369.5781 Q684.1875,369.5781 683.5,370.6563 Q682.8125,371.7188 682.8125,373.8125 Q682.8125,375.9063 683.5,376.9844 Q684.1875,378.0469 685.5313,378.0469 Q686.1563,378.0469 686.75,377.7813 Q687.3438,377.5 687.9688,376.9219 L687.9688,379.6406 Z " fill="#000000"/><text fill="#000000" font-family="sans-serif" font-size="12" lengthAdjust="spacingAndGlyphs" textLength="157" x="699" y="378.1543">SubrackHardwareFactory</text><line style="stroke:#A80036;stroke-width:1.5;" x1="671" x2="858" y1="390" y2="390"/><rect fill="none" height="6" style="stroke:#C82930;stroke-width:1.0;" width="6" x="678" y="398"/><text fill="#000000" font-family="sans-serif" font-size="11" lengthAdjust="spacingAndGlyphs" textLength="42" x="690" y="404.2104">_logger</text><rect fill="none" height="6" style="stroke:#C82930;stroke-width:1.0;" width="6" x="678" y="410.8047"/><text fill="#000000" font-family="sans-serif" font-size="11" lengthAdjust="spacingAndGlyphs" textLength="67" x="690" y="417.0151">_subrack_ip</text><rect fill="none" height="6" style="stroke:#C82930;stroke-width:1.0;" width="6" x="678" y="423.6094"/><text fill="#000000" font-family="sans-serif" font-size="11" lengthAdjust="spacingAndGlyphs" textLength="80" x="690" y="429.8198">_subrack_port</text><rect fill="none" height="6" style="stroke:#C82930;stroke-width:1.0;" width="6" x="678" y="436.4141"/><text fill="#000000" font-family="sans-serif" font-size="11" lengthAdjust="spacingAndGlyphs" textLength="65" x="690" y="442.6245">_tpm_count</text><line style="stroke:#A80036;stroke-width:1.5;" x1="671" x2="858" y1="449.2188" y2="449.2188"/><ellipse cx="681" cy="460.2188" fill="#84BE84" rx="3" ry="3" style="stroke:#038048;stroke-width:1.0;"/><text fill="#000000" font-family="sans-serif" font-size="11" lengthAdjust="spacingAndGlyphs" textLength="49" x="690" y="463.4292">__init__()</text><rect fill="#F24D5C" height="6" style="stroke:#C82930;stroke-width:1.0;" width="6" x="678" y="470.0234"/><text fill="#000000" font-family="sans-serif" font-size="11" lengthAdjust="spacingAndGlyphs" textLength="89" x="690" y="476.2339">_create_driver()</text><rect fill="#F24D5C" height="6" style="stroke:#C82930;stroke-width:1.0;" width="6" x="678" y="482.8281"/><text fill="#000000" font-family="sans-serif" font-size="11" lengthAdjust="spacingAndGlyphs" textLength="147" x="690" y="489.0386">_create_static_simulator()</text><!--MD5=[fb1ddb9ac14f63bdd608ba2c81065e04]
class SimulableHardwareFactory--><rect codeLine="111" fill="#FEFECE" filter="url(#f1waaq004ax5le)" height="48" id="SimulableHardwareFactory" style="stroke:#A80036;stroke-width:1.5;" width="198" x="665.5" y="7"/><ellipse cx="680.5" cy="23" fill="#ADD1B2" rx="11" ry="11" style="stroke:#A80036;stroke-width:1.0;"/><path d="M683.4688,28.6406 Q682.8906,28.9375 682.25,29.0781 Q681.6094,29.2344 680.9063,29.2344 Q678.4063,29.2344 677.0781,27.5938 Q675.7656,25.9375 675.7656,22.8125 Q675.7656,19.6875 677.0781,18.0313 Q678.4063,16.375 680.9063,16.375 Q681.6094,16.375 682.25,16.5313 Q682.9063,16.6875 683.4688,16.9844 L683.4688,19.7031 Q682.8438,19.125 682.25,18.8594 Q681.6563,18.5781 681.0313,18.5781 Q679.6875,18.5781 679,19.6563 Q678.3125,20.7188 678.3125,22.8125 Q678.3125,24.9063 679,25.9844 Q679.6875,27.0469 681.0313,27.0469 Q681.6563,27.0469 682.25,26.7813 Q682.8438,26.5 683.4688,25.9219 L683.4688,28.6406 Z " fill="#000000"/><text fill="#000000" font-family="sans-serif" font-size="12" lengthAdjust="spacingAndGlyphs" textLength="166" x="694.5" y="27.1543">SimulableHardwareFactory</text><line style="stroke:#A80036;stroke-width:1.5;" x1="666.5" x2="862.5" y1="39" y2="39"/><line style="stroke:#A80036;stroke-width:1.5;" x1="666.5" x2="862.5" y1="47" y2="47"/><!--MD5=[c080ce62928502829201d523e4a16d14]
reverse link SKABaseDevice to MccsSubrack--><path codeLine="115" d="M105.5,75.495 C105.5,86.9794 105.5,100.2448 105.5,114.7545 " fill="none" id="SKABaseDevice-backto-MccsSubrack" style="stroke:#A80036;stroke-width:1.0;"/><polygon fill="none" points="98.5001,75.1755,105.5,55.1755,112.5001,75.1754,98.5001,75.1755" style="stroke:#A80036;stroke-width:1.0;"/><!--MD5=[ecad72d968debd8ec42b968dafb749e2]
reverse link SimulableHardwareManager to SubrackHardwareManager--><path codeLine="116" d="M321.6838,74.2061 C331.0397,102.7056 344.1242,142.5629 358.1467,185.2777 " fill="none" id="SimulableHardwareManager-backto-SubrackHardwareManager" style="stroke:#A80036;stroke-width:1.0;"/><polygon fill="none" points="315.0238,76.3611,315.4364,55.1755,328.3254,71.9944,315.0238,76.3611" style="stroke:#A80036;stroke-width:1.0;"/><!--MD5=[8196c6f0741d3b2cce2a144fdcc132e4]
reverse link OnOffHardwareManager to SubrackHardwareManager--><path codeLine="117" d="M525.594,74.6239 C518.4764,103.0945 508.5572,142.7713 497.9306,185.2777 " fill="none" id="OnOffHardwareManager-backto-SubrackHardwareManager" style="stroke:#A80036;stroke-width:1.0;"/><polygon fill="none" points="518.8143,72.8805,530.4561,55.1755,532.3963,76.2761,518.8143,72.8805" style="stroke:#A80036;stroke-width:1.0;"/><!--MD5=[14c5562a756b834f767634ca1007416b]
reverse link SimulableHardwareFactory to SubrackHardwareFactory--><path codeLine="118" d="M764.5,75.4626 C764.5,144.102 764.5,276.4193 764.5,357.6938 " fill="none" id="SimulableHardwareFactory-backto-SubrackHardwareFactory" style="stroke:#A80036;stroke-width:1.0;"/><polygon fill="none" points="757.5001,75.1755,764.5,55.1755,771.5001,75.1754,757.5001,75.1755" style="stroke:#A80036;stroke-width:1.0;"/><!--MD5=[1cf71ecca6f117d61da3dba7430c3c37]
@startuml
class MccsSubrack {
  +SubrackIp
  +SubrackPort
  +TileFQDNs
  -_are_tpms_on
  -_health_state
  +hardware_manager
  +IsTpmOn()
  +PowerDownTpms()
  +PowerOffTpm()
  +PowerOnTpm()
  +PowerUpTpms()
  +SetPowerSupplyFanSpeed()
  +SetSubrackFanMode()
  +SetSubrackFanSpeed()
  -_update_health_state()
  +always_executed_hook()
  +areTpmsOn()
  +are_tpms_on_changed()
  +backplaneTemperatures()
  +boardCurrent()
  +boardTemperatures()
  +delete_device()
  +health_changed()
  +init_command_objects()
  +init_device()
  +is_IsTpmOn_allowed()
  +is_PowerDownTpms_allowed()
  +is_PowerOffTpm_allowed()
  +is_PowerOnTpm_allowed()
  +is_PowerUpTpms_allowed()
  +powerSupplyCurrents()
  +powerSupplyFanSpeeds()
  +powerSupplyPowers()
  +powerSupplyVoltages()
  +simulationMode()
  +subrackFanMode()
  +subrackFanSpeeds()
  +subrackFanSpeedsPercent()
  +tpmCount()
  +tpmCurrents()
  +tpmPowers()
  +tpmPresent()
  +tpmSupplyFault()
  +tpmTemperatures()
  +tpmVoltages()
}

class SKABaseDevice {


}

class SubrackHardwareManager {
  -_are_tpms_on
  -_are_tpms_on_change_callback
  +backplane_temperatures
  +bay_count
  +board_current
  +board_temperatures
  +power_supply_currents
  +power_supply_fan_speeds
  +power_supply_powers
  +power_supply_voltages
  +subrack_fan_mode
  +subrack_fan_speeds
  +subrack_fan_speeds_percent
  +tpm_count
  +tpm_currents
  +tpm_powers
  +tpm_present
  +tpm_supply_fault
  +tpm_temperatures
  +tpm_voltages
  +__init__()
  -_connect()
  -_update_are_tpms_on()
  +are_tpms_on()
  +connect()
  +is_tpm_on()
  +poll()
  +set_power_supply_fan_speed()
  +set_subrack_fan_mode()
  +set_subrack_fan_speed()
  +turn_off_tpm()
  +turn_off_tpms()
  +turn_on_tpm()
  +turn_on_tpms()
}

class SimulableHardwareManager {


}

class OnOffHardwareManager {


}

class SubrackHardwareFactory {
  -_logger
  -_subrack_ip
  -_subrack_port
  -_tpm_count
  +__init__()
  -_create_driver()
  -_create_static_simulator()
}

class SimulableHardwareFactory {


}
SKABaseDevice <|- - MccsSubrack
SimulableHardwareManager <|- - SubrackHardwareManager
OnOffHardwareManager <|- - SubrackHardwareManager
SimulableHardwareFactory <|- - SubrackHardwareFactory
@enduml

PlantUML version 1.2020.22(Sun Dec 06 09:36:27 UTC 2020)
(GPL source distribution)
Java Runtime: OpenJDK Runtime Environment
JVM: OpenJDK 64-Bit Server VM
Default Encoding: UTF-8
Language: en
Country: US
--></g></svg>