<?xml version="1.0" encoding="UTF-8" standalone="no"?><svg xmlns="http://www.w3.org/2000/svg" xmlns:xlink="http://www.w3.org/1999/xlink" contentScriptType="application/ecmascript" contentStyleType="text/css" height="778px" preserveAspectRatio="none" style="width:591px;height:778px;" version="1.1" viewBox="0 0 591 778" width="591px" zoomAndPan="magnify"><defs><filter height="300%" id="f1nz4j5hxzn5n3" width="300%" x="-1" y="-1"><feGaussianBlur result="blurOut" stdDeviation="2.0"/><feColorMatrix in="blurOut" result="blurOut2" type="matrix" values="0 0 0 0 0 0 0 0 0 0 0 0 0 0 0 0 0 0 .4 0"/><feOffset dx="4.0" dy="4.0" in="blurOut2" result="blurOut3"/><feBlend in="SourceGraphic" in2="blurOut3" mode="normal"/></filter></defs><g><!--MD5=[aab19c8bfc0c6c1efde731464a70f5bc]
cluster http.client--><polygon fill="#FFFFFF" filter="url(#f1nz4j5hxzn5n3)" points="424.5,439.5,510.5,439.5,517.5,461.7969,574.5,461.7969,574.5,522.5,424.5,522.5,424.5,439.5" style="stroke:#000000;stroke-width:1.5;"/><line style="stroke:#000000;stroke-width:1.5;" x1="424.5" x2="517.5" y1="461.7969" y2="461.7969"/><text fill="#000000" font-family="sans-serif" font-size="14" font-weight="bold" lengthAdjust="spacingAndGlyphs" textLength="80" x="428.5" y="454.4951">http.client</text><!--MD5=[262ad51903696c8f2791e8964bd9ec0d]
class http.client.HTTPConnection--><rect codeLine="22" fill="#FEFECE" filter="url(#f1nz4j5hxzn5n3)" height="48" id="http.client.HTTPConnection" style="stroke:#A80036;stroke-width:1.5;" width="134" x="432.5" y="466.5"/><ellipse cx="447.5" cy="482.5" fill="#ADD1B2" rx="11" ry="11" style="stroke:#A80036;stroke-width:1.0;"/><path d="M450.4688,488.1406 Q449.8906,488.4375 449.25,488.5781 Q448.6094,488.7344 447.9063,488.7344 Q445.4063,488.7344 444.0781,487.0938 Q442.7656,485.4375 442.7656,482.3125 Q442.7656,479.1875 444.0781,477.5313 Q445.4063,475.875 447.9063,475.875 Q448.6094,475.875 449.25,476.0313 Q449.9063,476.1875 450.4688,476.4844 L450.4688,479.2031 Q449.8438,478.625 449.25,478.3594 Q448.6563,478.0781 448.0313,478.0781 Q446.6875,478.0781 446,479.1563 Q445.3125,480.2188 445.3125,482.3125 Q445.3125,484.4063 446,485.4844 Q446.6875,486.5469 448.0313,486.5469 Q448.6563,486.5469 449.25,486.2813 Q449.8438,486 450.4688,485.4219 L450.4688,488.1406 Z " fill="#000000"/><text fill="#000000" font-family="sans-serif" font-size="12" lengthAdjust="spacingAndGlyphs" textLength="102" x="461.5" y="486.6543">HTTPConnection</text><line style="stroke:#A80036;stroke-width:1.5;" x1="433.5" x2="565.5" y1="498.5" y2="498.5"/><line style="stroke:#A80036;stroke-width:1.5;" x1="433.5" x2="565.5" y1="506.5" y2="506.5"/><!--MD5=[8f87e50a2f9a1e6d6b1c0e32a28ab4b9]
class HardwareClient--><rect codeLine="1" fill="#FEFECE" filter="url(#f1nz4j5hxzn5n3)" height="150.4375" id="HardwareClient" style="stroke:#A80036;stroke-width:1.5;" width="140" x="250.5" y="7"/><ellipse cx="271.35" cy="23" fill="#ADD1B2" rx="11" ry="11" style="stroke:#A80036;stroke-width:1.0;"/><path d="M274.3188,28.6406 Q273.7406,28.9375 273.1,29.0781 Q272.4594,29.2344 271.7563,29.2344 Q269.2563,29.2344 267.9281,27.5938 Q266.6156,25.9375 266.6156,22.8125 Q266.6156,19.6875 267.9281,18.0313 Q269.2563,16.375 271.7563,16.375 Q272.4594,16.375 273.1,16.5313 Q273.7563,16.6875 274.3188,16.9844 L274.3188,19.7031 Q273.6938,19.125 273.1,18.8594 Q272.5063,18.5781 271.8813,18.5781 Q270.5375,18.5781 269.85,19.6563 Q269.1625,20.7188 269.1625,22.8125 Q269.1625,24.9063 269.85,25.9844 Q270.5375,27.0469 271.8813,27.0469 Q272.5063,27.0469 273.1,26.7813 Q273.6938,26.5 274.3188,25.9219 L274.3188,28.6406 Z " fill="#000000"/><text fill="#000000" font-family="sans-serif" font-size="12" lengthAdjust="spacingAndGlyphs" textLength="95" x="286.65" y="27.1543">HardwareClient</text><line style="stroke:#A80036;stroke-width:1.5;" x1="251.5" x2="389.5" y1="39" y2="39"/><rect fill="none" height="6" style="stroke:#C82930;stroke-width:1.0;" width="6" x="258.5" y="47"/><text fill="#000000" font-family="sans-serif" font-size="11" lengthAdjust="spacingAndGlyphs" textLength="33" x="270.5" y="53.2104">_conn</text><rect fill="none" height="6" style="stroke:#C82930;stroke-width:1.0;" width="6" x="258.5" y="59.8047"/><text fill="#000000" font-family="sans-serif" font-size="11" lengthAdjust="spacingAndGlyphs" textLength="16" x="270.5" y="66.0151">_ip</text><rect fill="none" height="6" style="stroke:#C82930;stroke-width:1.0;" width="6" x="258.5" y="72.6094"/><text fill="#000000" font-family="sans-serif" font-size="11" lengthAdjust="spacingAndGlyphs" textLength="29" x="270.5" y="78.8198">_port</text><line style="stroke:#A80036;stroke-width:1.5;" x1="251.5" x2="389.5" y1="85.4141" y2="85.4141"/><ellipse cx="261.5" cy="96.4141" fill="#84BE84" rx="3" ry="3" style="stroke:#038048;stroke-width:1.0;"/><text fill="#000000" font-family="sans-serif" font-size="11" lengthAdjust="spacingAndGlyphs" textLength="49" x="270.5" y="99.6245">__init__()</text><ellipse cx="261.5" cy="109.2188" fill="#84BE84" rx="3" ry="3" style="stroke:#038048;stroke-width:1.0;"/><text fill="#000000" font-family="sans-serif" font-size="11" lengthAdjust="spacingAndGlyphs" textLength="52" x="270.5" y="112.4292">connect()</text><ellipse cx="261.5" cy="122.0234" fill="#84BE84" rx="3" ry="3" style="stroke:#038048;stroke-width:1.0;"/><text fill="#000000" font-family="sans-serif" font-size="11" lengthAdjust="spacingAndGlyphs" textLength="114" x="270.5" y="125.2339">execute_command()</text><ellipse cx="261.5" cy="134.8281" fill="#84BE84" rx="3" ry="3" style="stroke:#038048;stroke-width:1.0;"/><text fill="#000000" font-family="sans-serif" font-size="11" lengthAdjust="spacingAndGlyphs" textLength="80" x="270.5" y="138.0386">get_attribute()</text><ellipse cx="261.5" cy="147.6328" fill="#84BE84" rx="3" ry="3" style="stroke:#038048;stroke-width:1.0;"/><text fill="#000000" font-family="sans-serif" font-size="11" lengthAdjust="spacingAndGlyphs" textLength="80" x="270.5" y="150.8433">set_attribute()</text><!--MD5=[06dd8d6c674b74faa725b61efc51f843]
class WebHardwareClient--><rect codeLine="13" fill="#FEFECE" filter="url(#f1nz4j5hxzn5n3)" height="124.8281" id="WebHardwareClient" style="stroke:#A80036;stroke-width:1.5;" width="154" x="243.5" y="428"/><ellipse cx="258.5" cy="444" fill="#ADD1B2" rx="11" ry="11" style="stroke:#A80036;stroke-width:1.0;"/><path d="M261.4688,449.6406 Q260.8906,449.9375 260.25,450.0781 Q259.6094,450.2344 258.9063,450.2344 Q256.4063,450.2344 255.0781,448.5938 Q253.7656,446.9375 253.7656,443.8125 Q253.7656,440.6875 255.0781,439.0313 Q256.4063,437.375 258.9063,437.375 Q259.6094,437.375 260.25,437.5313 Q260.9063,437.6875 261.4688,437.9844 L261.4688,440.7031 Q260.8438,440.125 260.25,439.8594 Q259.6563,439.5781 259.0313,439.5781 Q257.6875,439.5781 257,440.6563 Q256.3125,441.7188 256.3125,443.8125 Q256.3125,445.9063 257,446.9844 Q257.6875,448.0469 259.0313,448.0469 Q259.6563,448.0469 260.25,447.7813 Q260.8438,447.5 261.4688,446.9219 L261.4688,449.6406 Z " fill="#000000"/><text fill="#000000" font-family="sans-serif" font-size="12" lengthAdjust="spacingAndGlyphs" textLength="122" x="272.5" y="448.1543">WebHardwareClient</text><line style="stroke:#A80036;stroke-width:1.5;" x1="244.5" x2="396.5" y1="460" y2="460"/><rect fill="none" height="6" style="stroke:#C82930;stroke-width:1.0;" width="6" x="251.5" y="468"/><text fill="#000000" font-family="sans-serif" font-size="11" lengthAdjust="spacingAndGlyphs" textLength="33" x="263.5" y="474.2104">_conn</text><line style="stroke:#A80036;stroke-width:1.5;" x1="244.5" x2="396.5" y1="480.8047" y2="480.8047"/><ellipse cx="254.5" cy="491.8047" fill="#84BE84" rx="3" ry="3" style="stroke:#038048;stroke-width:1.0;"/><text fill="#000000" font-family="sans-serif" font-size="11" lengthAdjust="spacingAndGlyphs" textLength="49" x="263.5" y="495.0151">__init__()</text><ellipse cx="254.5" cy="504.6094" fill="#84BE84" rx="3" ry="3" style="stroke:#038048;stroke-width:1.0;"/><text fill="#000000" font-family="sans-serif" font-size="11" lengthAdjust="spacingAndGlyphs" textLength="52" x="263.5" y="507.8198">connect()</text><ellipse cx="254.5" cy="517.4141" fill="#84BE84" rx="3" ry="3" style="stroke:#038048;stroke-width:1.0;"/><text fill="#000000" font-family="sans-serif" font-size="11" lengthAdjust="spacingAndGlyphs" textLength="114" x="263.5" y="520.6245">execute_command()</text><ellipse cx="254.5" cy="530.2188" fill="#84BE84" rx="3" ry="3" style="stroke:#038048;stroke-width:1.0;"/><text fill="#000000" font-family="sans-serif" font-size="11" lengthAdjust="spacingAndGlyphs" textLength="80" x="263.5" y="533.4292">get_attribute()</text><ellipse cx="254.5" cy="543.0234" fill="#84BE84" rx="3" ry="3" style="stroke:#038048;stroke-width:1.0;"/><text fill="#000000" font-family="sans-serif" font-size="11" lengthAdjust="spacingAndGlyphs" textLength="80" x="263.5" y="546.2339">set_attribute()</text><!--MD5=[b8f761eeb6c86762ea9b7f8e21dd82e4]
class OnOffHardwareDriver--><rect codeLine="27" fill="#FEFECE" filter="url(#f1nz4j5hxzn5n3)" height="48" id="OnOffHardwareDriver" style="stroke:#A80036;stroke-width:1.5;" width="162" x="26.5" y="58"/><ellipse cx="41.5" cy="74" fill="#ADD1B2" rx="11" ry="11" style="stroke:#A80036;stroke-width:1.0;"/><path d="M44.4688,79.6406 Q43.8906,79.9375 43.25,80.0781 Q42.6094,80.2344 41.9063,80.2344 Q39.4063,80.2344 38.0781,78.5938 Q36.7656,76.9375 36.7656,73.8125 Q36.7656,70.6875 38.0781,69.0313 Q39.4063,67.375 41.9063,67.375 Q42.6094,67.375 43.25,67.5313 Q43.9063,67.6875 44.4688,67.9844 L44.4688,70.7031 Q43.8438,70.125 43.25,69.8594 Q42.6563,69.5781 42.0313,69.5781 Q40.6875,69.5781 40,70.6563 Q39.3125,71.7188 39.3125,73.8125 Q39.3125,75.9063 40,76.9844 Q40.6875,78.0469 42.0313,78.0469 Q42.6563,78.0469 43.25,77.7813 Q43.8438,77.5 44.4688,76.9219 L44.4688,79.6406 Z " fill="#000000"/><text fill="#000000" font-family="sans-serif" font-size="12" lengthAdjust="spacingAndGlyphs" textLength="130" x="55.5" y="78.1543">OnOffHardwareDriver</text><line style="stroke:#A80036;stroke-width:1.5;" x1="27.5" x2="187.5" y1="90" y2="90"/><line style="stroke:#A80036;stroke-width:1.5;" x1="27.5" x2="187.5" y1="98" y2="98"/><!--MD5=[11f209dc8266beae37b586d45642c995]
class SubrackDriver--><rect codeLine="32" fill="#FEFECE" filter="url(#f1nz4j5hxzn5n3)" height="547.3828" id="SubrackDriver" style="stroke:#A80036;stroke-width:1.5;" width="201" x="7" y="217"/><ellipse cx="42.25" cy="233" fill="#ADD1B2" rx="11" ry="11" style="stroke:#A80036;stroke-width:1.0;"/><path d="M45.2188,238.6406 Q44.6406,238.9375 44,239.0781 Q43.3594,239.2344 42.6563,239.2344 Q40.1563,239.2344 38.8281,237.5938 Q37.5156,235.9375 37.5156,232.8125 Q37.5156,229.6875 38.8281,228.0313 Q40.1563,226.375 42.6563,226.375 Q43.3594,226.375 44,226.5313 Q44.6563,226.6875 45.2188,226.9844 L45.2188,229.7031 Q44.5938,229.125 44,228.8594 Q43.4063,228.5781 42.7813,228.5781 Q41.4375,228.5781 40.75,229.6563 Q40.0625,230.7188 40.0625,232.8125 Q40.0625,234.9063 40.75,235.9844 Q41.4375,237.0469 42.7813,237.0469 Q43.4063,237.0469 44,236.7813 Q44.5938,236.5 45.2188,235.9219 L45.2188,238.6406 Z " fill="#000000"/><text fill="#000000" font-family="sans-serif" font-size="12" lengthAdjust="spacingAndGlyphs" textLength="124" x="60.75" y="237.1543">SubrackDriver</text><line style="stroke:#A80036;stroke-width:1.5;" x1="8" x2="207" y1="249" y2="249"/><rect fill="none" height="6" style="stroke:#C82930;stroke-width:1.0;" width="6" x="15" y="257"/><text fill="#000000" font-family="sans-serif" font-size="11" lengthAdjust="spacingAndGlyphs" textLength="80" x="27" y="263.2104">_are_tpms_on</text><rect fill="none" height="6" style="stroke:#C82930;stroke-width:1.0;" width="6" x="15" y="269.8047"/><text fill="#000000" font-family="sans-serif" font-size="11" lengthAdjust="spacingAndGlyphs" textLength="147" x="27" y="276.0151">_backplane_temperatures</text><rect fill="none" height="6" style="stroke:#C82930;stroke-width:1.0;" width="6" x="15" y="282.6094"/><text fill="#000000" font-family="sans-serif" font-size="11" lengthAdjust="spacingAndGlyphs" textLength="63" x="27" y="288.8198">_bay_count</text><rect fill="none" height="6" style="stroke:#C82930;stroke-width:1.0;" width="6" x="15" y="295.4141"/><text fill="#000000" font-family="sans-serif" font-size="11" lengthAdjust="spacingAndGlyphs" textLength="86" x="27" y="301.6245">_board_current</text><rect fill="none" height="6" style="stroke:#C82930;stroke-width:1.0;" width="6" x="15" y="308.2188"/><text fill="#000000" font-family="sans-serif" font-size="11" lengthAdjust="spacingAndGlyphs" textLength="123" x="27" y="314.4292">_board_temperatures</text><rect fill="none" height="6" style="stroke:#C82930;stroke-width:1.0;" width="6" x="15" y="321.0234"/><text fill="#000000" font-family="sans-serif" font-size="11" lengthAdjust="spacingAndGlyphs" textLength="36" x="27" y="327.2339">_client</text><rect fill="none" height="6" style="stroke:#C82930;stroke-width:1.0;" width="6" x="15" y="333.8281"/><text fill="#000000" font-family="sans-serif" font-size="11" lengthAdjust="spacingAndGlyphs" textLength="16" x="27" y="340.0386">_ip</text><rect fill="none" height="6" style="stroke:#C82930;stroke-width:1.0;" width="6" x="15" y="346.6328"/><text fill="#000000" font-family="sans-serif" font-size="11" lengthAdjust="spacingAndGlyphs" textLength="29" x="27" y="352.8433">_port</text><rect fill="none" height="6" style="stroke:#C82930;stroke-width:1.0;" width="6" x="15" y="359.4375"/><text fill="#000000" font-family="sans-serif" font-size="11" lengthAdjust="spacingAndGlyphs" textLength="79" x="27" y="365.6479">_power_mode</text><rect fill="none" height="6" style="stroke:#C82930;stroke-width:1.0;" width="6" x="15" y="372.2422"/><text fill="#000000" font-family="sans-serif" font-size="11" lengthAdjust="spacingAndGlyphs" textLength="138" x="27" y="378.4526">_power_supply_currents</text><rect fill="none" height="6" style="stroke:#C82930;stroke-width:1.0;" width="6" x="15" y="385.0469"/><text fill="#000000" font-family="sans-serif" font-size="11" lengthAdjust="spacingAndGlyphs" textLength="156" x="27" y="391.2573">_power_supply_fan_speeds</text><rect fill="none" height="6" style="stroke:#C82930;stroke-width:1.0;" width="6" x="15" y="397.8516"/><text fill="#000000" font-family="sans-serif" font-size="11" lengthAdjust="spacingAndGlyphs" textLength="132" x="27" y="404.062">_power_supply_powers</text><rect fill="none" height="6" style="stroke:#C82930;stroke-width:1.0;" width="6" x="15" y="410.6563"/><text fill="#000000" font-family="sans-serif" font-size="11" lengthAdjust="spacingAndGlyphs" textLength="138" x="27" y="416.8667">_power_supply_voltages</text><rect fill="none" height="6" style="stroke:#C82930;stroke-width:1.0;" width="6" x="15" y="423.4609"/><text fill="#000000" font-family="sans-serif" font-size="11" lengthAdjust="spacingAndGlyphs" textLength="113" x="27" y="429.6714">_subrack_fan_mode</text><rect fill="none" height="6" style="stroke:#C82930;stroke-width:1.0;" width="6" x="15" y="436.2656"/><text fill="#000000" font-family="sans-serif" font-size="11" lengthAdjust="spacingAndGlyphs" textLength="123" x="27" y="442.4761">_subrack_fan_speeds</text><rect fill="none" height="6" style="stroke:#C82930;stroke-width:1.0;" width="6" x="15" y="449.0703"/><text fill="#000000" font-family="sans-serif" font-size="11" lengthAdjust="spacingAndGlyphs" textLength="172" x="27" y="455.2808">_subrack_fan_speeds_percent</text><rect fill="none" height="6" style="stroke:#C82930;stroke-width:1.0;" width="6" x="15" y="461.875"/><text fill="#000000" font-family="sans-serif" font-size="11" lengthAdjust="spacingAndGlyphs" textLength="65" x="27" y="468.0854">_tpm_count</text><rect fill="none" height="6" style="stroke:#C82930;stroke-width:1.0;" width="6" x="15" y="474.6797"/><text fill="#000000" font-family="sans-serif" font-size="11" lengthAdjust="spacingAndGlyphs" textLength="82" x="27" y="480.8901">_tpm_currents</text><rect fill="none" height="6" style="stroke:#C82930;stroke-width:1.0;" width="6" x="15" y="487.4844"/><text fill="#000000" font-family="sans-serif" font-size="11" lengthAdjust="spacingAndGlyphs" textLength="114" x="27" y="493.6948">_tpm_power_modes</text><rect fill="none" height="6" style="stroke:#C82930;stroke-width:1.0;" width="6" x="15" y="500.2891"/><text fill="#000000" font-family="sans-serif" font-size="11" lengthAdjust="spacingAndGlyphs" textLength="76" x="27" y="506.4995">_tpm_powers</text><rect fill="none" height="6" style="stroke:#C82930;stroke-width:1.0;" width="6" x="15" y="513.0938"/><text fill="#000000" font-family="sans-serif" font-size="11" lengthAdjust="spacingAndGlyphs" textLength="78" x="27" y="519.3042">_tpm_present</text><rect fill="none" height="6" style="stroke:#C82930;stroke-width:1.0;" width="6" x="15" y="525.8984"/><text fill="#000000" font-family="sans-serif" font-size="11" lengthAdjust="spacingAndGlyphs" textLength="102" x="27" y="532.1089">_tpm_supply_fault</text><rect fill="none" height="6" style="stroke:#C82930;stroke-width:1.0;" width="6" x="15" y="538.7031"/><text fill="#000000" font-family="sans-serif" font-size="11" lengthAdjust="spacingAndGlyphs" textLength="82" x="27" y="544.9136">_tpm_voltages</text><line style="stroke:#A80036;stroke-width:1.5;" x1="8" x2="207" y1="551.5078" y2="551.5078"/><ellipse cx="18" cy="562.5078" fill="#84BE84" rx="3" ry="3" style="stroke:#038048;stroke-width:1.0;"/><text fill="#000000" font-family="sans-serif" font-size="11" lengthAdjust="spacingAndGlyphs" textLength="49" x="27" y="565.7183">__init__()</text><rect fill="#F24D5C" height="6" style="stroke:#C82930;stroke-width:1.0;" width="6" x="15" y="572.3125"/><text fill="#000000" font-family="sans-serif" font-size="11" lengthAdjust="spacingAndGlyphs" textLength="90" x="27" y="578.5229">_check_tpm_id()</text><rect fill="#F24D5C" height="6" style="stroke:#C82930;stroke-width:1.0;" width="6" x="15" y="585.1172"/><text fill="#000000" font-family="sans-serif" font-size="11" lengthAdjust="spacingAndGlyphs" textLength="58" x="27" y="591.3276">_connect()</text><ellipse cx="18" cy="600.9219" fill="#84BE84" rx="3" ry="3" style="stroke:#038048;stroke-width:1.0;"/><text fill="#000000" font-family="sans-serif" font-size="11" lengthAdjust="spacingAndGlyphs" textLength="82" x="27" y="604.1323">are_tpms_on()</text><ellipse cx="18" cy="613.7266" fill="#84BE84" rx="3" ry="3" style="stroke:#038048;stroke-width:1.0;"/><text fill="#000000" font-family="sans-serif" font-size="11" lengthAdjust="spacingAndGlyphs" textLength="104" x="27" y="616.937">check_connected()</text><ellipse cx="18" cy="626.5313" fill="#84BE84" rx="3" ry="3" style="stroke:#038048;stroke-width:1.0;"/><text fill="#000000" font-family="sans-serif" font-size="11" lengthAdjust="spacingAndGlyphs" textLength="119" x="27" y="629.7417">check_power_mode()</text><ellipse cx="18" cy="639.3359" fill="#84BE84" rx="3" ry="3" style="stroke:#038048;stroke-width:1.0;"/><text fill="#000000" font-family="sans-serif" font-size="11" lengthAdjust="spacingAndGlyphs" textLength="66" x="27" y="642.5464">is_tpm_on()</text><ellipse cx="18" cy="652.1406" fill="#84BE84" rx="3" ry="3" style="stroke:#038048;stroke-width:1.0;"/><text fill="#000000" font-family="sans-serif" font-size="11" lengthAdjust="spacingAndGlyphs" textLength="23" x="27" y="655.3511">off()</text><ellipse cx="18" cy="664.9453" fill="#84BE84" rx="3" ry="3" style="stroke:#038048;stroke-width:1.0;"/><text fill="#000000" font-family="sans-serif" font-size="11" lengthAdjust="spacingAndGlyphs" textLength="22" x="27" y="668.1558">on()</text><ellipse cx="18" cy="677.75" fill="#84BE84" rx="3" ry="3" style="stroke:#038048;stroke-width:1.0;"/><text fill="#000000" font-family="sans-serif" font-size="11" lengthAdjust="spacingAndGlyphs" textLength="175" x="27" y="680.9604">set_power_supply_fan_speed()</text><ellipse cx="18" cy="690.5547" fill="#84BE84" rx="3" ry="3" style="stroke:#038048;stroke-width:1.0;"/><text fill="#000000" font-family="sans-serif" font-size="11" lengthAdjust="spacingAndGlyphs" textLength="139" x="27" y="693.7651">set_subrack_fan_mode()</text><ellipse cx="18" cy="703.3594" fill="#84BE84" rx="3" ry="3" style="stroke:#038048;stroke-width:1.0;"/><text fill="#000000" font-family="sans-serif" font-size="11" lengthAdjust="spacingAndGlyphs" textLength="142" x="27" y="706.5698">set_subrack_fan_speed()</text><ellipse cx="18" cy="716.1641" fill="#84BE84" rx="3" ry="3" style="stroke:#038048;stroke-width:1.0;"/><text fill="#000000" font-family="sans-serif" font-size="11" lengthAdjust="spacingAndGlyphs" textLength="80" x="27" y="719.3745">turn_off_tpm()</text><ellipse cx="18" cy="728.9688" fill="#84BE84" rx="3" ry="3" style="stroke:#038048;stroke-width:1.0;"/><text fill="#000000" font-family="sans-serif" font-size="11" lengthAdjust="spacingAndGlyphs" textLength="87" x="27" y="732.1792">turn_off_tpms()</text><ellipse cx="18" cy="741.7734" fill="#84BE84" rx="3" ry="3" style="stroke:#038048;stroke-width:1.0;"/><text fill="#000000" font-family="sans-serif" font-size="11" lengthAdjust="spacingAndGlyphs" textLength="79" x="27" y="744.9839">turn_on_tpm()</text><ellipse cx="18" cy="754.5781" fill="#84BE84" rx="3" ry="3" style="stroke:#038048;stroke-width:1.0;"/><text fill="#000000" font-family="sans-serif" font-size="11" lengthAdjust="spacingAndGlyphs" textLength="86" x="27" y="757.7886">turn_on_tpms()</text><!--MD5=[1d6a184574f050a60483c4468bad1ece]
reverse link OnOffHardwareDriver to SubrackDriver--><path codeLine="75" d="M107.5,126.0644 C107.5,150.0427 107.5,181.921 107.5,216.8754 " fill="none" id="OnOffHardwareDriver-backto-SubrackDriver" style="stroke:#A80036;stroke-width:1.0;"/><polygon fill="none" points="100.5001,126.0285,107.5,106.0285,114.5001,126.0284,100.5001,126.0285" style="stroke:#A80036;stroke-width:1.0;"/><!--MD5=[1905a4dcdc25785c51fd7e8db2707f25]
reverse link HardwareClient to WebHardwareClient--><path codeLine="76" d="M320.5,177.8438 C320.5,255.0243 320.5,361.2827 320.5,427.9108 " fill="none" id="HardwareClient-backto-WebHardwareClient" style="stroke:#A80036;stroke-width:1.0;"/><polygon fill="none" points="313.5001,177.4013,320.5,157.4013,327.5001,177.4012,313.5001,177.4013" style="stroke:#A80036;stroke-width:1.0;"/><!--MD5=[cdc3201eb6e9b8f433637eed3bc8507a]
link SubrackDriver to WebHardwareClient--><path codeLine="77" d="M208.1758,490.5 C218.1394,490.5 228.1031,490.5 238.0667,490.5 " fill="none" id="SubrackDriver-to-WebHardwareClient" style="stroke:#A80036;stroke-width:1.0;"/><polygon fill="#A80036" points="243.2771,490.5,234.2771,486.5,238.2771,490.5,234.2771,494.5,243.2771,490.5" style="stroke:#A80036;stroke-width:1.0;"/><!--MD5=[11817cf88a99a166576a546dc77d9371]
reverse link http.client.HTTPConnection to WebHardwareClient--><path codeLine="78" d="M427.206,490.5 C417.3919,490.5 407.5778,490.5 397.7637,490.5 " fill="none" id="http.client.HTTPConnection-backto-WebHardwareClient" style="stroke:#A80036;stroke-width:1.0;"/><polygon fill="#A80036" points="432.3381,490.5,423.3381,486.5,427.3381,490.5,423.3381,494.5,432.3381,490.5" style="stroke:#A80036;stroke-width:1.0;"/><!--MD5=[5d93fa89d745ee1618f45c5bffc96773]
@startuml
class HardwareClient {
  -_conn
  -_ip
  -_port
  +__init__()
  +connect()
  +execute_command()
  +get_attribute()
  +set_attribute()
}


class WebHardwareClient {
  -_conn
  +__init__()
  +connect()
  +execute_command()
  +get_attribute()
  +set_attribute()
}

class http.client.HTTPConnection {


}

class OnOffHardwareDriver {


}

class SubrackDriver {
  -_are_tpms_on
  -_backplane_temperatures
  -_bay_count
  -_board_current
  -_board_temperatures
  -_client
  -_ip
  -_port
  -_power_mode
  -_power_supply_currents
  -_power_supply_fan_speeds
  -_power_supply_powers
  -_power_supply_voltages
  -_subrack_fan_mode
  -_subrack_fan_speeds
  -_subrack_fan_speeds_percent
  -_tpm_count
  -_tpm_currents
  -_tpm_power_modes
  -_tpm_powers
  -_tpm_present
  -_tpm_supply_fault
  -_tpm_voltages
  +__init__()
  -_check_tpm_id()
  -_connect()
  +are_tpms_on()
  +check_connected()
  +check_power_mode()
  +is_tpm_on()
  +off()
  +on()
  +set_power_supply_fan_speed()
  +set_subrack_fan_mode()
  +set_subrack_fan_speed()
  +turn_off_tpm()
  +turn_off_tpms()
  +turn_on_tpm()
  +turn_on_tpms()
}

 
OnOffHardwareDriver <|-down- SubrackDriver
HardwareClient <|-down- WebHardwareClient
WebHardwareClient <-left- SubrackDriver 
WebHardwareClient -left-> http.client.HTTPConnection
@enduml

PlantUML version 1.2020.22(Sun Dec 06 09:36:27 UTC 2020)
(GPL source distribution)
Java Runtime: OpenJDK Runtime Environment
JVM: OpenJDK 64-Bit Server VM
Default Encoding: UTF-8
Language: en
Country: US
--></g></svg>