<?xml version="1.0" encoding="UTF-8" standalone="no"?><svg xmlns="http://www.w3.org/2000/svg" xmlns:xlink="http://www.w3.org/1999/xlink" contentScriptType="application/ecmascript" contentStyleType="text/css" height="1570px" preserveAspectRatio="none" style="width:410px;height:1570px;" version="1.1" viewBox="0 0 410 1570" width="410px" zoomAndPan="magnify"><defs><filter height="300%" id="fxpxtnhcx6ei0" width="300%" x="-1" y="-1"><feGaussianBlur result="blurOut" stdDeviation="2.0"/><feColorMatrix in="blurOut" result="blurOut2" type="matrix" values="0 0 0 0 0 0 0 0 0 0 0 0 0 0 0 0 0 0 .4 0"/><feOffset dx="4.0" dy="4.0" in="blurOut2" result="blurOut3"/><feBlend in="SourceGraphic" in2="blurOut3" mode="normal"/></filter></defs><g><!--MD5=[f97b46c9be342f9e4c905d6454e9e988]
class TilePowerManager--><rect fill="#FEFECE" filter="url(#fxpxtnhcx6ei0)" height="240.0703" id="TilePowerManager" style="stroke: #A80036; stroke-width: 1.5;" width="180" x="6" y="8"/><ellipse cx="36.3" cy="24" fill="#ADD1B2" rx="11" ry="11" style="stroke: #A80036; stroke-width: 1.0;"/><path d="M39.2688,29.6406 Q38.6906,29.9375 38.05,30.0781 Q37.4094,30.2344 36.7063,30.2344 Q34.2063,30.2344 32.8781,28.5938 Q31.5656,26.9375 31.5656,23.8125 Q31.5656,20.6875 32.8781,19.0313 Q34.2063,17.375 36.7063,17.375 Q37.4094,17.375 38.05,17.5313 Q38.7063,17.6875 39.2688,17.9844 L39.2688,20.7031 Q38.6438,20.125 38.05,19.8594 Q37.4563,19.5781 36.8313,19.5781 Q35.4875,19.5781 34.8,20.6563 Q34.1125,21.7188 34.1125,23.8125 Q34.1125,25.9063 34.8,26.9844 Q35.4875,28.0469 36.8313,28.0469 Q37.4563,28.0469 38.05,27.7813 Q38.6438,27.5 39.2688,26.9219 L39.2688,29.6406 Z "/><text fill="#000000" font-family="sans-serif" font-size="12" lengthAdjust="spacingAndGlyphs" textLength="114" x="53.7" y="28.1543">TilePowerManager</text><line style="stroke: #A80036; stroke-width: 1.5;" x1="7" x2="185" y1="40" y2="40"/><rect fill="none" height="6" style="stroke: #C82930; stroke-width: 1.0;" width="6" x="14" y="48"/><text fill="#000000" font-family="sans-serif" font-size="11" lengthAdjust="spacingAndGlyphs" textLength="82" x="26" y="54.2104">_subrack_fqdn</text><rect fill="none" height="6" style="stroke: #C82930; stroke-width: 1.0;" width="6" x="14" y="60.8047"/><text fill="#000000" font-family="sans-serif" font-size="11" lengthAdjust="spacingAndGlyphs" textLength="51" x="26" y="67.0151">_subrack</text><rect fill="none" height="6" style="stroke: #C82930; stroke-width: 1.0;" width="6" x="14" y="73.6094"/><text fill="#000000" font-family="sans-serif" font-size="11" lengthAdjust="spacingAndGlyphs" textLength="77" x="26" y="79.8198">_subrack_bay</text><rect fill="none" height="6" style="stroke: #C82930; stroke-width: 1.0;" width="6" x="14" y="86.4141"/><text fill="#000000" font-family="sans-serif" font-size="11" lengthAdjust="spacingAndGlyphs" textLength="42" x="26" y="92.6245">_logger</text><rect fill="none" height="6" style="stroke: #C82930; stroke-width: 1.0;" width="6" x="14" y="99.2188"/><text fill="#000000" font-family="sans-serif" font-size="11" lengthAdjust="spacingAndGlyphs" textLength="51" x="26" y="105.4292">_callback</text><rect fill="none" height="6" style="stroke: #C82930; stroke-width: 1.0;" width="6" x="14" y="112.0234"/><text fill="#000000" font-family="sans-serif" font-size="11" lengthAdjust="spacingAndGlyphs" textLength="79" x="26" y="118.2339">_power_mode</text><ellipse cx="17" cy="127.8281" fill="none" rx="3" ry="3" style="stroke: #038048; stroke-width: 1.0;"/><text fill="#000000" font-family="sans-serif" font-size="11" lengthAdjust="spacingAndGlyphs" textLength="131" x="26" y="131.0386">subrack_event_handler</text><line style="stroke: #A80036; stroke-width: 1.5;" x1="7" x2="185" y1="137.6328" y2="137.6328"/><ellipse cx="17" cy="148.6328" fill="#84BE84" rx="3" ry="3" style="stroke: #038048; stroke-width: 1.0;"/><text fill="#000000" font-family="sans-serif" font-size="11" lengthAdjust="spacingAndGlyphs" textLength="49" x="26" y="151.8433">__init__()</text><ellipse cx="17" cy="161.4375" fill="#84BE84" rx="3" ry="3" style="stroke: #038048; stroke-width: 1.0;"/><text fill="#000000" font-family="sans-serif" font-size="11" lengthAdjust="spacingAndGlyphs" textLength="52" x="26" y="164.6479">connect()</text><ellipse cx="17" cy="174.2422" fill="#84BE84" rx="3" ry="3" style="stroke: #038048; stroke-width: 1.0;"/><text fill="#000000" font-family="sans-serif" font-size="11" lengthAdjust="spacingAndGlyphs" textLength="23" x="26" y="177.4526">off()</text><ellipse cx="17" cy="187.0469" fill="#84BE84" rx="3" ry="3" style="stroke: #038048; stroke-width: 1.0;"/><text fill="#000000" font-family="sans-serif" font-size="11" lengthAdjust="spacingAndGlyphs" textLength="22" x="26" y="190.2573">on()</text><ellipse cx="17" cy="199.8516" fill="#84BE84" rx="3" ry="3" style="stroke: #038048; stroke-width: 1.0;"/><text fill="#000000" font-family="sans-serif" font-size="11" lengthAdjust="spacingAndGlyphs" textLength="81" x="26" y="203.062">power_mode()</text><rect fill="#F24D5C" height="6" style="stroke: #C82930; stroke-width: 1.0;" width="6" x="14" y="209.6563"/><text fill="#000000" font-family="sans-serif" font-size="11" lengthAdjust="spacingAndGlyphs" textLength="154" x="26" y="215.8667">_subrack_power_changed()</text><rect fill="#F24D5C" height="6" style="stroke: #C82930; stroke-width: 1.0;" width="6" x="14" y="222.4609"/><text fill="#000000" font-family="sans-serif" font-size="11" lengthAdjust="spacingAndGlyphs" textLength="119" x="26" y="228.6714">_read_power_mode()</text><rect fill="#F24D5C" height="6" style="stroke: #C82930; stroke-width: 1.0;" width="6" x="14" y="235.2656"/><text fill="#000000" font-family="sans-serif" font-size="11" lengthAdjust="spacingAndGlyphs" textLength="132" x="26" y="241.4761">_update_power_mode()</text><!--MD5=[13dba1b3ff2002153b8767a0fa8f9d06]
class MccsTile--><rect fill="#FEFECE" filter="url(#fxpxtnhcx6ei0)" height="1251.6406" id="MccsTile" style="stroke: #A80036; stroke-width: 1.5;" width="228" x="171" y="308"/><ellipse cx="254.75" cy="324" fill="#ADD1B2" rx="11" ry="11" style="stroke: #A80036; stroke-width: 1.0;"/><path d="M257.7188,329.6406 Q257.1406,329.9375 256.5,330.0781 Q255.8594,330.2344 255.1563,330.2344 Q252.6563,330.2344 251.3281,328.5938 Q250.0156,326.9375 250.0156,323.8125 Q250.0156,320.6875 251.3281,319.0313 Q252.6563,317.375 255.1563,317.375 Q255.8594,317.375 256.5,317.5313 Q257.1563,317.6875 257.7188,317.9844 L257.7188,320.7031 Q257.0938,320.125 256.5,319.8594 Q255.9063,319.5781 255.2813,319.5781 Q253.9375,319.5781 253.25,320.6563 Q252.5625,321.7188 252.5625,323.8125 Q252.5625,325.9063 253.25,326.9844 Q253.9375,328.0469 255.2813,328.0469 Q255.9063,328.0469 256.5,327.7813 Q257.0938,327.5 257.7188,326.9219 L257.7188,329.6406 Z "/><text fill="#000000" font-family="sans-serif" font-size="12" lengthAdjust="spacingAndGlyphs" textLength="52" x="275.25" y="328.1543">MccsTile</text><line style="stroke: #A80036; stroke-width: 1.5;" x1="172" x2="398" y1="340" y2="340"/><rect fill="none" height="6" style="stroke: #C82930; stroke-width: 1.0;" width="6" x="179" y="348"/><text fill="#000000" font-family="sans-serif" font-size="11" lengthAdjust="spacingAndGlyphs" textLength="43" x="191" y="354.2104">_thread</text><rect fill="none" height="6" style="stroke: #C82930; stroke-width: 1.0;" width="6" x="179" y="360.8047"/><text fill="#000000" font-family="sans-serif" font-size="11" lengthAdjust="spacingAndGlyphs" textLength="28" x="191" y="367.0151">_lock</text><rect fill="none" height="6" style="stroke: #C82930; stroke-width: 1.0;" width="6" x="179" y="373.6094"/><text fill="#000000" font-family="sans-serif" font-size="11" lengthAdjust="spacingAndGlyphs" textLength="55" x="191" y="379.8198">_interrupt</text><rect fill="none" height="6" style="stroke: #C82930; stroke-width: 1.0;" width="6" x="179" y="386.4141"/><text fill="#000000" font-family="sans-serif" font-size="11" lengthAdjust="spacingAndGlyphs" textLength="76" x="191" y="392.6245">_health_state</text><rect fill="none" height="6" style="stroke: #C82930; stroke-width: 1.0;" width="6" x="179" y="399.2188"/><text fill="#000000" font-family="sans-serif" font-size="11" lengthAdjust="spacingAndGlyphs" textLength="73" x="191" y="405.4292">_subarray_id</text><rect fill="none" height="6" style="stroke: #C82930; stroke-width: 1.0;" width="6" x="179" y="412.0234"/><text fill="#000000" font-family="sans-serif" font-size="11" lengthAdjust="spacingAndGlyphs" textLength="111" x="191" y="418.2339">_csp_destination_ip</text><rect fill="none" height="6" style="stroke: #C82930; stroke-width: 1.0;" width="6" x="179" y="424.8281"/><text fill="#000000" font-family="sans-serif" font-size="11" lengthAdjust="spacingAndGlyphs" textLength="125" x="191" y="431.0386">_csp_destination_mac</text><rect fill="none" height="6" style="stroke: #C82930; stroke-width: 1.0;" width="6" x="179" y="437.6328"/><text fill="#000000" font-family="sans-serif" font-size="11" lengthAdjust="spacingAndGlyphs" textLength="124" x="191" y="443.8433">_csp_destination_port</text><rect fill="none" height="6" style="stroke: #C82930; stroke-width: 1.0;" width="6" x="179" y="450.4375"/><text fill="#000000" font-family="sans-serif" font-size="11" lengthAdjust="spacingAndGlyphs" textLength="75" x="191" y="456.6479">_antenna_ids</text><rect fill="none" height="6" style="stroke: #C82930; stroke-width: 1.0;" width="6" x="179" y="463.2422"/><text fill="#000000" font-family="sans-serif" font-size="11" lengthAdjust="spacingAndGlyphs" textLength="107" x="191" y="469.4526">_antennas_per_tile</text><line style="stroke: #A80036; stroke-width: 1.5;" x1="172" x2="398" y1="476.0469" y2="476.0469"/><ellipse cx="182" cy="487.0469" fill="#84BE84" rx="3" ry="3" style="stroke: #038048; stroke-width: 1.0;"/><text fill="#000000" font-family="sans-serif" font-size="11" lengthAdjust="spacingAndGlyphs" textLength="67" x="191" y="490.2573">init_device()</text><ellipse cx="182" cy="499.8516" fill="#84BE84" rx="3" ry="3" style="stroke: #038048; stroke-width: 1.0;"/><text fill="#000000" font-family="sans-serif" font-size="11" lengthAdjust="spacingAndGlyphs" textLength="49" x="191" y="503.062">__init__()</text><ellipse cx="182" cy="512.6563" fill="#84BE84" rx="3" ry="3" style="stroke: #038048; stroke-width: 1.0;"/><text fill="#000000" font-family="sans-serif" font-size="11" lengthAdjust="spacingAndGlyphs" textLength="22" x="191" y="515.8667">do()</text><rect fill="#F24D5C" height="6" style="stroke: #C82930; stroke-width: 1.0;" width="6" x="179" y="522.4609"/><text fill="#000000" font-family="sans-serif" font-size="11" lengthAdjust="spacingAndGlyphs" textLength="135" x="191" y="528.6714">_initialise_connections()</text><rect fill="#F24D5C" height="6" style="stroke: #C82930; stroke-width: 1.0;" width="6" x="179" y="535.2656"/><text fill="#000000" font-family="sans-serif" font-size="11" lengthAdjust="spacingAndGlyphs" textLength="169" x="191" y="541.4761">_initialise_health_monitoring()</text><rect fill="#F24D5C" height="6" style="stroke: #C82930; stroke-width: 1.0;" width="6" x="179" y="548.0703"/><text fill="#000000" font-family="sans-serif" font-size="11" lengthAdjust="spacingAndGlyphs" textLength="183" x="191" y="554.2808">_initialise_power_management()</text><ellipse cx="182" cy="563.875" fill="#84BE84" rx="3" ry="3" style="stroke: #038048; stroke-width: 1.0;"/><text fill="#000000" font-family="sans-serif" font-size="11" lengthAdjust="spacingAndGlyphs" textLength="57" x="191" y="567.0854">interrupt()</text><ellipse cx="182" cy="576.6797" fill="#84BE84" rx="3" ry="3" style="stroke: #038048; stroke-width: 1.0;"/><text fill="#000000" font-family="sans-serif" font-size="11" lengthAdjust="spacingAndGlyphs" textLength="69" x="191" y="579.8901">succeeded()</text><ellipse cx="182" cy="589.4844" fill="#84BE84" rx="3" ry="3" style="stroke: #038048; stroke-width: 1.0;"/><text fill="#000000" font-family="sans-serif" font-size="11" lengthAdjust="spacingAndGlyphs" textLength="24" x="191" y="592.6948">On()</text><ellipse cx="182" cy="602.2891" fill="#84BE84" rx="3" ry="3" style="stroke: #038048; stroke-width: 1.0;"/><text fill="#000000" font-family="sans-serif" font-size="11" lengthAdjust="spacingAndGlyphs" textLength="137" x="191" y="605.4995">always_executed_hook()</text><ellipse cx="182" cy="615.0938" fill="#84BE84" rx="3" ry="3" style="stroke: #038048; stroke-width: 1.0;"/><text fill="#000000" font-family="sans-serif" font-size="11" lengthAdjust="spacingAndGlyphs" textLength="85" x="191" y="618.3042">delete_device()</text><ellipse cx="182" cy="627.8984" fill="#84BE84" rx="3" ry="3" style="stroke: #038048; stroke-width: 1.0;"/><text fill="#000000" font-family="sans-serif" font-size="11" lengthAdjust="spacingAndGlyphs" textLength="97" x="191" y="631.1089">health_changed()</text><ellipse cx="182" cy="640.7031" fill="#84BE84" rx="3" ry="3" style="stroke: #038048; stroke-width: 1.0;"/><text fill="#000000" font-family="sans-serif" font-size="11" lengthAdjust="spacingAndGlyphs" textLength="97" x="191" y="643.9136">power_changed()</text><ellipse cx="182" cy="653.5078" fill="#84BE84" rx="3" ry="3" style="stroke: #038048; stroke-width: 1.0;"/><text fill="#000000" font-family="sans-serif" font-size="11" lengthAdjust="spacingAndGlyphs" textLength="74" x="191" y="656.7183">logicalTileId()</text><ellipse cx="182" cy="666.3125" fill="#84BE84" rx="3" ry="3" style="stroke: #038048; stroke-width: 1.0;"/><text fill="#000000" font-family="sans-serif" font-size="11" lengthAdjust="spacingAndGlyphs" textLength="69" x="191" y="669.5229">subarrayId()</text><ellipse cx="182" cy="679.1172" fill="#84BE84" rx="3" ry="3" style="stroke: #038048; stroke-width: 1.0;"/><text fill="#000000" font-family="sans-serif" font-size="11" lengthAdjust="spacingAndGlyphs" textLength="57" x="191" y="682.3276">stationId()</text><ellipse cx="182" cy="691.9219" fill="#84BE84" rx="3" ry="3" style="stroke: #038048; stroke-width: 1.0;"/><text fill="#000000" font-family="sans-serif" font-size="11" lengthAdjust="spacingAndGlyphs" textLength="102" x="191" y="695.1323">cspDestinationIp()</text><ellipse cx="182" cy="704.7266" fill="#84BE84" rx="3" ry="3" style="stroke: #038048; stroke-width: 1.0;"/><text fill="#000000" font-family="sans-serif" font-size="11" lengthAdjust="spacingAndGlyphs" textLength="114" x="191" y="707.937">cspDestinationMac()</text><ellipse cx="182" cy="717.5313" fill="#84BE84" rx="3" ry="3" style="stroke: #038048; stroke-width: 1.0;"/><text fill="#000000" font-family="sans-serif" font-size="11" lengthAdjust="spacingAndGlyphs" textLength="115" x="191" y="720.7417">cspDestinationPort()</text><ellipse cx="182" cy="730.3359" fill="#84BE84" rx="3" ry="3" style="stroke: #038048; stroke-width: 1.0;"/><text fill="#000000" font-family="sans-serif" font-size="11" lengthAdjust="spacingAndGlyphs" textLength="92" x="191" y="733.5464">firmwareName()</text><ellipse cx="182" cy="743.1406" fill="#84BE84" rx="3" ry="3" style="stroke: #038048; stroke-width: 1.0;"/><text fill="#000000" font-family="sans-serif" font-size="11" lengthAdjust="spacingAndGlyphs" textLength="102" x="191" y="746.3511">firmwareVersion()</text><ellipse cx="182" cy="755.9453" fill="#84BE84" rx="3" ry="3" style="stroke: #038048; stroke-width: 1.0;"/><text fill="#000000" font-family="sans-serif" font-size="11" lengthAdjust="spacingAndGlyphs" textLength="49" x="191" y="759.1558">voltage()</text><ellipse cx="182" cy="768.75" fill="#84BE84" rx="3" ry="3" style="stroke: #038048; stroke-width: 1.0;"/><text fill="#000000" font-family="sans-serif" font-size="11" lengthAdjust="spacingAndGlyphs" textLength="49" x="191" y="771.9604">current()</text><ellipse cx="182" cy="781.5547" fill="#84BE84" rx="3" ry="3" style="stroke: #038048; stroke-width: 1.0;"/><text fill="#000000" font-family="sans-serif" font-size="11" lengthAdjust="spacingAndGlyphs" textLength="92" x="191" y="784.7651">isProgrammed()</text><ellipse cx="182" cy="794.3594" fill="#84BE84" rx="3" ry="3" style="stroke: #038048; stroke-width: 1.0;"/><text fill="#000000" font-family="sans-serif" font-size="11" lengthAdjust="spacingAndGlyphs" textLength="118" x="191" y="797.5698">board_temperature()</text><ellipse cx="182" cy="807.1641" fill="#84BE84" rx="3" ry="3" style="stroke: #038048; stroke-width: 1.0;"/><text fill="#000000" font-family="sans-serif" font-size="11" lengthAdjust="spacingAndGlyphs" textLength="117" x="191" y="810.3745">fpga1_temperature()</text><ellipse cx="182" cy="819.9688" fill="#84BE84" rx="3" ry="3" style="stroke: #038048; stroke-width: 1.0;"/><text fill="#000000" font-family="sans-serif" font-size="11" lengthAdjust="spacingAndGlyphs" textLength="117" x="191" y="823.1792">fpga2_temperature()</text><ellipse cx="182" cy="832.7734" fill="#84BE84" rx="3" ry="3" style="stroke: #038048; stroke-width: 1.0;"/><text fill="#000000" font-family="sans-serif" font-size="11" lengthAdjust="spacingAndGlyphs" textLength="71" x="191" y="835.9839">fpga1_time()</text><ellipse cx="182" cy="845.5781" fill="#84BE84" rx="3" ry="3" style="stroke: #038048; stroke-width: 1.0;"/><text fill="#000000" font-family="sans-serif" font-size="11" lengthAdjust="spacingAndGlyphs" textLength="71" x="191" y="848.7886">fpga2_time()</text><ellipse cx="182" cy="858.3828" fill="#84BE84" rx="3" ry="3" style="stroke: #038048; stroke-width: 1.0;"/><text fill="#000000" font-family="sans-serif" font-size="11" lengthAdjust="spacingAndGlyphs" textLength="71" x="191" y="861.5933">antennaIds()</text><ellipse cx="182" cy="871.1875" fill="#84BE84" rx="3" ry="3" style="stroke: #038048; stroke-width: 1.0;"/><text fill="#000000" font-family="sans-serif" font-size="11" lengthAdjust="spacingAndGlyphs" textLength="131" x="191" y="874.3979">fortyGbDestinationIps()</text><ellipse cx="182" cy="883.9922" fill="#84BE84" rx="3" ry="3" style="stroke: #038048; stroke-width: 1.0;"/><text fill="#000000" font-family="sans-serif" font-size="11" lengthAdjust="spacingAndGlyphs" textLength="143" x="191" y="887.2026">fortyGbDestinationMacs()</text><ellipse cx="182" cy="896.7969" fill="#84BE84" rx="3" ry="3" style="stroke: #038048; stroke-width: 1.0;"/><text fill="#000000" font-family="sans-serif" font-size="11" lengthAdjust="spacingAndGlyphs" textLength="144" x="191" y="900.0073">fortyGbDestinationPorts()</text><ellipse cx="182" cy="909.6016" fill="#84BE84" rx="3" ry="3" style="stroke: #038048; stroke-width: 1.0;"/><text fill="#000000" font-family="sans-serif" font-size="11" lengthAdjust="spacingAndGlyphs" textLength="63" x="191" y="912.812">adcPower()</text><ellipse cx="182" cy="922.4063" fill="#84BE84" rx="3" ry="3" style="stroke: #038048; stroke-width: 1.0;"/><text fill="#000000" font-family="sans-serif" font-size="11" lengthAdjust="spacingAndGlyphs" textLength="177" x="191" y="925.6167">currentTileBeamformerFrame()</text><ellipse cx="182" cy="935.2109" fill="#84BE84" rx="3" ry="3" style="stroke: #038048; stroke-width: 1.0;"/><text fill="#000000" font-family="sans-serif" font-size="11" lengthAdjust="spacingAndGlyphs" textLength="164" x="191" y="938.4214">checkPendingDataRequests()</text><ellipse cx="182" cy="948.0156" fill="#84BE84" rx="3" ry="3" style="stroke: #038048; stroke-width: 1.0;"/><text fill="#000000" font-family="sans-serif" font-size="11" lengthAdjust="spacingAndGlyphs" textLength="135" x="191" y="951.2261">isBeamformerRunning()</text><ellipse cx="182" cy="960.8203" fill="#84BE84" rx="3" ry="3" style="stroke: #038048; stroke-width: 1.0;"/><text fill="#000000" font-family="sans-serif" font-size="11" lengthAdjust="spacingAndGlyphs" textLength="126" x="191" y="964.0308">phaseTerminalCount()</text><ellipse cx="182" cy="973.625" fill="#84BE84" rx="3" ry="3" style="stroke: #038048; stroke-width: 1.0;"/><text fill="#000000" font-family="sans-serif" font-size="11" lengthAdjust="spacingAndGlyphs" textLength="60" x="191" y="976.8354">ppsDelay()</text><ellipse cx="182" cy="986.4297" fill="#84BE84" rx="3" ry="3" style="stroke: #038048; stroke-width: 1.0;"/><text fill="#000000" font-family="sans-serif" font-size="11" lengthAdjust="spacingAndGlyphs" textLength="97" x="191" y="989.6401">simulationMode()</text><ellipse cx="182" cy="999.2344" fill="#84BE84" rx="3" ry="3" style="stroke: #038048; stroke-width: 1.0;"/><text fill="#000000" font-family="sans-serif" font-size="11" lengthAdjust="spacingAndGlyphs" textLength="60" x="191" y="1002.4448">testMode()</text><ellipse cx="182" cy="1012.0391" fill="#84BE84" rx="3" ry="3" style="stroke: #038048; stroke-width: 1.0;"/><text fill="#000000" font-family="sans-serif" font-size="11" lengthAdjust="spacingAndGlyphs" textLength="134" x="191" y="1015.2495">init_command_objects()</text><ellipse cx="182" cy="1024.8438" fill="#84BE84" rx="3" ry="3" style="stroke: #038048; stroke-width: 1.0;"/><text fill="#000000" font-family="sans-serif" font-size="11" lengthAdjust="spacingAndGlyphs" textLength="55" x="191" y="1028.0542">Initialise()</text><ellipse cx="182" cy="1037.6484" fill="#84BE84" rx="3" ry="3" style="stroke: #038048; stroke-width: 1.0;"/><text fill="#000000" font-family="sans-serif" font-size="11" lengthAdjust="spacingAndGlyphs" textLength="131" x="191" y="1040.8589">GetFirmwareAvailable()</text><ellipse cx="182" cy="1050.4531" fill="#84BE84" rx="3" ry="3" style="stroke: #038048; stroke-width: 1.0;"/><text fill="#000000" font-family="sans-serif" font-size="11" lengthAdjust="spacingAndGlyphs" textLength="116" x="191" y="1053.6636">DownloadFirmware()</text><ellipse cx="182" cy="1063.2578" fill="#84BE84" rx="3" ry="3" style="stroke: #038048; stroke-width: 1.0;"/><text fill="#000000" font-family="sans-serif" font-size="11" lengthAdjust="spacingAndGlyphs" textLength="86" x="191" y="1066.4683">ProgramCPLD()</text><ellipse cx="182" cy="1076.0625" fill="#84BE84" rx="3" ry="3" style="stroke: #038048; stroke-width: 1.0;"/><text fill="#000000" font-family="sans-serif" font-size="11" lengthAdjust="spacingAndGlyphs" textLength="95" x="191" y="1079.2729">GetRegisterList()</text><ellipse cx="182" cy="1088.8672" fill="#84BE84" rx="3" ry="3" style="stroke: #038048; stroke-width: 1.0;"/><text fill="#000000" font-family="sans-serif" font-size="11" lengthAdjust="spacingAndGlyphs" textLength="83" x="191" y="1092.0776">ReadRegister()</text><ellipse cx="182" cy="1101.6719" fill="#84BE84" rx="3" ry="3" style="stroke: #038048; stroke-width: 1.0;"/><text fill="#000000" font-family="sans-serif" font-size="11" lengthAdjust="spacingAndGlyphs" textLength="83" x="191" y="1104.8823">WriteRegister()</text><ellipse cx="182" cy="1114.4766" fill="#84BE84" rx="3" ry="3" style="stroke: #038048; stroke-width: 1.0;"/><text fill="#000000" font-family="sans-serif" font-size="11" lengthAdjust="spacingAndGlyphs" textLength="83" x="191" y="1117.687">ReadAddress()</text><ellipse cx="182" cy="1127.2813" fill="#84BE84" rx="3" ry="3" style="stroke: #038048; stroke-width: 1.0;"/><text fill="#000000" font-family="sans-serif" font-size="11" lengthAdjust="spacingAndGlyphs" textLength="83" x="191" y="1130.4917">WriteAddress()</text><ellipse cx="182" cy="1140.0859" fill="#84BE84" rx="3" ry="3" style="stroke: #038048; stroke-width: 1.0;"/><text fill="#000000" font-family="sans-serif" font-size="11" lengthAdjust="spacingAndGlyphs" textLength="113" x="191" y="1143.2964">Configure40GCore()</text><ellipse cx="182" cy="1152.8906" fill="#84BE84" rx="3" ry="3" style="stroke: #038048; stroke-width: 1.0;"/><text fill="#000000" font-family="sans-serif" font-size="11" lengthAdjust="spacingAndGlyphs" textLength="154" x="191" y="1156.1011">Get40GCoreConfiguration()</text><ellipse cx="182" cy="1165.6953" fill="#84BE84" rx="3" ry="3" style="stroke: #038048; stroke-width: 1.0;"/><text fill="#000000" font-family="sans-serif" font-size="11" lengthAdjust="spacingAndGlyphs" textLength="105" x="191" y="1168.9058">SetLmcDownload()</text><ellipse cx="182" cy="1178.5" fill="#84BE84" rx="3" ry="3" style="stroke: #038048; stroke-width: 1.0;"/><text fill="#000000" font-family="sans-serif" font-size="11" lengthAdjust="spacingAndGlyphs" textLength="155" x="191" y="1181.7104">SetChanneliserTruncation()</text><ellipse cx="182" cy="1191.3047" fill="#84BE84" rx="3" ry="3" style="stroke: #038048; stroke-width: 1.0;"/><text fill="#000000" font-family="sans-serif" font-size="11" lengthAdjust="spacingAndGlyphs" textLength="146" x="191" y="1194.5151">SetBeamFormerRegions()</text><ellipse cx="182" cy="1204.1094" fill="#84BE84" rx="3" ry="3" style="stroke: #038048; stroke-width: 1.0;"/><text fill="#000000" font-family="sans-serif" font-size="11" lengthAdjust="spacingAndGlyphs" textLength="175" x="191" y="1207.3198">ConfigureStationBeamformer()</text><ellipse cx="182" cy="1216.9141" fill="#84BE84" rx="3" ry="3" style="stroke: #038048; stroke-width: 1.0;"/><text fill="#000000" font-family="sans-serif" font-size="11" lengthAdjust="spacingAndGlyphs" textLength="163" x="191" y="1220.1245">LoadCalibrationCoefficients()</text><ellipse cx="182" cy="1229.7188" fill="#84BE84" rx="3" ry="3" style="stroke: #038048; stroke-width: 1.0;"/><text fill="#000000" font-family="sans-serif" font-size="11" lengthAdjust="spacingAndGlyphs" textLength="129" x="191" y="1232.9292">LoadCalibrationCurve()</text><ellipse cx="182" cy="1242.5234" fill="#84BE84" rx="3" ry="3" style="stroke: #038048; stroke-width: 1.0;"/><text fill="#000000" font-family="sans-serif" font-size="11" lengthAdjust="spacingAndGlyphs" textLength="99" x="191" y="1245.7339">LoadBeamAngle()</text><ellipse cx="182" cy="1255.3281" fill="#84BE84" rx="3" ry="3" style="stroke: #038048; stroke-width: 1.0;"/><text fill="#000000" font-family="sans-serif" font-size="11" lengthAdjust="spacingAndGlyphs" textLength="131" x="191" y="1258.5386">LoadAntennaTapering()</text><ellipse cx="182" cy="1268.1328" fill="#84BE84" rx="3" ry="3" style="stroke: #038048; stroke-width: 1.0;"/><text fill="#000000" font-family="sans-serif" font-size="11" lengthAdjust="spacingAndGlyphs" textLength="134" x="191" y="1271.3433">SwitchCalibrationBank()</text><ellipse cx="182" cy="1280.9375" fill="#84BE84" rx="3" ry="3" style="stroke: #038048; stroke-width: 1.0;"/><text fill="#000000" font-family="sans-serif" font-size="11" lengthAdjust="spacingAndGlyphs" textLength="103" x="191" y="1284.1479">SetPointingDelay()</text><ellipse cx="182" cy="1293.7422" fill="#84BE84" rx="3" ry="3" style="stroke: #038048; stroke-width: 1.0;"/><text fill="#000000" font-family="sans-serif" font-size="11" lengthAdjust="spacingAndGlyphs" textLength="111" x="191" y="1296.9526">LoadPointingDelay()</text><ellipse cx="182" cy="1306.5469" fill="#84BE84" rx="3" ry="3" style="stroke: #038048; stroke-width: 1.0;"/><text fill="#000000" font-family="sans-serif" font-size="11" lengthAdjust="spacingAndGlyphs" textLength="108" x="191" y="1309.7573">StartBeamformer()</text><ellipse cx="182" cy="1319.3516" fill="#84BE84" rx="3" ry="3" style="stroke: #038048; stroke-width: 1.0;"/><text fill="#000000" font-family="sans-serif" font-size="11" lengthAdjust="spacingAndGlyphs" textLength="106" x="191" y="1322.562">StopBeamformer()</text><ellipse cx="182" cy="1332.1563" fill="#84BE84" rx="3" ry="3" style="stroke: #038048; stroke-width: 1.0;"/><text fill="#000000" font-family="sans-serif" font-size="11" lengthAdjust="spacingAndGlyphs" textLength="193" x="191" y="1335.3667">ConfigureIntegratedChannelData()</text><ellipse cx="182" cy="1344.9609" fill="#84BE84" rx="3" ry="3" style="stroke: #038048; stroke-width: 1.0;"/><text fill="#000000" font-family="sans-serif" font-size="11" lengthAdjust="spacingAndGlyphs" textLength="180" x="191" y="1348.1714">ConfigureIntegratedBeamData()</text><ellipse cx="182" cy="1357.7656" fill="#84BE84" rx="3" ry="3" style="stroke: #038048; stroke-width: 1.0;"/><text fill="#000000" font-family="sans-serif" font-size="11" lengthAdjust="spacingAndGlyphs" textLength="86" x="191" y="1360.9761">SendRawData()</text><ellipse cx="182" cy="1370.5703" fill="#84BE84" rx="3" ry="3" style="stroke: #038048; stroke-width: 1.0;"/><text fill="#000000" font-family="sans-serif" font-size="11" lengthAdjust="spacingAndGlyphs" textLength="133" x="191" y="1373.7808">SendChannelisedData()</text><ellipse cx="182" cy="1383.375" fill="#84BE84" rx="3" ry="3" style="stroke: #038048; stroke-width: 1.0;"/><text fill="#000000" font-family="sans-serif" font-size="11" lengthAdjust="spacingAndGlyphs" textLength="197" x="191" y="1386.5854">SendChannelisedDataContinuous()</text><ellipse cx="182" cy="1396.1797" fill="#84BE84" rx="3" ry="3" style="stroke: #038048; stroke-width: 1.0;"/><text fill="#000000" font-family="sans-serif" font-size="11" lengthAdjust="spacingAndGlyphs" textLength="96" x="191" y="1399.3901">SendBeamData()</text><ellipse cx="182" cy="1408.9844" fill="#84BE84" rx="3" ry="3" style="stroke: #038048; stroke-width: 1.0;"/><text fill="#000000" font-family="sans-serif" font-size="11" lengthAdjust="spacingAndGlyphs" textLength="138" x="191" y="1412.1948">StopDataTransmission()</text><ellipse cx="182" cy="1421.7891" fill="#84BE84" rx="3" ry="3" style="stroke: #038048; stroke-width: 1.0;"/><text fill="#000000" font-family="sans-serif" font-size="11" lengthAdjust="spacingAndGlyphs" textLength="187" x="191" y="1424.9995">ComputeCalibrationCoefficients()</text><ellipse cx="182" cy="1434.5938" fill="#84BE84" rx="3" ry="3" style="stroke: #038048; stroke-width: 1.0;"/><text fill="#000000" font-family="sans-serif" font-size="11" lengthAdjust="spacingAndGlyphs" textLength="97" x="191" y="1437.8042">StartAcquisition()</text><ellipse cx="182" cy="1447.3984" fill="#84BE84" rx="3" ry="3" style="stroke: #038048; stroke-width: 1.0;"/><text fill="#000000" font-family="sans-serif" font-size="11" lengthAdjust="spacingAndGlyphs" textLength="93" x="191" y="1450.6089">SetTimeDelays()</text><ellipse cx="182" cy="1460.2031" fill="#84BE84" rx="3" ry="3" style="stroke: #038048; stroke-width: 1.0;"/><text fill="#000000" font-family="sans-serif" font-size="11" lengthAdjust="spacingAndGlyphs" textLength="101" x="191" y="1463.4136">SetCspRounding()</text><ellipse cx="182" cy="1473.0078" fill="#84BE84" rx="3" ry="3" style="stroke: #038048; stroke-width: 1.0;"/><text fill="#000000" font-family="sans-serif" font-size="11" lengthAdjust="spacingAndGlyphs" textLength="163" x="191" y="1476.2183">SetLmcIntegratedDownload()</text><ellipse cx="182" cy="1485.8125" fill="#84BE84" rx="3" ry="3" style="stroke: #038048; stroke-width: 1.0;"/><text fill="#000000" font-family="sans-serif" font-size="11" lengthAdjust="spacingAndGlyphs" textLength="163" x="191" y="1489.0229">SendRawDataSynchronised()</text><ellipse cx="182" cy="1498.6172" fill="#84BE84" rx="3" ry="3" style="stroke: #038048; stroke-width: 1.0;"/><text fill="#000000" font-family="sans-serif" font-size="11" lengthAdjust="spacingAndGlyphs" textLength="202" x="191" y="1501.8276">SendChannelisedDataNarrowband()</text><ellipse cx="182" cy="1511.4219" fill="#84BE84" rx="3" ry="3" style="stroke: #038048; stroke-width: 1.0;"/><text fill="#000000" font-family="sans-serif" font-size="11" lengthAdjust="spacingAndGlyphs" textLength="118" x="191" y="1514.6323">TweakTransceivers()</text><ellipse cx="182" cy="1524.2266" fill="#84BE84" rx="3" ry="3" style="stroke: #038048; stroke-width: 1.0;"/><text fill="#000000" font-family="sans-serif" font-size="11" lengthAdjust="spacingAndGlyphs" textLength="124" x="191" y="1527.437">PostSynchronisation()</text><ellipse cx="182" cy="1537.0313" fill="#84BE84" rx="3" ry="3" style="stroke: #038048; stroke-width: 1.0;"/><text fill="#000000" font-family="sans-serif" font-size="11" lengthAdjust="spacingAndGlyphs" textLength="69" x="191" y="1540.2417">SyncFpgas()</text><ellipse cx="182" cy="1549.8359" fill="#84BE84" rx="3" ry="3" style="stroke: #038048; stroke-width: 1.0;"/><text fill="#000000" font-family="sans-serif" font-size="11" lengthAdjust="spacingAndGlyphs" textLength="91" x="191" y="1553.0464">CalculateDelay()</text><!--MD5=[4b247cd441d6776975beb1666a0cb733]
class SKABaseDevice--><rect fill="#FEFECE" filter="url(#fxpxtnhcx6ei0)" height="48" id="SKABaseDevice" style="stroke: #A80036; stroke-width: 1.5;" width="127" x="221.5" y="104"/><ellipse cx="236.5" cy="120" fill="#ADD1B2" rx="11" ry="11" style="stroke: #A80036; stroke-width: 1.0;"/><path d="M239.4688,125.6406 Q238.8906,125.9375 238.25,126.0781 Q237.6094,126.2344 236.9063,126.2344 Q234.4063,126.2344 233.0781,124.5938 Q231.7656,122.9375 231.7656,119.8125 Q231.7656,116.6875 233.0781,115.0313 Q234.4063,113.375 236.9063,113.375 Q237.6094,113.375 238.25,113.5313 Q238.9063,113.6875 239.4688,113.9844 L239.4688,116.7031 Q238.8438,116.125 238.25,115.8594 Q237.6563,115.5781 237.0313,115.5781 Q235.6875,115.5781 235,116.6563 Q234.3125,117.7188 234.3125,119.8125 Q234.3125,121.9063 235,122.9844 Q235.6875,124.0469 237.0313,124.0469 Q237.6563,124.0469 238.25,123.7813 Q238.8438,123.5 239.4688,122.9219 L239.4688,125.6406 Z "/><text fill="#000000" font-family="sans-serif" font-size="12" lengthAdjust="spacingAndGlyphs" textLength="95" x="250.5" y="124.1543">SKABaseDevice</text><line style="stroke: #A80036; stroke-width: 1.5;" x1="222.5" x2="347.5" y1="136" y2="136"/><line style="stroke: #A80036; stroke-width: 1.5;" x1="222.5" x2="347.5" y1="144" y2="144"/><!--MD5=[68aef7ab3dc128146ef3dd8286b49ef9]
reverse link SKABaseDevice to MccsTile--><path d="M285,172.2733 C285,204.432 285,252.0129 285,307.967 " fill="none" id="SKABaseDevice&lt;-MccsTile" style="stroke: #A80036; stroke-width: 1.0;"/><polygon fill="none" points="278.0001,172.122,285,152.122,292.0001,172.1219,278.0001,172.122" style="stroke: #A80036; stroke-width: 1.0;"/><!--MD5=[1a78762635d7c1bca9d65ce37a52af03]
@startuml
class TilePowerManager
TilePowerManager : +__init__()
TilePowerManager : +connect()
TilePowerManager : +off()
TilePowerManager : +on()
TilePowerManager : +power_mode()
TilePowerManager : -_subrack_power_changed()
TilePowerManager : -_read_power_mode()
TilePowerManager : -_update_power_mode()
class MccsTile
MccsTile : +init_device()
MccsTile : +__init__()
MccsTile : +do()
MccsTile : -_initialise_connections()
MccsTile : -_initialise_health_monitoring()
MccsTile : -_initialise_power_management()
MccsTile : +interrupt()
MccsTile : +succeeded()
MccsTile : +On()
MccsTile : +always_executed_hook()
MccsTile : +delete_device()
MccsTile : +health_changed()
MccsTile : +power_changed()
MccsTile : +logicalTileId()
MccsTile : +subarrayId()
MccsTile : +stationId()
MccsTile : +cspDestinationIp()
MccsTile : +cspDestinationMac()
MccsTile : +cspDestinationPort()
MccsTile : +firmwareName()
MccsTile : +firmwareVersion()
MccsTile : +voltage()
MccsTile : +current()
MccsTile : +isProgrammed()
MccsTile : +board_temperature()
MccsTile : +fpga1_temperature()
MccsTile : +fpga2_temperature()
MccsTile : +fpga1_time()
MccsTile : +fpga2_time()
MccsTile : +antennaIds()
MccsTile : +fortyGbDestinationIps()
MccsTile : +fortyGbDestinationMacs()
MccsTile : +fortyGbDestinationPorts()
MccsTile : +adcPower()
MccsTile : +currentTileBeamformerFrame()
MccsTile : +checkPendingDataRequests()
MccsTile : +isBeamformerRunning()
MccsTile : +phaseTerminalCount()
MccsTile : +ppsDelay()
MccsTile : +simulationMode()
MccsTile : +testMode()
MccsTile : +init_command_objects()
MccsTile : +Initialise()
MccsTile : +GetFirmwareAvailable()
MccsTile : +DownloadFirmware()
MccsTile : +ProgramCPLD()
MccsTile : +GetRegisterList()
MccsTile : +ReadRegister()
MccsTile : +WriteRegister()
MccsTile : +ReadAddress()
MccsTile : +WriteAddress()
MccsTile : +Configure40GCore()
MccsTile : +Get40GCoreConfiguration()
MccsTile : +SetLmcDownload()
MccsTile : +SetChanneliserTruncation()
MccsTile : +SetBeamFormerRegions()
MccsTile : +ConfigureStationBeamformer()
MccsTile : +LoadCalibrationCoefficients()
MccsTile : +LoadCalibrationCurve()
MccsTile : +LoadBeamAngle()
MccsTile : +LoadAntennaTapering()
MccsTile : +SwitchCalibrationBank()
MccsTile : +SetPointingDelay()
MccsTile : +LoadPointingDelay()
MccsTile : +StartBeamformer()
MccsTile : +StopBeamformer()
MccsTile : +ConfigureIntegratedChannelData()
MccsTile : +ConfigureIntegratedBeamData()
MccsTile : +SendRawData()
MccsTile : +SendChannelisedData()
MccsTile : +SendChannelisedDataContinuous()
MccsTile : +SendBeamData()
MccsTile : +StopDataTransmission()
MccsTile : +ComputeCalibrationCoefficients()
MccsTile : +StartAcquisition()
MccsTile : +SetTimeDelays()
MccsTile : +SetCspRounding()
MccsTile : +SetLmcIntegratedDownload()
MccsTile : +SendRawDataSynchronised()
MccsTile : +SendChannelisedDataNarrowband()
MccsTile : +TweakTransceivers()
MccsTile : +PostSynchronisation()
MccsTile : +SyncFpgas()
MccsTile : +CalculateDelay()
TilePowerManager : -_subrack_fqdn
TilePowerManager : -_subrack
TilePowerManager : -_subrack_bay
TilePowerManager : -_logger
TilePowerManager : -_callback
TilePowerManager : -_power_mode
TilePowerManager : +subrack_event_handler
MccsTile : -_thread
MccsTile : -_lock
MccsTile : -_interrupt
MccsTile : -_health_state
MccsTile : -_subarray_id
MccsTile : -_csp_destination_ip
MccsTile : -_csp_destination_mac
MccsTile : -_csp_destination_port
MccsTile : -_antenna_ids
MccsTile : -_antennas_per_tile

SKABaseDevice <|- - MccsTile
@enduml

PlantUML version 1.2020.06(Sun Apr 05 12:38:32 GMT 2020)
(GPL source distribution)
Java Runtime: OpenJDK Runtime Environment
JVM: OpenJDK 64-Bit Server VM
Java Version: 14-ea+33
Operating System: Linux
Default Encoding: UTF-8
Language: en
Country: US
--></g></svg>