<?xml version="1.0" encoding="UTF-8" standalone="no"?><svg xmlns="http://www.w3.org/2000/svg" xmlns:xlink="http://www.w3.org/1999/xlink" contentScriptType="application/ecmascript" contentStyleType="text/css" height="1623px" preserveAspectRatio="none" style="width:414px;height:1623px;" version="1.1" viewBox="0 0 414 1623" width="414px" zoomAndPan="magnify"><defs><filter height="300%" id="f18nylmes7haz5" width="300%" x="-1" y="-1"><feGaussianBlur result="blurOut" stdDeviation="2.0"/><feColorMatrix in="blurOut" result="blurOut2" type="matrix" values="0 0 0 0 0 0 0 0 0 0 0 0 0 0 0 0 0 0 .4 0"/><feOffset dx="4.0" dy="4.0" in="blurOut2" result="blurOut3"/><feBlend in="SourceGraphic" in2="blurOut3" mode="normal"/></filter></defs><g><!--MD5=[f97b46c9be342f9e4c905d6454e9e988]
class TilePowerManager--><rect codeLine="1" fill="#FEFECE" filter="url(#f18nylmes7haz5)" height="240.0703" id="TilePowerManager" style="stroke:#A80036;stroke-width:1.5;" width="180" x="7" y="7"/><ellipse cx="37.3" cy="23" fill="#ADD1B2" rx="11" ry="11" style="stroke:#A80036;stroke-width:1.0;"/><path d="M40.2688,28.6406 Q39.6906,28.9375 39.05,29.0781 Q38.4094,29.2344 37.7063,29.2344 Q35.2063,29.2344 33.8781,27.5938 Q32.5656,25.9375 32.5656,22.8125 Q32.5656,19.6875 33.8781,18.0313 Q35.2063,16.375 37.7063,16.375 Q38.4094,16.375 39.05,16.5313 Q39.7063,16.6875 40.2688,16.9844 L40.2688,19.7031 Q39.6438,19.125 39.05,18.8594 Q38.4563,18.5781 37.8313,18.5781 Q36.4875,18.5781 35.8,19.6563 Q35.1125,20.7188 35.1125,22.8125 Q35.1125,24.9063 35.8,25.9844 Q36.4875,27.0469 37.8313,27.0469 Q38.4563,27.0469 39.05,26.7813 Q39.6438,26.5 40.2688,25.9219 L40.2688,28.6406 Z " fill="#000000"/><text fill="#000000" font-family="sans-serif" font-size="12" lengthAdjust="spacingAndGlyphs" textLength="114" x="54.7" y="27.1543">TilePowerManager</text><line style="stroke:#A80036;stroke-width:1.5;" x1="8" x2="186" y1="39" y2="39"/><rect fill="none" height="6" style="stroke:#C82930;stroke-width:1.0;" width="6" x="15" y="47"/><text fill="#000000" font-family="sans-serif" font-size="11" lengthAdjust="spacingAndGlyphs" textLength="51" x="27" y="53.2104">_callback</text><rect fill="none" height="6" style="stroke:#C82930;stroke-width:1.0;" width="6" x="15" y="59.8047"/><text fill="#000000" font-family="sans-serif" font-size="11" lengthAdjust="spacingAndGlyphs" textLength="42" x="27" y="66.0151">_logger</text><rect fill="none" height="6" style="stroke:#C82930;stroke-width:1.0;" width="6" x="15" y="72.6094"/><text fill="#000000" font-family="sans-serif" font-size="11" lengthAdjust="spacingAndGlyphs" textLength="79" x="27" y="78.8198">_power_mode</text><rect fill="none" height="6" style="stroke:#C82930;stroke-width:1.0;" width="6" x="15" y="85.4141"/><text fill="#000000" font-family="sans-serif" font-size="11" lengthAdjust="spacingAndGlyphs" textLength="51" x="27" y="91.6245">_subrack</text><rect fill="none" height="6" style="stroke:#C82930;stroke-width:1.0;" width="6" x="15" y="98.2188"/><text fill="#000000" font-family="sans-serif" font-size="11" lengthAdjust="spacingAndGlyphs" textLength="77" x="27" y="104.4292">_subrack_bay</text><rect fill="none" height="6" style="stroke:#C82930;stroke-width:1.0;" width="6" x="15" y="111.0234"/><text fill="#000000" font-family="sans-serif" font-size="11" lengthAdjust="spacingAndGlyphs" textLength="82" x="27" y="117.2339">_subrack_fqdn</text><ellipse cx="18" cy="126.8281" fill="none" rx="3" ry="3" style="stroke:#038048;stroke-width:1.0;"/><text fill="#000000" font-family="sans-serif" font-size="11" lengthAdjust="spacingAndGlyphs" textLength="131" x="27" y="130.0386">subrack_event_handler</text><line style="stroke:#A80036;stroke-width:1.5;" x1="8" x2="186" y1="136.6328" y2="136.6328"/><ellipse cx="18" cy="147.6328" fill="#84BE84" rx="3" ry="3" style="stroke:#038048;stroke-width:1.0;"/><text fill="#000000" font-family="sans-serif" font-size="11" lengthAdjust="spacingAndGlyphs" textLength="49" x="27" y="150.8433">__init__()</text><ellipse cx="18" cy="160.4375" fill="#84BE84" rx="3" ry="3" style="stroke:#038048;stroke-width:1.0;"/><text fill="#000000" font-family="sans-serif" font-size="11" lengthAdjust="spacingAndGlyphs" textLength="52" x="27" y="163.6479">connect()</text><ellipse cx="18" cy="173.2422" fill="#84BE84" rx="3" ry="3" style="stroke:#038048;stroke-width:1.0;"/><text fill="#000000" font-family="sans-serif" font-size="11" lengthAdjust="spacingAndGlyphs" textLength="81" x="27" y="176.4526">power_mode()</text><ellipse cx="18" cy="186.0469" fill="#84BE84" rx="3" ry="3" style="stroke:#038048;stroke-width:1.0;"/><text fill="#000000" font-family="sans-serif" font-size="11" lengthAdjust="spacingAndGlyphs" textLength="23" x="27" y="189.2573">off()</text><ellipse cx="18" cy="198.8516" fill="#84BE84" rx="3" ry="3" style="stroke:#038048;stroke-width:1.0;"/><text fill="#000000" font-family="sans-serif" font-size="11" lengthAdjust="spacingAndGlyphs" textLength="22" x="27" y="202.062">on()</text><rect fill="#F24D5C" height="6" style="stroke:#C82930;stroke-width:1.0;" width="6" x="15" y="208.6563"/><text fill="#000000" font-family="sans-serif" font-size="11" lengthAdjust="spacingAndGlyphs" textLength="119" x="27" y="214.8667">_read_power_mode()</text><rect fill="#F24D5C" height="6" style="stroke:#C82930;stroke-width:1.0;" width="6" x="15" y="221.4609"/><text fill="#000000" font-family="sans-serif" font-size="11" lengthAdjust="spacingAndGlyphs" textLength="154" x="27" y="227.6714">_subrack_power_changed()</text><rect fill="#F24D5C" height="6" style="stroke:#C82930;stroke-width:1.0;" width="6" x="15" y="234.2656"/><text fill="#000000" font-family="sans-serif" font-size="11" lengthAdjust="spacingAndGlyphs" textLength="132" x="27" y="240.4761">_update_power_mode()</text><!--MD5=[13dba1b3ff2002153b8767a0fa8f9d06]
class MccsTile--><rect codeLine="19" fill="#FEFECE" filter="url(#f18nylmes7haz5)" height="1302.8594" id="MccsTile" style="stroke:#A80036;stroke-width:1.5;" width="228" x="172" y="307"/><ellipse cx="255.75" cy="323" fill="#ADD1B2" rx="11" ry="11" style="stroke:#A80036;stroke-width:1.0;"/><path d="M258.7188,328.6406 Q258.1406,328.9375 257.5,329.0781 Q256.8594,329.2344 256.1563,329.2344 Q253.6563,329.2344 252.3281,327.5938 Q251.0156,325.9375 251.0156,322.8125 Q251.0156,319.6875 252.3281,318.0313 Q253.6563,316.375 256.1563,316.375 Q256.8594,316.375 257.5,316.5313 Q258.1563,316.6875 258.7188,316.9844 L258.7188,319.7031 Q258.0938,319.125 257.5,318.8594 Q256.9063,318.5781 256.2813,318.5781 Q254.9375,318.5781 254.25,319.6563 Q253.5625,320.7188 253.5625,322.8125 Q253.5625,324.9063 254.25,325.9844 Q254.9375,327.0469 256.2813,327.0469 Q256.9063,327.0469 257.5,326.7813 Q258.0938,326.5 258.7188,325.9219 L258.7188,328.6406 Z " fill="#000000"/><text fill="#000000" font-family="sans-serif" font-size="12" lengthAdjust="spacingAndGlyphs" textLength="52" x="276.25" y="327.1543">MccsTile</text><line style="stroke:#A80036;stroke-width:1.5;" x1="173" x2="399" y1="339" y2="339"/><rect fill="none" height="6" style="stroke:#C82930;stroke-width:1.0;" width="6" x="180" y="347"/><text fill="#000000" font-family="sans-serif" font-size="11" lengthAdjust="spacingAndGlyphs" textLength="75" x="192" y="353.2104">_antenna_ids</text><rect fill="none" height="6" style="stroke:#C82930;stroke-width:1.0;" width="6" x="180" y="359.8047"/><text fill="#000000" font-family="sans-serif" font-size="11" lengthAdjust="spacingAndGlyphs" textLength="111" x="192" y="366.0151">_csp_destination_ip</text><rect fill="none" height="6" style="stroke:#C82930;stroke-width:1.0;" width="6" x="180" y="372.6094"/><text fill="#000000" font-family="sans-serif" font-size="11" lengthAdjust="spacingAndGlyphs" textLength="125" x="192" y="378.8198">_csp_destination_mac</text><rect fill="none" height="6" style="stroke:#C82930;stroke-width:1.0;" width="6" x="180" y="385.4141"/><text fill="#000000" font-family="sans-serif" font-size="11" lengthAdjust="spacingAndGlyphs" textLength="124" x="192" y="391.6245">_csp_destination_port</text><rect fill="none" height="6" style="stroke:#C82930;stroke-width:1.0;" width="6" x="180" y="398.2188"/><text fill="#000000" font-family="sans-serif" font-size="11" lengthAdjust="spacingAndGlyphs" textLength="76" x="192" y="404.4292">_health_state</text><rect fill="none" height="6" style="stroke:#C82930;stroke-width:1.0;" width="6" x="180" y="411.0234"/><text fill="#000000" font-family="sans-serif" font-size="11" lengthAdjust="spacingAndGlyphs" textLength="73" x="192" y="417.2339">_subarray_id</text><ellipse cx="183" cy="426.8281" fill="none" rx="3" ry="3" style="stroke:#038048;stroke-width:1.0;"/><text fill="#000000" font-family="sans-serif" font-size="11" lengthAdjust="spacingAndGlyphs" textLength="111" x="192" y="430.0386">hardware_manager</text><ellipse cx="183" cy="439.6328" fill="none" rx="3" ry="3" style="stroke:#038048;stroke-width:1.0;"/><text fill="#000000" font-family="sans-serif" font-size="11" lengthAdjust="spacingAndGlyphs" textLength="92" x="192" y="442.8433">AntennasPerTile</text><ellipse cx="183" cy="452.4375" fill="none" rx="3" ry="3" style="stroke:#038048;stroke-width:1.0;"/><text fill="#000000" font-family="sans-serif" font-size="11" lengthAdjust="spacingAndGlyphs" textLength="67" x="192" y="455.6479">SubrackBay</text><ellipse cx="183" cy="465.2422" fill="none" rx="3" ry="3" style="stroke:#038048;stroke-width:1.0;"/><text fill="#000000" font-family="sans-serif" font-size="11" lengthAdjust="spacingAndGlyphs" textLength="77" x="192" y="468.4526">SubrackFQDN</text><ellipse cx="183" cy="478.0469" fill="none" rx="3" ry="3" style="stroke:#038048;stroke-width:1.0;"/><text fill="#000000" font-family="sans-serif" font-size="11" lengthAdjust="spacingAndGlyphs" textLength="116" x="192" y="481.2573">TestGeneratorActive</text><ellipse cx="183" cy="490.8516" fill="none" rx="3" ry="3" style="stroke:#038048;stroke-width:1.0;"/><text fill="#000000" font-family="sans-serif" font-size="11" lengthAdjust="spacingAndGlyphs" textLength="30" x="192" y="494.062">TileId</text><ellipse cx="183" cy="503.6563" fill="none" rx="3" ry="3" style="stroke:#038048;stroke-width:1.0;"/><text fill="#000000" font-family="sans-serif" font-size="11" lengthAdjust="spacingAndGlyphs" textLength="73" x="192" y="506.8667">TpmCpldPort</text><ellipse cx="183" cy="516.4609" fill="none" rx="3" ry="3" style="stroke:#038048;stroke-width:1.0;"/><text fill="#000000" font-family="sans-serif" font-size="11" lengthAdjust="spacingAndGlyphs" textLength="35" x="192" y="519.6714">TpmIp</text><ellipse cx="183" cy="529.2656" fill="none" rx="3" ry="3" style="stroke:#038048;stroke-width:1.0;"/><text fill="#000000" font-family="sans-serif" font-size="11" lengthAdjust="spacingAndGlyphs" textLength="68" x="192" y="532.4761">TpmVersion</text><line style="stroke:#A80036;stroke-width:1.5;" x1="173" x2="399" y1="539.0703" y2="539.0703"/><ellipse cx="183" cy="550.0703" fill="#84BE84" rx="3" ry="3" style="stroke:#038048;stroke-width:1.0;"/><text fill="#000000" font-family="sans-serif" font-size="11" lengthAdjust="spacingAndGlyphs" textLength="91" x="192" y="553.2808">CalculateDelay()</text><ellipse cx="183" cy="562.875" fill="#84BE84" rx="3" ry="3" style="stroke:#038048;stroke-width:1.0;"/><text fill="#000000" font-family="sans-serif" font-size="11" lengthAdjust="spacingAndGlyphs" textLength="78" x="192" y="566.0854">GetArpTable()</text><ellipse cx="183" cy="575.6797" fill="#84BE84" rx="3" ry="3" style="stroke:#038048;stroke-width:1.0;"/><text fill="#000000" font-family="sans-serif" font-size="11" lengthAdjust="spacingAndGlyphs" textLength="187" x="192" y="578.8901">ComputeCalibrationCoefficients()</text><ellipse cx="183" cy="588.4844" fill="#84BE84" rx="3" ry="3" style="stroke:#038048;stroke-width:1.0;"/><text fill="#000000" font-family="sans-serif" font-size="11" lengthAdjust="spacingAndGlyphs" textLength="113" x="192" y="591.6948">Configure40GCore()</text><ellipse cx="183" cy="601.2891" fill="#84BE84" rx="3" ry="3" style="stroke:#038048;stroke-width:1.0;"/><text fill="#000000" font-family="sans-serif" font-size="11" lengthAdjust="spacingAndGlyphs" textLength="180" x="192" y="604.4995">ConfigureIntegratedBeamData()</text><ellipse cx="183" cy="614.0938" fill="#84BE84" rx="3" ry="3" style="stroke:#038048;stroke-width:1.0;"/><text fill="#000000" font-family="sans-serif" font-size="11" lengthAdjust="spacingAndGlyphs" textLength="193" x="192" y="617.3042">ConfigureIntegratedChannelData()</text><ellipse cx="183" cy="626.8984" fill="#84BE84" rx="3" ry="3" style="stroke:#038048;stroke-width:1.0;"/><text fill="#000000" font-family="sans-serif" font-size="11" lengthAdjust="spacingAndGlyphs" textLength="175" x="192" y="630.1089">ConfigureStationBeamformer()</text><ellipse cx="183" cy="639.7031" fill="#84BE84" rx="3" ry="3" style="stroke:#038048;stroke-width:1.0;"/><text fill="#000000" font-family="sans-serif" font-size="11" lengthAdjust="spacingAndGlyphs" textLength="146" x="192" y="642.9136">ConfigureTestGenerator()</text><ellipse cx="183" cy="652.5078" fill="#84BE84" rx="3" ry="3" style="stroke:#038048;stroke-width:1.0;"/><text fill="#000000" font-family="sans-serif" font-size="11" lengthAdjust="spacingAndGlyphs" textLength="116" x="192" y="655.7183">DownloadFirmware()</text><ellipse cx="183" cy="665.3125" fill="#84BE84" rx="3" ry="3" style="stroke:#038048;stroke-width:1.0;"/><text fill="#000000" font-family="sans-serif" font-size="11" lengthAdjust="spacingAndGlyphs" textLength="154" x="192" y="668.5229">Get40GCoreConfiguration()</text><ellipse cx="183" cy="678.1172" fill="#84BE84" rx="3" ry="3" style="stroke:#038048;stroke-width:1.0;"/><text fill="#000000" font-family="sans-serif" font-size="11" lengthAdjust="spacingAndGlyphs" textLength="131" x="192" y="681.3276">GetFirmwareAvailable()</text><ellipse cx="183" cy="690.9219" fill="#84BE84" rx="3" ry="3" style="stroke:#038048;stroke-width:1.0;"/><text fill="#000000" font-family="sans-serif" font-size="11" lengthAdjust="spacingAndGlyphs" textLength="95" x="192" y="694.1323">GetRegisterList()</text><ellipse cx="183" cy="703.7266" fill="#84BE84" rx="3" ry="3" style="stroke:#038048;stroke-width:1.0;"/><text fill="#000000" font-family="sans-serif" font-size="11" lengthAdjust="spacingAndGlyphs" textLength="55" x="192" y="706.937">Initialise()</text><ellipse cx="183" cy="716.5313" fill="#84BE84" rx="3" ry="3" style="stroke:#038048;stroke-width:1.0;"/><text fill="#000000" font-family="sans-serif" font-size="11" lengthAdjust="spacingAndGlyphs" textLength="131" x="192" y="719.7417">LoadAntennaTapering()</text><ellipse cx="183" cy="729.3359" fill="#84BE84" rx="3" ry="3" style="stroke:#038048;stroke-width:1.0;"/><text fill="#000000" font-family="sans-serif" font-size="11" lengthAdjust="spacingAndGlyphs" textLength="99" x="192" y="732.5464">LoadBeamAngle()</text><ellipse cx="183" cy="742.1406" fill="#84BE84" rx="3" ry="3" style="stroke:#038048;stroke-width:1.0;"/><text fill="#000000" font-family="sans-serif" font-size="11" lengthAdjust="spacingAndGlyphs" textLength="163" x="192" y="745.3511">LoadCalibrationCoefficients()</text><ellipse cx="183" cy="754.9453" fill="#84BE84" rx="3" ry="3" style="stroke:#038048;stroke-width:1.0;"/><text fill="#000000" font-family="sans-serif" font-size="11" lengthAdjust="spacingAndGlyphs" textLength="129" x="192" y="758.1558">LoadCalibrationCurve()</text><ellipse cx="183" cy="767.75" fill="#84BE84" rx="3" ry="3" style="stroke:#038048;stroke-width:1.0;"/><text fill="#000000" font-family="sans-serif" font-size="11" lengthAdjust="spacingAndGlyphs" textLength="111" x="192" y="770.9604">LoadPointingDelay()</text><ellipse cx="183" cy="780.5547" fill="#84BE84" rx="3" ry="3" style="stroke:#038048;stroke-width:1.0;"/><text fill="#000000" font-family="sans-serif" font-size="11" lengthAdjust="spacingAndGlyphs" textLength="24" x="192" y="783.7651">On()</text><ellipse cx="183" cy="793.3594" fill="#84BE84" rx="3" ry="3" style="stroke:#038048;stroke-width:1.0;"/><text fill="#000000" font-family="sans-serif" font-size="11" lengthAdjust="spacingAndGlyphs" textLength="124" x="192" y="796.5698">PostSynchronisation()</text><ellipse cx="183" cy="806.1641" fill="#84BE84" rx="3" ry="3" style="stroke:#038048;stroke-width:1.0;"/><text fill="#000000" font-family="sans-serif" font-size="11" lengthAdjust="spacingAndGlyphs" textLength="86" x="192" y="809.3745">ProgramCPLD()</text><ellipse cx="183" cy="818.9688" fill="#84BE84" rx="3" ry="3" style="stroke:#038048;stroke-width:1.0;"/><text fill="#000000" font-family="sans-serif" font-size="11" lengthAdjust="spacingAndGlyphs" textLength="83" x="192" y="822.1792">ReadAddress()</text><ellipse cx="183" cy="831.7734" fill="#84BE84" rx="3" ry="3" style="stroke:#038048;stroke-width:1.0;"/><text fill="#000000" font-family="sans-serif" font-size="11" lengthAdjust="spacingAndGlyphs" textLength="83" x="192" y="834.9839">ReadRegister()</text><ellipse cx="183" cy="844.5781" fill="#84BE84" rx="3" ry="3" style="stroke:#038048;stroke-width:1.0;"/><text fill="#000000" font-family="sans-serif" font-size="11" lengthAdjust="spacingAndGlyphs" textLength="96" x="192" y="847.7886">SendBeamData()</text><ellipse cx="183" cy="857.3828" fill="#84BE84" rx="3" ry="3" style="stroke:#038048;stroke-width:1.0;"/><text fill="#000000" font-family="sans-serif" font-size="11" lengthAdjust="spacingAndGlyphs" textLength="133" x="192" y="860.5933">SendChannelisedData()</text><ellipse cx="183" cy="870.1875" fill="#84BE84" rx="3" ry="3" style="stroke:#038048;stroke-width:1.0;"/><text fill="#000000" font-family="sans-serif" font-size="11" lengthAdjust="spacingAndGlyphs" textLength="197" x="192" y="873.3979">SendChannelisedDataContinuous()</text><ellipse cx="183" cy="882.9922" fill="#84BE84" rx="3" ry="3" style="stroke:#038048;stroke-width:1.0;"/><text fill="#000000" font-family="sans-serif" font-size="11" lengthAdjust="spacingAndGlyphs" textLength="202" x="192" y="886.2026">SendChannelisedDataNarrowband()</text><ellipse cx="183" cy="895.7969" fill="#84BE84" rx="3" ry="3" style="stroke:#038048;stroke-width:1.0;"/><text fill="#000000" font-family="sans-serif" font-size="11" lengthAdjust="spacingAndGlyphs" textLength="86" x="192" y="899.0073">SendRawData()</text><ellipse cx="183" cy="908.6016" fill="#84BE84" rx="3" ry="3" style="stroke:#038048;stroke-width:1.0;"/><text fill="#000000" font-family="sans-serif" font-size="11" lengthAdjust="spacingAndGlyphs" textLength="163" x="192" y="911.812">SendRawDataSynchronised()</text><ellipse cx="183" cy="921.4063" fill="#84BE84" rx="3" ry="3" style="stroke:#038048;stroke-width:1.0;"/><text fill="#000000" font-family="sans-serif" font-size="11" lengthAdjust="spacingAndGlyphs" textLength="146" x="192" y="924.6167">SetBeamFormerRegions()</text><ellipse cx="183" cy="934.2109" fill="#84BE84" rx="3" ry="3" style="stroke:#038048;stroke-width:1.0;"/><text fill="#000000" font-family="sans-serif" font-size="11" lengthAdjust="spacingAndGlyphs" textLength="155" x="192" y="937.4214">SetChanneliserTruncation()</text><ellipse cx="183" cy="947.0156" fill="#84BE84" rx="3" ry="3" style="stroke:#038048;stroke-width:1.0;"/><text fill="#000000" font-family="sans-serif" font-size="11" lengthAdjust="spacingAndGlyphs" textLength="101" x="192" y="950.2261">SetCspRounding()</text><ellipse cx="183" cy="959.8203" fill="#84BE84" rx="3" ry="3" style="stroke:#038048;stroke-width:1.0;"/><text fill="#000000" font-family="sans-serif" font-size="11" lengthAdjust="spacingAndGlyphs" textLength="105" x="192" y="963.0308">SetLmcDownload()</text><ellipse cx="183" cy="972.625" fill="#84BE84" rx="3" ry="3" style="stroke:#038048;stroke-width:1.0;"/><text fill="#000000" font-family="sans-serif" font-size="11" lengthAdjust="spacingAndGlyphs" textLength="163" x="192" y="975.8354">SetLmcIntegratedDownload()</text><ellipse cx="183" cy="985.4297" fill="#84BE84" rx="3" ry="3" style="stroke:#038048;stroke-width:1.0;"/><text fill="#000000" font-family="sans-serif" font-size="11" lengthAdjust="spacingAndGlyphs" textLength="103" x="192" y="988.6401">SetPointingDelay()</text><ellipse cx="183" cy="998.2344" fill="#84BE84" rx="3" ry="3" style="stroke:#038048;stroke-width:1.0;"/><text fill="#000000" font-family="sans-serif" font-size="11" lengthAdjust="spacingAndGlyphs" textLength="93" x="192" y="1001.4448">SetTimeDelays()</text><ellipse cx="183" cy="1011.0391" fill="#84BE84" rx="3" ry="3" style="stroke:#038048;stroke-width:1.0;"/><text fill="#000000" font-family="sans-serif" font-size="11" lengthAdjust="spacingAndGlyphs" textLength="97" x="192" y="1014.2495">StartAcquisition()</text><ellipse cx="183" cy="1023.8438" fill="#84BE84" rx="3" ry="3" style="stroke:#038048;stroke-width:1.0;"/><text fill="#000000" font-family="sans-serif" font-size="11" lengthAdjust="spacingAndGlyphs" textLength="108" x="192" y="1027.0542">StartBeamformer()</text><ellipse cx="183" cy="1036.6484" fill="#84BE84" rx="3" ry="3" style="stroke:#038048;stroke-width:1.0;"/><text fill="#000000" font-family="sans-serif" font-size="11" lengthAdjust="spacingAndGlyphs" textLength="106" x="192" y="1039.8589">StopBeamformer()</text><ellipse cx="183" cy="1049.4531" fill="#84BE84" rx="3" ry="3" style="stroke:#038048;stroke-width:1.0;"/><text fill="#000000" font-family="sans-serif" font-size="11" lengthAdjust="spacingAndGlyphs" textLength="138" x="192" y="1052.6636">StopDataTransmission()</text><ellipse cx="183" cy="1062.2578" fill="#84BE84" rx="3" ry="3" style="stroke:#038048;stroke-width:1.0;"/><text fill="#000000" font-family="sans-serif" font-size="11" lengthAdjust="spacingAndGlyphs" textLength="151" x="192" y="1065.4683">StopIntegratedBeamData()</text><ellipse cx="183" cy="1075.0625" fill="#84BE84" rx="3" ry="3" style="stroke:#038048;stroke-width:1.0;"/><text fill="#000000" font-family="sans-serif" font-size="11" lengthAdjust="spacingAndGlyphs" textLength="164" x="192" y="1078.2729">StopIntegratedChannelData()</text><ellipse cx="183" cy="1087.8672" fill="#84BE84" rx="3" ry="3" style="stroke:#038048;stroke-width:1.0;"/><text fill="#000000" font-family="sans-serif" font-size="11" lengthAdjust="spacingAndGlyphs" textLength="118" x="192" y="1091.0776">StopIntegratedData()</text><ellipse cx="183" cy="1100.6719" fill="#84BE84" rx="3" ry="3" style="stroke:#038048;stroke-width:1.0;"/><text fill="#000000" font-family="sans-serif" font-size="11" lengthAdjust="spacingAndGlyphs" textLength="134" x="192" y="1103.8823">SwitchCalibrationBank()</text><ellipse cx="183" cy="1113.4766" fill="#84BE84" rx="3" ry="3" style="stroke:#038048;stroke-width:1.0;"/><text fill="#000000" font-family="sans-serif" font-size="11" lengthAdjust="spacingAndGlyphs" textLength="69" x="192" y="1116.687">SyncFpgas()</text><ellipse cx="183" cy="1126.2813" fill="#84BE84" rx="3" ry="3" style="stroke:#038048;stroke-width:1.0;"/><text fill="#000000" font-family="sans-serif" font-size="11" lengthAdjust="spacingAndGlyphs" textLength="124" x="192" y="1129.4917">TestGeneratorActive()</text><ellipse cx="183" cy="1139.0859" fill="#84BE84" rx="3" ry="3" style="stroke:#038048;stroke-width:1.0;"/><text fill="#000000" font-family="sans-serif" font-size="11" lengthAdjust="spacingAndGlyphs" textLength="118" x="192" y="1142.2964">TweakTransceivers()</text><ellipse cx="183" cy="1151.8906" fill="#84BE84" rx="3" ry="3" style="stroke:#038048;stroke-width:1.0;"/><text fill="#000000" font-family="sans-serif" font-size="11" lengthAdjust="spacingAndGlyphs" textLength="83" x="192" y="1155.1011">WriteAddress()</text><ellipse cx="183" cy="1164.6953" fill="#84BE84" rx="3" ry="3" style="stroke:#038048;stroke-width:1.0;"/><text fill="#000000" font-family="sans-serif" font-size="11" lengthAdjust="spacingAndGlyphs" textLength="83" x="192" y="1167.9058">WriteRegister()</text><rect fill="#F24D5C" height="6" style="stroke:#C82930;stroke-width:1.0;" width="6" x="180" y="1174.5"/><text fill="#000000" font-family="sans-serif" font-size="11" lengthAdjust="spacingAndGlyphs" textLength="132" x="192" y="1180.7104">_update_admin_mode()</text><ellipse cx="183" cy="1190.3047" fill="#84BE84" rx="3" ry="3" style="stroke:#038048;stroke-width:1.0;"/><text fill="#000000" font-family="sans-serif" font-size="11" lengthAdjust="spacingAndGlyphs" textLength="63" x="192" y="1193.5151">adcPower()</text><ellipse cx="183" cy="1203.1094" fill="#84BE84" rx="3" ry="3" style="stroke:#038048;stroke-width:1.0;"/><text fill="#000000" font-family="sans-serif" font-size="11" lengthAdjust="spacingAndGlyphs" textLength="137" x="192" y="1206.3198">always_executed_hook()</text><ellipse cx="183" cy="1215.9141" fill="#84BE84" rx="3" ry="3" style="stroke:#038048;stroke-width:1.0;"/><text fill="#000000" font-family="sans-serif" font-size="11" lengthAdjust="spacingAndGlyphs" textLength="71" x="192" y="1219.1245">antennaIds()</text><ellipse cx="183" cy="1228.7188" fill="#84BE84" rx="3" ry="3" style="stroke:#038048;stroke-width:1.0;"/><text fill="#000000" font-family="sans-serif" font-size="11" lengthAdjust="spacingAndGlyphs" textLength="118" x="192" y="1231.9292">board_temperature()</text><ellipse cx="183" cy="1241.5234" fill="#84BE84" rx="3" ry="3" style="stroke:#038048;stroke-width:1.0;"/><text fill="#000000" font-family="sans-serif" font-size="11" lengthAdjust="spacingAndGlyphs" textLength="164" x="192" y="1244.7339">checkPendingDataRequests()</text><ellipse cx="183" cy="1254.3281" fill="#84BE84" rx="3" ry="3" style="stroke:#038048;stroke-width:1.0;"/><text fill="#000000" font-family="sans-serif" font-size="11" lengthAdjust="spacingAndGlyphs" textLength="102" x="192" y="1257.5386">cspDestinationIp()</text><ellipse cx="183" cy="1267.1328" fill="#84BE84" rx="3" ry="3" style="stroke:#038048;stroke-width:1.0;"/><text fill="#000000" font-family="sans-serif" font-size="11" lengthAdjust="spacingAndGlyphs" textLength="114" x="192" y="1270.3433">cspDestinationMac()</text><ellipse cx="183" cy="1279.9375" fill="#84BE84" rx="3" ry="3" style="stroke:#038048;stroke-width:1.0;"/><text fill="#000000" font-family="sans-serif" font-size="11" lengthAdjust="spacingAndGlyphs" textLength="115" x="192" y="1283.1479">cspDestinationPort()</text><ellipse cx="183" cy="1292.7422" fill="#84BE84" rx="3" ry="3" style="stroke:#038048;stroke-width:1.0;"/><text fill="#000000" font-family="sans-serif" font-size="11" lengthAdjust="spacingAndGlyphs" textLength="49" x="192" y="1295.9526">current()</text><ellipse cx="183" cy="1305.5469" fill="#84BE84" rx="3" ry="3" style="stroke:#038048;stroke-width:1.0;"/><text fill="#000000" font-family="sans-serif" font-size="11" lengthAdjust="spacingAndGlyphs" textLength="177" x="192" y="1308.7573">currentTileBeamformerFrame()</text><ellipse cx="183" cy="1318.3516" fill="#84BE84" rx="3" ry="3" style="stroke:#038048;stroke-width:1.0;"/><text fill="#000000" font-family="sans-serif" font-size="11" lengthAdjust="spacingAndGlyphs" textLength="85" x="192" y="1321.562">delete_device()</text><ellipse cx="183" cy="1331.1563" fill="#84BE84" rx="3" ry="3" style="stroke:#038048;stroke-width:1.0;"/><text fill="#000000" font-family="sans-serif" font-size="11" lengthAdjust="spacingAndGlyphs" textLength="92" x="192" y="1334.3667">firmwareName()</text><ellipse cx="183" cy="1343.9609" fill="#84BE84" rx="3" ry="3" style="stroke:#038048;stroke-width:1.0;"/><text fill="#000000" font-family="sans-serif" font-size="11" lengthAdjust="spacingAndGlyphs" textLength="102" x="192" y="1347.1714">firmwareVersion()</text><ellipse cx="183" cy="1356.7656" fill="#84BE84" rx="3" ry="3" style="stroke:#038048;stroke-width:1.0;"/><text fill="#000000" font-family="sans-serif" font-size="11" lengthAdjust="spacingAndGlyphs" textLength="131" x="192" y="1359.9761">fortyGbDestinationIps()</text><ellipse cx="183" cy="1369.5703" fill="#84BE84" rx="3" ry="3" style="stroke:#038048;stroke-width:1.0;"/><text fill="#000000" font-family="sans-serif" font-size="11" lengthAdjust="spacingAndGlyphs" textLength="144" x="192" y="1372.7808">fortyGbDestinationPorts()</text><ellipse cx="183" cy="1382.375" fill="#84BE84" rx="3" ry="3" style="stroke:#038048;stroke-width:1.0;"/><text fill="#000000" font-family="sans-serif" font-size="11" lengthAdjust="spacingAndGlyphs" textLength="117" x="192" y="1385.5854">fpga1_temperature()</text><ellipse cx="183" cy="1395.1797" fill="#84BE84" rx="3" ry="3" style="stroke:#038048;stroke-width:1.0;"/><text fill="#000000" font-family="sans-serif" font-size="11" lengthAdjust="spacingAndGlyphs" textLength="71" x="192" y="1398.3901">fpga1_time()</text><ellipse cx="183" cy="1407.9844" fill="#84BE84" rx="3" ry="3" style="stroke:#038048;stroke-width:1.0;"/><text fill="#000000" font-family="sans-serif" font-size="11" lengthAdjust="spacingAndGlyphs" textLength="117" x="192" y="1411.1948">fpga2_temperature()</text><ellipse cx="183" cy="1420.7891" fill="#84BE84" rx="3" ry="3" style="stroke:#038048;stroke-width:1.0;"/><text fill="#000000" font-family="sans-serif" font-size="11" lengthAdjust="spacingAndGlyphs" textLength="71" x="192" y="1423.9995">fpga2_time()</text><ellipse cx="183" cy="1433.5938" fill="#84BE84" rx="3" ry="3" style="stroke:#038048;stroke-width:1.0;"/><text fill="#000000" font-family="sans-serif" font-size="11" lengthAdjust="spacingAndGlyphs" textLength="97" x="192" y="1436.8042">health_changed()</text><ellipse cx="183" cy="1446.3984" fill="#84BE84" rx="3" ry="3" style="stroke:#038048;stroke-width:1.0;"/><text fill="#000000" font-family="sans-serif" font-size="11" lengthAdjust="spacingAndGlyphs" textLength="134" x="192" y="1449.6089">init_command_objects()</text><ellipse cx="183" cy="1459.2031" fill="#84BE84" rx="3" ry="3" style="stroke:#038048;stroke-width:1.0;"/><text fill="#000000" font-family="sans-serif" font-size="11" lengthAdjust="spacingAndGlyphs" textLength="67" x="192" y="1462.4136">init_device()</text><ellipse cx="183" cy="1472.0078" fill="#84BE84" rx="3" ry="3" style="stroke:#038048;stroke-width:1.0;"/><text fill="#000000" font-family="sans-serif" font-size="11" lengthAdjust="spacingAndGlyphs" textLength="135" x="192" y="1475.2183">isBeamformerRunning()</text><ellipse cx="183" cy="1484.8125" fill="#84BE84" rx="3" ry="3" style="stroke:#038048;stroke-width:1.0;"/><text fill="#000000" font-family="sans-serif" font-size="11" lengthAdjust="spacingAndGlyphs" textLength="92" x="192" y="1488.0229">isProgrammed()</text><ellipse cx="183" cy="1497.6172" fill="#84BE84" rx="3" ry="3" style="stroke:#038048;stroke-width:1.0;"/><text fill="#000000" font-family="sans-serif" font-size="11" lengthAdjust="spacingAndGlyphs" textLength="74" x="192" y="1500.8276">logicalTileId()</text><ellipse cx="183" cy="1510.4219" fill="#84BE84" rx="3" ry="3" style="stroke:#038048;stroke-width:1.0;"/><text fill="#000000" font-family="sans-serif" font-size="11" lengthAdjust="spacingAndGlyphs" textLength="126" x="192" y="1513.6323">phaseTerminalCount()</text><ellipse cx="183" cy="1523.2266" fill="#84BE84" rx="3" ry="3" style="stroke:#038048;stroke-width:1.0;"/><text fill="#000000" font-family="sans-serif" font-size="11" lengthAdjust="spacingAndGlyphs" textLength="97" x="192" y="1526.437">power_changed()</text><ellipse cx="183" cy="1536.0313" fill="#84BE84" rx="3" ry="3" style="stroke:#038048;stroke-width:1.0;"/><text fill="#000000" font-family="sans-serif" font-size="11" lengthAdjust="spacingAndGlyphs" textLength="60" x="192" y="1539.2417">ppsDelay()</text><ellipse cx="183" cy="1548.8359" fill="#84BE84" rx="3" ry="3" style="stroke:#038048;stroke-width:1.0;"/><text fill="#000000" font-family="sans-serif" font-size="11" lengthAdjust="spacingAndGlyphs" textLength="97" x="192" y="1552.0464">simulationMode()</text><ellipse cx="183" cy="1561.6406" fill="#84BE84" rx="3" ry="3" style="stroke:#038048;stroke-width:1.0;"/><text fill="#000000" font-family="sans-serif" font-size="11" lengthAdjust="spacingAndGlyphs" textLength="57" x="192" y="1564.8511">stationId()</text><ellipse cx="183" cy="1574.4453" fill="#84BE84" rx="3" ry="3" style="stroke:#038048;stroke-width:1.0;"/><text fill="#000000" font-family="sans-serif" font-size="11" lengthAdjust="spacingAndGlyphs" textLength="69" x="192" y="1577.6558">subarrayId()</text><ellipse cx="183" cy="1587.25" fill="#84BE84" rx="3" ry="3" style="stroke:#038048;stroke-width:1.0;"/><text fill="#000000" font-family="sans-serif" font-size="11" lengthAdjust="spacingAndGlyphs" textLength="60" x="192" y="1590.4604">testMode()</text><ellipse cx="183" cy="1600.0547" fill="#84BE84" rx="3" ry="3" style="stroke:#038048;stroke-width:1.0;"/><text fill="#000000" font-family="sans-serif" font-size="11" lengthAdjust="spacingAndGlyphs" textLength="49" x="192" y="1603.2651">voltage()</text><!--MD5=[4b247cd441d6776975beb1666a0cb733]
class SKABaseDevice--><rect codeLine="121" fill="#FEFECE" filter="url(#f18nylmes7haz5)" height="48" id="SKABaseDevice" style="stroke:#A80036;stroke-width:1.5;" width="127" x="222.5" y="103"/><ellipse cx="237.5" cy="119" fill="#ADD1B2" rx="11" ry="11" style="stroke:#A80036;stroke-width:1.0;"/><path d="M240.4688,124.6406 Q239.8906,124.9375 239.25,125.0781 Q238.6094,125.2344 237.9063,125.2344 Q235.4063,125.2344 234.0781,123.5938 Q232.7656,121.9375 232.7656,118.8125 Q232.7656,115.6875 234.0781,114.0313 Q235.4063,112.375 237.9063,112.375 Q238.6094,112.375 239.25,112.5313 Q239.9063,112.6875 240.4688,112.9844 L240.4688,115.7031 Q239.8438,115.125 239.25,114.8594 Q238.6563,114.5781 238.0313,114.5781 Q236.6875,114.5781 236,115.6563 Q235.3125,116.7188 235.3125,118.8125 Q235.3125,120.9063 236,121.9844 Q236.6875,123.0469 238.0313,123.0469 Q238.6563,123.0469 239.25,122.7813 Q239.8438,122.5 240.4688,121.9219 L240.4688,124.6406 Z " fill="#000000"/><text fill="#000000" font-family="sans-serif" font-size="12" lengthAdjust="spacingAndGlyphs" textLength="95" x="251.5" y="123.1543">SKABaseDevice</text><line style="stroke:#A80036;stroke-width:1.5;" x1="223.5" x2="348.5" y1="135" y2="135"/><line style="stroke:#A80036;stroke-width:1.5;" x1="223.5" x2="348.5" y1="143" y2="143"/><!--MD5=[68aef7ab3dc128146ef3dd8286b49ef9]
reverse link SKABaseDevice to MccsTile--><path codeLine="124" d="M286,171.5499 C286,203.6173 286,250.9582 286,306.7856 " fill="none" id="SKABaseDevice-backto-MccsTile" style="stroke:#A80036;stroke-width:1.0;"/><polygon fill="none" points="279.0001,171.4349,286,151.4349,293.0001,171.4349,279.0001,171.4349" style="stroke:#A80036;stroke-width:1.0;"/><!--MD5=[3d17679652e8c45dcf4a3f858a616ba6]
@startuml
class TilePowerManager {
  -_callback
  -_logger
  -_power_mode
  -_subrack
  -_subrack_bay
  -_subrack_fqdn  
  +subrack_event_handler
  +__init__()
  +connect()
  +power_mode()
  +off()
  +on()
  -_read_power_mode()
  -_subrack_power_changed()
  -_update_power_mode()
}

class MccsTile {
  
  -_antenna_ids
  -_csp_destination_ip
  -_csp_destination_mac
  -_csp_destination_port
  -_health_state
  -_subarray_id
  +hardware_manager
  +AntennasPerTile
  +SubrackBay
  +SubrackFQDN
  +TestGeneratorActive
  +TileId
  +TpmCpldPort
  +TpmIp
  +TpmVersion
  +CalculateDelay()
  +GetArpTable()
  +ComputeCalibrationCoefficients()
  +Configure40GCore()
  +ConfigureIntegratedBeamData()
  +ConfigureIntegratedChannelData()
  +ConfigureStationBeamformer()
  +ConfigureTestGenerator()
  +DownloadFirmware()
  +Get40GCoreConfiguration()
  +GetFirmwareAvailable()
  +GetRegisterList()
  +Initialise()
  +LoadAntennaTapering()
  +LoadBeamAngle()
  +LoadCalibrationCoefficients()
  +LoadCalibrationCurve()
  +LoadPointingDelay()
  +On()
  +PostSynchronisation()
  +ProgramCPLD()
  +ReadAddress()
  +ReadRegister()
  +SendBeamData()
  +SendChannelisedData()
  +SendChannelisedDataContinuous()
  +SendChannelisedDataNarrowband()
  +SendRawData()
  +SendRawDataSynchronised()
  +SetBeamFormerRegions()
  +SetChanneliserTruncation()
  +SetCspRounding()
  +SetLmcDownload()
  +SetLmcIntegratedDownload()
  +SetPointingDelay()
  +SetTimeDelays()
  +StartAcquisition()
  +StartBeamformer()
  +StopBeamformer()
  +StopDataTransmission()
  +StopIntegratedBeamData()
  +StopIntegratedChannelData()
  +StopIntegratedData()
  +SwitchCalibrationBank()
  +SyncFpgas()
  +TestGeneratorActive()
  +TweakTransceivers()
  +WriteAddress()
  +WriteRegister()
  -_update_admin_mode()
  +adcPower()
  +always_executed_hook()
  +antennaIds()
  +board_temperature()
  +checkPendingDataRequests()
  +cspDestinationIp()
  +cspDestinationMac()
  +cspDestinationPort()
  +current()
  +currentTileBeamformerFrame()
  +delete_device()
  +firmwareName()
  +firmwareVersion()
  +fortyGbDestinationIps()
  +fortyGbDestinationPorts()
  +fpga1_temperature()
  +fpga1_time()
  +fpga2_temperature()
  +fpga2_time()
  +health_changed()
  +init_command_objects()
  +init_device()
  +isBeamformerRunning()
  +isProgrammed()
  +logicalTileId()
  +phaseTerminalCount()
  +power_changed()
  +ppsDelay()
  +simulationMode()
  +stationId()
  +subarrayId()
  +testMode()
  +voltage()
}

class SKABaseDevice {
}

 SKABaseDevice <|- - MccsTile
@enduml

PlantUML version 1.2020.22(Sun Dec 06 09:36:27 UTC 2020)
(GPL source distribution)
Java Runtime: OpenJDK Runtime Environment
JVM: OpenJDK 64-Bit Server VM
Default Encoding: UTF-8
Language: en
Country: US
--></g></svg>