<?xml version="1.0" encoding="UTF-8" standalone="no"?><svg xmlns="http://www.w3.org/2000/svg" xmlns:xlink="http://www.w3.org/1999/xlink" contentScriptType="application/ecmascript" contentStyleType="text/css" height="623px" preserveAspectRatio="none" style="width:1084px;height:623px;" version="1.1" viewBox="0 0 1084 623" width="1084px" zoomAndPan="magnify"><defs><filter height="300%" id="fk79jkzk9txon" width="300%" x="-1" y="-1"><feGaussianBlur result="blurOut" stdDeviation="2.0"/><feColorMatrix in="blurOut" result="blurOut2" type="matrix" values="0 0 0 0 0 0 0 0 0 0 0 0 0 0 0 0 0 0 .4 0"/><feOffset dx="4.0" dy="4.0" in="blurOut2" result="blurOut3"/><feBlend in="SourceGraphic" in2="blurOut3" mode="normal"/></filter></defs><g><line style="stroke:#A80036;stroke-width:1.0;stroke-dasharray:5.0,5.0;" x1="60" x2="60" y1="72.8906" y2="547.2188"/><line style="stroke:#A80036;stroke-width:1.0;stroke-dasharray:5.0,5.0;" x1="171" x2="171" y1="72.8906" y2="547.2188"/><line style="stroke:#A80036;stroke-width:1.0;stroke-dasharray:5.0,5.0;" x1="415" x2="415" y1="72.8906" y2="547.2188"/><line style="stroke:#A80036;stroke-width:1.0;stroke-dasharray:5.0,5.0;" x1="510" x2="510" y1="72.8906" y2="547.2188"/><line style="stroke:#A80036;stroke-width:1.0;stroke-dasharray:5.0,5.0;" x1="798.5" x2="798.5" y1="72.8906" y2="547.2188"/><line style="stroke:#A80036;stroke-width:1.0;stroke-dasharray:5.0,5.0;" x1="1030" x2="1030" y1="72.8906" y2="547.2188"/><rect fill="#FEFECE" filter="url(#fk79jkzk9txon)" height="46.5938" style="stroke:#A80036;stroke-width:1.5;" width="107" x="5" y="21.2969"/><text fill="#000000" font-family="sans-serif" font-size="14" lengthAdjust="spacing" textLength="93" x="12" y="41.292">Construction</text><text fill="#000000" font-family="sans-serif" font-size="14" lengthAdjust="spacing" textLength="58" x="29.5" y="57.5889">Initiator</text><rect fill="#FEFECE" filter="url(#fk79jkzk9txon)" height="46.5938" style="stroke:#A80036;stroke-width:1.5;" width="107" x="5" y="546.2188"/><text fill="#000000" font-family="sans-serif" font-size="14" lengthAdjust="spacing" textLength="93" x="12" y="566.2139">Construction</text><text fill="#000000" font-family="sans-serif" font-size="14" lengthAdjust="spacing" textLength="58" x="29.5" y="582.5107">Initiator</text><rect fill="#FEFECE" filter="url(#fk79jkzk9txon)" height="62.8906" style="stroke:#A80036;stroke-width:1.5;" width="87" x="126" y="5"/><text fill="#000000" font-family="sans-serif" font-size="14" lengthAdjust="spacing" textLength="65" x="137" y="24.9951">Tile's Init</text><text fill="#000000" font-family="sans-serif" font-size="14" lengthAdjust="spacing" textLength="73" x="133" y="41.292">Command</text><text fill="#000000" font-family="sans-serif" font-size="14" lengthAdjust="spacing" textLength="36" x="151.5" y="57.5889">Class</text><rect fill="#FEFECE" filter="url(#fk79jkzk9txon)" height="62.8906" style="stroke:#A80036;stroke-width:1.5;" width="87" x="126" y="546.2188"/><text fill="#000000" font-family="sans-serif" font-size="14" lengthAdjust="spacing" textLength="65" x="137" y="566.2139">Tile's Init</text><text fill="#000000" font-family="sans-serif" font-size="14" lengthAdjust="spacing" textLength="73" x="133" y="582.5107">Command</text><text fill="#000000" font-family="sans-serif" font-size="14" lengthAdjust="spacing" textLength="36" x="151.5" y="598.8076">Class</text><rect fill="#FEFECE" filter="url(#fk79jkzk9txon)" height="62.8906" style="stroke:#A80036;stroke-width:1.5;" width="81" x="373" y="5"/><text fill="#000000" font-family="sans-serif" font-size="14" lengthAdjust="spacing" textLength="26" x="400.5" y="24.9951">Tile</text><text fill="#000000" font-family="sans-serif" font-size="14" lengthAdjust="spacing" textLength="67" x="380" y="41.292">Hardware</text><text fill="#000000" font-family="sans-serif" font-size="14" lengthAdjust="spacing" textLength="61" x="383" y="57.5889">Manager</text><rect fill="#FEFECE" filter="url(#fk79jkzk9txon)" height="62.8906" style="stroke:#A80036;stroke-width:1.5;" width="81" x="373" y="546.2188"/><text fill="#000000" font-family="sans-serif" font-size="14" lengthAdjust="spacing" textLength="26" x="400.5" y="566.2139">Tile</text><text fill="#000000" font-family="sans-serif" font-size="14" lengthAdjust="spacing" textLength="67" x="380" y="582.5107">Hardware</text><text fill="#000000" font-family="sans-serif" font-size="14" lengthAdjust="spacing" textLength="61" x="383" y="598.8076">Manager</text><rect fill="#FEFECE" filter="url(#fk79jkzk9txon)" height="62.8906" style="stroke:#A80036;stroke-width:1.5;" width="81" x="468" y="5"/><text fill="#000000" font-family="sans-serif" font-size="14" lengthAdjust="spacing" textLength="26" x="495.5" y="24.9951">Tile</text><text fill="#000000" font-family="sans-serif" font-size="14" lengthAdjust="spacing" textLength="67" x="475" y="41.292">Hardware</text><text fill="#000000" font-family="sans-serif" font-size="14" lengthAdjust="spacing" textLength="54" x="481.5" y="57.5889">Factory</text><rect fill="#FEFECE" filter="url(#fk79jkzk9txon)" height="62.8906" style="stroke:#A80036;stroke-width:1.5;" width="81" x="468" y="546.2188"/><text fill="#000000" font-family="sans-serif" font-size="14" lengthAdjust="spacing" textLength="26" x="495.5" y="566.2139">Tile</text><text fill="#000000" font-family="sans-serif" font-size="14" lengthAdjust="spacing" textLength="67" x="475" y="582.5107">Hardware</text><text fill="#000000" font-family="sans-serif" font-size="14" lengthAdjust="spacing" textLength="54" x="481.5" y="598.8076">Factory</text><rect fill="#FEFECE" filter="url(#fk79jkzk9txon)" height="62.8906" style="stroke:#A80036;stroke-width:1.5;" width="84" x="754.5" y="5"/><text fill="#000000" font-family="sans-serif" font-size="14" lengthAdjust="spacing" textLength="70" x="761.5" y="24.9951">Simulable</text><text fill="#000000" font-family="sans-serif" font-size="14" lengthAdjust="spacing" textLength="67" x="763" y="41.292">Hardware</text><text fill="#000000" font-family="sans-serif" font-size="14" lengthAdjust="spacing" textLength="54" x="769.5" y="57.5889">Factory</text><rect fill="#FEFECE" filter="url(#fk79jkzk9txon)" height="62.8906" style="stroke:#A80036;stroke-width:1.5;" width="84" x="754.5" y="546.2188"/><text fill="#000000" font-family="sans-serif" font-size="14" lengthAdjust="spacing" textLength="70" x="761.5" y="566.2139">Simulable</text><text fill="#000000" font-family="sans-serif" font-size="14" lengthAdjust="spacing" textLength="67" x="763" y="582.5107">Hardware</text><text fill="#000000" font-family="sans-serif" font-size="14" lengthAdjust="spacing" textLength="54" x="769.5" y="598.8076">Factory</text><rect fill="#FEFECE" filter="url(#fk79jkzk9txon)" height="46.5938" style="stroke:#A80036;stroke-width:1.5;" width="83" x="987" y="21.2969"/><text fill="#000000" font-family="sans-serif" font-size="14" lengthAdjust="spacing" textLength="30" x="1013.5" y="41.292">TPM</text><text fill="#000000" font-family="sans-serif" font-size="14" lengthAdjust="spacing" textLength="69" x="994" y="57.5889">Simulator</text><rect fill="#FEFECE" filter="url(#fk79jkzk9txon)" height="46.5938" style="stroke:#A80036;stroke-width:1.5;" width="83" x="987" y="546.2188"/><text fill="#000000" font-family="sans-serif" font-size="14" lengthAdjust="spacing" textLength="30" x="1013.5" y="566.2139">TPM</text><text fill="#000000" font-family="sans-serif" font-size="14" lengthAdjust="spacing" textLength="69" x="994" y="582.5107">Simulator</text><polygon fill="#A80036" points="159.5,100.0234,169.5,104.0234,159.5,108.0234,163.5,104.0234" style="stroke:#A80036;stroke-width:1.0;"/><line style="stroke:#A80036;stroke-width:1.0;" x1="60.5" x2="165.5" y1="104.0234" y2="104.0234"/><text fill="#000000" font-family="sans-serif" font-size="13" lengthAdjust="spacing" textLength="29" x="67.5" y="98.9575">Init()</text><line style="stroke:#A80036;stroke-width:1.0;" x1="171.5" x2="213.5" y1="133.1563" y2="133.1563"/><line style="stroke:#A80036;stroke-width:1.0;" x1="213.5" x2="213.5" y1="133.1563" y2="146.1563"/><line style="stroke:#A80036;stroke-width:1.0;" x1="172.5" x2="213.5" y1="146.1563" y2="146.1563"/><polygon fill="#A80036" points="182.5,142.1563,172.5,146.1563,182.5,150.1563,178.5,146.1563" style="stroke:#A80036;stroke-width:1.0;"/><text fill="#000000" font-family="sans-serif" font-size="13" lengthAdjust="spacing" textLength="26" x="178.5" y="128.0903">do()</text><line style="stroke:#A80036;stroke-width:1.0;" x1="171.5" x2="213.5" y1="175.2891" y2="175.2891"/><line style="stroke:#A80036;stroke-width:1.0;" x1="213.5" x2="213.5" y1="175.2891" y2="188.2891"/><line style="stroke:#A80036;stroke-width:1.0;" x1="172.5" x2="213.5" y1="188.2891" y2="188.2891"/><polygon fill="#A80036" points="182.5,184.2891,172.5,188.2891,182.5,192.2891,178.5,188.2891" style="stroke:#A80036;stroke-width:1.0;"/><text fill="#000000" font-family="sans-serif" font-size="13" lengthAdjust="spacing" textLength="152" x="178.5" y="170.2231">_initialise_connections()</text><line style="stroke:#A80036;stroke-width:1.0;" x1="171.5" x2="213.5" y1="217.4219" y2="217.4219"/><line style="stroke:#A80036;stroke-width:1.0;" x1="213.5" x2="213.5" y1="217.4219" y2="230.4219"/><line style="stroke:#A80036;stroke-width:1.0;" x1="172.5" x2="213.5" y1="230.4219" y2="230.4219"/><polygon fill="#A80036" points="182.5,226.4219,172.5,230.4219,182.5,234.4219,178.5,230.4219" style="stroke:#A80036;stroke-width:1.0;"/><text fill="#000000" font-family="sans-serif" font-size="13" lengthAdjust="spacing" textLength="230" x="178.5" y="212.356">_initialise_hardware_management()</text><polygon fill="#A80036" points="403.5,255.5547,413.5,259.5547,403.5,263.5547,407.5,259.5547" style="stroke:#A80036;stroke-width:1.0;"/><line style="stroke:#A80036;stroke-width:1.0;" x1="171.5" x2="409.5" y1="259.5547" y2="259.5547"/><text fill="#000000" font-family="sans-serif" font-size="13" lengthAdjust="spacing" text-decoration="underline" textLength="19" x="178.5" y="254.4888">init</text><text fill="#000000" font-family="sans-serif" font-size="13" lengthAdjust="spacing" textLength="10" x="197.5" y="254.4888">()</text><polygon fill="#A80036" points="498.5,284.6875,508.5,288.6875,498.5,292.6875,502.5,288.6875" style="stroke:#A80036;stroke-width:1.0;"/><line style="stroke:#A80036;stroke-width:1.0;" x1="415.5" x2="504.5" y1="288.6875" y2="288.6875"/><text fill="#000000" font-family="sans-serif" font-size="13" lengthAdjust="spacing" text-decoration="underline" textLength="19" x="422.5" y="283.6216">init</text><text fill="#000000" font-family="sans-serif" font-size="13" lengthAdjust="spacing" textLength="10" x="441.5" y="283.6216">()</text><polygon fill="#A80036" points="786.5,313.8203,796.5,317.8203,786.5,321.8203,790.5,317.8203" style="stroke:#A80036;stroke-width:1.0;"/><line style="stroke:#A80036;stroke-width:1.0;" x1="510.5" x2="792.5" y1="317.8203" y2="317.8203"/><text fill="#000000" font-family="sans-serif" font-size="13" lengthAdjust="spacing" text-decoration="underline" textLength="19" x="517.5" y="312.7544">init</text><text fill="#000000" font-family="sans-serif" font-size="13" lengthAdjust="spacing" textLength="10" x="536.5" y="312.7544">()</text><line style="stroke:#A80036;stroke-width:1.0;" x1="798.5" x2="840.5" y1="346.9531" y2="346.9531"/><line style="stroke:#A80036;stroke-width:1.0;" x1="840.5" x2="840.5" y1="346.9531" y2="359.9531"/><line style="stroke:#A80036;stroke-width:1.0;" x1="799.5" x2="840.5" y1="359.9531" y2="359.9531"/><polygon fill="#A80036" points="809.5,355.9531,799.5,359.9531,809.5,363.9531,805.5,359.9531" style="stroke:#A80036;stroke-width:1.0;"/><text fill="#000000" font-family="sans-serif" font-size="13" lengthAdjust="spacing" textLength="218" x="805.5" y="341.8872">self._hardware = _get_simulator()</text><polygon fill="#A80036" points="521.5,385.0859,511.5,389.0859,521.5,393.0859,517.5,389.0859" style="stroke:#A80036;stroke-width:1.0;"/><line style="stroke:#A80036;stroke-width:1.0;" x1="515.5" x2="797.5" y1="389.0859" y2="389.0859"/><text fill="#000000" font-family="sans-serif" font-size="13" lengthAdjust="spacing" textLength="264" x="527.5" y="384.02">self._simulator = self._create_simulator()</text><polygon fill="#A80036" points="1018.5,414.2188,1028.5,418.2188,1018.5,422.2188,1022.5,418.2188" style="stroke:#A80036;stroke-width:1.0;"/><line style="stroke:#A80036;stroke-width:1.0;" x1="510.5" x2="1024.5" y1="418.2188" y2="418.2188"/><text fill="#000000" font-family="sans-serif" font-size="13" lengthAdjust="spacing" text-decoration="underline" textLength="19" x="517.5" y="413.1528">init</text><text fill="#000000" font-family="sans-serif" font-size="13" lengthAdjust="spacing" textLength="10" x="536.5" y="413.1528">()</text><polygon fill="#A80036" points="521.5,428.2188,511.5,432.2188,521.5,436.2188,517.5,432.2188" style="stroke:#A80036;stroke-width:1.0;"/><line style="stroke:#A80036;stroke-width:1.0;stroke-dasharray:2.0,2.0;" x1="515.5" x2="1029.5" y1="432.2188" y2="432.2188"/><polygon fill="#A80036" points="786.5,442.2188,796.5,446.2188,786.5,450.2188,790.5,446.2188" style="stroke:#A80036;stroke-width:1.0;"/><line style="stroke:#A80036;stroke-width:1.0;stroke-dasharray:2.0,2.0;" x1="510.5" x2="792.5" y1="446.2188" y2="446.2188"/><line style="stroke:#A80036;stroke-width:1.0;stroke-dasharray:2.0,2.0;" x1="798.5" x2="840.5" y1="460.2188" y2="460.2188"/><line style="stroke:#A80036;stroke-width:1.0;stroke-dasharray:2.0,2.0;" x1="840.5" x2="840.5" y1="460.2188" y2="473.2188"/><line style="stroke:#A80036;stroke-width:1.0;stroke-dasharray:2.0,2.0;" x1="799.5" x2="840.5" y1="473.2188" y2="473.2188"/><polygon fill="#A80036" points="809.5,469.2188,799.5,473.2188,809.5,477.2188,805.5,473.2188" style="stroke:#A80036;stroke-width:1.0;"/><polygon fill="#A80036" points="521.5,483.2188,511.5,487.2188,521.5,491.2188,517.5,487.2188" style="stroke:#A80036;stroke-width:1.0;"/><line style="stroke:#A80036;stroke-width:1.0;stroke-dasharray:2.0,2.0;" x1="515.5" x2="797.5" y1="487.2188" y2="487.2188"/><polygon fill="#A80036" points="426.5,497.2188,416.5,501.2188,426.5,505.2188,422.5,501.2188" style="stroke:#A80036;stroke-width:1.0;"/><line style="stroke:#A80036;stroke-width:1.0;stroke-dasharray:2.0,2.0;" x1="420.5" x2="509.5" y1="501.2188" y2="501.2188"/><polygon fill="#A80036" points="182.5,511.2188,172.5,515.2188,182.5,519.2188,178.5,515.2188" style="stroke:#A80036;stroke-width:1.0;"/><line style="stroke:#A80036;stroke-width:1.0;stroke-dasharray:2.0,2.0;" x1="176.5" x2="414.5" y1="515.2188" y2="515.2188"/><polygon fill="#A80036" points="71.5,525.2188,61.5,529.2188,71.5,533.2188,67.5,529.2188" style="stroke:#A80036;stroke-width:1.0;"/><line style="stroke:#A80036;stroke-width:1.0;stroke-dasharray:2.0,2.0;" x1="65.5" x2="170.5" y1="529.2188" y2="529.2188"/><!--MD5=[77f01dd7306ff4ceed8e41ba567ec6ef]
@startuml
participant "Construction\nInitiator" as Constructor
participant "Tile's Init\nCommand\nClass" as Init_cmd
participant "Tile\nHardware\nManager" as Tile_HW_Man
participant "Tile\nHardware\nFactory" as Tile_HW_Factory
participant "Simulable\nHardware\nFactory" as Sim_HW_Factory
participant "TPM\nSimulator" as TPM_Sim

Constructor -> Init_cmd: Init()
Init_cmd -> Init_cmd: do()
Init_cmd -> Init_cmd: _initialise_connections()
Init_cmd -> Init_cmd: _initialise_hardware_management()
Init_cmd -> Tile_HW_Man: __init__()
Tile_HW_Man -> Tile_HW_Factory: __init__()
Tile_HW_Factory -> Sim_HW_Factory: __init__()
Sim_HW_Factory -> Sim_HW_Factory: self._hardware = _get_simulator()
Sim_HW_Factory -> Tile_HW_Factory: self._simulator = self._create_simulator()
Tile_HW_Factory -> TPM_Sim: __init__()
Tile_HW_Factory <- - TPM_Sim:
Sim_HW_Factory <- - Tile_HW_Factory:
Sim_HW_Factory <- - Sim_HW_Factory:
Tile_HW_Factory <- - Sim_HW_Factory:
Tile_HW_Man <- - Tile_HW_Factory:
Init_cmd <- - Tile_HW_Man:
Constructor <- - Init_cmd:
@enduml

PlantUML version 1.2021.2beta5(Unknown compile time)
(GPL source distribution)
Java Runtime: Java(TM) SE Runtime Environment
JVM: Java HotSpot(TM) 64-Bit Server VM
Default Encoding: UTF-8
Language: en
Country: US
--></g></svg>