<?xml version="1.0" encoding="UTF-8" standalone="no"?><svg xmlns="http://www.w3.org/2000/svg" xmlns:xlink="http://www.w3.org/1999/xlink" contentScriptType="application/ecmascript" contentStyleType="text/css" height="412px" preserveAspectRatio="none" style="width:355px;height:412px;" version="1.1" viewBox="0 0 355 412" width="355px" zoomAndPan="magnify"><defs><filter height="300%" id="fvldu4r2u8z81" width="300%" x="-1" y="-1"><feGaussianBlur result="blurOut" stdDeviation="2.0"/><feColorMatrix in="blurOut" result="blurOut2" type="matrix" values="0 0 0 0 0 0 0 0 0 0 0 0 0 0 0 0 0 0 .4 0"/><feOffset dx="4.0" dy="4.0" in="blurOut2" result="blurOut3"/><feBlend in="SourceGraphic" in2="blurOut3" mode="normal"/></filter></defs><g><rect fill="#FEFECE" filter="url(#fvldu4r2u8z81)" height="50" rx="12.5" ry="12.5" style="stroke: #A80036; stroke-width: 1.5;" width="138" x="50.2879" y="8"/><line style="stroke: #A80036; stroke-width: 1.5;" x1="50.2879" x2="188.2879" y1="34.2969" y2="34.2969"/><text fill="#000000" font-family="sans-serif" font-size="14" lengthAdjust="spacingAndGlyphs" textLength="118" x="60.2879" y="25.9951">Cluster not ready</text><rect fill="#FEFECE" filter="url(#fvldu4r2u8z81)" height="50" rx="12.5" ry="12.5" style="stroke: #A80036; stroke-width: 1.5;" width="111" x="63.7879" y="172"/><line style="stroke: #A80036; stroke-width: 1.5;" x1="63.7879" x2="174.7879" y1="198.2969" y2="198.2969"/><text fill="#000000" font-family="sans-serif" font-size="14" lengthAdjust="spacingAndGlyphs" textLength="91" x="73.7879" y="189.9951">Cluster ready</text><rect fill="#FEFECE" filter="url(#fvldu4r2u8z81)" height="50" rx="12.5" ry="12.5" style="stroke: #A80036; stroke-width: 1.5;" width="171" x="33.7879" y="351"/><line style="stroke: #A80036; stroke-width: 1.5;" x1="33.7879" x2="204.7879" y1="377.2969" y2="377.2969"/><text fill="#000000" font-family="sans-serif" font-size="14" lengthAdjust="spacingAndGlyphs" textLength="151" x="43.7879" y="368.9951">Cluster running MCCS</text><!--MD5=[4e4269c063f8c55ae3f1d32f2ecd85c3]
link ClusterNotReady to ClusterReady--><path d="M50.0243,56.1533 C36.2097,64.0505 23.4558,74.4407 15.2879,88 C2.904,108.5582 2.904,121.4418 15.2879,142 C25.1622,158.3921 41.739,170.1526 58.7896,178.4761 " fill="none" id="ClusterNotReady-&gt;ClusterReady" style="stroke: #A80036; stroke-width: 1.0;"/><polygon fill="#A80036" points="63.6061,180.7336,57.1544,173.2921,59.0787,178.6116,53.7592,180.5359,63.6061,180.7336" style="stroke: #A80036; stroke-width: 1.0;"/><path d="M20.2879,93 L20.2879,133 L169.2879,133 L169.2879,103 L159.2879,93 L20.2879,93 " fill="#FBFB77" filter="url(#fvldu4r2u8z81)" style="stroke: #A80036; stroke-width: 1.0;"/><path d="M159.2879,93 L159.2879,103 L169.2879,103 L159.2879,93 " fill="#FBFB77" style="stroke: #A80036; stroke-width: 1.0;"/><text fill="#000000" font-family="sans-serif" font-size="13" lengthAdjust="spacingAndGlyphs" textLength="128" x="26.2879" y="110.0669">cd /deploy-minikube</text><text fill="#000000" font-family="sans-serif" font-size="13" lengthAdjust="spacingAndGlyphs" textLength="54" x="26.2879" y="125.1997">make all</text><!--MD5=[4a3de7b8affddd7eb64b3da9c2f199a8]
link ClusterReady to ClusterNotReady--><path d="M158.5724,171.7741 C168.1118,163.5355 177.0619,153.4998 182.2879,142 C192.2174,120.1504 192.2174,109.8496 182.2879,88 C177.7968,78.1173 170.5553,69.3159 162.5532,61.8072 " fill="none" id="ClusterReady-&gt;ClusterNotReady" style="stroke: #A80036; stroke-width: 1.0;"/><polygon fill="#A80036" points="158.5724,58.2259,162.5879,67.219,162.2895,61.57,167.9385,61.2716,158.5724,58.2259" style="stroke: #A80036; stroke-width: 1.0;"/><path d="M194.2879,93 L194.2879,133 L343.2879,133 L343.2879,103 L333.2879,93 L194.2879,93 " fill="#FBFB77" filter="url(#fvldu4r2u8z81)" style="stroke: #A80036; stroke-width: 1.0;"/><path d="M333.2879,93 L333.2879,103 L343.2879,103 L333.2879,93 " fill="#FBFB77" style="stroke: #A80036; stroke-width: 1.0;"/><text fill="#000000" font-family="sans-serif" font-size="13" lengthAdjust="spacingAndGlyphs" textLength="128" x="200.2879" y="110.0669">cd /deploy-minikube</text><text fill="#000000" font-family="sans-serif" font-size="13" lengthAdjust="spacingAndGlyphs" textLength="74" x="200.2879" y="125.1997">make clean</text><!--MD5=[897b8064b50c6802ab7a3b7c7da8c1de]
link ClusterReady to ClusterRunningMCCS--><path d="M63.6434,215.5254 C47.0669,223.9391 30.8007,235.7527 21.2879,252 C5.7931,278.4642 5.7931,294.5358 21.2879,321 C27.6408,331.8504 37.0057,340.7234 47.4635,347.9269 " fill="none" id="ClusterReady-&gt;ClusterRunningMCCS" style="stroke: #A80036; stroke-width: 1.0;"/><polygon fill="#A80036" points="51.6814,350.708,46.3695,342.4144,47.5071,347.9557,41.9658,349.0933,51.6814,350.708" style="stroke: #A80036; stroke-width: 1.0;"/><path d="M26.2879,257 L26.2879,312 L162.2879,312 L162.2879,267 L152.2879,257 L26.2879,257 " fill="#FBFB77" filter="url(#fvldu4r2u8z81)" style="stroke: #A80036; stroke-width: 1.0;"/><path d="M152.2879,257 L152.2879,267 L162.2879,267 L152.2879,257 " fill="#FBFB77" style="stroke: #A80036; stroke-width: 1.0;"/><text fill="#000000" font-family="sans-serif" font-size="13" lengthAdjust="spacingAndGlyphs" textLength="109" x="32.2879" y="274.0669">cd /ska-low-mccs</text><text fill="#000000" font-family="sans-serif" font-size="13" lengthAdjust="spacingAndGlyphs" textLength="103" x="32.2879" y="289.1997">make devimage</text><text fill="#000000" font-family="sans-serif" font-size="13" lengthAdjust="spacingAndGlyphs" textLength="115" x="32.2879" y="304.3325">make install-chart</text><!--MD5=[eb3ce449d898b16cf2d43aeac6b563c8]
link ClusterRunningMCCS to ClusterReady--><path d="M153.4058,350.8797 C162.2137,342.4649 170.5436,332.3096 175.2879,321 C187.151,292.7208 187.151,280.2792 175.2879,252 C171.2107,242.2809 164.4856,233.4141 157.0846,225.7719 " fill="none" id="ClusterRunningMCCS-&gt;ClusterReady" style="stroke: #A80036; stroke-width: 1.0;"/><polygon fill="#A80036" points="153.4058,222.1203,156.9753,231.2996,156.9544,225.6427,162.6112,225.6218,153.4058,222.1203" style="stroke: #A80036; stroke-width: 1.0;"/><path d="M188.2879,264.5 L188.2879,304.5 L340.2879,304.5 L340.2879,274.5 L330.2879,264.5 L188.2879,264.5 " fill="#FBFB77" filter="url(#fvldu4r2u8z81)" style="stroke: #A80036; stroke-width: 1.0;"/><path d="M330.2879,264.5 L330.2879,274.5 L340.2879,274.5 L330.2879,264.5 " fill="#FBFB77" style="stroke: #A80036; stroke-width: 1.0;"/><text fill="#000000" font-family="sans-serif" font-size="13" lengthAdjust="spacingAndGlyphs" textLength="109" x="194.2879" y="281.5669">cd /ska-low-mccs</text><text fill="#000000" font-family="sans-serif" font-size="13" lengthAdjust="spacingAndGlyphs" textLength="131" x="194.2879" y="296.6997">make uninstall-chart</text><!--MD5=[203f3bd6af04a6b810f4c34ed7dbe43d]
@startuml
state "Cluster not ready" as ClusterNotReady
state "Cluster ready" as ClusterReady
state "Cluster running MCCS" as ClusterRunningMCCS

ClusterNotReady - -> ClusterReady 
note on link
  cd ~/deploy-minikube
  make all
end note

ClusterReady - -> ClusterNotReady
note on link
  cd ~/deploy-minikube
  make clean
end note

ClusterReady - -> ClusterRunningMCCS
note on link
  cd ~/ska-low-mccs
  make devimage
  make install-chart
end note

ClusterRunningMCCS - -> ClusterReady
note on link
  cd ~/ska-low-mccs
  make uninstall-chart
end note

@enduml

PlantUML version 1.2020.06(Sun Apr 05 12:38:32 GMT 2020)
(GPL source distribution)
Java Runtime: OpenJDK Runtime Environment
JVM: OpenJDK 64-Bit Server VM
Java Version: 14-ea+33
Operating System: Linux
Default Encoding: UTF-8
Language: en
Country: US
--></g></svg>