<?xml version="1.0" encoding="UTF-8" standalone="no"?><svg xmlns="http://www.w3.org/2000/svg" xmlns:xlink="http://www.w3.org/1999/xlink" contentScriptType="application/ecmascript" contentStyleType="text/css" height="574px" preserveAspectRatio="none" style="width:1442px;height:574px;" version="1.1" viewBox="0 0 1442 574" width="1442px" zoomAndPan="magnify"><defs><filter height="300%" id="f144r9m5hxw536" width="300%" x="-1" y="-1"><feGaussianBlur result="blurOut" stdDeviation="2.0"/><feColorMatrix in="blurOut" result="blurOut2" type="matrix" values="0 0 0 0 0 0 0 0 0 0 0 0 0 0 0 0 0 0 .4 0"/><feOffset dx="4.0" dy="4.0" in="blurOut2" result="blurOut3"/><feBlend in="SourceGraphic" in2="blurOut3" mode="normal"/></filter></defs><g><ellipse cx="80.5" cy="48.6982" fill="#000000" filter="url(#f144r9m5hxw536)" rx="10" ry="10" style="stroke: none; stroke-width: 1.0;"/><line style="stroke: #000000; stroke-width: 2.0;" x1="15" x2="15" y1="12.7451" y2="562.8022"/><line style="stroke: #A80036; stroke-width: 1.5;" x1="308" x2="540" y1="78.6982" y2="78.6982"/><rect fill="#FEFECE" filter="url(#f144r9m5hxw536)" height="75.875" rx="12.5" ry="12.5" style="stroke: #A80036; stroke-width: 1.5;" width="103" x="256.5" y="194.6709"/><text fill="#000000" font-family="sans-serif" font-size="12" lengthAdjust="spacingAndGlyphs" textLength="34" x="266.5" y="215.8096">MCCS</text><text fill="#000000" font-family="sans-serif" font-size="12" lengthAdjust="spacingAndGlyphs" textLength="47" x="266.5" y="229.7783">cabinet</text><text fill="#000000" font-family="sans-serif" font-size="12" lengthAdjust="spacingAndGlyphs" textLength="83" x="266.5" y="243.7471">management</text><text fill="#000000" font-family="sans-serif" font-size="12" lengthAdjust="spacingAndGlyphs" textLength="37" x="266.5" y="257.7158">board</text><line style="stroke: #A80036; stroke-width: 1.5;" x1="196" x2="415" y1="305.5459" y2="305.5459"/><ellipse cx="196" cy="343.4482" fill="#FEFECE" filter="url(#f144r9m5hxw536)" rx="10" ry="10" style="stroke: #A80036; stroke-width: 1.5;"/><path d="M197.0469,338.6982 L198.0469,338.6982 L195,348.5576 L194,348.5576 L197.0469,338.6982 Z "/><rect fill="#FEFECE" filter="url(#f144r9m5hxw536)" height="33.9688" rx="12.5" ry="12.5" style="stroke: #A80036; stroke-width: 1.5;" width="92" x="150" y="388.4482"/><text fill="#000000" font-family="sans-serif" font-size="12" lengthAdjust="spacingAndGlyphs" textLength="72" x="160" y="409.5869">1 Gb switch</text><ellipse cx="306" cy="337.0459" fill="#FEFECE" filter="url(#f144r9m5hxw536)" rx="10" ry="10" style="stroke: #A80036; stroke-width: 1.5;"/><path d="M307.0469,332.2959 L308.0469,332.2959 L305,342.1553 L304,342.1553 L307.0469,332.2959 Z "/><rect fill="#FEFECE" filter="url(#f144r9m5hxw536)" height="33.9688" rx="12.5" ry="12.5" style="stroke: #A80036; stroke-width: 1.5;" width="108" x="252" y="394.8506"/><text fill="#000000" font-family="sans-serif" font-size="12" lengthAdjust="spacingAndGlyphs" textLength="88" x="262" y="415.9893">100 Gb switch</text><ellipse cx="415" cy="337.0459" fill="#FEFECE" filter="url(#f144r9m5hxw536)" rx="10" ry="10" style="stroke: #A80036; stroke-width: 1.5;"/><path d="M416.0469,332.2959 L417.0469,332.2959 L414,342.1553 L413,342.1553 L416.0469,332.2959 Z "/><rect fill="#FEFECE" filter="url(#f144r9m5hxw536)" height="33.9688" rx="12.5" ry="12.5" style="stroke: #A80036; stroke-width: 1.5;" width="90" x="370" y="394.8506"/><text fill="#000000" font-family="sans-serif" font-size="12" lengthAdjust="spacingAndGlyphs" textLength="70" x="380" y="415.9893">MCCS node</text><line style="stroke: #000000; stroke-width: 2.0;" x1="145" x2="145" y1="12.7451" y2="562.8022"/><rect fill="#FEFECE" filter="url(#f144r9m5hxw536)" height="75.875" rx="12.5" ry="12.5" style="stroke: #A80036; stroke-width: 1.5;" width="103" x="791.5" y="100.1982"/><text fill="#000000" font-family="sans-serif" font-size="12" lengthAdjust="spacingAndGlyphs" textLength="24" x="801.5" y="121.3369">SPS</text><text fill="#000000" font-family="sans-serif" font-size="12" lengthAdjust="spacingAndGlyphs" textLength="47" x="801.5" y="135.3057">cabinet</text><text fill="#000000" font-family="sans-serif" font-size="12" lengthAdjust="spacingAndGlyphs" textLength="83" x="801.5" y="149.2744">management</text><text fill="#000000" font-family="sans-serif" font-size="12" lengthAdjust="spacingAndGlyphs" textLength="37" x="801.5" y="163.2432">board</text><line style="stroke: #A80036; stroke-width: 1.5;" x1="579.5" x2="892" y1="211.0732" y2="211.0732"/><path d="M609.5,324.4795 L609.5,333.0459 L589.5,337.0459 L609.5,341.0459 L609.5,349.6123 A0,0 0 0 0 609.5,349.6123 L812.5,349.6123 A0,0 0 0 0 812.5,349.6123 L812.5,334.4795 L802.5,324.4795 L609.5,324.4795 A0,0 0 0 0 609.5,324.4795 " fill="#FBFB77" filter="url(#f144r9m5hxw536)" style="stroke: #A80036; stroke-width: 1.0;"/><path d="M802.5,324.4795 L802.5,334.4795 L812.5,334.4795 L802.5,324.4795 " fill="#FBFB77" style="stroke: #A80036; stroke-width: 1.0;"/><text fill="#000000" font-family="sans-serif" font-size="13" lengthAdjust="spacingAndGlyphs" textLength="182" x="615.5" y="341.5464">MccsCabinet.TurnSwitchOn()</text><ellipse cx="579.5" cy="337.0459" fill="#FEFECE" filter="url(#f144r9m5hxw536)" rx="10" ry="10" style="stroke: #A80036; stroke-width: 1.5;"/><path d="M580.5469,332.2959 L581.5469,332.2959 L578.5,342.1553 L577.5,342.1553 L580.5469,332.2959 Z "/><rect fill="#FEFECE" filter="url(#f144r9m5hxw536)" height="33.9688" rx="12.5" ry="12.5" style="stroke: #A80036; stroke-width: 1.5;" width="59" x="550" y="397.417"/><text fill="#000000" font-family="sans-serif" font-size="12" lengthAdjust="spacingAndGlyphs" textLength="39" x="560" y="418.5557">switch</text><path d="M922,232.5732 L922,241.1396 L902,245.1396 L922,249.1396 L922,257.7061 A0,0 0 0 0 922,257.7061 L1136,257.7061 A0,0 0 0 0 1136,257.7061 L1136,242.5732 L1126,232.5732 L922,232.5732 A0,0 0 0 0 922,232.5732 " fill="#FBFB77" filter="url(#f144r9m5hxw536)" style="stroke: #A80036; stroke-width: 1.0;"/><path d="M1126,232.5732 L1126,242.5732 L1136,242.5732 L1126,232.5732 " fill="#FBFB77" style="stroke: #A80036; stroke-width: 1.0;"/><text fill="#000000" font-family="sans-serif" font-size="13" lengthAdjust="spacingAndGlyphs" textLength="193" x="928" y="249.6401">MccsCabinet.TurnSubrackOn()</text><ellipse cx="892" cy="245.1396" fill="#FEFECE" filter="url(#f144r9m5hxw536)" rx="10" ry="10" style="stroke: #A80036; stroke-width: 1.5;"/><path d="M893.0469,240.3896 L894.0469,240.3896 L891,250.249 L890,250.249 L893.0469,240.3896 Z "/><rect fill="#FEFECE" filter="url(#f144r9m5hxw536)" height="75.875" rx="12.5" ry="12.5" style="stroke: #A80036; stroke-width: 1.5;" width="103" x="840.5" y="305.5107"/><text fill="#000000" font-family="sans-serif" font-size="12" lengthAdjust="spacingAndGlyphs" textLength="24" x="850.5" y="326.6494">SPS</text><text fill="#000000" font-family="sans-serif" font-size="12" lengthAdjust="spacingAndGlyphs" textLength="50" x="850.5" y="340.6182">subrack</text><text fill="#000000" font-family="sans-serif" font-size="12" lengthAdjust="spacingAndGlyphs" textLength="83" x="850.5" y="354.5869">management</text><text fill="#000000" font-family="sans-serif" font-size="12" lengthAdjust="spacingAndGlyphs" textLength="37" x="850.5" y="368.5557">board</text><path d="M922,416.3857 L922,424.9521 L902,428.9521 L922,432.9521 L922,441.5186 A0,0 0 0 0 922,441.5186 L1113,441.5186 A0,0 0 0 0 1113,441.5186 L1113,426.3857 L1103,416.3857 L922,416.3857 A0,0 0 0 0 922,416.3857 " fill="#FBFB77" filter="url(#f144r9m5hxw536)" style="stroke: #A80036; stroke-width: 1.0;"/><path d="M1103,416.3857 L1103,426.3857 L1113,426.3857 L1103,416.3857 " fill="#FBFB77" style="stroke: #A80036; stroke-width: 1.0;"/><text fill="#000000" font-family="sans-serif" font-size="13" lengthAdjust="spacingAndGlyphs" textLength="170" x="928" y="433.4526">MccsSubrack.TurnTPMOn()</text><ellipse cx="892" cy="428.9521" fill="#FEFECE" filter="url(#f144r9m5hxw536)" rx="10" ry="10" style="stroke: #A80036; stroke-width: 1.5;"/><path d="M893.0469,424.2021 L894.0469,424.2021 L891,434.0615 L890,434.0615 L893.0469,424.2021 Z "/><rect fill="#FEFECE" filter="url(#f144r9m5hxw536)" height="33.9688" rx="12.5" ry="12.5" style="stroke: #A80036; stroke-width: 1.5;" width="45" x="869.5" y="488.8335"/><text fill="#000000" font-family="sans-serif" font-size="12" lengthAdjust="spacingAndGlyphs" textLength="25" x="879.5" y="509.9722">TPM</text><line style="stroke: #000000; stroke-width: 2.0;" x1="545" x2="545" y1="12.7451" y2="562.8022"/><path d="M1212.5,197.3389 L1212.5,205.9053 L1192.5,209.9053 L1212.5,213.9053 L1212.5,222.4717 A0,0 0 0 0 1212.5,222.4717 L1327.5,222.4717 A0,0 0 0 0 1327.5,222.4717 L1327.5,207.3389 L1317.5,197.3389 L1212.5,197.3389 A0,0 0 0 0 1212.5,197.3389 " fill="#FBFB77" filter="url(#f144r9m5hxw536)" style="stroke: #A80036; stroke-width: 1.0;"/><path d="M1317.5,197.3389 L1317.5,207.3389 L1327.5,207.3389 L1317.5,197.3389 " fill="#FBFB77" style="stroke: #A80036; stroke-width: 1.0;"/><text fill="#000000" font-family="sans-serif" font-size="13" lengthAdjust="spacingAndGlyphs" textLength="94" x="1218.5" y="214.4058">MccsAPIU.On()</text><ellipse cx="1182.5" cy="209.9053" fill="#FEFECE" filter="url(#f144r9m5hxw536)" rx="10" ry="10" style="stroke: #A80036; stroke-width: 1.5;"/><path d="M1183.5469,205.1553 L1184.5469,205.1553 L1181.5,215.0146 L1180.5,215.0146 L1183.5469,205.1553 Z "/><rect fill="#FEFECE" filter="url(#f144r9m5hxw536)" height="33.9688" rx="12.5" ry="12.5" style="stroke: #A80036; stroke-width: 1.5;" width="48" x="1158.5" y="270.2764"/><text fill="#000000" font-family="sans-serif" font-size="12" lengthAdjust="spacingAndGlyphs" textLength="28" x="1168.5" y="291.415">APIU</text><path d="M1212.5,339.2451 L1212.5,347.8115 L1192.5,351.8115 L1212.5,355.8115 L1212.5,364.3779 A0,0 0 0 0 1212.5,364.3779 L1417.5,364.3779 A0,0 0 0 0 1417.5,364.3779 L1417.5,349.2451 L1407.5,339.2451 L1212.5,339.2451 A0,0 0 0 0 1212.5,339.2451 " fill="#FBFB77" filter="url(#f144r9m5hxw536)" style="stroke: #A80036; stroke-width: 1.0;"/><path d="M1407.5,339.2451 L1407.5,349.2451 L1417.5,349.2451 L1407.5,339.2451 " fill="#FBFB77" style="stroke: #A80036; stroke-width: 1.0;"/><text fill="#000000" font-family="sans-serif" font-size="13" lengthAdjust="spacingAndGlyphs" textLength="184" x="1218.5" y="356.312">MccsAPIU.TurnAntennaOn(n)</text><ellipse cx="1182.5" cy="351.8115" fill="#FEFECE" filter="url(#f144r9m5hxw536)" rx="10" ry="10" style="stroke: #A80036; stroke-width: 1.5;"/><path d="M1183.5469,347.0615 L1184.5469,347.0615 L1181.5,356.9209 L1180.5,356.9209 L1183.5469,347.0615 Z "/><rect fill="#FEFECE" filter="url(#f144r9m5hxw536)" height="33.9688" rx="12.5" ry="12.5" style="stroke: #A80036; stroke-width: 1.5;" width="73" x="1146" y="412.1826"/><text fill="#000000" font-family="sans-serif" font-size="12" lengthAdjust="spacingAndGlyphs" textLength="53" x="1156" y="433.3213">Antenna</text><line style="stroke: #000000; stroke-width: 2.0;" x1="1141" x2="1141" y1="12.7451" y2="562.8022"/><line style="stroke: #000000; stroke-width: 2.0;" x1="1422.5" x2="1422.5" y1="12.7451" y2="562.8022"/><line style="stroke: #A80036; stroke-width: 1.5;" x1="196" x2="196" y1="353.4482" y2="388.4482"/><polygon fill="#A80036" points="192,378.4482,196,388.4482,200,378.4482,196,382.4482" style="stroke: #A80036; stroke-width: 1.0;"/><line style="stroke: #A80036; stroke-width: 1.5;" x1="306" x2="306" y1="347.0459" y2="394.8506"/><polygon fill="#A80036" points="302,384.8506,306,394.8506,310,384.8506,306,388.8506" style="stroke: #A80036; stroke-width: 1.0;"/><text fill="#000000" font-family="sans-serif" font-size="11" lengthAdjust="spacingAndGlyphs" textLength="22" x="310" y="374.7563">1..2</text><line style="stroke: #A80036; stroke-width: 1.5;" x1="415" x2="415" y1="347.0459" y2="394.8506"/><polygon fill="#A80036" points="411,384.8506,415,394.8506,419,384.8506,415,388.8506" style="stroke: #A80036; stroke-width: 1.0;"/><text fill="#000000" font-family="sans-serif" font-size="11" lengthAdjust="spacingAndGlyphs" textLength="47" x="419" y="374.7563">1..17-18</text><line style="stroke: #A80036; stroke-width: 1.5;" x1="196" x2="196" y1="307.0459" y2="333.4482"/><polygon fill="#A80036" points="192,323.4482,196,333.4482,200,323.4482,196,327.4482" style="stroke: #A80036; stroke-width: 1.0;"/><line style="stroke: #A80036; stroke-width: 1.5;" x1="306" x2="306" y1="307.0459" y2="327.0459"/><polygon fill="#A80036" points="302,317.0459,306,327.0459,310,317.0459,306,321.0459" style="stroke: #A80036; stroke-width: 1.0;"/><line style="stroke: #A80036; stroke-width: 1.5;" x1="415" x2="415" y1="307.0459" y2="327.0459"/><polygon fill="#A80036" points="411,317.0459,415,327.0459,419,317.0459,415,321.0459" style="stroke: #A80036; stroke-width: 1.0;"/><line style="stroke: #A80036; stroke-width: 1.5;" x1="308" x2="308" y1="270.5459" y2="305.5459"/><polygon fill="#A80036" points="304,295.5459,308,305.5459,312,295.5459,308,299.5459" style="stroke: #A80036; stroke-width: 1.0;"/><line style="stroke: #A80036; stroke-width: 1.5;" x1="308" x2="308" y1="80.1982" y2="194.6709"/><polygon fill="#A80036" points="304,184.6709,308,194.6709,312,184.6709,308,188.6709" style="stroke: #A80036; stroke-width: 1.0;"/><text fill="#000000" font-family="sans-serif" font-size="11" lengthAdjust="spacingAndGlyphs" textLength="22" x="312" y="141.2427">1..4</text><line style="stroke: #A80036; stroke-width: 1.5;" x1="579.5" x2="579.5" y1="347.0459" y2="397.417"/><polygon fill="#A80036" points="575.5,387.417,579.5,397.417,583.5,387.417,579.5,391.417" style="stroke: #A80036; stroke-width: 1.0;"/><text fill="#000000" font-family="sans-serif" font-size="11" lengthAdjust="spacingAndGlyphs" textLength="22" x="583.5" y="376.0396">1..2</text><line style="stroke: #A80036; stroke-width: 1.5;" x1="892" x2="892" y1="255.1396" y2="305.5107"/><polygon fill="#A80036" points="888,295.5107,892,305.5107,896,295.5107,892,299.5107" style="stroke: #A80036; stroke-width: 1.0;"/><text fill="#000000" font-family="sans-serif" font-size="11" lengthAdjust="spacingAndGlyphs" textLength="22" x="896" y="284.1333">1..4</text><line style="stroke: #A80036; stroke-width: 1.5;" x1="892" x2="892" y1="381.3857" y2="418.9521"/><polygon fill="#A80036" points="888,408.9521,892,418.9521,896,408.9521,892,412.9521" style="stroke: #A80036; stroke-width: 1.0;"/><line style="stroke: #A80036; stroke-width: 1.5;" x1="892" x2="892" y1="438.9521" y2="488.8335"/><polygon fill="#A80036" points="888,478.8335,892,488.8335,896,478.8335,892,482.8335" style="stroke: #A80036; stroke-width: 1.0;"/><text fill="#000000" font-family="sans-serif" font-size="11" lengthAdjust="spacingAndGlyphs" textLength="22" x="896" y="467.4561">1..8</text><line style="stroke: #A80036; stroke-width: 1.5;" x1="579.5" x2="579.5" y1="212.5732" y2="327.0459"/><polygon fill="#A80036" points="575.5,317.0459,579.5,327.0459,583.5,317.0459,579.5,321.0459" style="stroke: #A80036; stroke-width: 1.0;"/><line style="stroke: #A80036; stroke-width: 1.5;" x1="892" x2="892" y1="212.5732" y2="235.1396"/><polygon fill="#A80036" points="888,225.1396,892,235.1396,896,225.1396,892,229.1396" style="stroke: #A80036; stroke-width: 1.0;"/><line style="stroke: #A80036; stroke-width: 1.5;" x1="843" x2="843" y1="176.0732" y2="211.0732"/><polygon fill="#A80036" points="839,201.0732,843,211.0732,847,201.0732,843,205.0732" style="stroke: #A80036; stroke-width: 1.0;"/><line style="stroke: #A80036; stroke-width: 1.5;" x1="1182.5" x2="1182.5" y1="219.9053" y2="270.2764"/><polygon fill="#A80036" points="1178.5,260.2764,1182.5,270.2764,1186.5,260.2764,1182.5,264.2764" style="stroke: #A80036; stroke-width: 1.0;"/><text fill="#000000" font-family="sans-serif" font-size="11" lengthAdjust="spacingAndGlyphs" textLength="7" x="1186.5" y="248.8989">1</text><line style="stroke: #A80036; stroke-width: 1.5;" x1="1182.5" x2="1182.5" y1="304.2451" y2="341.8115"/><polygon fill="#A80036" points="1178.5,331.8115,1182.5,341.8115,1186.5,331.8115,1182.5,335.8115" style="stroke: #A80036; stroke-width: 1.0;"/><line style="stroke: #A80036; stroke-width: 1.5;" x1="1182.5" x2="1182.5" y1="361.8115" y2="412.1826"/><polygon fill="#A80036" points="1178.5,402.1826,1182.5,412.1826,1186.5,402.1826,1182.5,406.1826" style="stroke: #A80036; stroke-width: 1.0;"/><text fill="#000000" font-family="sans-serif" font-size="11" lengthAdjust="spacingAndGlyphs" textLength="29" x="1186.5" y="390.8052">1..64</text><line style="stroke: #A80036; stroke-width: 1.5;" x1="490" x2="490" y1="80.1982" y2="84.1982"/><line style="stroke: #A80036; stroke-width: 1.5;" x1="490" x2="843" y1="84.1982" y2="84.1982"/><line style="stroke: #A80036; stroke-width: 1.5;" x1="843" x2="843" y1="84.1982" y2="100.1982"/><polygon fill="#A80036" points="839,90.1982,843,100.1982,847,90.1982,843,94.1982" style="stroke: #A80036; stroke-width: 1.0;"/><text fill="#000000" font-family="sans-serif" font-size="11" lengthAdjust="spacingAndGlyphs" textLength="36" x="494" y="86.0063">1..256</text><line style="stroke: #A80036; stroke-width: 1.5;" x1="540" x2="540" y1="80.1982" y2="84.1982"/><line style="stroke: #A80036; stroke-width: 1.5;" x1="540" x2="1182.5" y1="84.1982" y2="84.1982"/><line style="stroke: #A80036; stroke-width: 1.5;" x1="1182.5" x2="1182.5" y1="84.1982" y2="199.9053"/><polygon fill="#A80036" points="1178.5,189.9053,1182.5,199.9053,1186.5,189.9053,1182.5,193.9053" style="stroke: #A80036; stroke-width: 1.0;"/><text fill="#000000" font-family="sans-serif" font-size="11" lengthAdjust="spacingAndGlyphs" textLength="36" x="544" y="86.0063">1..256</text><line style="stroke: #A80036; stroke-width: 1.5;" x1="80.5" x2="80.5" y1="58.6982" y2="63.6982"/><line style="stroke: #A80036; stroke-width: 1.5;" x1="80.5" x2="480" y1="63.6982" y2="63.6982"/><line style="stroke: #A80036; stroke-width: 1.5;" x1="480" x2="480" y1="63.6982" y2="78.6982"/><polygon fill="#A80036" points="476,68.6982,480,78.6982,484,68.6982,480,72.6982" style="stroke: #A80036; stroke-width: 1.0;"/><text fill="#000000" font-family="sans-serif" font-size="18" lengthAdjust="spacingAndGlyphs" textLength="120" x="20" y="29.4531">Power supply</text><text fill="#000000" font-family="sans-serif" font-size="18" lengthAdjust="spacingAndGlyphs" textLength="127" x="281.5" y="29.4531">MCCS Cabinet</text><text fill="#000000" font-family="sans-serif" font-size="18" lengthAdjust="spacingAndGlyphs" textLength="107" x="789.5" y="29.4531">SPS Cabinet</text><text fill="#000000" font-family="sans-serif" font-size="18" lengthAdjust="spacingAndGlyphs" textLength="143" x="1210.25" y="29.4531">Field equipment</text><!--MD5=[0a4fec8ddfc5facd3a33ddb78824cf8a]
@startuml
|Power supply|
start
split
-> 1..4;
|MCCS Cabinet|
:MCCS
cabinet
management
board;
split
(/);
:1 Gb switch;
detach
split again
(/);
-> 1..2;
:100 Gb switch;
detach
split again
(/);
-> 1..17-18;
:MCCS node;
detach
end split
split again
|SPS Cabinet|
-> 1..256;
:SPS
cabinet
management
board;
split
(/);
note right
MccsCabinet.TurnSwitchOn()
end note
-> 1..2;
:switch;
detach
split again
(/);
note right
MccsCabinet.TurnSubrackOn()
end note
-> 1..4;
:SPS
subrack
management
board;
(/);
note right
MccsSubrack.TurnTPMOn()
end note
-> 1..8;
:TPM;
end split
detach
split again
|Field equipment|
-> 1..256;
(/);
note right
MccsAPIU.On()
end note
-> 1;
:APIU;
(/);
note right
MccsAPIU.TurnAntennaOn(n)
end note
-> 1..64;
:Antenna;
detach
end split

@enduml

PlantUML version 1.2020.06(Sun Apr 05 12:38:32 GMT 2020)
(GPL source distribution)
Java Runtime: OpenJDK Runtime Environment
JVM: OpenJDK 64-Bit Server VM
Java Version: 14-ea+33
Operating System: Linux
Default Encoding: UTF-8
Language: en
Country: US
--></g></svg>