<?xml version="1.0" encoding="UTF-8" standalone="no"?><svg xmlns="http://www.w3.org/2000/svg" xmlns:xlink="http://www.w3.org/1999/xlink" contentScriptType="application/ecmascript" contentStyleType="text/css" height="370px" preserveAspectRatio="none" style="width:445px;height:370px;" version="1.1" viewBox="0 0 445 370" width="445px" zoomAndPan="magnify"><defs><filter height="300%" id="f1o73tfg9f4jnn" width="300%" x="-1" y="-1"><feGaussianBlur result="blurOut" stdDeviation="2.0"/><feColorMatrix in="blurOut" result="blurOut2" type="matrix" values="0 0 0 0 0 0 0 0 0 0 0 0 0 0 0 0 0 0 .4 0"/><feOffset dx="4.0" dy="4.0" in="blurOut2" result="blurOut3"/><feBlend in="SourceGraphic" in2="blurOut3" mode="normal"/></filter></defs><g><line style="stroke: #A80036; stroke-width: 1.0; stroke-dasharray: 5.0,5.0;" x1="50" x2="50" y1="38.2969" y2="330.4922"/><line style="stroke: #A80036; stroke-width: 1.0; stroke-dasharray: 5.0,5.0;" x1="168" x2="168" y1="38.2969" y2="330.4922"/><line style="stroke: #A80036; stroke-width: 1.0; stroke-dasharray: 5.0,5.0;" x1="286.5" x2="286.5" y1="38.2969" y2="330.4922"/><line style="stroke: #A80036; stroke-width: 1.0; stroke-dasharray: 5.0,5.0;" x1="404" x2="404" y1="38.2969" y2="330.4922"/><rect fill="#FEFECE" filter="url(#f1o73tfg9f4jnn)" height="30.2969" style="stroke: #A80036; stroke-width: 1.5;" width="81" x="8" y="3"/><text fill="#000000" font-family="sans-serif" font-size="14" lengthAdjust="spacingAndGlyphs" textLength="67" x="15" y="22.9951">Controller</text><rect fill="#FEFECE" filter="url(#f1o73tfg9f4jnn)" height="30.2969" style="stroke: #A80036; stroke-width: 1.5;" width="81" x="8" y="329.4922"/><text fill="#000000" font-family="sans-serif" font-size="14" lengthAdjust="spacingAndGlyphs" textLength="67" x="15" y="349.4873">Controller</text><rect fill="#FEFECE" filter="url(#f1o73tfg9f4jnn)" height="30.2969" style="stroke: #A80036; stroke-width: 1.5;" width="67" x="133" y="3"/><text fill="#000000" font-family="sans-serif" font-size="14" lengthAdjust="spacingAndGlyphs" textLength="53" x="140" y="22.9951">Cabinet</text><rect fill="#FEFECE" filter="url(#f1o73tfg9f4jnn)" height="30.2969" style="stroke: #A80036; stroke-width: 1.5;" width="67" x="133" y="329.4922"/><text fill="#000000" font-family="sans-serif" font-size="14" lengthAdjust="spacingAndGlyphs" textLength="53" x="140" y="349.4873">Cabinet</text><rect fill="#FEFECE" filter="url(#f1o73tfg9f4jnn)" height="30.2969" style="stroke: #A80036; stroke-width: 1.5;" width="70" x="249.5" y="3"/><text fill="#000000" font-family="sans-serif" font-size="14" lengthAdjust="spacingAndGlyphs" textLength="56" x="256.5" y="22.9951">Subrack</text><rect fill="#FEFECE" filter="url(#f1o73tfg9f4jnn)" height="30.2969" style="stroke: #A80036; stroke-width: 1.5;" width="70" x="249.5" y="329.4922"/><text fill="#000000" font-family="sans-serif" font-size="14" lengthAdjust="spacingAndGlyphs" textLength="56" x="256.5" y="349.4873">Subrack</text><rect fill="#FEFECE" filter="url(#f1o73tfg9f4jnn)" height="30.2969" style="stroke: #A80036; stroke-width: 1.5;" width="51" x="377" y="3"/><text fill="#000000" font-family="sans-serif" font-size="14" lengthAdjust="spacingAndGlyphs" textLength="37" x="384" y="22.9951">Tile 1</text><rect fill="#FEFECE" filter="url(#f1o73tfg9f4jnn)" height="30.2969" style="stroke: #A80036; stroke-width: 1.5;" width="51" x="377" y="329.4922"/><text fill="#000000" font-family="sans-serif" font-size="14" lengthAdjust="spacingAndGlyphs" textLength="37" x="384" y="349.4873">Tile 1</text><polygon fill="#A80036" points="156.5,65.4297,166.5,69.4297,156.5,73.4297,160.5,69.4297" style="stroke: #A80036; stroke-width: 1.0;"/><line style="stroke: #A80036; stroke-width: 1.0;" x1="50.5" x2="162.5" y1="69.4297" y2="69.4297"/><text fill="#000000" font-family="sans-serif" font-size="13" lengthAdjust="spacingAndGlyphs" textLength="28" x="57.5" y="64.3638">On()</text><polygon fill="#A80036" points="274.5,94.5625,284.5,98.5625,274.5,102.5625,278.5,98.5625" style="stroke: #A80036; stroke-width: 1.0;"/><line style="stroke: #A80036; stroke-width: 1.0;" x1="168.5" x2="280.5" y1="98.5625" y2="98.5625"/><text fill="#000000" font-family="sans-serif" font-size="13" lengthAdjust="spacingAndGlyphs" textLength="28" x="175.5" y="93.4966">On()</text><polygon fill="#A80036" points="392.5,123.6953,402.5,127.6953,392.5,131.6953,396.5,127.6953" style="stroke: #A80036; stroke-width: 1.0;"/><line style="stroke: #A80036; stroke-width: 1.0;" x1="286.5" x2="398.5" y1="127.6953" y2="127.6953"/><text fill="#000000" font-family="sans-serif" font-size="13" lengthAdjust="spacingAndGlyphs" textLength="28" x="293.5" y="122.6294">On()</text><polygon fill="#A80036" points="297.5,152.8281,287.5,156.8281,297.5,160.8281,293.5,156.8281" style="stroke: #A80036; stroke-width: 1.0;"/><line style="stroke: #A80036; stroke-width: 1.0;" x1="291.5" x2="403.5" y1="156.8281" y2="156.8281"/><text fill="#000000" font-family="sans-serif" font-size="13" lengthAdjust="spacingAndGlyphs" textLength="92" x="303.5" y="151.7622">TurnOnTpm(1)</text><path d="M256,169.8281 L256,194.8281 L433,194.8281 L433,179.8281 L423,169.8281 L256,169.8281 " fill="#FBFB77" filter="url(#f1o73tfg9f4jnn)" style="stroke: #A80036; stroke-width: 1.0;"/><path d="M423,169.8281 L423,179.8281 L433,179.8281 L423,169.8281 " fill="#FBFB77" style="stroke: #A80036; stroke-width: 1.0;"/><text fill="#000000" font-family="sans-serif" font-size="13" lengthAdjust="spacingAndGlyphs" textLength="108" x="284.25" y="186.895">BOOM! Deadlock</text><polygon fill="#A80036" points="392.5,221.0938,402.5,225.0938,392.5,229.0938,396.5,225.0938" style="stroke: #A80036; stroke-width: 1.0;"/><line style="stroke: #A80036; stroke-width: 1.0; stroke-dasharray: 2.0,2.0;" x1="286.5" x2="398.5" y1="225.0938" y2="225.0938"/><text fill="#000000" font-family="sans-serif" font-size="13" lengthAdjust="spacingAndGlyphs" textLength="94" x="293.5" y="220.0278">ResultCode.OK</text><polygon fill="#A80036" points="297.5,250.2266,287.5,254.2266,297.5,258.2266,293.5,254.2266" style="stroke: #A80036; stroke-width: 1.0;"/><line style="stroke: #A80036; stroke-width: 1.0; stroke-dasharray: 2.0,2.0;" x1="291.5" x2="403.5" y1="254.2266" y2="254.2266"/><text fill="#000000" font-family="sans-serif" font-size="13" lengthAdjust="spacingAndGlyphs" textLength="94" x="303.5" y="249.1606">ResultCode.OK</text><polygon fill="#A80036" points="179.5,279.3594,169.5,283.3594,179.5,287.3594,175.5,283.3594" style="stroke: #A80036; stroke-width: 1.0;"/><line style="stroke: #A80036; stroke-width: 1.0; stroke-dasharray: 2.0,2.0;" x1="173.5" x2="285.5" y1="283.3594" y2="283.3594"/><text fill="#000000" font-family="sans-serif" font-size="13" lengthAdjust="spacingAndGlyphs" textLength="94" x="185.5" y="278.2935">ResultCode.OK</text><polygon fill="#A80036" points="61.5,308.4922,51.5,312.4922,61.5,316.4922,57.5,312.4922" style="stroke: #A80036; stroke-width: 1.0;"/><line style="stroke: #A80036; stroke-width: 1.0; stroke-dasharray: 2.0,2.0;" x1="55.5" x2="167.5" y1="312.4922" y2="312.4922"/><text fill="#000000" font-family="sans-serif" font-size="13" lengthAdjust="spacingAndGlyphs" textLength="94" x="67.5" y="307.4263">ResultCode.OK</text><!--MD5=[4bf52c15a625d9e51e001b40a11f02bd]
@startuml
participant Controller
participant Cabinet
participant Subrack
participant "Tile 1" as Tile
Controller -> Cabinet: On()
Cabinet -> Subrack: On()
Subrack -> Tile: On()
Tile -> Subrack: TurnOnTpm(1)
note over Tile, Subrack: BOOM! Deadlock
Subrack - -> Tile: ResultCode.OK
Tile - -> Subrack: ResultCode.OK
Subrack - -> Cabinet: ResultCode.OK
Cabinet - -> Controller: ResultCode.OK

@enduml

PlantUML version 1.2020.06(Sun Apr 05 12:38:32 GMT 2020)
(GPL source distribution)
Java Runtime: OpenJDK Runtime Environment
JVM: OpenJDK 64-Bit Server VM
Java Version: 14-ea+33
Operating System: Linux
Default Encoding: UTF-8
Language: en
Country: US
--></g></svg>