<?xml version="1.0" encoding="UTF-8" standalone="no"?><svg xmlns="http://www.w3.org/2000/svg" xmlns:xlink="http://www.w3.org/1999/xlink" contentScriptType="application/ecmascript" contentStyleType="text/css" height="1592px" preserveAspectRatio="none" style="width:1322px;height:1592px;" version="1.1" viewBox="0 0 1322 1592" width="1322px" zoomAndPan="magnify"><defs><filter height="300%" id="f1lp9ekf44nds6" width="300%" x="-1" y="-1"><feGaussianBlur result="blurOut" stdDeviation="2.0"/><feColorMatrix in="blurOut" result="blurOut2" type="matrix" values="0 0 0 0 0 0 0 0 0 0 0 0 0 0 0 0 0 0 .4 0"/><feOffset dx="4.0" dy="4.0" in="blurOut2" result="blurOut3"/><feBlend in="SourceGraphic" in2="blurOut3" mode="normal"/></filter></defs><g><rect fill="#FFFFFF" filter="url(#f1lp9ekf44nds6)" height="111.2656" style="stroke:#A80036;stroke-width:1.0;" width="10" x="972" y="844.9766"/><rect fill="#FFFFFF" filter="url(#f1lp9ekf44nds6)" height="111.2656" style="stroke:#A80036;stroke-width:1.0;" width="10" x="972" y="1086.6406"/><line style="stroke:#A80036;stroke-width:1.0;stroke-dasharray:5.0,5.0;" x1="50" x2="50" y1="89.1875" y2="1500.5703"/><line style="stroke:#A80036;stroke-width:1.0;stroke-dasharray:5.0,5.0;" x1="202.5" x2="202.5" y1="89.1875" y2="1500.5703"/><line style="stroke:#A80036;stroke-width:1.0;stroke-dasharray:5.0,5.0;" x1="282.5" x2="282.5" y1="89.1875" y2="1500.5703"/><line style="stroke:#A80036;stroke-width:1.0;stroke-dasharray:5.0,5.0;" x1="380.5" x2="380.5" y1="89.1875" y2="1500.5703"/><line style="stroke:#A80036;stroke-width:1.0;stroke-dasharray:5.0,5.0;" x1="480.5" x2="480.5" y1="89.1875" y2="1500.5703"/><line style="stroke:#A80036;stroke-width:1.0;stroke-dasharray:5.0,5.0;" x1="577.5" x2="577.5" y1="89.1875" y2="1500.5703"/><line style="stroke:#A80036;stroke-width:1.0;stroke-dasharray:5.0,5.0;" x1="669.5" x2="669.5" y1="89.1875" y2="1500.5703"/><line style="stroke:#A80036;stroke-width:1.0;stroke-dasharray:5.0,5.0;" x1="755" x2="755" y1="89.1875" y2="1500.5703"/><line style="stroke:#A80036;stroke-width:1.0;stroke-dasharray:5.0,5.0;" x1="976.5" x2="976.5" y1="89.1875" y2="1500.5703"/><line style="stroke:#A80036;stroke-width:1.0;stroke-dasharray:5.0,5.0;" x1="1278" x2="1278" y1="89.1875" y2="1500.5703"/><rect fill="#FEFECE" filter="url(#f1lp9ekf44nds6)" height="62.8906" style="stroke:#A80036;stroke-width:1.5;" width="86" x="5" y="21.2969"/><text fill="#000000" font-family="sans-serif" font-size="14" lengthAdjust="spacing" textLength="52" x="22" y="41.292">Jupyter</text><text fill="#000000" font-family="sans-serif" font-size="14" lengthAdjust="spacing" textLength="72" x="12" y="57.5889">Notebook</text><text fill="#000000" font-family="sans-serif" font-size="14" lengthAdjust="spacing" textLength="29" x="33.5" y="73.8857">OET</text><rect fill="#FEFECE" filter="url(#f1lp9ekf44nds6)" height="62.8906" style="stroke:#A80036;stroke-width:1.5;" width="86" x="5" y="1499.5703"/><text fill="#000000" font-family="sans-serif" font-size="14" lengthAdjust="spacing" textLength="52" x="22" y="1519.5654">Jupyter</text><text fill="#000000" font-family="sans-serif" font-size="14" lengthAdjust="spacing" textLength="72" x="12" y="1535.8623">Notebook</text><text fill="#000000" font-family="sans-serif" font-size="14" lengthAdjust="spacing" textLength="29" x="33.5" y="1552.1592">OET</text><rect fill="#FEFECE" filter="url(#f1lp9ekf44nds6)" height="30.2969" style="stroke:#A80036;stroke-width:1.5;" width="45" x="178.5" y="53.8906"/><text fill="#000000" font-family="sans-serif" font-size="14" lengthAdjust="spacing" textLength="31" x="185.5" y="73.8857">TMC</text><rect fill="#FEFECE" filter="url(#f1lp9ekf44nds6)" height="30.2969" style="stroke:#A80036;stroke-width:1.5;" width="45" x="178.5" y="1499.5703"/><text fill="#000000" font-family="sans-serif" font-size="14" lengthAdjust="spacing" textLength="31" x="185.5" y="1519.5654">TMC</text><rect fill="#FEFECE" filter="url(#f1lp9ekf44nds6)" height="46.5938" style="stroke:#A80036;stroke-width:1.5;" width="87" x="237.5" y="37.5938"/><text fill="#000000" font-family="sans-serif" font-size="14" lengthAdjust="spacing" textLength="41" x="260.5" y="57.5889">MCCS</text><text fill="#000000" font-family="sans-serif" font-size="14" lengthAdjust="spacing" textLength="73" x="244.5" y="73.8857">Controller</text><rect fill="#FEFECE" filter="url(#f1lp9ekf44nds6)" height="46.5938" style="stroke:#A80036;stroke-width:1.5;" width="87" x="237.5" y="1499.5703"/><text fill="#000000" font-family="sans-serif" font-size="14" lengthAdjust="spacing" textLength="41" x="260.5" y="1519.5654">MCCS</text><text fill="#000000" font-family="sans-serif" font-size="14" lengthAdjust="spacing" textLength="73" x="244.5" y="1535.8623">Controller</text><rect fill="#FEFECE" filter="url(#f1lp9ekf44nds6)" height="46.5938" style="stroke:#A80036;stroke-width:1.5;" width="80" x="338.5" y="37.5938"/><text fill="#000000" font-family="sans-serif" font-size="14" lengthAdjust="spacing" textLength="41" x="358" y="57.5889">MCCS</text><text fill="#000000" font-family="sans-serif" font-size="14" lengthAdjust="spacing" textLength="66" x="345.5" y="73.8857">Station 1</text><rect fill="#FEFECE" filter="url(#f1lp9ekf44nds6)" height="46.5938" style="stroke:#A80036;stroke-width:1.5;" width="80" x="338.5" y="1499.5703"/><text fill="#000000" font-family="sans-serif" font-size="14" lengthAdjust="spacing" textLength="41" x="358" y="1519.5654">MCCS</text><text fill="#000000" font-family="sans-serif" font-size="14" lengthAdjust="spacing" textLength="66" x="345.5" y="1535.8623">Station 1</text><rect fill="#FEFECE" filter="url(#f1lp9ekf44nds6)" height="79.1875" style="stroke:#A80036;stroke-width:1.5;" width="92" x="432.5" y="5"/><text fill="#000000" font-family="sans-serif" font-size="14" lengthAdjust="spacing" textLength="41" x="458" y="24.9951">MCCS</text><text fill="#000000" font-family="sans-serif" font-size="14" lengthAdjust="spacing" textLength="39" x="459" y="41.292">Tile 1</text><text fill="#000000" font-family="sans-serif" font-size="14" lengthAdjust="spacing" textLength="25" x="466" y="57.5889">(On</text><text fill="#000000" font-family="sans-serif" font-size="14" lengthAdjust="spacing" textLength="78" x="439.5" y="73.8857">Command)</text><rect fill="#FEFECE" filter="url(#f1lp9ekf44nds6)" height="79.1875" style="stroke:#A80036;stroke-width:1.5;" width="92" x="432.5" y="1499.5703"/><text fill="#000000" font-family="sans-serif" font-size="14" lengthAdjust="spacing" textLength="41" x="458" y="1519.5654">MCCS</text><text fill="#000000" font-family="sans-serif" font-size="14" lengthAdjust="spacing" textLength="39" x="459" y="1535.8623">Tile 1</text><text fill="#000000" font-family="sans-serif" font-size="14" lengthAdjust="spacing" textLength="25" x="466" y="1552.1592">(On</text><text fill="#000000" font-family="sans-serif" font-size="14" lengthAdjust="spacing" textLength="78" x="439.5" y="1568.4561">Command)</text><rect fill="#FEFECE" filter="url(#f1lp9ekf44nds6)" height="79.1875" style="stroke:#A80036;stroke-width:1.5;" width="75" x="538.5" y="5"/><text fill="#000000" font-family="sans-serif" font-size="14" lengthAdjust="spacing" textLength="41" x="555.5" y="24.9951">MCCS</text><text fill="#000000" font-family="sans-serif" font-size="14" lengthAdjust="spacing" textLength="26" x="563" y="41.292">Tile</text><text fill="#000000" font-family="sans-serif" font-size="14" lengthAdjust="spacing" textLength="44" x="554" y="57.5889">Power</text><text fill="#000000" font-family="sans-serif" font-size="14" lengthAdjust="spacing" textLength="61" x="545.5" y="73.8857">Manager</text><rect fill="#FEFECE" filter="url(#f1lp9ekf44nds6)" height="79.1875" style="stroke:#A80036;stroke-width:1.5;" width="75" x="538.5" y="1499.5703"/><text fill="#000000" font-family="sans-serif" font-size="14" lengthAdjust="spacing" textLength="41" x="555.5" y="1519.5654">MCCS</text><text fill="#000000" font-family="sans-serif" font-size="14" lengthAdjust="spacing" textLength="26" x="563" y="1535.8623">Tile</text><text fill="#000000" font-family="sans-serif" font-size="14" lengthAdjust="spacing" textLength="44" x="554" y="1552.1592">Power</text><text fill="#000000" font-family="sans-serif" font-size="14" lengthAdjust="spacing" textLength="61" x="545.5" y="1568.4561">Manager</text><rect fill="#FEFECE" filter="url(#f1lp9ekf44nds6)" height="62.8906" style="stroke:#A80036;stroke-width:1.5;" width="81" x="627.5" y="21.2969"/><text fill="#000000" font-family="sans-serif" font-size="14" lengthAdjust="spacing" textLength="26" x="655" y="41.292">Tile</text><text fill="#000000" font-family="sans-serif" font-size="14" lengthAdjust="spacing" textLength="67" x="634.5" y="57.5889">Hardware</text><text fill="#000000" font-family="sans-serif" font-size="14" lengthAdjust="spacing" textLength="61" x="637.5" y="73.8857">Manager</text><rect fill="#FEFECE" filter="url(#f1lp9ekf44nds6)" height="62.8906" style="stroke:#A80036;stroke-width:1.5;" width="81" x="627.5" y="1499.5703"/><text fill="#000000" font-family="sans-serif" font-size="14" lengthAdjust="spacing" textLength="26" x="655" y="1519.5654">Tile</text><text fill="#000000" font-family="sans-serif" font-size="14" lengthAdjust="spacing" textLength="67" x="634.5" y="1535.8623">Hardware</text><text fill="#000000" font-family="sans-serif" font-size="14" lengthAdjust="spacing" textLength="61" x="637.5" y="1552.1592">Manager</text><rect fill="#FEFECE" filter="url(#f1lp9ekf44nds6)" height="46.5938" style="stroke:#A80036;stroke-width:1.5;" width="58" x="724" y="37.5938"/><text fill="#000000" font-family="sans-serif" font-size="14" lengthAdjust="spacing" textLength="30" x="738" y="57.5889">TPM</text><text fill="#000000" font-family="sans-serif" font-size="14" lengthAdjust="spacing" textLength="44" x="731" y="73.8857">Driver</text><rect fill="#FEFECE" filter="url(#f1lp9ekf44nds6)" height="46.5938" style="stroke:#A80036;stroke-width:1.5;" width="58" x="724" y="1499.5703"/><text fill="#000000" font-family="sans-serif" font-size="14" lengthAdjust="spacing" textLength="30" x="738" y="1519.5654">TPM</text><text fill="#000000" font-family="sans-serif" font-size="14" lengthAdjust="spacing" textLength="44" x="731" y="1535.8623">Driver</text><rect fill="#FEFECE" filter="url(#f1lp9ekf44nds6)" height="46.5938" style="stroke:#A80036;stroke-width:1.5;" width="81" x="934.5" y="37.5938"/><text fill="#000000" font-family="sans-serif" font-size="14" lengthAdjust="spacing" textLength="67" x="941.5" y="57.5889">Hardware</text><text fill="#000000" font-family="sans-serif" font-size="14" lengthAdjust="spacing" textLength="26" x="962" y="73.8857">Tile</text><rect fill="#FEFECE" filter="url(#f1lp9ekf44nds6)" height="46.5938" style="stroke:#A80036;stroke-width:1.5;" width="81" x="934.5" y="1499.5703"/><text fill="#000000" font-family="sans-serif" font-size="14" lengthAdjust="spacing" textLength="67" x="941.5" y="1519.5654">Hardware</text><text fill="#000000" font-family="sans-serif" font-size="14" lengthAdjust="spacing" textLength="26" x="962" y="1535.8623">Tile</text><rect fill="#FEFECE" filter="url(#f1lp9ekf44nds6)" height="46.5938" style="stroke:#A80036;stroke-width:1.5;" width="64" x="1244" y="37.5938"/><text fill="#000000" font-family="sans-serif" font-size="14" lengthAdjust="spacing" textLength="50" x="1251" y="57.5889">pyfabil</text><text fill="#000000" font-family="sans-serif" font-size="14" lengthAdjust="spacing" textLength="30" x="1261" y="73.8857">TPM</text><rect fill="#FEFECE" filter="url(#f1lp9ekf44nds6)" height="46.5938" style="stroke:#A80036;stroke-width:1.5;" width="64" x="1244" y="1499.5703"/><text fill="#000000" font-family="sans-serif" font-size="14" lengthAdjust="spacing" textLength="50" x="1251" y="1519.5654">pyfabil</text><text fill="#000000" font-family="sans-serif" font-size="14" lengthAdjust="spacing" textLength="30" x="1261" y="1535.8623">TPM</text><rect fill="#FFFFFF" filter="url(#f1lp9ekf44nds6)" height="111.2656" style="stroke:#A80036;stroke-width:1.0;" width="10" x="972" y="844.9766"/><rect fill="#FFFFFF" filter="url(#f1lp9ekf44nds6)" height="111.2656" style="stroke:#A80036;stroke-width:1.0;" width="10" x="972" y="1086.6406"/><polygon fill="#A80036" points="191,116.3203,201,120.3203,191,124.3203,195,120.3203" style="stroke:#A80036;stroke-width:1.0;"/><line style="stroke:#A80036;stroke-width:1.0;" x1="50" x2="197" y1="120.3203" y2="120.3203"/><text fill="#000000" font-family="sans-serif" font-size="13" lengthAdjust="spacing" textLength="129" x="57" y="115.2544">Startup_Telescope()</text><path d="M233,133.3203 L233,158.3203 L329,158.3203 L329,143.3203 L319,133.3203 L233,133.3203 " fill="#FBFB77" filter="url(#f1lp9ekf44nds6)" style="stroke:#A80036;stroke-width:1.0;"/><path d="M319,133.3203 L319,143.3203 L329,143.3203 L319,133.3203 " fill="#FBFB77" style="stroke:#A80036;stroke-width:1.0;"/><text fill="#000000" font-family="sans-serif" font-size="13" lengthAdjust="spacing" textLength="75" x="239" y="150.3872">state = OFF</text><polygon fill="#A80036" points="271,184.5859,281,188.5859,271,192.5859,275,188.5859" style="stroke:#A80036;stroke-width:1.0;"/><line style="stroke:#A80036;stroke-width:1.0;" x1="203" x2="277" y1="188.5859" y2="188.5859"/><text fill="#000000" font-family="sans-serif" font-size="13" lengthAdjust="spacing" textLength="28" x="210" y="183.52">On()</text><path d="M330,201.5859 L330,226.5859 L426,226.5859 L426,211.5859 L416,201.5859 L330,201.5859 " fill="#FBFB77" filter="url(#f1lp9ekf44nds6)" style="stroke:#A80036;stroke-width:1.0;"/><path d="M416,201.5859 L416,211.5859 L426,211.5859 L416,201.5859 " fill="#FBFB77" style="stroke:#A80036;stroke-width:1.0;"/><text fill="#000000" font-family="sans-serif" font-size="13" lengthAdjust="spacing" textLength="75" x="336" y="218.6528">state = OFF</text><polygon fill="#A80036" points="368.5,252.8516,378.5,256.8516,368.5,260.8516,372.5,256.8516" style="stroke:#A80036;stroke-width:1.0;"/><line style="stroke:#A80036;stroke-width:1.0;" x1="283" x2="374.5" y1="256.8516" y2="256.8516"/><text fill="#000000" font-family="sans-serif" font-size="13" lengthAdjust="spacing" textLength="28" x="290" y="251.7856">On()</text><path d="M412,269.8516 L412,294.8516 L544,294.8516 L544,279.8516 L534,269.8516 L412,269.8516 " fill="#FBFB77" filter="url(#f1lp9ekf44nds6)" style="stroke:#A80036;stroke-width:1.0;"/><path d="M534,269.8516 L534,279.8516 L544,279.8516 L534,269.8516 " fill="#FBFB77" style="stroke:#A80036;stroke-width:1.0;"/><text fill="#000000" font-family="sans-serif" font-size="13" lengthAdjust="spacing" textLength="111" x="418" y="286.9185">state = STANDBY</text><polygon fill="#A80036" points="468.5,321.1172,478.5,325.1172,468.5,329.1172,472.5,325.1172" style="stroke:#A80036;stroke-width:1.0;"/><line style="stroke:#A80036;stroke-width:1.0;" x1="380.5" x2="474.5" y1="325.1172" y2="325.1172"/><text fill="#000000" font-family="sans-serif" font-size="13" lengthAdjust="spacing" textLength="28" x="387.5" y="320.0513">On()</text><polygon fill="#A80036" points="566,350.25,576,354.25,566,358.25,570,354.25" style="stroke:#A80036;stroke-width:1.0;"/><line style="stroke:#A80036;stroke-width:1.0;" x1="480.5" x2="572" y1="354.25" y2="354.25"/><text fill="#000000" font-family="sans-serif" font-size="13" lengthAdjust="spacing" textLength="30" x="487.5" y="349.1841">Off()</text><polygon fill="#A80036" points="491.5,364.25,481.5,368.25,491.5,372.25,487.5,368.25" style="stroke:#A80036;stroke-width:1.0;"/><line style="stroke:#A80036;stroke-width:1.0;stroke-dasharray:2.0,2.0;" x1="485.5" x2="577" y1="368.25" y2="368.25"/><path d="M430,381.25 L430,406.25 L526,406.25 L526,391.25 L516,381.25 L430,381.25 " fill="#FBFB77" filter="url(#f1lp9ekf44nds6)" style="stroke:#A80036;stroke-width:1.0;"/><path d="M516,381.25 L516,391.25 L526,391.25 L516,381.25 " fill="#FBFB77" style="stroke:#A80036;stroke-width:1.0;"/><text fill="#000000" font-family="sans-serif" font-size="13" lengthAdjust="spacing" textLength="75" x="436" y="398.3169">state = OFF</text><polygon fill="#A80036" points="566,432.5156,576,436.5156,566,440.5156,570,436.5156" style="stroke:#A80036;stroke-width:1.0;"/><line style="stroke:#A80036;stroke-width:1.0;" x1="480.5" x2="572" y1="436.5156" y2="436.5156"/><text fill="#000000" font-family="sans-serif" font-size="13" lengthAdjust="spacing" textLength="28" x="487.5" y="431.4497">On()</text><polygon fill="#A80036" points="491.5,446.5156,481.5,450.5156,491.5,454.5156,487.5,450.5156" style="stroke:#A80036;stroke-width:1.0;"/><line style="stroke:#A80036;stroke-width:1.0;stroke-dasharray:2.0,2.0;" x1="485.5" x2="577" y1="450.5156" y2="450.5156"/><path d="M433,463.5156 L433,488.5156 L524,488.5156 L524,473.5156 L514,463.5156 L433,463.5156 " fill="#FBFB77" filter="url(#f1lp9ekf44nds6)" style="stroke:#A80036;stroke-width:1.0;"/><path d="M514,463.5156 L514,473.5156 L524,473.5156 L514,463.5156 " fill="#FBFB77" style="stroke:#A80036;stroke-width:1.0;"/><text fill="#000000" font-family="sans-serif" font-size="13" lengthAdjust="spacing" textLength="70" x="439" y="480.5825">state = ON</text><polygon fill="#A80036" points="658,514.7813,668,518.7813,658,522.7813,662,518.7813" style="stroke:#A80036;stroke-width:1.0;"/><line style="stroke:#A80036;stroke-width:1.0;" x1="480.5" x2="664" y1="518.7813" y2="518.7813"/><text fill="#000000" font-family="sans-serif" font-size="13" lengthAdjust="spacing" textLength="61" x="487.5" y="513.7153">initialise()</text><polygon fill="#A80036" points="743,543.9141,753,547.9141,743,551.9141,747,547.9141" style="stroke:#A80036;stroke-width:1.0;"/><line style="stroke:#A80036;stroke-width:1.0;" x1="670" x2="749" y1="547.9141" y2="547.9141"/><text fill="#000000" font-family="sans-serif" font-size="13" lengthAdjust="spacing" textLength="61" x="677" y="542.8481">initialise()</text><polygon fill="#A80036" points="965,573.0469,975,577.0469,965,581.0469,969,577.0469" style="stroke:#A80036;stroke-width:1.0;"/><line style="stroke:#A80036;stroke-width:1.0;" x1="755" x2="971" y1="577.0469" y2="577.0469"/><text fill="#000000" font-family="sans-serif" font-size="13" lengthAdjust="spacing" textLength="198" x="762" y="571.981">perform_connectivity_checks()</text><polygon fill="#A80036" points="766,587.0469,756,591.0469,766,595.0469,762,591.0469" style="stroke:#A80036;stroke-width:1.0;"/><line style="stroke:#A80036;stroke-width:1.0;stroke-dasharray:2.0,2.0;" x1="760" x2="976" y1="591.0469" y2="591.0469"/><polygon fill="#A80036" points="965,616.1797,975,620.1797,965,624.1797,969,620.1797" style="stroke:#A80036;stroke-width:1.0;"/><line style="stroke:#A80036;stroke-width:1.0;" x1="755" x2="971" y1="620.1797" y2="620.1797"/><text fill="#000000" font-family="sans-serif" font-size="13" lengthAdjust="spacing" textLength="166" x="762" y="615.1138">connect(simulation=True)</text><polygon fill="#A80036" points="1266,645.3125,1276,649.3125,1266,653.3125,1270,649.3125" style="stroke:#A80036;stroke-width:1.0;"/><line style="stroke:#A80036;stroke-width:1.0;" x1="977" x2="1272" y1="649.3125" y2="649.3125"/><text fill="#000000" font-family="sans-serif" font-size="13" lengthAdjust="spacing" textLength="36" x="984" y="644.2466">TPM()</text><polygon fill="#A80036" points="988,659.3125,978,663.3125,988,667.3125,984,663.3125" style="stroke:#A80036;stroke-width:1.0;"/><line style="stroke:#A80036;stroke-width:1.0;stroke-dasharray:2.0,2.0;" x1="982" x2="1277" y1="663.3125" y2="663.3125"/><polygon fill="#A80036" points="1266,688.4453,1276,692.4453,1266,696.4453,1270,692.4453" style="stroke:#A80036;stroke-width:1.0;"/><line style="stroke:#A80036;stroke-width:1.0;" x1="977" x2="1272" y1="692.4453" y2="692.4453"/><text fill="#000000" font-family="sans-serif" font-size="13" lengthAdjust="spacing" textLength="103" x="984" y="687.3794">tpm.connect(...)</text><polygon fill="#A80036" points="988,702.4453,978,706.4453,988,710.4453,984,706.4453" style="stroke:#A80036;stroke-width:1.0;"/><line style="stroke:#A80036;stroke-width:1.0;stroke-dasharray:2.0,2.0;" x1="982" x2="1277" y1="706.4453" y2="706.4453"/><polygon fill="#A80036" points="766,716.4453,756,720.4453,766,724.4453,762,720.4453" style="stroke:#A80036;stroke-width:1.0;"/><line style="stroke:#A80036;stroke-width:1.0;stroke-dasharray:2.0,2.0;" x1="760" x2="976" y1="720.4453" y2="720.4453"/><polygon fill="#A80036" points="1266,745.5781,1276,749.5781,1266,753.5781,1270,749.5781" style="stroke:#A80036;stroke-width:1.0;"/><line style="stroke:#A80036;stroke-width:1.0;" x1="755" x2="1272" y1="749.5781" y2="749.5781"/><text fill="#000000" font-family="sans-serif" font-size="13" lengthAdjust="spacing" textLength="141" x="762" y="744.5122">tpm.is_programmed()</text><polygon fill="#A80036" points="766,774.7109,756,778.7109,766,782.7109,762,778.7109" style="stroke:#A80036;stroke-width:1.0;"/><line style="stroke:#A80036;stroke-width:1.0;stroke-dasharray:2.0,2.0;" x1="760" x2="1277" y1="778.7109" y2="778.7109"/><text fill="#000000" font-family="sans-serif" font-size="13" lengthAdjust="spacing" textLength="36" x="772" y="773.645">&lt;no&gt;</text><polygon fill="#A80036" points="965,803.8438,975,807.8438,965,811.8438,969,807.8438" style="stroke:#A80036;stroke-width:1.0;"/><line style="stroke:#A80036;stroke-width:1.0;" x1="755" x2="971" y1="807.8438" y2="807.8438"/><text fill="#000000" font-family="sans-serif" font-size="13" lengthAdjust="spacing" textLength="108" x="762" y="802.7778">program_fpgas()</text><line style="stroke:#A80036;stroke-width:1.0;" x1="977" x2="1024" y1="831.9766" y2="831.9766"/><line style="stroke:#A80036;stroke-width:1.0;" x1="1024" x2="1024" y1="831.9766" y2="844.9766"/><line style="stroke:#A80036;stroke-width:1.0;" x1="983" x2="1024" y1="844.9766" y2="844.9766"/><polygon fill="#A80036" points="993,840.9766,983,844.9766,993,848.9766,989,844.9766" style="stroke:#A80036;stroke-width:1.0;"/><text fill="#000000" font-family="sans-serif" font-size="13" lengthAdjust="spacing" textLength="166" x="989" y="826.9106">connect(simulation=True)</text><polygon fill="#A80036" points="1266,875.1094,1276,879.1094,1266,883.1094,1270,879.1094" style="stroke:#A80036;stroke-width:1.0;"/><line style="stroke:#A80036;stroke-width:1.0;" x1="982" x2="1272" y1="879.1094" y2="879.1094"/><text fill="#000000" font-family="sans-serif" font-size="13" lengthAdjust="spacing" textLength="36" x="989" y="874.0435">TPM()</text><polygon fill="#A80036" points="993,889.1094,983,893.1094,993,897.1094,989,893.1094" style="stroke:#A80036;stroke-width:1.0;"/><line style="stroke:#A80036;stroke-width:1.0;stroke-dasharray:2.0,2.0;" x1="987" x2="1277" y1="893.1094" y2="893.1094"/><polygon fill="#A80036" points="1266,918.2422,1276,922.2422,1266,926.2422,1270,922.2422" style="stroke:#A80036;stroke-width:1.0;"/><line style="stroke:#A80036;stroke-width:1.0;" x1="982" x2="1272" y1="922.2422" y2="922.2422"/><text fill="#000000" font-family="sans-serif" font-size="13" lengthAdjust="spacing" textLength="103" x="989" y="917.1763">tpm.connect(...)</text><polygon fill="#A80036" points="993,932.2422,983,936.2422,993,940.2422,989,936.2422" style="stroke:#A80036;stroke-width:1.0;"/><line style="stroke:#A80036;stroke-width:1.0;stroke-dasharray:2.0,2.0;" x1="987" x2="1277" y1="936.2422" y2="936.2422"/><line style="stroke:#A80036;stroke-width:1.0;stroke-dasharray:2.0,2.0;" x1="982" x2="1024" y1="955.2422" y2="955.2422"/><line style="stroke:#A80036;stroke-width:1.0;stroke-dasharray:2.0,2.0;" x1="1024" x2="1024" y1="955.2422" y2="968.2422"/><line style="stroke:#A80036;stroke-width:1.0;stroke-dasharray:2.0,2.0;" x1="977" x2="1024" y1="968.2422" y2="968.2422"/><polygon fill="#A80036" points="987,964.2422,977,968.2422,987,972.2422,983,968.2422" style="stroke:#A80036;stroke-width:1.0;"/><polygon fill="#A80036" points="1266,988.375,1276,992.375,1266,996.375,1270,992.375" style="stroke:#A80036;stroke-width:1.0;"/><line style="stroke:#A80036;stroke-width:1.0;" x1="977" x2="1272" y1="992.375" y2="992.375"/><text fill="#000000" font-family="sans-serif" font-size="13" lengthAdjust="spacing" textLength="277" x="984" y="987.3091">download_firmware(Device.FPGA_1, bitfile)</text><polygon fill="#A80036" points="988,1002.375,978,1006.375,988,1010.375,984,1006.375" style="stroke:#A80036;stroke-width:1.0;"/><line style="stroke:#A80036;stroke-width:1.0;stroke-dasharray:2.0,2.0;" x1="982" x2="1277" y1="1006.375" y2="1006.375"/><polygon fill="#A80036" points="766,1016.375,756,1020.375,766,1024.375,762,1020.375" style="stroke:#A80036;stroke-width:1.0;"/><line style="stroke:#A80036;stroke-width:1.0;stroke-dasharray:2.0,2.0;" x1="760" x2="976" y1="1020.375" y2="1020.375"/><polygon fill="#A80036" points="965,1045.5078,975,1049.5078,965,1053.5078,969,1049.5078" style="stroke:#A80036;stroke-width:1.0;"/><line style="stroke:#A80036;stroke-width:1.0;" x1="755" x2="971" y1="1049.5078" y2="1049.5078"/><text fill="#000000" font-family="sans-serif" font-size="13" lengthAdjust="spacing" textLength="61" x="762" y="1044.4419">initialise()</text><line style="stroke:#A80036;stroke-width:1.0;" x1="977" x2="1024" y1="1073.6406" y2="1073.6406"/><line style="stroke:#A80036;stroke-width:1.0;" x1="1024" x2="1024" y1="1073.6406" y2="1086.6406"/><line style="stroke:#A80036;stroke-width:1.0;" x1="983" x2="1024" y1="1086.6406" y2="1086.6406"/><polygon fill="#A80036" points="993,1082.6406,983,1086.6406,993,1090.6406,989,1086.6406" style="stroke:#A80036;stroke-width:1.0;"/><text fill="#000000" font-family="sans-serif" font-size="13" lengthAdjust="spacing" textLength="151" x="989" y="1068.5747">connect(initialise=True)</text><polygon fill="#A80036" points="1266,1116.7734,1276,1120.7734,1266,1124.7734,1270,1120.7734" style="stroke:#A80036;stroke-width:1.0;"/><line style="stroke:#A80036;stroke-width:1.0;" x1="982" x2="1272" y1="1120.7734" y2="1120.7734"/><text fill="#000000" font-family="sans-serif" font-size="13" lengthAdjust="spacing" textLength="36" x="989" y="1115.7075">TPM()</text><polygon fill="#A80036" points="993,1130.7734,983,1134.7734,993,1138.7734,989,1134.7734" style="stroke:#A80036;stroke-width:1.0;"/><line style="stroke:#A80036;stroke-width:1.0;stroke-dasharray:2.0,2.0;" x1="987" x2="1277" y1="1134.7734" y2="1134.7734"/><polygon fill="#A80036" points="1266,1159.9063,1276,1163.9063,1266,1167.9063,1270,1163.9063" style="stroke:#A80036;stroke-width:1.0;"/><line style="stroke:#A80036;stroke-width:1.0;" x1="982" x2="1272" y1="1163.9063" y2="1163.9063"/><text fill="#000000" font-family="sans-serif" font-size="13" lengthAdjust="spacing" textLength="103" x="989" y="1158.8403">tpm.connect(...)</text><polygon fill="#A80036" points="993,1173.9063,983,1177.9063,993,1181.9063,989,1177.9063" style="stroke:#A80036;stroke-width:1.0;"/><line style="stroke:#A80036;stroke-width:1.0;stroke-dasharray:2.0,2.0;" x1="987" x2="1277" y1="1177.9063" y2="1177.9063"/><line style="stroke:#A80036;stroke-width:1.0;stroke-dasharray:2.0,2.0;" x1="982" x2="1024" y1="1196.9063" y2="1196.9063"/><line style="stroke:#A80036;stroke-width:1.0;stroke-dasharray:2.0,2.0;" x1="1024" x2="1024" y1="1196.9063" y2="1209.9063"/><line style="stroke:#A80036;stroke-width:1.0;stroke-dasharray:2.0,2.0;" x1="977" x2="1024" y1="1209.9063" y2="1209.9063"/><polygon fill="#A80036" points="987,1205.9063,977,1209.9063,987,1213.9063,983,1209.9063" style="stroke:#A80036;stroke-width:1.0;"/><polygon fill="#A80036" points="766,1214.9063,756,1218.9063,766,1222.9063,762,1218.9063" style="stroke:#A80036;stroke-width:1.0;"/><line style="stroke:#A80036;stroke-width:1.0;stroke-dasharray:2.0,2.0;" x1="760" x2="976" y1="1218.9063" y2="1218.9063"/><polygon fill="#A80036" points="1266,1244.0391,1276,1248.0391,1266,1252.0391,1270,1248.0391" style="stroke:#A80036;stroke-width:1.0;"/><line style="stroke:#A80036;stroke-width:1.0;" x1="755" x2="1272" y1="1248.0391" y2="1248.0391"/><text fill="#000000" font-family="sans-serif" font-size="13" lengthAdjust="spacing" textLength="141" x="762" y="1242.9731">tpm.is_programmed()</text><polygon fill="#A80036" points="766,1273.1719,756,1277.1719,766,1281.1719,762,1277.1719" style="stroke:#A80036;stroke-width:1.0;"/><line style="stroke:#A80036;stroke-width:1.0;stroke-dasharray:2.0,2.0;" x1="760" x2="1277" y1="1277.1719" y2="1277.1719"/><text fill="#000000" font-family="sans-serif" font-size="13" lengthAdjust="spacing" textLength="43" x="772" y="1272.106">&lt;yes&gt;</text><polygon fill="#A80036" points="965,1302.3047,975,1306.3047,965,1310.3047,969,1306.3047" style="stroke:#A80036;stroke-width:1.0;"/><line style="stroke:#A80036;stroke-width:1.0;" x1="755" x2="971" y1="1306.3047" y2="1306.3047"/><text fill="#000000" font-family="sans-serif" font-size="13" lengthAdjust="spacing" textLength="153" x="762" y="1301.2388">perform_health_check()</text><polygon fill="#A80036" points="766,1316.3047,756,1320.3047,766,1324.3047,762,1320.3047" style="stroke:#A80036;stroke-width:1.0;"/><line style="stroke:#A80036;stroke-width:1.0;stroke-dasharray:2.0,2.0;" x1="760" x2="976" y1="1320.3047" y2="1320.3047"/><polygon fill="#A80036" points="681,1330.3047,671,1334.3047,681,1338.3047,677,1334.3047" style="stroke:#A80036;stroke-width:1.0;"/><line style="stroke:#A80036;stroke-width:1.0;stroke-dasharray:2.0,2.0;" x1="675" x2="754" y1="1334.3047" y2="1334.3047"/><polygon fill="#A80036" points="491.5,1344.3047,481.5,1348.3047,491.5,1352.3047,487.5,1348.3047" style="stroke:#A80036;stroke-width:1.0;"/><line style="stroke:#A80036;stroke-width:1.0;stroke-dasharray:2.0,2.0;" x1="485.5" x2="669" y1="1348.3047" y2="1348.3047"/><polygon fill="#A80036" points="391.5,1358.3047,381.5,1362.3047,391.5,1366.3047,387.5,1362.3047" style="stroke:#A80036;stroke-width:1.0;"/><line style="stroke:#A80036;stroke-width:1.0;stroke-dasharray:2.0,2.0;" x1="385.5" x2="479.5" y1="1362.3047" y2="1362.3047"/><path d="M333,1375.3047 L333,1400.3047 L424,1400.3047 L424,1385.3047 L414,1375.3047 L333,1375.3047 " fill="#FBFB77" filter="url(#f1lp9ekf44nds6)" style="stroke:#A80036;stroke-width:1.0;"/><path d="M414,1375.3047 L414,1385.3047 L424,1385.3047 L414,1375.3047 " fill="#FBFB77" style="stroke:#A80036;stroke-width:1.0;"/><text fill="#000000" font-family="sans-serif" font-size="13" lengthAdjust="spacing" textLength="70" x="339" y="1392.3716">state = ON</text><polygon fill="#A80036" points="294,1411.4375,284,1415.4375,294,1419.4375,290,1415.4375" style="stroke:#A80036;stroke-width:1.0;"/><line style="stroke:#A80036;stroke-width:1.0;stroke-dasharray:2.0,2.0;" x1="288" x2="379.5" y1="1415.4375" y2="1415.4375"/><path d="M235,1428.4375 L235,1453.4375 L326,1453.4375 L326,1438.4375 L316,1428.4375 L235,1428.4375 " fill="#FBFB77" filter="url(#f1lp9ekf44nds6)" style="stroke:#A80036;stroke-width:1.0;"/><path d="M316,1428.4375 L316,1438.4375 L326,1438.4375 L316,1428.4375 " fill="#FBFB77" style="stroke:#A80036;stroke-width:1.0;"/><text fill="#000000" font-family="sans-serif" font-size="13" lengthAdjust="spacing" textLength="70" x="241" y="1445.5044">state = ON</text><polygon fill="#A80036" points="214,1464.5703,204,1468.5703,214,1472.5703,210,1468.5703" style="stroke:#A80036;stroke-width:1.0;"/><line style="stroke:#A80036;stroke-width:1.0;stroke-dasharray:2.0,2.0;" x1="208" x2="282" y1="1468.5703" y2="1468.5703"/><polygon fill="#A80036" points="61,1478.5703,51,1482.5703,61,1486.5703,57,1482.5703" style="stroke:#A80036;stroke-width:1.0;"/><line style="stroke:#A80036;stroke-width:1.0;stroke-dasharray:2.0,2.0;" x1="55" x2="202" y1="1482.5703" y2="1482.5703"/><!--MD5=[56e2e93b42e1f31a9a30ecbd6b04d3cc]
@startuml
participant "Jupyter\nNotebook\nOET" as Jupyter
participant "TMC" as TMC
participant "MCCS\nController" as MCCS_Controller
participant "MCCS\nStation 1" as MCCS_Station_1
participant "MCCS\nTile 1\n(On\nCommand)" as MCCS_Tile_1
participant "MCCS\nTile\nPower\nManager" as MCCS_Tile_PM
participant "Tile\nHardware\nManager" as Tile_HW_Man
participant "TPM\nDriver" as TPM_Drv
participant "Hardware\nTile" as HW_Tile
participant "pyfabil\nTPM" as TPM

Jupyter -> TMC: Startup_Telescope()
note over MCCS_Controller: state = OFF
TMC -> MCCS_Controller: On()
note over MCCS_Station_1: state = OFF
MCCS_Controller -> MCCS_Station_1: On()

note over MCCS_Tile_1: state = STANDBY

MCCS_Station_1 -> MCCS_Tile_1: On()

MCCS_Tile_1 -> MCCS_Tile_PM: Off()
MCCS_Tile_1 <- - MCCS_Tile_PM:

note over MCCS_Tile_1: state = OFF

MCCS_Tile_1 -> MCCS_Tile_PM: On()
MCCS_Tile_1 <- - MCCS_Tile_PM:

note over MCCS_Tile_1: state = ON

MCCS_Tile_1 -> Tile_HW_Man: initialise()

Tile_HW_Man -> TPM_Drv: initialise()
TPM_Drv -> HW_Tile: perform_connectivity_checks()
TPM_Drv <- - HW_Tile:
TPM_Drv -> HW_Tile: connect(simulation=True)
HW_Tile -> TPM: TPM()
HW_Tile <- - TPM:
HW_Tile -> TPM: tpm.connect(...)
HW_Tile <- - TPM:
TPM_Drv <- - HW_Tile:
TPM_Drv -> TPM: tpm.is_programmed()
TPM_Drv <- - TPM: <no>

TPM_Drv -> HW_Tile: program_fpgas()
HW_Tile -> HW_Tile: connect(simulation=True)
activate HW_Tile
HW_Tile -> TPM: TPM()
HW_Tile <- - TPM:
HW_Tile -> TPM: tpm.connect(...)
HW_Tile <- - TPM:
HW_Tile <- - HW_Tile:
deactivate HW_Tile
HW_Tile -> TPM: download_firmware(Device.FPGA_1, bitfile)
HW_Tile <- - TPM:
TPM_Drv <- - HW_Tile:

TPM_Drv -> HW_Tile: initialise()

HW_Tile -> HW_Tile: connect(initialise=True)
activate HW_Tile
HW_Tile -> TPM: TPM()
HW_Tile <- - TPM:
HW_Tile -> TPM: tpm.connect(...)
HW_Tile <- - TPM:
HW_Tile <- - HW_Tile:
deactivate HW_Tile
TPM_Drv <- - HW_Tile:

TPM_Drv -> TPM: tpm.is_programmed()
TPM_Drv <- - TPM: <yes>

TPM_Drv -> HW_Tile: perform_health_check()
TPM_Drv <- - HW_Tile:

Tile_HW_Man <- - TPM_Drv:
MCCS_Tile_1 <- - Tile_HW_Man:

MCCS_Station_1 <- - MCCS_Tile_1:
note over MCCS_Station_1: state = ON

MCCS_Controller <- - MCCS_Station_1:
note over MCCS_Controller: state = ON

TMC <- - MCCS_Controller:
Jupyter <- - TMC:
@enduml

PlantUML version 1.2021.2beta5(Unknown compile time)
(GPL source distribution)
Java Runtime: Java(TM) SE Runtime Environment
JVM: Java HotSpot(TM) 64-Bit Server VM
Default Encoding: UTF-8
Language: en
Country: US
--></g></svg>