<?xml version="1.0" encoding="UTF-8" standalone="no"?><svg xmlns="http://www.w3.org/2000/svg" xmlns:xlink="http://www.w3.org/1999/xlink" contentScriptType="application/ecmascript" contentStyleType="text/css" height="718px" preserveAspectRatio="none" style="width:1248px;height:718px;" version="1.1" viewBox="0 0 1248 718" width="1248px" zoomAndPan="magnify"><defs><filter height="300%" id="f18qivghqif86t" width="300%" x="-1" y="-1"><feGaussianBlur result="blurOut" stdDeviation="2.0"/><feColorMatrix in="blurOut" result="blurOut2" type="matrix" values="0 0 0 0 0 0 0 0 0 0 0 0 0 0 0 0 0 0 .4 0"/><feOffset dx="4.0" dy="4.0" in="blurOut2" result="blurOut3"/><feBlend in="SourceGraphic" in2="blurOut3" mode="normal"/></filter></defs><g><line style="stroke:#A80036;stroke-width:1.0;stroke-dasharray:5.0,5.0;" x1="27" x2="27" y1="56.5938" y2="659.25"/><line style="stroke:#A80036;stroke-width:1.0;stroke-dasharray:5.0,5.0;" x1="97" x2="97" y1="56.5938" y2="659.25"/><line style="stroke:#A80036;stroke-width:1.0;stroke-dasharray:5.0,5.0;" x1="333" x2="333" y1="56.5938" y2="659.25"/><line style="stroke:#A80036;stroke-width:1.0;stroke-dasharray:5.0,5.0;" x1="457" x2="457" y1="56.5938" y2="659.25"/><line style="stroke:#A80036;stroke-width:1.0;stroke-dasharray:5.0,5.0;" x1="826.5" x2="826.5" y1="56.5938" y2="659.25"/><line style="stroke:#A80036;stroke-width:1.0;stroke-dasharray:5.0,5.0;" x1="1200" x2="1200" y1="56.5938" y2="659.25"/><rect fill="#FEFECE" filter="url(#f18qivghqif86t)" height="30.2969" style="stroke:#A80036;stroke-width:1.5;" width="40" x="5" y="21.2969"/><text fill="#000000" font-family="sans-serif" font-size="14" lengthAdjust="spacing" textLength="26" x="12" y="41.292">Tile</text><rect fill="#FEFECE" filter="url(#f18qivghqif86t)" height="30.2969" style="stroke:#A80036;stroke-width:1.5;" width="40" x="5" y="658.25"/><text fill="#000000" font-family="sans-serif" font-size="14" lengthAdjust="spacing" textLength="26" x="12" y="678.2451">Tile</text><rect fill="#FEFECE" filter="url(#f18qivghqif86t)" height="30.2969" style="stroke:#A80036;stroke-width:1.5;" width="72" x="59" y="21.2969"/><text fill="#000000" font-family="sans-serif" font-size="14" lengthAdjust="spacing" textLength="58" x="66" y="41.292">Initiator</text><rect fill="#FEFECE" filter="url(#f18qivghqif86t)" height="30.2969" style="stroke:#A80036;stroke-width:1.5;" width="72" x="59" y="658.25"/><text fill="#000000" font-family="sans-serif" font-size="14" lengthAdjust="spacing" textLength="58" x="66" y="678.2451">Initiator</text><rect fill="#FEFECE" filter="url(#f18qivghqif86t)" height="46.5938" style="stroke:#A80036;stroke-width:1.5;" width="72" x="295" y="5"/><text fill="#000000" font-family="sans-serif" font-size="14" lengthAdjust="spacing" textLength="58" x="302" y="24.9951">Subrack</text><text fill="#000000" font-family="sans-serif" font-size="14" lengthAdjust="spacing" textLength="49" x="306.5" y="41.292">Device</text><rect fill="#FEFECE" filter="url(#f18qivghqif86t)" height="46.5938" style="stroke:#A80036;stroke-width:1.5;" width="72" x="295" y="658.25"/><text fill="#000000" font-family="sans-serif" font-size="14" lengthAdjust="spacing" textLength="58" x="302" y="678.2451">Subrack</text><text fill="#000000" font-family="sans-serif" font-size="14" lengthAdjust="spacing" textLength="49" x="306.5" y="694.542">Device</text><rect fill="#FEFECE" filter="url(#f18qivghqif86t)" height="46.5938" style="stroke:#A80036;stroke-width:1.5;" width="72" x="419" y="5"/><text fill="#000000" font-family="sans-serif" font-size="14" lengthAdjust="spacing" textLength="58" x="426" y="24.9951">Subrack</text><text fill="#000000" font-family="sans-serif" font-size="14" lengthAdjust="spacing" textLength="44" x="433" y="41.292">Driver</text><rect fill="#FEFECE" filter="url(#f18qivghqif86t)" height="46.5938" style="stroke:#A80036;stroke-width:1.5;" width="72" x="419" y="658.25"/><text fill="#000000" font-family="sans-serif" font-size="14" lengthAdjust="spacing" textLength="58" x="426" y="678.2451">Subrack</text><text fill="#000000" font-family="sans-serif" font-size="14" lengthAdjust="spacing" textLength="44" x="433" y="694.542">Driver</text><rect fill="#FEFECE" filter="url(#f18qivghqif86t)" height="46.5938" style="stroke:#A80036;stroke-width:1.5;" width="81" x="784.5" y="5"/><text fill="#000000" font-family="sans-serif" font-size="14" lengthAdjust="spacing" textLength="67" x="791.5" y="24.9951">Hardware</text><text fill="#000000" font-family="sans-serif" font-size="14" lengthAdjust="spacing" textLength="47" x="801.5" y="41.292">Server</text><rect fill="#FEFECE" filter="url(#f18qivghqif86t)" height="46.5938" style="stroke:#A80036;stroke-width:1.5;" width="81" x="784.5" y="658.25"/><text fill="#000000" font-family="sans-serif" font-size="14" lengthAdjust="spacing" textLength="67" x="791.5" y="678.2451">Hardware</text><text fill="#000000" font-family="sans-serif" font-size="14" lengthAdjust="spacing" textLength="47" x="801.5" y="694.542">Server</text><rect fill="#FEFECE" filter="url(#f18qivghqif86t)" height="46.5938" style="stroke:#A80036;stroke-width:1.5;" width="72" x="1162" y="5"/><text fill="#000000" font-family="sans-serif" font-size="14" lengthAdjust="spacing" textLength="58" x="1169" y="24.9951">Subrack</text><text fill="#000000" font-family="sans-serif" font-size="14" lengthAdjust="spacing" textLength="47" x="1174.5" y="41.292">Server</text><rect fill="#FEFECE" filter="url(#f18qivghqif86t)" height="46.5938" style="stroke:#A80036;stroke-width:1.5;" width="72" x="1162" y="658.25"/><text fill="#000000" font-family="sans-serif" font-size="14" lengthAdjust="spacing" textLength="58" x="1169" y="678.2451">Subrack</text><text fill="#000000" font-family="sans-serif" font-size="14" lengthAdjust="spacing" textLength="47" x="1174.5" y="694.542">Server</text><polygon fill="#A80036" points="321,83.7266,331,87.7266,321,91.7266,325,87.7266" style="stroke:#A80036;stroke-width:1.0;"/><line style="stroke:#A80036;stroke-width:1.0;" x1="27" x2="327" y1="87.7266" y2="87.7266"/><text fill="#000000" font-family="sans-serif" font-size="13" lengthAdjust="spacing" textLength="115" x="34" y="82.6606">subscribe_event()</text><polygon fill="#A80036" points="321,112.8594,331,116.8594,321,120.8594,325,116.8594" style="stroke:#A80036;stroke-width:1.0;"/><line style="stroke:#A80036;stroke-width:1.0;" x1="97" x2="327" y1="116.8594" y2="116.8594"/><text fill="#000000" font-family="sans-serif" font-size="13" lengthAdjust="spacing" textLength="212" x="104" y="111.7935">command_inout("TurnOnTpm",1)</text><polygon fill="#A80036" points="445,141.9922,455,145.9922,445,149.9922,449,145.9922" style="stroke:#A80036;stroke-width:1.0;"/><line style="stroke:#A80036;stroke-width:1.0;" x1="333" x2="451" y1="145.9922" y2="145.9922"/><text fill="#000000" font-family="sans-serif" font-size="13" lengthAdjust="spacing" textLength="100" x="340" y="140.9263">turn_on_tpm(1)</text><polygon fill="#A80036" points="815,171.125,825,175.125,815,179.125,819,175.125" style="stroke:#A80036;stroke-width:1.0;"/><line style="stroke:#A80036;stroke-width:1.0;" x1="457" x2="821" y1="175.125" y2="175.125"/><text fill="#000000" font-family="sans-serif" font-size="13" lengthAdjust="spacing" textLength="238" x="464" y="170.0591">execute_command("turn_on_tpm",1)</text><polygon fill="#A80036" points="1188,200.2578,1198,204.2578,1188,208.2578,1192,204.2578" style="stroke:#A80036;stroke-width:1.0;"/><line style="stroke:#A80036;stroke-width:1.0;" x1="827" x2="1194" y1="204.2578" y2="204.2578"/><text fill="#000000" font-family="sans-serif" font-size="13" lengthAdjust="spacing" textLength="336" x="834" y="199.1919">'...?type=command&amp;param=turn_on_tpm&amp;value=1'</text><polygon fill="#A80036" points="838,229.3906,828,233.3906,838,237.3906,834,233.3906" style="stroke:#A80036;stroke-width:1.0;"/><line style="stroke:#A80036;stroke-width:1.0;" x1="832" x2="1199" y1="233.3906" y2="233.3906"/><text fill="#000000" font-family="sans-serif" font-size="13" lengthAdjust="spacing" textLength="312" x="844" y="228.3247">'{...command:"turn_on_tpm",status=STARTED}'</text><polygon fill="#A80036" points="468,258.5234,458,262.5234,468,266.5234,464,262.5234" style="stroke:#A80036;stroke-width:1.0;"/><line style="stroke:#A80036;stroke-width:1.0;" x1="462" x2="826" y1="262.5234" y2="262.5234"/><text fill="#000000" font-family="sans-serif" font-size="13" lengthAdjust="spacing" textLength="311" x="474" y="257.4575">{...command:"turn_on_tpm",status=STARTED]}</text><polygon fill="#A80036" points="815,287.6563,825,291.6563,815,295.6563,819,291.6563" style="stroke:#A80036;stroke-width:1.0;"/><line style="stroke:#A80036;stroke-width:1.0;" x1="457" x2="821" y1="291.6563" y2="291.6563"/><text fill="#000000" font-family="sans-serif" font-size="13" lengthAdjust="spacing" textLength="284" x="464" y="286.5903">execute_command("command_completed")</text><polygon fill="#A80036" points="1188,316.7891,1198,320.7891,1188,324.7891,1192,320.7891" style="stroke:#A80036;stroke-width:1.0;"/><line style="stroke:#A80036;stroke-width:1.0;" x1="827" x2="1194" y1="320.7891" y2="320.7891"/><text fill="#000000" font-family="sans-serif" font-size="13" lengthAdjust="spacing" textLength="331" x="834" y="315.7231">'...?type=command&amp;param=command_completed'</text><polygon fill="#A80036" points="838,345.9219,828,349.9219,838,353.9219,834,349.9219" style="stroke:#A80036;stroke-width:1.0;"/><line style="stroke:#A80036;stroke-width:1.0;" x1="832" x2="1199" y1="349.9219" y2="349.9219"/><text fill="#000000" font-family="sans-serif" font-size="13" lengthAdjust="spacing" textLength="349" x="844" y="344.856">'{...command:"command_completed",retvalue=true}'</text><polygon fill="#A80036" points="468,375.0547,458,379.0547,468,383.0547,464,379.0547" style="stroke:#A80036;stroke-width:1.0;"/><line style="stroke:#A80036;stroke-width:1.0;" x1="462" x2="826" y1="379.0547" y2="379.0547"/><text fill="#000000" font-family="sans-serif" font-size="13" lengthAdjust="spacing" textLength="346" x="474" y="373.9888">{...command:"command_completed",retvalue=True}</text><polygon fill="#A80036" points="344,404.1875,334,408.1875,344,412.1875,340,408.1875" style="stroke:#A80036;stroke-width:1.0;"/><line style="stroke:#A80036;stroke-width:1.0;" x1="338" x2="456" y1="408.1875" y2="408.1875"/><text fill="#000000" font-family="sans-serif" font-size="13" lengthAdjust="spacing" textLength="29" x="350" y="403.1216">True</text><polygon fill="#A80036" points="445,433.3203,455,437.3203,445,441.3203,449,437.3203" style="stroke:#A80036;stroke-width:1.0;"/><line style="stroke:#A80036;stroke-width:1.0;" x1="333" x2="451" y1="437.3203" y2="437.3203"/><text fill="#000000" font-family="sans-serif" font-size="13" lengthAdjust="spacing" textLength="94" x="340" y="432.2544">are_tpms_on()</text><polygon fill="#A80036" points="815,462.4531,825,466.4531,815,470.4531,819,466.4531" style="stroke:#A80036;stroke-width:1.0;"/><line style="stroke:#A80036;stroke-width:1.0;" x1="457" x2="821" y1="466.4531" y2="466.4531"/><text fill="#000000" font-family="sans-serif" font-size="13" lengthAdjust="spacing" textLength="195" x="464" y="461.3872">read_attribute("are_tpms_on")</text><polygon fill="#A80036" points="1188,491.5859,1198,495.5859,1188,499.5859,1192,495.5859" style="stroke:#A80036;stroke-width:1.0;"/><line style="stroke:#A80036;stroke-width:1.0;" x1="827" x2="1194" y1="495.5859" y2="495.5859"/><text fill="#000000" font-family="sans-serif" font-size="13" lengthAdjust="spacing" textLength="286" x="834" y="490.52">'...?type=getattribute&amp;param=are_tpms_on'</text><polygon fill="#A80036" points="838,520.7188,828,524.7188,838,528.7188,834,524.7188" style="stroke:#A80036;stroke-width:1.0;"/><line style="stroke:#A80036;stroke-width:1.0;" x1="832" x2="1199" y1="524.7188" y2="524.7188"/><text fill="#000000" font-family="sans-serif" font-size="13" lengthAdjust="spacing" textLength="295" x="844" y="519.6528">'{...attribute:"are_tpms_on",value=[true, ...]}'</text><polygon fill="#A80036" points="468,549.8516,458,553.8516,468,557.8516,464,553.8516" style="stroke:#A80036;stroke-width:1.0;"/><line style="stroke:#A80036;stroke-width:1.0;" x1="462" x2="826" y1="553.8516" y2="553.8516"/><text fill="#000000" font-family="sans-serif" font-size="13" lengthAdjust="spacing" textLength="294" x="474" y="548.7856">{...attribute:"tpm_currents",value=[True, ...]}</text><polygon fill="#A80036" points="344,578.9844,334,582.9844,344,586.9844,340,582.9844" style="stroke:#A80036;stroke-width:1.0;"/><line style="stroke:#A80036;stroke-width:1.0;" x1="338" x2="456" y1="582.9844" y2="582.9844"/><text fill="#000000" font-family="sans-serif" font-size="13" lengthAdjust="spacing" textLength="59" x="350" y="577.9185">[True, ...]</text><polygon fill="#A80036" points="38,608.1172,28,612.1172,38,616.1172,34,612.1172" style="stroke:#A80036;stroke-width:1.0;"/><line style="stroke:#A80036;stroke-width:1.0;" x1="32" x2="456" y1="612.1172" y2="612.1172"/><text fill="#000000" font-family="sans-serif" font-size="13" lengthAdjust="spacing" textLength="176" x="44" y="607.0513">_subrack_power_changed()</text><polygon fill="#A80036" points="108,637.25,98,641.25,108,645.25,104,641.25" style="stroke:#A80036;stroke-width:1.0;"/><line style="stroke:#A80036;stroke-width:1.0;" x1="102" x2="332" y1="641.25" y2="641.25"/><text fill="#000000" font-family="sans-serif" font-size="13" lengthAdjust="spacing" textLength="29" x="114" y="636.1841">True</text><!--MD5=[4f8f69293976ae122244624677e304c7]
@startuml
participant "Tile" as Tile
participant "Initiator" as Initiator
participant "Subrack\nDevice" as Subrack_dv
participant "Subrack\nDriver" as Subrack_drv
participant "Hardware\nServer" as Hw_server
participant "Subrack\nServer" as Subrack

Tile -> Subrack_dv: subscribe_event()
Initiator -> Subrack_dv: command_inout("TurnOnTpm",1)
Subrack_dv -> Subrack_drv: turn_on_tpm(1)
Subrack_drv -> Hw_server: execute_command("turn_on_tpm",1)
Hw_server -> Subrack: '...?type=command&param=turn_on_tpm&value=1'
Subrack -> Hw_server: '{...command:"turn_on_tpm",status=STARTED}'
Hw_server -> Subrack_drv: {...command:"turn_on_tpm",status=STARTED]}
Subrack_drv -> Hw_server: execute_command("command_completed")
Hw_server -> Subrack: '...?type=command&param=command_completed'
Subrack -> Hw_server: '{...command:"command_completed",retvalue=true}'
Hw_server -> Subrack_drv: {...command:"command_completed",retvalue=True}
Subrack_drv -> Subrack_dv: True
Subrack_dv -> Subrack_drv: are_tpms_on()
Subrack_drv -> Hw_server: read_attribute("are_tpms_on")
Hw_server -> Subrack: '...?type=getattribute&param=are_tpms_on'
Subrack -> Hw_server: '{...attribute:"are_tpms_on",value=[true, ...]}'
Hw_server -> Subrack_drv: {...attribute:"tpm_currents",value=[True, ...]}
Subrack_drv -> Subrack_dv: [True, ...]
Subrack_drv -> Tile: _subrack_power_changed()
Subrack_dv -> Initiator: True
@enduml

PlantUML version 1.2021.4(Sun Apr 04 08:49:39 UTC 2021)
(GPL source distribution)
Java Runtime: Java(TM) SE Runtime Environment
JVM: Java HotSpot(TM) 64-Bit Server VM
Default Encoding: UTF-8
Language: en
Country: US
--></g></svg>