<?xml version="1.0" encoding="UTF-8" standalone="no"?><svg xmlns="http://www.w3.org/2000/svg" xmlns:xlink="http://www.w3.org/1999/xlink" contentScriptType="application/ecmascript" contentStyleType="text/css" height="666px" preserveAspectRatio="none" style="width:1406px;height:666px;" version="1.1" viewBox="0 0 1406 666" width="1406px" zoomAndPan="magnify"><defs><filter height="300%" id="f64ux0jteldw9" width="300%" x="-1" y="-1"><feGaussianBlur result="blurOut" stdDeviation="2.0"/><feColorMatrix in="blurOut" result="blurOut2" type="matrix" values="0 0 0 0 0 0 0 0 0 0 0 0 0 0 0 0 0 0 .4 0"/><feOffset dx="4.0" dy="4.0" in="blurOut2" result="blurOut3"/><feBlend in="SourceGraphic" in2="blurOut3" mode="normal"/></filter></defs><g><line style="stroke:#A80036;stroke-width:1.0;stroke-dasharray:5.0,5.0;" x1="60" x2="60" y1="72.8906" y2="590.3516"/><line style="stroke:#A80036;stroke-width:1.0;stroke-dasharray:5.0,5.0;" x1="171" x2="171" y1="72.8906" y2="590.3516"/><line style="stroke:#A80036;stroke-width:1.0;stroke-dasharray:5.0,5.0;" x1="480" x2="480" y1="72.8906" y2="590.3516"/><line style="stroke:#A80036;stroke-width:1.0;stroke-dasharray:5.0,5.0;" x1="697" x2="697" y1="72.8906" y2="590.3516"/><line style="stroke:#A80036;stroke-width:1.0;stroke-dasharray:5.0,5.0;" x1="962.5" x2="962.5" y1="72.8906" y2="590.3516"/><line style="stroke:#A80036;stroke-width:1.0;stroke-dasharray:5.0,5.0;" x1="1171.5" x2="1171.5" y1="72.8906" y2="590.3516"/><line style="stroke:#A80036;stroke-width:1.0;stroke-dasharray:5.0,5.0;" x1="1353" x2="1353" y1="72.8906" y2="590.3516"/><rect fill="#FEFECE" filter="url(#f64ux0jteldw9)" height="46.5938" style="stroke:#A80036;stroke-width:1.5;" width="107" x="5" y="21.2969"/><text fill="#000000" font-family="sans-serif" font-size="14" lengthAdjust="spacing" textLength="93" x="12" y="41.292">Construction</text><text fill="#000000" font-family="sans-serif" font-size="14" lengthAdjust="spacing" textLength="58" x="29.5" y="57.5889">Initiator</text><rect fill="#FEFECE" filter="url(#f64ux0jteldw9)" height="46.5938" style="stroke:#A80036;stroke-width:1.5;" width="107" x="5" y="589.3516"/><text fill="#000000" font-family="sans-serif" font-size="14" lengthAdjust="spacing" textLength="93" x="12" y="609.3467">Construction</text><text fill="#000000" font-family="sans-serif" font-size="14" lengthAdjust="spacing" textLength="58" x="29.5" y="625.6436">Initiator</text><rect fill="#FEFECE" filter="url(#f64ux0jteldw9)" height="62.8906" style="stroke:#A80036;stroke-width:1.5;" width="87" x="126" y="5"/><text fill="#000000" font-family="sans-serif" font-size="14" lengthAdjust="spacing" textLength="65" x="137" y="24.9951">Tile's Init</text><text fill="#000000" font-family="sans-serif" font-size="14" lengthAdjust="spacing" textLength="73" x="133" y="41.292">Command</text><text fill="#000000" font-family="sans-serif" font-size="14" lengthAdjust="spacing" textLength="36" x="151.5" y="57.5889">Class</text><rect fill="#FEFECE" filter="url(#f64ux0jteldw9)" height="62.8906" style="stroke:#A80036;stroke-width:1.5;" width="87" x="126" y="589.3516"/><text fill="#000000" font-family="sans-serif" font-size="14" lengthAdjust="spacing" textLength="65" x="137" y="609.3467">Tile's Init</text><text fill="#000000" font-family="sans-serif" font-size="14" lengthAdjust="spacing" textLength="73" x="133" y="625.6436">Command</text><text fill="#000000" font-family="sans-serif" font-size="14" lengthAdjust="spacing" textLength="36" x="151.5" y="641.9404">Class</text><rect fill="#FEFECE" filter="url(#f64ux0jteldw9)" height="62.8906" style="stroke:#A80036;stroke-width:1.5;" width="81" x="438" y="5"/><text fill="#000000" font-family="sans-serif" font-size="14" lengthAdjust="spacing" textLength="26" x="465.5" y="24.9951">Tile</text><text fill="#000000" font-family="sans-serif" font-size="14" lengthAdjust="spacing" textLength="67" x="445" y="41.292">Hardware</text><text fill="#000000" font-family="sans-serif" font-size="14" lengthAdjust="spacing" textLength="61" x="448" y="57.5889">Manager</text><rect fill="#FEFECE" filter="url(#f64ux0jteldw9)" height="62.8906" style="stroke:#A80036;stroke-width:1.5;" width="81" x="438" y="589.3516"/><text fill="#000000" font-family="sans-serif" font-size="14" lengthAdjust="spacing" textLength="26" x="465.5" y="609.3467">Tile</text><text fill="#000000" font-family="sans-serif" font-size="14" lengthAdjust="spacing" textLength="67" x="445" y="625.6436">Hardware</text><text fill="#000000" font-family="sans-serif" font-size="14" lengthAdjust="spacing" textLength="61" x="448" y="641.9404">Manager</text><rect fill="#FEFECE" filter="url(#f64ux0jteldw9)" height="62.8906" style="stroke:#A80036;stroke-width:1.5;" width="81" x="655" y="5"/><text fill="#000000" font-family="sans-serif" font-size="14" lengthAdjust="spacing" textLength="26" x="682.5" y="24.9951">Tile</text><text fill="#000000" font-family="sans-serif" font-size="14" lengthAdjust="spacing" textLength="67" x="662" y="41.292">Hardware</text><text fill="#000000" font-family="sans-serif" font-size="14" lengthAdjust="spacing" textLength="54" x="668.5" y="57.5889">Factory</text><rect fill="#FEFECE" filter="url(#f64ux0jteldw9)" height="62.8906" style="stroke:#A80036;stroke-width:1.5;" width="81" x="655" y="589.3516"/><text fill="#000000" font-family="sans-serif" font-size="14" lengthAdjust="spacing" textLength="26" x="682.5" y="609.3467">Tile</text><text fill="#000000" font-family="sans-serif" font-size="14" lengthAdjust="spacing" textLength="67" x="662" y="625.6436">Hardware</text><text fill="#000000" font-family="sans-serif" font-size="14" lengthAdjust="spacing" textLength="54" x="668.5" y="641.9404">Factory</text><rect fill="#FEFECE" filter="url(#f64ux0jteldw9)" height="62.8906" style="stroke:#A80036;stroke-width:1.5;" width="84" x="918.5" y="5"/><text fill="#000000" font-family="sans-serif" font-size="14" lengthAdjust="spacing" textLength="70" x="925.5" y="24.9951">Simulable</text><text fill="#000000" font-family="sans-serif" font-size="14" lengthAdjust="spacing" textLength="67" x="927" y="41.292">Hardware</text><text fill="#000000" font-family="sans-serif" font-size="14" lengthAdjust="spacing" textLength="54" x="933.5" y="57.5889">Factory</text><rect fill="#FEFECE" filter="url(#f64ux0jteldw9)" height="62.8906" style="stroke:#A80036;stroke-width:1.5;" width="84" x="918.5" y="589.3516"/><text fill="#000000" font-family="sans-serif" font-size="14" lengthAdjust="spacing" textLength="70" x="925.5" y="609.3467">Simulable</text><text fill="#000000" font-family="sans-serif" font-size="14" lengthAdjust="spacing" textLength="67" x="927" y="625.6436">Hardware</text><text fill="#000000" font-family="sans-serif" font-size="14" lengthAdjust="spacing" textLength="54" x="933.5" y="641.9404">Factory</text><rect fill="#FEFECE" filter="url(#f64ux0jteldw9)" height="46.5938" style="stroke:#A80036;stroke-width:1.5;" width="58" x="1140.5" y="21.2969"/><text fill="#000000" font-family="sans-serif" font-size="14" lengthAdjust="spacing" textLength="30" x="1154.5" y="41.292">TPM</text><text fill="#000000" font-family="sans-serif" font-size="14" lengthAdjust="spacing" textLength="44" x="1147.5" y="57.5889">Driver</text><rect fill="#FEFECE" filter="url(#f64ux0jteldw9)" height="46.5938" style="stroke:#A80036;stroke-width:1.5;" width="58" x="1140.5" y="589.3516"/><text fill="#000000" font-family="sans-serif" font-size="14" lengthAdjust="spacing" textLength="30" x="1154.5" y="609.3467">TPM</text><text fill="#000000" font-family="sans-serif" font-size="14" lengthAdjust="spacing" textLength="44" x="1147.5" y="625.6436">Driver</text><rect fill="#FEFECE" filter="url(#f64ux0jteldw9)" height="46.5938" style="stroke:#A80036;stroke-width:1.5;" width="81" x="1311" y="21.2969"/><text fill="#000000" font-family="sans-serif" font-size="14" lengthAdjust="spacing" textLength="67" x="1318" y="41.292">Hardware</text><text fill="#000000" font-family="sans-serif" font-size="14" lengthAdjust="spacing" textLength="26" x="1338.5" y="57.5889">Tile</text><rect fill="#FEFECE" filter="url(#f64ux0jteldw9)" height="46.5938" style="stroke:#A80036;stroke-width:1.5;" width="81" x="1311" y="589.3516"/><text fill="#000000" font-family="sans-serif" font-size="14" lengthAdjust="spacing" textLength="67" x="1318" y="609.3467">Hardware</text><text fill="#000000" font-family="sans-serif" font-size="14" lengthAdjust="spacing" textLength="26" x="1338.5" y="625.6436">Tile</text><polygon fill="#A80036" points="159.5,100.0234,169.5,104.0234,159.5,108.0234,163.5,104.0234" style="stroke:#A80036;stroke-width:1.0;"/><line style="stroke:#A80036;stroke-width:1.0;" x1="60.5" x2="165.5" y1="104.0234" y2="104.0234"/><text fill="#000000" font-family="sans-serif" font-size="13" lengthAdjust="spacing" textLength="29" x="67.5" y="98.9575">Init()</text><line style="stroke:#A80036;stroke-width:1.0;" x1="171.5" x2="213.5" y1="133.1563" y2="133.1563"/><line style="stroke:#A80036;stroke-width:1.0;" x1="213.5" x2="213.5" y1="133.1563" y2="146.1563"/><line style="stroke:#A80036;stroke-width:1.0;" x1="172.5" x2="213.5" y1="146.1563" y2="146.1563"/><polygon fill="#A80036" points="182.5,142.1563,172.5,146.1563,182.5,150.1563,178.5,146.1563" style="stroke:#A80036;stroke-width:1.0;"/><text fill="#000000" font-family="sans-serif" font-size="13" lengthAdjust="spacing" textLength="222" x="178.5" y="128.0903">do(): device = self.target (the Tile)</text><line style="stroke:#A80036;stroke-width:1.0;" x1="171.5" x2="213.5" y1="175.2891" y2="175.2891"/><line style="stroke:#A80036;stroke-width:1.0;" x1="213.5" x2="213.5" y1="175.2891" y2="188.2891"/><line style="stroke:#A80036;stroke-width:1.0;" x1="172.5" x2="213.5" y1="188.2891" y2="188.2891"/><polygon fill="#A80036" points="182.5,184.2891,172.5,188.2891,182.5,192.2891,178.5,188.2891" style="stroke:#A80036;stroke-width:1.0;"/><text fill="#000000" font-family="sans-serif" font-size="13" lengthAdjust="spacing" textLength="194" x="178.5" y="170.2231">_initialise_connections(device)</text><line style="stroke:#A80036;stroke-width:1.0;" x1="171.5" x2="213.5" y1="217.4219" y2="217.4219"/><line style="stroke:#A80036;stroke-width:1.0;" x1="213.5" x2="213.5" y1="217.4219" y2="230.4219"/><line style="stroke:#A80036;stroke-width:1.0;" x1="172.5" x2="213.5" y1="230.4219" y2="230.4219"/><polygon fill="#A80036" points="182.5,226.4219,172.5,230.4219,182.5,234.4219,178.5,230.4219" style="stroke:#A80036;stroke-width:1.0;"/><text fill="#000000" font-family="sans-serif" font-size="13" lengthAdjust="spacing" textLength="272" x="178.5" y="212.356">_initialise_hardware_management(device)</text><polygon fill="#A80036" points="468.5,255.5547,478.5,259.5547,468.5,263.5547,472.5,259.5547" style="stroke:#A80036;stroke-width:1.0;"/><line style="stroke:#A80036;stroke-width:1.0;" x1="171.5" x2="474.5" y1="259.5547" y2="259.5547"/><text fill="#000000" font-family="sans-serif" font-size="13" lengthAdjust="spacing" text-decoration="underline" textLength="19" x="178.5" y="254.4888">init</text><text fill="#000000" font-family="sans-serif" font-size="13" lengthAdjust="spacing" textLength="266" x="197.5" y="254.4888">(..., device.tpm_ip, device.tpm_cpld_port)</text><polygon fill="#A80036" points="685.5,284.6875,695.5,288.6875,685.5,292.6875,689.5,288.6875" style="stroke:#A80036;stroke-width:1.0;"/><line style="stroke:#A80036;stroke-width:1.0;" x1="480.5" x2="691.5" y1="288.6875" y2="288.6875"/><text fill="#000000" font-family="sans-serif" font-size="13" lengthAdjust="spacing" text-decoration="underline" textLength="19" x="487.5" y="283.6216">init</text><text fill="#000000" font-family="sans-serif" font-size="13" lengthAdjust="spacing" textLength="174" x="506.5" y="283.6216">(..., tpm_ip, tpm_cpld_port)</text><polygon fill="#A80036" points="950.5,313.8203,960.5,317.8203,950.5,321.8203,954.5,317.8203" style="stroke:#A80036;stroke-width:1.0;"/><line style="stroke:#A80036;stroke-width:1.0;" x1="697.5" x2="956.5" y1="317.8203" y2="317.8203"/><text fill="#000000" font-family="sans-serif" font-size="13" lengthAdjust="spacing" text-decoration="underline" textLength="19" x="704.5" y="312.7544">init</text><text fill="#000000" font-family="sans-serif" font-size="13" lengthAdjust="spacing" textLength="10" x="723.5" y="312.7544">()</text><line style="stroke:#A80036;stroke-width:1.0;" x1="962.5" x2="1004.5" y1="346.9531" y2="346.9531"/><line style="stroke:#A80036;stroke-width:1.0;" x1="1004.5" x2="1004.5" y1="346.9531" y2="359.9531"/><line style="stroke:#A80036;stroke-width:1.0;" x1="963.5" x2="1004.5" y1="359.9531" y2="359.9531"/><polygon fill="#A80036" points="973.5,355.9531,963.5,359.9531,973.5,363.9531,969.5,359.9531" style="stroke:#A80036;stroke-width:1.0;"/><text fill="#000000" font-family="sans-serif" font-size="13" lengthAdjust="spacing" textLength="195" x="969.5" y="341.8872">self._hardware = _get_driver()</text><polygon fill="#A80036" points="708.5,385.0859,698.5,389.0859,708.5,393.0859,704.5,389.0859" style="stroke:#A80036;stroke-width:1.0;"/><line style="stroke:#A80036;stroke-width:1.0;" x1="702.5" x2="961.5" y1="389.0859" y2="389.0859"/><text fill="#000000" font-family="sans-serif" font-size="13" lengthAdjust="spacing" textLength="241" x="714.5" y="384.02">self._simulator = self._create_driver()</text><polygon fill="#A80036" points="1159.5,414.2188,1169.5,418.2188,1159.5,422.2188,1163.5,418.2188" style="stroke:#A80036;stroke-width:1.0;"/><line style="stroke:#A80036;stroke-width:1.0;" x1="697.5" x2="1165.5" y1="418.2188" y2="418.2188"/><text fill="#000000" font-family="sans-serif" font-size="13" lengthAdjust="spacing" text-decoration="underline" textLength="19" x="704.5" y="413.1528">init</text><text fill="#000000" font-family="sans-serif" font-size="13" lengthAdjust="spacing" textLength="174" x="723.5" y="413.1528">(..., tpm_ip, tpm_cpld_port)</text><polygon fill="#A80036" points="1341.5,443.3516,1351.5,447.3516,1341.5,451.3516,1345.5,447.3516" style="stroke:#A80036;stroke-width:1.0;"/><line style="stroke:#A80036;stroke-width:1.0;" x1="1171.5" x2="1347.5" y1="447.3516" y2="447.3516"/><text fill="#000000" font-family="sans-serif" font-size="13" lengthAdjust="spacing" textLength="60" x="1178.5" y="442.2856">self.tile =</text><text fill="#000000" font-family="sans-serif" font-size="13" lengthAdjust="spacing" text-decoration="underline" textLength="19" x="1242.5" y="442.2856">init</text><text fill="#000000" font-family="sans-serif" font-size="13" lengthAdjust="spacing" textLength="75" x="1261.5" y="442.2856">(ip, port, ...)</text><polygon fill="#A80036" points="1182.5,457.3516,1172.5,461.3516,1182.5,465.3516,1178.5,461.3516" style="stroke:#A80036;stroke-width:1.0;"/><line style="stroke:#A80036;stroke-width:1.0;stroke-dasharray:2.0,2.0;" x1="1176.5" x2="1352.5" y1="461.3516" y2="461.3516"/><polygon fill="#A80036" points="708.5,471.3516,698.5,475.3516,708.5,479.3516,704.5,475.3516" style="stroke:#A80036;stroke-width:1.0;"/><line style="stroke:#A80036;stroke-width:1.0;stroke-dasharray:2.0,2.0;" x1="702.5" x2="1170.5" y1="475.3516" y2="475.3516"/><polygon fill="#A80036" points="950.5,485.3516,960.5,489.3516,950.5,493.3516,954.5,489.3516" style="stroke:#A80036;stroke-width:1.0;"/><line style="stroke:#A80036;stroke-width:1.0;stroke-dasharray:2.0,2.0;" x1="697.5" x2="956.5" y1="489.3516" y2="489.3516"/><line style="stroke:#A80036;stroke-width:1.0;stroke-dasharray:2.0,2.0;" x1="962.5" x2="1004.5" y1="503.3516" y2="503.3516"/><line style="stroke:#A80036;stroke-width:1.0;stroke-dasharray:2.0,2.0;" x1="1004.5" x2="1004.5" y1="503.3516" y2="516.3516"/><line style="stroke:#A80036;stroke-width:1.0;stroke-dasharray:2.0,2.0;" x1="963.5" x2="1004.5" y1="516.3516" y2="516.3516"/><polygon fill="#A80036" points="973.5,512.3516,963.5,516.3516,973.5,520.3516,969.5,516.3516" style="stroke:#A80036;stroke-width:1.0;"/><polygon fill="#A80036" points="708.5,526.3516,698.5,530.3516,708.5,534.3516,704.5,530.3516" style="stroke:#A80036;stroke-width:1.0;"/><line style="stroke:#A80036;stroke-width:1.0;stroke-dasharray:2.0,2.0;" x1="702.5" x2="961.5" y1="530.3516" y2="530.3516"/><polygon fill="#A80036" points="491.5,540.3516,481.5,544.3516,491.5,548.3516,487.5,544.3516" style="stroke:#A80036;stroke-width:1.0;"/><line style="stroke:#A80036;stroke-width:1.0;stroke-dasharray:2.0,2.0;" x1="485.5" x2="696.5" y1="544.3516" y2="544.3516"/><polygon fill="#A80036" points="182.5,554.3516,172.5,558.3516,182.5,562.3516,178.5,558.3516" style="stroke:#A80036;stroke-width:1.0;"/><line style="stroke:#A80036;stroke-width:1.0;stroke-dasharray:2.0,2.0;" x1="176.5" x2="479.5" y1="558.3516" y2="558.3516"/><polygon fill="#A80036" points="71.5,568.3516,61.5,572.3516,71.5,576.3516,67.5,572.3516" style="stroke:#A80036;stroke-width:1.0;"/><line style="stroke:#A80036;stroke-width:1.0;stroke-dasharray:2.0,2.0;" x1="65.5" x2="170.5" y1="572.3516" y2="572.3516"/><!--MD5=[a9cc38bad3526976fa6366835b79a516]
@startuml
participant "Construction\nInitiator" as Constructor
participant "Tile's Init\nCommand\nClass" as Init_cmd
participant "Tile\nHardware\nManager" as Tile_HW_Man
participant "Tile\nHardware\nFactory" as Tile_HW_Factory
participant "Simulable\nHardware\nFactory" as Sim_HW_Factory
participant "TPM\nDriver" as TPM_Drv
participant "Hardware\nTile" as HW_Tile

Constructor -> Init_cmd: Init()
Init_cmd -> Init_cmd: do(): device = self.target (the Tile)
Init_cmd -> Init_cmd: _initialise_connections(device)
Init_cmd -> Init_cmd: _initialise_hardware_management(device)
Init_cmd -> Tile_HW_Man: __init__(..., device.tpm_ip, device.tpm_cpld_port)
Tile_HW_Man -> Tile_HW_Factory: __init__(..., tpm_ip, tpm_cpld_port)
Tile_HW_Factory -> Sim_HW_Factory: __init__()
Sim_HW_Factory -> Sim_HW_Factory: self._hardware = _get_driver()
Sim_HW_Factory -> Tile_HW_Factory: self._simulator = self._create_driver()
Tile_HW_Factory -> TPM_Drv: __init__(..., tpm_ip, tpm_cpld_port)
TPM_Drv -> HW_Tile: self.tile = __init__(ip, port, ...)
TPM_Drv <- - HW_Tile:
Tile_HW_Factory <- - TPM_Drv:
Sim_HW_Factory <- - Tile_HW_Factory:
Sim_HW_Factory <- - Sim_HW_Factory:
Tile_HW_Factory <- - Sim_HW_Factory:
Tile_HW_Man <- - Tile_HW_Factory:
Init_cmd <- - Tile_HW_Man:
Constructor <- - Init_cmd:
@enduml

PlantUML version 1.2021.2beta5(Unknown compile time)
(GPL source distribution)
Java Runtime: Java(TM) SE Runtime Environment
JVM: Java HotSpot(TM) 64-Bit Server VM
Default Encoding: UTF-8
Language: en
Country: US
--></g></svg>